<svg width="1100" height="750" viewBox="0 0 1100 750" fill="none" xmlns="http://www.w3.org/2000/svg">
<g clip-path="url(#clip0)">
<path d="M416.449 714.609C416.449 734.151 324.725 750 211.575 750C98.4255 750 6.70142 734.151 6.70142 714.609C6.70142 709.721 12.4264 705.072 22.785 700.844C52.9416 688.514 122.379 679.752 203.993 679.245C206.511 679.226 209.038 679.217 211.575 679.217C324.725 679.217 416.449 695.067 416.449 714.609Z" fill="#453730"/>
<path opacity="0.1" d="M203.993 679.245C194.813 694.199 182.363 706.882 167.578 716.343C152.793 725.805 136.056 731.799 118.622 733.877C101.188 735.955 83.5098 734.063 66.9121 728.342C50.3143 722.621 35.2282 713.22 22.7849 700.844C52.9416 688.514 122.378 679.752 203.993 679.245Z" fill="#453730"/>
<path d="M107.224 715.565C166.442 715.565 214.447 664.174 214.447 600.78C214.447 537.387 166.442 485.996 107.224 485.996C48.0057 485.996 0 537.387 0 600.78C0 664.174 48.0057 715.565 107.224 715.565Z" fill="#453730"/>
<path d="M238.79 79.7148C253.993 138.233 303.037 176.055 348.443 164.279Z" fill="#8DC63F"/>
<path d="M348.443 164.279C333.07 105.104 361.632 46.586 412.303 33.4443Z" fill="#FF4F00"/>
<path d="M269.932 77.2998C284.373 132.885 319.488 171.788 348.443 164.278Z" fill="#FF4F00"/>
<path d="M348.443 164.279C328.799 88.6659 360.296 15.1897 418.864 0Z" fill="#8DC63F"/>
<path d="M331.355 169.507C331.355 169.507 342.912 166.127 345.774 162.719C348.636 159.31 362.271 152.59 364.183 156.37C366.095 160.151 386.867 171.755 373.742 175.272C360.617 178.79 342.649 181.151 338.59 179.928C334.532 178.704 331.355 169.507 331.355 169.507Z" fill="#A8A8A8"/>
<path opacity="0.2" d="M373.614 173.817C360.489 177.335 342.521 179.696 338.463 178.473C335.372 177.54 332.795 171.988 331.74 169.392C331.497 169.466 331.355 169.508 331.355 169.508C331.355 169.508 334.532 178.704 338.59 179.928C342.649 181.152 360.617 178.79 373.742 175.273C377.531 174.257 378.492 172.568 377.9 170.587C377.687 171.932 376.434 173.062 373.614 173.817Z" fill="#453730"/>
<path d="M1100 120.6H328.373V567.302H1100V120.6Z" fill="#F2F2F2"/>
<path opacity="0.3" d="M769.713 256.188H346.562V477.627H769.713V256.188Z" fill="#DDB6A4"/>
<path d="M971.983 246.535H802.263V255.916H971.983V246.535Z" fill="#453730"/>
<path d="M1049.26 263.854H802.263V273.234H1049.26V263.854Z" fill="#453730"/>
<path d="M971.983 305.706H802.263V315.087H971.983V305.706Z" fill="#453730"/>
<path d="M971.983 374.979H802.263V384.36H971.983V374.979Z" fill="#453730"/>
<path d="M1049.26 323.024H802.263V332.405H1049.26V323.024Z" fill="#453730"/>
<path d="M1049.26 340.343H802.263V349.724H1049.26V340.343Z" fill="#453730"/>
<path d="M1049.26 357.661H802.263V367.042H1049.26V357.661Z" fill="#453730"/>
<path d="M891.095 416.832H802.263V441.366H891.095V416.832Z" fill="#FF4F00"/>
<path d="M301.076 390.184C301.076 390.184 317.022 345.041 328.539 359.203C340.056 373.366 310.821 397.265 310.821 397.265L301.076 390.184Z" fill="#A0616A"/>
<path d="M225.773 345.926L235.366 349.478C235.366 349.478 239.948 369.825 238.176 373.366C236.404 376.906 235.518 374.251 238.176 381.332C240.834 388.414 248.807 407.002 249.693 409.657C250.579 412.313 301.076 392.839 301.076 383.103C301.076 383.103 311.707 395.495 317.023 398.15C317.023 398.15 258.552 440.638 250.579 445.949C242.605 451.26 238.176 448.605 231.088 442.408C224.001 436.212 193.88 384.873 193.88 384.873L225.773 345.926Z" fill="#FF4F00"/>
<path d="M251.464 660.159C251.464 660.159 250.579 669.896 248.807 670.781C247.035 671.666 233.746 693.795 248.807 698.221C263.867 702.646 272.726 700.876 276.27 702.647C279.814 704.417 341.828 707.957 342.714 698.221C343.6 688.484 312.593 686.714 312.593 686.714C312.593 686.714 284.243 668.125 279.814 658.388C275.384 648.652 251.464 660.159 251.464 660.159Z" fill="#F05223"/>
<path d="M71.6229 677.861C71.6229 677.861 50.3608 714.153 55.6763 718.579C60.9919 723.005 112.759 739.133 120.348 739.823C130.094 740.708 137.181 732.741 129.208 728.316C121.234 723.89 104.402 705.301 104.402 699.105V683.172L71.6229 677.861Z" fill="#F05223"/>
<path d="M51.2469 440.639C51.2469 440.639 32.6426 463.653 61.8779 500.83L110.603 562.791C110.603 562.791 80.4822 610.59 79.5963 635.374C78.7104 660.159 72.5089 654.848 70.7371 665.47C68.9653 676.092 60.992 670.781 67.1934 678.747C73.3949 686.714 96.4288 693.795 103.516 687.599C110.603 681.403 110.603 673.436 110.603 669.896C110.603 666.355 123.006 645.996 123.892 639.8C124.778 633.604 157.557 583.15 157.557 583.15C157.557 583.15 168.188 553.054 155.785 536.236C143.382 519.418 135.187 495.565 135.187 495.565C135.187 495.565 171.732 539.777 197.424 550.399C197.424 550.399 207.169 552.169 205.397 556.595C203.625 561.021 205.397 563.676 208.055 568.102C210.712 572.528 229.317 623.867 235.518 637.145C241.719 650.422 239.062 658.388 246.149 662.814C253.236 667.24 285.13 663.699 285.13 659.274C285.13 654.848 280.7 643.341 278.042 637.145C275.384 630.948 254.122 559.25 255.894 546.858C257.666 534.466 255.008 517.648 241.719 510.566C228.431 503.485 161.101 445.95 157.557 445.95C154.014 445.95 51.2469 440.639 51.2469 440.639Z" fill="#8DC63F"/>
<path d="M229.317 301.668C249.866 301.668 266.525 285.023 266.525 264.491C266.525 243.959 249.866 227.314 229.317 227.314C208.767 227.314 192.108 243.959 192.108 264.491C192.108 285.023 208.767 301.668 229.317 301.668Z" fill="#A0616A"/>
<path d="M199.195 268.031C199.195 268.031 187.678 288.39 173.504 291.046C159.329 293.701 210.712 334.418 210.712 334.418C210.712 334.418 223.115 295.471 233.746 293.701C244.377 291.931 199.195 268.031 199.195 268.031Z" fill="#A0616A"/>
<path d="M235.518 351.237C235.518 362.744 200.967 395.495 200.967 395.495L168.188 422.935C168.188 422.935 167.302 432.672 163.759 433.557C160.215 434.443 155.785 434.443 159.329 439.753C162.873 445.064 171.732 456.572 163.759 458.342C161.355 458.707 158.932 458.938 156.503 459.032C154.377 459.156 151.878 459.271 149.07 459.377C142.514 459.608 134.311 459.758 125.425 459.696C122.9 459.687 120.331 459.658 117.717 459.608C84.2208 458.944 45.4175 455.093 48.5891 442.409C53.9046 421.165 50.361 414.084 61.8779 402.577C73.3948 391.07 91.9991 351.237 91.9991 351.237C91.9991 351.237 129.208 288.391 160.215 288.391L166.656 286.7C169.648 285.912 172.813 286.085 175.702 287.194C178.591 288.303 181.057 290.292 182.753 292.879C188.972 302.341 198.779 316.557 204.511 321.142C213.37 328.223 214.752 323.142 214.752 323.142C214.752 323.142 235.518 339.73 235.518 351.237Z" fill="#FF4F00"/>
<path d="M156.671 485.781C156.671 485.781 182.363 525.613 166.416 532.695C150.47 539.776 141.611 491.092 141.611 491.092L156.671 485.781Z" fill="#A0616A"/>
<path d="M204.992 260.292C206.42 260.112 206.871 258.312 207.112 256.894C208.399 249.301 214.062 242.1 221.672 240.874C224.58 240.488 227.538 240.726 230.347 241.573C234.371 242.676 238.149 244.534 241.478 247.047C243.236 248.375 244.927 249.917 247.041 250.537C248.437 250.947 254.365 253.58 255.75 254.026C258.796 255.005 261.316 258.19 264.452 257.56C267.453 256.956 268.593 253.336 269.075 250.316C270.174 243.436 266.232 233.17 262.314 227.407C259.34 223.034 254.307 220.517 249.276 218.879C243.381 217.092 237.325 215.889 231.194 215.289C222.918 214.313 214.346 213.795 206.414 216.351C198.483 218.907 191.261 225.159 189.78 233.354C189.472 235.061 189.414 236.809 189.036 238.502C188.114 242.632 185.379 246.103 183.784 250.023C182.633 252.901 182.098 255.989 182.215 259.087C182.332 262.184 183.097 265.223 184.461 268.007C186.67 272.446 190.512 276.712 189.683 281.599L196.519 276.213C197.507 275.652 198.272 274.77 198.688 273.713C199.103 272.656 199.143 271.489 198.801 270.407L197.807 261.854C197.625 260.288 197.467 258.598 198.251 257.229C201.289 251.926 202.611 260.592 204.992 260.292Z" fill="#453730"/>
<path opacity="0.1" d="M140.725 424.705L149.07 459.377C140.654 459.678 129.518 459.837 117.717 459.607C114.741 450.685 111.897 441.382 109.717 432.672C101.744 400.806 115.033 352.122 122.12 329.108C129.208 306.094 146.926 299.897 146.926 299.897C146.926 299.897 155.785 302.553 167.302 310.519C178.819 318.486 140.725 424.705 140.725 424.705Z" fill="#453730"/>
<path opacity="0.1" d="M147.812 422.935L156.503 459.031C154.377 459.155 151.878 459.27 149.07 459.377C142.514 459.607 134.311 459.757 125.425 459.695C122.227 450.215 119.135 440.213 116.805 430.901C108.832 399.035 122.12 350.351 129.208 327.337C136.295 304.323 151.799 329.55 151.799 329.55C151.799 329.55 145.597 314.502 157.114 322.469C168.631 330.435 147.812 422.935 147.812 422.935Z" fill="#453730"/>
<path d="M150.47 298.127C150.47 298.127 132.751 304.323 125.664 327.337C118.577 350.352 105.288 399.035 113.261 430.901C121.234 462.767 138.067 502.599 138.067 502.599C138.067 502.599 154.899 490.207 161.101 492.863L144.268 422.935C144.268 422.935 182.363 316.715 170.846 308.749C159.329 300.782 150.47 298.127 150.47 298.127Z" fill="#FF4F00"/>
<path d="M751.523 233.231H328.373V454.67H751.523V233.231Z" fill="#FF4F00"/>
<path d="M547.82 396.215C574.266 396.215 595.705 374.756 595.705 348.285C595.705 321.814 574.266 300.354 547.82 300.354C521.375 300.354 499.936 321.814 499.936 348.285C499.936 374.756 521.375 396.215 547.82 396.215Z" fill="white"/>
<path d="M547.82 292.187C536.502 292.187 525.437 295.54 516.026 301.823C506.615 308.106 499.28 317.036 494.949 327.484C490.617 337.932 489.484 349.429 491.692 360.52C493.9 371.612 499.351 381.8 507.354 389.797C515.358 397.793 525.555 403.239 536.656 405.445C547.757 407.651 559.263 406.519 569.72 402.191C580.177 397.864 589.115 390.535 595.403 381.132C601.691 371.729 605.048 360.674 605.048 349.365C605.003 334.214 598.96 319.696 588.237 308.983C577.515 298.269 562.984 292.231 547.82 292.187V292.187ZM536.072 379.851L506.743 350.547L514.969 342.328L536.1 363.44L580.699 318.879L588.925 327.099L536.072 379.851V379.851Z" fill="#8DC63F"/>
</g>
<defs>
<clipPath id="clip0">
<rect width="1100" height="750" fill="white"/>
</clipPath>
</defs>
</svg>
