<svg width="500" height="500" viewBox="0 0 500 500" fill="none" xmlns="http://www.w3.org/2000/svg">
<path d="M250 446.606C352.518 446.606 435.625 363.499 435.625 260.981C435.625 158.464 352.518 75.3564 250 75.3564C147.482 75.3564 64.375 158.464 64.375 260.981C64.375 363.499 147.482 446.606 250 446.606Z" stroke="#FF4F00" stroke-width="2" stroke-miterlimit="10" stroke-dasharray="12 12"/>
<path d="M250 485.981C374.264 485.981 475 385.246 475 260.981C475 136.717 374.264 35.9814 250 35.9814C125.736 35.9814 25 136.717 25 260.981C25 385.246 125.736 485.981 250 485.981Z" stroke="#FF4F00" stroke-width="2" stroke-miterlimit="10" stroke-dasharray="12 12"/>
<path d="M400.588 332.662C400.591 320.021 395.877 307.834 387.368 298.486C378.859 289.137 367.169 283.3 354.583 282.117C341.998 280.933 329.424 284.488 319.322 292.087C309.219 299.685 302.316 310.78 299.963 323.2L143.969 318.969L145.681 345.769C145.681 345.769 123.437 397.094 240.344 410.769V462.643H375.494V376.394C383.126 371.925 389.457 365.538 393.859 357.866C398.261 350.195 400.58 341.507 400.588 332.662V332.662Z" fill="url(#paint0_linear)"/>
<path d="M151.038 346.893C151.038 346.893 129.738 396.043 241.694 409.156V458.856H371.125V327.237L149.375 321.225L151.038 346.893Z" fill="#BE7C5E"/>
<path d="M215.725 141.788C212.35 147.113 207.005 150.887 200.857 152.284C194.709 153.681 188.258 152.588 182.913 149.244L113.419 103.45C108.093 100.075 104.32 94.73 102.923 88.5819C101.526 82.4338 102.619 75.9827 105.963 70.6377V70.6377C109.337 65.3191 114.678 61.5505 120.82 60.1537C126.962 58.757 133.407 59.8453 138.75 63.1815L208.244 108.975C213.574 112.346 217.352 117.69 218.754 123.838C220.156 129.986 219.067 136.44 215.725 141.788V141.788Z" fill="url(#paint1_linear)"/>
<path d="M211.875 139.287C208.738 144.237 203.769 147.745 198.055 149.044C192.34 150.342 186.343 149.327 181.375 146.219L116.756 103.619C111.806 100.481 108.299 95.5129 107 89.7981C105.701 84.0834 106.717 78.0869 109.825 73.1185V73.1185C112.962 68.1684 117.931 64.6608 123.645 63.3621C129.36 62.0634 135.357 63.0791 140.325 66.1873L204.931 108.762C209.89 111.898 213.405 116.87 214.707 122.591C216.008 128.312 214.99 134.315 211.875 139.287V139.287Z" fill="#BE7C5E"/>
<path d="M346.556 382.944C373.401 382.944 395.163 361.182 395.163 334.338C395.163 307.493 373.401 285.731 346.556 285.731C319.712 285.731 297.95 307.493 297.95 334.338C297.95 361.182 319.712 382.944 346.556 382.944Z" fill="#BE7C5E"/>
<path d="M337.806 13.75H151.606C147.378 13.75 143.95 17.1778 143.95 21.4063V369.819C143.95 374.047 147.378 377.475 151.606 377.475H337.806C342.034 377.475 345.462 374.047 345.462 369.819V21.4063C345.462 17.1778 342.034 13.75 337.806 13.75Z" fill="url(#paint2_linear)"/>
<path d="M334.206 18.6689H155.194C150.486 18.6689 146.669 22.4857 146.669 27.1939V364.044C146.669 368.752 150.486 372.569 155.194 372.569H334.206C338.915 372.569 342.731 368.752 342.731 364.044V27.1939C342.731 22.4857 338.915 18.6689 334.206 18.6689Z" fill="#453730"/>
<path d="M293.956 27.5439C293.389 31.2971 291.497 34.7233 288.623 37.2028C285.75 39.6824 282.083 41.0516 278.287 41.0627H210.575C206.78 41.0501 203.115 39.6802 200.243 37.2008C197.37 34.7214 195.479 31.296 194.912 27.5439H159.037C158.059 27.5431 157.091 27.7351 156.187 28.1088C155.283 28.4825 154.462 29.0307 153.77 29.722C153.078 30.4133 152.529 31.2341 152.155 32.1377C151.78 33.0412 151.587 34.0096 151.587 34.9877V356.238C151.587 357.216 151.779 358.184 152.152 359.088C152.526 359.992 153.074 360.813 153.765 361.505C154.457 362.197 155.278 362.746 156.181 363.12C157.085 363.495 158.053 363.688 159.031 363.688H330.369C331.347 363.688 332.315 363.497 333.219 363.123C334.123 362.749 334.944 362.201 335.636 361.51C336.328 360.818 336.877 359.998 337.251 359.094C337.626 358.19 337.819 357.222 337.819 356.244V34.9939C337.82 34.0159 337.628 33.0473 337.254 32.1434C336.88 31.2396 336.332 30.4183 335.641 29.7264C334.949 29.0345 334.129 28.4856 333.225 28.1112C332.321 27.7367 331.353 27.5439 330.375 27.5439H293.956Z" fill="#FF4F00"/>
<path d="M265.575 31.7754H224.381C223.691 31.7754 223.131 32.335 223.131 33.0254V33.2566C223.131 33.947 223.691 34.5066 224.381 34.5066H265.575C266.265 34.5066 266.825 33.947 266.825 33.2566V33.0254C266.825 32.335 266.265 31.7754 265.575 31.7754Z" fill="#DBDBDB"/>
<path d="M276.106 34.5064C277.011 34.5064 277.744 33.7733 277.744 32.8689C277.744 31.9646 277.011 31.2314 276.106 31.2314C275.202 31.2314 274.469 31.9646 274.469 32.8689C274.469 33.7733 275.202 34.5064 276.106 34.5064Z" fill="#DBDBDB"/>
<path d="M391.801 348.058C376.17 351.508 365.443 341.779 361.828 326.87L325.914 199.605C324.198 192.415 325.532 184.869 329.625 178.615C333.719 172.36 340.24 167.906 347.763 166.224V166.224C355.297 164.586 363.205 165.859 369.758 169.766C376.312 173.672 380.98 179.895 382.742 187.075L412.05 317.624C415.665 332.54 407.424 344.608 391.801 348.058Z" fill="url(#paint3_linear)"/>
<path d="M378.713 190.19C375.666 177.605 362.504 169.759 349.316 172.667C336.128 175.575 327.907 188.135 330.954 200.721L363.979 337.121C367.026 349.706 380.187 357.552 393.375 354.644C406.564 351.736 414.784 339.176 411.737 326.59L378.713 190.19Z" fill="#BE7C5E"/>
<path d="M410.617 453.461H205.63V499.061H410.617V453.461Z" fill="url(#paint4_linear)"/>
<path d="M405.076 458.748H211.17V494.435H405.076V458.748Z" fill="#453730"/>
<path d="M182.133 271.912C178.439 277.476 172.587 281.419 165.857 282.879C159.126 284.339 152.063 283.197 146.212 279.703L94.5707 247.816C88.74 244.291 84.6084 238.707 83.0785 232.284C81.5486 225.86 82.7449 219.12 86.4059 213.536V213.536C90.0999 207.972 95.9515 204.029 102.682 202.569C109.413 201.109 116.475 202.251 122.327 205.745L173.968 237.632C179.799 241.157 183.931 246.741 185.46 253.165C186.99 259.588 185.794 266.328 182.133 271.912V271.912Z" fill="url(#paint5_linear)"/>
<path d="M169.169 339.407C165.442 345.022 159.538 349.001 152.746 350.475C145.954 351.949 138.827 350.797 132.923 347.271L100.935 325.013C95.0511 321.456 90.8813 315.822 89.3372 309.34C87.793 302.859 88.9999 296.057 92.6942 290.423V290.423C96.4211 284.807 102.326 280.828 109.117 279.355C115.909 277.881 123.036 279.033 128.941 282.558L160.928 304.823C166.81 308.38 170.979 314.013 172.523 320.493C174.067 326.973 172.861 333.773 169.169 339.407Z" fill="url(#paint6_linear)"/>
<g opacity="0.5">
<path opacity="0.5" d="M244.128 251.748C278.527 251.748 306.413 225.136 306.413 192.308C306.413 159.481 278.527 132.869 244.128 132.869C209.728 132.869 181.842 159.481 181.842 192.308C181.842 225.136 209.728 251.748 244.128 251.748Z" fill="url(#paint7_linear)"/>
</g>
<path d="M244.127 248.252C276.503 248.252 302.749 223.205 302.749 192.308C302.749 161.412 276.503 136.365 244.127 136.365C211.751 136.365 185.505 161.412 185.505 192.308C185.505 223.205 211.751 248.252 244.127 248.252Z" fill="#69F0AE"/>
<path d="M218.684 184.84L240.665 204.072L271.807 160.368L282.805 169.112L240.665 221.559L209.522 188.343L218.684 184.84Z" fill="white"/>
<path d="M166.586 337.748C163.11 342.982 157.605 346.691 151.273 348.064C144.94 349.437 138.296 348.363 132.791 345.077L102.957 324.352C97.4723 321.035 93.5858 315.781 92.1468 309.738C90.7078 303.695 91.8332 297.354 95.2772 292.101V292.101C98.7531 286.867 104.258 283.158 110.591 281.784C116.923 280.411 123.567 281.485 129.072 284.772L158.899 305.537C164.374 308.852 168.254 314.098 169.693 320.131C171.133 326.165 170.016 332.497 166.586 337.748V337.748Z" fill="#BE7C5E"/>
<path d="M179.294 270.16C175.818 275.395 170.312 279.103 163.98 280.477C157.648 281.85 151.004 280.776 145.499 277.489L96.9113 247.486C91.4264 244.168 87.5399 238.915 86.1009 232.872C84.6619 226.829 85.7873 220.488 89.2313 215.235V215.235C92.7072 210 98.2126 206.291 104.545 204.918C110.877 203.545 117.521 204.619 123.026 207.906L171.614 237.909C177.099 241.227 180.985 246.48 182.424 252.523C183.863 258.566 182.738 264.907 179.294 270.16Z" fill="#BE7C5E"/>
<path d="M195.485 204.733C191.772 210.322 185.894 214.281 179.132 215.748C172.371 217.214 165.276 216.067 159.397 212.558L93.9543 171.894C88.0979 168.351 83.9485 162.741 82.4122 156.288C80.8759 149.836 82.0776 143.065 85.7548 137.456C89.4671 131.867 95.346 127.907 102.107 126.441C108.869 124.975 115.964 126.122 121.842 129.631L187.285 170.295C193.142 173.837 197.291 179.448 198.827 185.9C200.364 192.353 199.162 199.123 195.485 204.733Z" fill="url(#paint8_linear)"/>
<path d="M192.008 202.619C188.532 207.853 183.027 211.562 176.695 212.935C170.363 214.308 163.718 213.234 158.213 209.948L96.9182 171.861C91.4332 168.544 87.5468 163.291 86.1077 157.248C84.6687 151.205 85.7941 144.864 89.2381 139.611V139.611C92.7141 134.376 98.2194 130.667 104.552 129.294C110.884 127.921 117.528 128.995 123.033 132.282L184.321 170.368C189.807 173.684 193.695 178.937 195.136 184.98C196.576 191.023 195.452 197.364 192.008 202.619V202.619Z" fill="#BE7C5E"/>
<defs>
<linearGradient id="paint0_linear" x1="272.288" y1="462.675" x2="272.288" y2="281.9" gradientUnits="userSpaceOnUse">
<stop stop-color="#808080" stop-opacity="0.25"/>
<stop offset="0.54" stop-color="#808080" stop-opacity="0.12"/>
<stop offset="1" stop-color="#808080" stop-opacity="0.1"/>
</linearGradient>
<linearGradient id="paint1_linear" x1="53621" y1="27572.4" x2="53621" y2="13636.3" gradientUnits="userSpaceOnUse">
<stop stop-color="#808080" stop-opacity="0.25"/>
<stop offset="0.54" stop-color="#808080" stop-opacity="0.12"/>
<stop offset="1" stop-color="#808080" stop-opacity="0.1"/>
</linearGradient>
<linearGradient id="paint2_linear" x1="119193" y1="237910" x2="119193" y2="26236.8" gradientUnits="userSpaceOnUse">
<stop stop-color="#808080" stop-opacity="0.25"/>
<stop offset="0.54" stop-color="#808080" stop-opacity="0.12"/>
<stop offset="1" stop-color="#808080" stop-opacity="0.1"/>
</linearGradient>
<linearGradient id="paint3_linear" x1="68026.8" y1="110086" x2="68026.8" y2="59284" gradientUnits="userSpaceOnUse">
<stop stop-color="#808080" stop-opacity="0.25"/>
<stop offset="0.54" stop-color="#808080" stop-opacity="0.12"/>
<stop offset="1" stop-color="#808080" stop-opacity="0.1"/>
</linearGradient>
<linearGradient id="paint4_linear" x1="140238" y1="38133.8" x2="140238" y2="34987.3" gradientUnits="userSpaceOnUse">
<stop stop-color="#808080" stop-opacity="0.25"/>
<stop offset="0.54" stop-color="#808080" stop-opacity="0.12"/>
<stop offset="1" stop-color="#808080" stop-opacity="0.1"/>
</linearGradient>
<linearGradient id="paint5_linear" x1="44963" y1="41073.8" x2="44963" y2="31010.6" gradientUnits="userSpaceOnUse">
<stop stop-color="#808080" stop-opacity="0.25"/>
<stop offset="0.54" stop-color="#808080" stop-opacity="0.12"/>
<stop offset="1" stop-color="#808080" stop-opacity="0.1"/>
</linearGradient>
<linearGradient id="paint6_linear" x1="36259.7" y1="43954" x2="36259.7" y2="36027.1" gradientUnits="userSpaceOnUse">
<stop stop-color="#808080" stop-opacity="0.25"/>
<stop offset="0.54" stop-color="#808080" stop-opacity="0.12"/>
<stop offset="1" stop-color="#808080" stop-opacity="0.1"/>
</linearGradient>
<linearGradient id="paint7_linear" x1="44095.5" y1="45417.3" x2="44095.5" y2="24032.2" gradientUnits="userSpaceOnUse">
<stop stop-color="#808080" stop-opacity="0.25"/>
<stop offset="0.54" stop-color="#808080" stop-opacity="0.12"/>
<stop offset="1" stop-color="#808080" stop-opacity="0.1"/>
</linearGradient>
<linearGradient id="paint8_linear" x1="52119.9" y1="36314.9" x2="52119.9" y2="23906.5" gradientUnits="userSpaceOnUse">
<stop stop-color="#808080" stop-opacity="0.25"/>
<stop offset="0.54" stop-color="#808080" stop-opacity="0.12"/>
<stop offset="1" stop-color="#808080" stop-opacity="0.1"/>
</linearGradient>
</defs>
</svg>
