<svg width="780" height="191" viewBox="0 0 780 191" fill="none" xmlns="http://www.w3.org/2000/svg">
<path d="M58.7635 104.248C58.7635 69.5678 86.8504 41.3836 121.411 41.3836V31.9888V15.9978H103.284C103.284 15.9978 90.6352 15.4981 86.3524 22.9939C82.0697 30.3897 70.1178 32.0888 70.1178 32.0888H56.3731V27.9911C56.3731 25.1926 54.1819 22.9939 51.3931 22.9939H37.9473C35.1585 22.9939 32.9673 25.1926 32.9673 27.9911V32.0888H9.95991C4.48196 32.0888 0 36.5862 0 42.0832V164.614C0 170.111 4.48196 174.609 9.95991 174.609H121.411V167.213C86.8504 167.113 58.7635 139.029 58.7635 104.248Z" fill="#FF4F00"/>
<path d="M121.411 147.031C97.9691 147.031 78.9968 127.833 78.9968 104.112C78.9968 80.3907 97.9691 61.1926 121.411 61.1926V48.6283C91.1153 48.6283 66.5804 73.4553 66.5804 104.112C66.5804 134.769 91.1153 159.596 121.411 159.596V147.031Z" fill="#FF4F00"/>
<path d="M137.54 0H143.791V190.68H137.54V0Z" fill="#FF4F00"/>
<path d="M173.709 108.871H201.156V121H157.941V55.5938H173.709V108.871ZM270.438 89.6445C270.438 96.0234 269.255 101.669 266.89 106.58C264.524 111.492 261.155 115.28 256.782 117.945C252.44 120.581 247.483 121.898 241.913 121.898C236.343 121.898 231.401 120.626 227.089 118.08C222.776 115.505 219.407 111.836 216.981 107.074C214.585 102.312 213.328 96.847 213.208 90.6777V86.9941C213.208 80.5853 214.376 74.9401 216.712 70.0586C219.078 65.1471 222.447 61.3587 226.819 58.6934C231.222 56.028 236.223 54.6953 241.823 54.6953C247.363 54.6953 252.305 56.013 256.647 58.6484C260.99 61.2839 264.359 65.0423 266.755 69.9238C269.181 74.7754 270.408 80.3457 270.438 86.6348V89.6445ZM254.401 86.9043C254.401 80.4056 253.308 75.4792 251.122 72.125C248.966 68.7409 245.866 67.0488 241.823 67.0488C233.917 67.0488 229.739 72.9785 229.29 84.8379L229.245 89.6445C229.245 96.0534 230.308 100.98 232.434 104.424C234.561 107.868 237.72 109.59 241.913 109.59C245.896 109.59 248.966 107.898 251.122 104.514C253.278 101.13 254.371 96.263 254.401 89.9141V86.9043ZM343.314 121H327.636L304.457 80.3008V121H288.689V55.5938H304.457L327.592 96.293V55.5938H343.314V121ZM403.971 93.2832H379.174V108.871H408.464V121H363.407V55.5938H408.553V67.7676H379.174V81.5586H403.971V93.2832ZM440.775 108.871H468.222V121H425.007V55.5938H440.775V108.871ZM501.791 121H486.069V55.5938H501.791V121ZM577.497 121H561.82L538.64 80.3008V121H522.872V55.5938H538.64L561.775 96.293V55.5938H577.497V121ZM638.154 93.2832H613.358V108.871H642.647V121H597.59V55.5938H642.736V67.7676H613.358V81.5586H638.154V93.2832ZM692.927 103.615C692.927 101.309 692.103 99.5124 690.456 98.2246C688.839 96.9368 685.979 95.6042 681.876 94.2266C677.773 92.849 674.419 91.5163 671.814 90.2285C663.338 86.0658 659.101 80.3457 659.101 73.0684C659.101 69.4447 660.149 66.2552 662.245 63.5C664.371 60.7148 667.366 58.5586 671.23 57.0312C675.093 55.474 679.435 54.6953 684.257 54.6953C688.959 54.6953 693.166 55.5339 696.88 57.2109C700.623 58.888 703.528 61.2839 705.595 64.3984C707.661 67.4831 708.694 71.0169 708.694 75H692.972C692.972 72.3346 692.148 70.2682 690.501 68.8008C688.884 67.3333 686.683 66.5996 683.897 66.5996C681.082 66.5996 678.851 67.2285 677.204 68.4863C675.587 69.7142 674.778 71.2865 674.778 73.2031C674.778 74.8802 675.677 76.4076 677.474 77.7852C679.271 79.1328 682.43 80.5404 686.952 82.0078C691.474 83.4453 695.188 85.0026 698.093 86.6797C705.161 90.7526 708.694 96.3678 708.694 103.525C708.694 109.245 706.538 113.738 702.226 117.002C697.913 120.266 691.998 121.898 684.481 121.898C679.181 121.898 674.374 120.955 670.062 119.068C665.779 117.152 662.545 114.546 660.358 111.252C658.202 107.928 657.124 104.109 657.124 99.7969H672.937C672.937 103.301 673.835 105.891 675.632 107.568C677.459 109.215 680.409 110.039 684.481 110.039C687.087 110.039 689.138 109.485 690.636 108.377C692.163 107.239 692.927 105.652 692.927 103.615ZM760.637 103.615C760.637 101.309 759.813 99.5124 758.166 98.2246C756.549 96.9368 753.689 95.6042 749.586 94.2266C745.483 92.849 742.129 91.5163 739.523 90.2285C731.048 86.0658 726.81 80.3457 726.81 73.0684C726.81 69.4447 727.859 66.2552 729.955 63.5C732.081 60.7148 735.076 58.5586 738.939 57.0312C742.803 55.474 747.145 54.6953 751.967 54.6953C756.669 54.6953 760.876 55.5339 764.59 57.2109C768.333 58.888 771.238 61.2839 773.305 64.3984C775.371 67.4831 776.404 71.0169 776.404 75H760.682C760.682 72.3346 759.858 70.2682 758.211 68.8008C756.594 67.3333 754.393 66.5996 751.607 66.5996C748.792 66.5996 746.561 67.2285 744.914 68.4863C743.297 69.7142 742.488 71.2865 742.488 73.2031C742.488 74.8802 743.387 76.4076 745.184 77.7852C746.98 79.1328 750.14 80.5404 754.662 82.0078C759.184 83.4453 762.898 85.0026 765.803 86.6797C772.87 90.7526 776.404 96.3678 776.404 103.525C776.404 109.245 774.248 113.738 769.935 117.002C765.623 120.266 759.708 121.898 752.191 121.898C746.891 121.898 742.084 120.955 737.771 119.068C733.489 117.152 730.254 114.546 728.068 111.252C725.912 107.928 724.834 104.109 724.834 99.7969H740.646C740.646 103.301 741.545 105.891 743.342 107.568C745.169 109.215 748.118 110.039 752.191 110.039C754.797 110.039 756.848 109.485 758.346 108.377C759.873 107.239 760.637 105.652 760.637 103.615Z" fill="#FF4F00"/>
<path d="M165.58 173H157.206V138.164H165.58V173ZM200.512 173H192.162L179.816 151.323V173H171.418V138.164H179.816L192.138 159.841V138.164H200.512V173ZM243.937 144.648H233.481V173H225.083V144.648H214.819V138.164H243.937V144.648ZM276.62 173H268.27V158.453H255.9V173H247.502V138.164H255.9V151.993H268.27V138.164H276.62V173ZM303.56 158.238H290.353V166.54H305.953V173H281.955V138.164H306V144.648H290.353V151.993H303.56V158.238ZM349.761 161.205C349.649 163.629 348.995 165.774 347.799 167.641C346.603 169.491 344.92 170.926 342.75 171.947C340.597 172.968 338.133 173.479 335.357 173.479C330.78 173.479 327.175 171.987 324.543 169.004C321.911 166.022 320.595 161.811 320.595 156.372V154.649C320.595 151.236 321.185 148.253 322.366 145.701C323.562 143.133 325.277 141.155 327.51 139.767C329.743 138.363 332.327 137.662 335.262 137.662C339.489 137.662 342.886 138.778 345.454 141.011C348.022 143.228 349.482 146.291 349.833 150.199H341.458C341.395 148.077 340.86 146.554 339.855 145.629C338.851 144.704 337.319 144.241 335.262 144.241C333.172 144.241 331.641 145.023 330.668 146.586C329.695 148.149 329.185 150.645 329.137 154.075V156.539C329.137 160.256 329.599 162.911 330.524 164.506C331.465 166.101 333.076 166.899 335.357 166.899C337.287 166.899 338.763 166.444 339.784 165.535C340.805 164.626 341.347 163.182 341.411 161.205H349.761ZM383.233 156.3C383.233 159.697 382.603 162.704 381.343 165.32C380.083 167.936 378.288 169.953 375.959 171.373C373.647 172.777 371.007 173.479 368.04 173.479C365.073 173.479 362.441 172.801 360.145 171.445C357.848 170.073 356.053 168.119 354.761 165.583C353.485 163.047 352.815 160.136 352.751 156.85V154.888C352.751 151.475 353.374 148.468 354.618 145.868C355.878 143.252 357.672 141.235 360.001 139.815C362.346 138.395 365.009 137.686 367.992 137.686C370.943 137.686 373.575 138.387 375.888 139.791C378.201 141.195 379.995 143.196 381.271 145.796C382.563 148.38 383.217 151.347 383.233 154.697V156.3ZM374.691 154.84C374.691 151.379 374.109 148.755 372.945 146.969C371.796 145.166 370.146 144.265 367.992 144.265C363.781 144.265 361.556 147.423 361.317 153.74L361.293 156.3C361.293 159.713 361.859 162.337 362.992 164.171C364.124 166.006 365.807 166.923 368.04 166.923C370.161 166.923 371.796 166.022 372.945 164.219C374.093 162.417 374.675 159.825 374.691 156.443V154.84ZM400.507 160.702H395.961V173H387.563V138.164H401.273C405.404 138.164 408.634 139.081 410.963 140.916C413.292 142.75 414.456 145.342 414.456 148.691C414.456 151.116 413.962 153.126 412.973 154.721C412 156.316 410.468 157.608 408.379 158.597L415.652 172.641V173H406.656L400.507 160.702ZM395.961 154.218H401.273C402.868 154.218 404.064 153.804 404.862 152.974C405.675 152.129 406.082 150.956 406.082 149.457C406.082 147.958 405.675 146.785 404.862 145.94C404.048 145.079 402.852 144.648 401.273 144.648H395.961V154.218ZM449.029 156.3C449.029 159.697 448.399 162.704 447.139 165.32C445.879 167.936 444.084 169.953 441.755 171.373C439.443 172.777 436.803 173.479 433.836 173.479C430.869 173.479 428.237 172.801 425.94 171.445C423.644 170.073 421.849 168.119 420.557 165.583C419.281 163.047 418.611 160.136 418.547 156.85V154.888C418.547 151.475 419.169 148.468 420.414 145.868C421.674 143.252 423.468 141.235 425.797 139.815C428.142 138.395 430.805 137.686 433.788 137.686C436.739 137.686 439.371 138.387 441.684 139.791C443.996 141.195 445.791 143.196 447.067 145.796C448.359 148.38 449.013 151.347 449.029 154.697V156.3ZM440.487 154.84C440.487 151.379 439.905 148.755 438.741 146.969C437.592 145.166 435.941 144.265 433.788 144.265C429.577 144.265 427.352 147.423 427.113 153.74L427.089 156.3C427.089 159.713 427.655 162.337 428.788 164.171C429.92 166.006 431.603 166.923 433.836 166.923C435.957 166.923 437.592 166.022 438.741 164.219C439.889 162.417 440.471 159.825 440.487 156.443V154.84ZM482.453 173H474.103L461.757 151.323V173H453.359V138.164H461.757L474.079 159.841V138.164H482.453V173ZM507.982 166.492H496.474L494.464 173H485.492L498.268 138.164H506.164L519.036 173H510.016L507.982 166.492ZM498.483 160.008H505.972L502.216 147.926L498.483 160.008ZM542.196 161.181V173H533.798V138.164H547.699C550.362 138.164 552.715 138.659 554.757 139.647C556.814 140.62 558.402 142.016 559.518 143.834C560.651 145.637 561.217 147.687 561.217 149.983C561.217 153.381 559.997 156.1 557.556 158.142C555.132 160.168 551.798 161.181 547.555 161.181H542.196ZM542.196 154.697H547.699C549.326 154.697 550.562 154.29 551.407 153.477C552.269 152.663 552.699 151.515 552.699 150.031C552.699 148.404 552.261 147.104 551.383 146.131C550.506 145.158 549.31 144.664 547.794 144.648H542.196V154.697ZM581.243 166.492H569.734L567.725 173H558.752L571.529 138.164H579.424L592.296 173H583.276L581.243 166.492ZM571.744 160.008H579.233L575.477 147.926L571.744 160.008ZM623.95 173H615.6L603.254 151.323V173H594.856V138.164H603.254L615.576 159.841V138.164H623.95V173ZM629.262 173V138.164H640.483C643.561 138.164 646.329 138.866 648.785 140.27C651.242 141.657 653.156 143.627 654.527 146.179C655.915 148.715 656.617 151.562 656.633 154.721V156.324C656.633 159.514 655.955 162.377 654.599 164.913C653.259 167.433 651.361 169.411 648.905 170.847C646.464 172.266 643.737 172.984 640.722 173H629.262ZM637.66 144.648V166.54H640.579C642.987 166.54 644.837 165.687 646.129 163.98C647.421 162.257 648.067 159.705 648.067 156.324V154.816C648.067 151.451 647.421 148.915 646.129 147.208C644.837 145.501 642.955 144.648 640.483 144.648H637.66ZM682.544 158.238H669.337V166.54H684.937V173H660.939V138.164H684.985V144.648H669.337V151.993H682.544V158.238ZM699.388 138.164L707.164 162.401L714.916 138.164H725.97V173H717.548V164.865L718.361 148.213L709.939 173H704.389L695.943 148.189L696.756 164.865V173H688.358V138.164H699.388ZM740.277 173H731.903V138.164H740.277V173ZM774.3 161.205C774.188 163.629 773.534 165.774 772.338 167.641C771.142 169.491 769.459 170.926 767.29 171.947C765.136 172.968 762.672 173.479 759.896 173.479C755.319 173.479 751.714 171.987 749.082 169.004C746.45 166.022 745.134 161.811 745.134 156.372V154.649C745.134 151.236 745.724 148.253 746.905 145.701C748.101 143.133 749.816 141.155 752.049 139.767C754.282 138.363 756.866 137.662 759.801 137.662C764.028 137.662 767.425 138.778 769.993 141.011C772.561 143.228 774.021 146.291 774.372 150.199H765.998C765.934 148.077 765.399 146.554 764.395 145.629C763.39 144.704 761.858 144.241 759.801 144.241C757.711 144.241 756.18 145.023 755.207 146.586C754.234 148.149 753.724 150.645 753.676 154.075V156.539C753.676 160.256 754.138 162.911 755.063 164.506C756.005 166.101 757.616 166.899 759.896 166.899C761.826 166.899 763.302 166.444 764.323 165.535C765.344 164.626 765.886 163.182 765.95 161.205H774.3Z" fill="#453730"/>
<path d="M163.904 40.26C162.552 40.26 161.373 40.0433 160.368 39.61C159.38 39.1593 158.617 38.5787 158.08 37.868C157.56 37.1573 157.283 36.3947 157.248 35.58C157.248 35.4413 157.3 35.32 157.404 35.216C157.508 35.112 157.638 35.06 157.794 35.06H158.314C158.626 35.06 158.817 35.2333 158.886 35.58C159.007 36.412 159.484 37.14 160.316 37.764C161.148 38.388 162.344 38.7 163.904 38.7C165.551 38.7 166.773 38.4053 167.57 37.816C168.385 37.2093 168.792 36.3687 168.792 35.294C168.792 34.6353 168.593 34.098 168.194 33.682C167.813 33.2487 167.249 32.876 166.504 32.564C165.759 32.2347 164.632 31.8273 163.124 31.342C161.789 30.9087 160.741 30.484 159.978 30.068C159.233 29.652 158.678 29.1407 158.314 28.534C157.95 27.9273 157.768 27.156 157.768 26.22C157.768 25.336 158.002 24.5387 158.47 23.828C158.955 23.1173 159.649 22.5627 160.55 22.164C161.451 21.748 162.526 21.54 163.774 21.54C165.057 21.54 166.157 21.774 167.076 22.242C167.995 22.6927 168.688 23.2733 169.156 23.984C169.624 24.6773 169.875 25.3793 169.91 26.09C169.91 26.2287 169.858 26.35 169.754 26.454C169.667 26.558 169.537 26.61 169.364 26.61H168.844C168.723 26.61 168.601 26.5753 168.48 26.506C168.359 26.4193 168.289 26.2807 168.272 26.09C168.168 25.2233 167.7 24.5127 166.868 23.958C166.053 23.386 165.022 23.1 163.774 23.1C162.439 23.1 161.373 23.36 160.576 23.88C159.796 24.4 159.406 25.18 159.406 26.22C159.406 26.896 159.579 27.4593 159.926 27.91C160.29 28.3433 160.827 28.7247 161.538 29.054C162.249 29.366 163.297 29.7473 164.684 30.198C166.105 30.6487 167.215 31.082 168.012 31.498C168.809 31.914 169.407 32.4167 169.806 33.006C170.222 33.5953 170.43 34.358 170.43 35.294C170.43 36.854 169.849 38.076 168.688 38.96C167.527 39.8267 165.932 40.26 163.904 40.26ZM177.748 40.26C176.916 40.26 176.145 40.0867 175.434 39.74C174.724 39.3933 174.152 38.9253 173.718 38.336C173.302 37.7467 173.094 37.0967 173.094 36.386C173.094 35.242 173.554 34.306 174.472 33.578C175.408 32.85 176.665 32.382 178.242 32.174L182.35 31.602V30.692C182.35 29.7387 182.056 29.0107 181.466 28.508C180.894 27.988 180.01 27.728 178.814 27.728C177.93 27.728 177.202 27.9013 176.63 28.248C176.076 28.5947 175.72 29.0107 175.564 29.496C175.495 29.704 175.408 29.8513 175.304 29.938C175.218 30.0073 175.096 30.042 174.94 30.042H174.576C174.42 30.042 174.282 29.99 174.16 29.886C174.056 29.7647 174.004 29.626 174.004 29.47C174.004 29.0887 174.178 28.6467 174.524 28.144C174.871 27.624 175.408 27.1733 176.136 26.792C176.864 26.4107 177.757 26.22 178.814 26.22C180.669 26.22 181.986 26.662 182.766 27.546C183.546 28.43 183.936 29.5047 183.936 30.77V39.428C183.936 39.6013 183.884 39.74 183.78 39.844C183.676 39.948 183.538 40 183.364 40H182.922C182.749 40 182.61 39.948 182.506 39.844C182.402 39.74 182.35 39.6013 182.35 39.428V38.206C181.969 38.778 181.406 39.2633 180.66 39.662C179.932 40.0607 178.962 40.26 177.748 40.26ZM178.008 38.752C179.274 38.752 180.314 38.336 181.128 37.504C181.943 36.672 182.35 35.476 182.35 33.916V33.032L178.996 33.5C177.575 33.6907 176.5 34.02 175.772 34.488C175.044 34.956 174.68 35.5453 174.68 36.256C174.68 37.0533 175.01 37.6687 175.668 38.102C176.344 38.5353 177.124 38.752 178.008 38.752ZM188.88 40C188.706 40 188.568 39.948 188.464 39.844C188.36 39.74 188.308 39.6013 188.308 39.428V27.052C188.308 26.8787 188.36 26.74 188.464 26.636C188.568 26.532 188.706 26.48 188.88 26.48H189.322C189.495 26.48 189.634 26.532 189.738 26.636C189.842 26.74 189.894 26.8787 189.894 27.052V27.962C190.344 27.39 190.864 26.9567 191.454 26.662C192.06 26.3673 192.78 26.22 193.612 26.22C195.553 26.22 196.94 27.0347 197.772 28.664C198.188 27.9187 198.777 27.3293 199.54 26.896C200.32 26.4453 201.204 26.22 202.192 26.22C203.63 26.22 204.8 26.714 205.702 27.702C206.603 28.6727 207.054 30.0593 207.054 31.862V39.428C207.054 39.6013 207.002 39.74 206.898 39.844C206.794 39.948 206.655 40 206.482 40H206.04C205.866 40 205.728 39.948 205.624 39.844C205.52 39.74 205.468 39.6013 205.468 39.428V32.122C205.468 30.5447 205.138 29.418 204.48 28.742C203.838 28.066 202.989 27.728 201.932 27.728C200.996 27.728 200.181 28.0747 199.488 28.768C198.812 29.444 198.474 30.562 198.474 32.122V39.428C198.474 39.6013 198.422 39.74 198.318 39.844C198.214 39.948 198.075 40 197.902 40H197.46C197.286 40 197.148 39.948 197.044 39.844C196.94 39.74 196.888 39.6013 196.888 39.428V32.122C196.888 30.562 196.55 29.444 195.874 28.768C195.198 28.0747 194.357 27.728 193.352 27.728C192.416 27.728 191.601 28.0747 190.908 28.768C190.232 29.444 189.894 30.5533 189.894 32.096V39.428C189.894 39.6013 189.842 39.74 189.738 39.844C189.634 39.948 189.495 40 189.322 40H188.88ZM216.412 40.26C214.765 40.26 213.439 39.7227 212.434 38.648C211.428 37.556 210.856 36.1 210.718 34.28L210.692 33.24L210.718 32.2C210.856 30.3973 211.42 28.95 212.408 27.858C213.413 26.766 214.748 26.22 216.412 26.22C218.214 26.22 219.618 26.818 220.624 28.014C221.646 29.21 222.158 30.848 222.158 32.928V33.318C222.158 33.4913 222.097 33.63 221.976 33.734C221.872 33.838 221.733 33.89 221.56 33.89H212.304V34.15C212.338 34.9647 212.52 35.7273 212.85 36.438C213.196 37.1313 213.673 37.6947 214.28 38.128C214.886 38.544 215.597 38.752 216.412 38.752C217.365 38.752 218.136 38.57 218.726 38.206C219.332 37.8247 219.766 37.4433 220.026 37.062C220.182 36.854 220.294 36.724 220.364 36.672C220.45 36.62 220.598 36.594 220.806 36.594H221.222C221.378 36.594 221.508 36.6373 221.612 36.724C221.716 36.8107 221.768 36.9233 221.768 37.062C221.768 37.426 221.534 37.868 221.066 38.388C220.615 38.8907 219.982 39.3327 219.168 39.714C218.353 40.078 217.434 40.26 216.412 40.26ZM220.572 32.434V32.33C220.572 30.9953 220.19 29.8947 219.428 29.028C218.682 28.1613 217.677 27.728 216.412 27.728C215.146 27.728 214.141 28.1613 213.396 29.028C212.668 29.8947 212.304 30.9953 212.304 32.33V32.434H220.572ZM226.419 40C226.246 40 226.107 39.948 226.003 39.844C225.899 39.74 225.847 39.6013 225.847 39.428V27.052C225.847 26.8787 225.899 26.74 226.003 26.636C226.107 26.532 226.246 26.48 226.419 26.48H226.861C227.035 26.48 227.173 26.532 227.277 26.636C227.381 26.74 227.433 26.8787 227.433 27.052V28.274C227.953 27.598 228.543 27.0867 229.201 26.74C229.877 26.3933 230.744 26.22 231.801 26.22C233.5 26.22 234.809 26.766 235.727 27.858C236.646 28.9327 237.105 30.328 237.105 32.044V39.428C237.105 39.6013 237.053 39.74 236.949 39.844C236.845 39.948 236.707 40 236.533 40H236.091C235.918 40 235.779 39.948 235.675 39.844C235.571 39.74 235.519 39.6013 235.519 39.428V32.174C235.519 30.77 235.173 29.678 234.479 28.898C233.803 28.118 232.824 27.728 231.541 27.728C230.293 27.728 229.297 28.1267 228.551 28.924C227.806 29.704 227.433 30.7873 227.433 32.174V39.428C227.433 39.6013 227.381 39.74 227.277 39.844C227.173 39.948 227.035 40 226.861 40H226.419ZM245.742 40C245.256 40 244.927 39.7833 244.754 39.35L239.97 27.286L239.918 27C239.918 26.8613 239.97 26.74 240.074 26.636C240.178 26.532 240.299 26.48 240.438 26.48H240.984C241.14 26.48 241.261 26.5233 241.348 26.61C241.452 26.6967 241.521 26.7833 241.556 26.87L245.95 38.102L250.344 26.87C250.378 26.7833 250.439 26.6967 250.526 26.61C250.63 26.5233 250.76 26.48 250.916 26.48H251.462C251.6 26.48 251.722 26.532 251.826 26.636C251.93 26.74 251.982 26.8613 251.982 27L251.93 27.286L247.146 39.35C246.972 39.7833 246.643 40 246.158 40H245.742ZM259.941 40C259.456 40 259.126 39.7833 258.953 39.35L254.169 27.286L254.117 27C254.117 26.8613 254.169 26.74 254.273 26.636C254.377 26.532 254.498 26.48 254.637 26.48H255.183C255.339 26.48 255.46 26.5233 255.547 26.61C255.651 26.6967 255.72 26.7833 255.755 26.87L260.149 38.102L264.543 26.87C264.578 26.7833 264.638 26.6967 264.725 26.61C264.829 26.5233 264.959 26.48 265.115 26.48H265.661C265.8 26.48 265.921 26.532 266.025 26.636C266.129 26.74 266.181 26.8613 266.181 27L266.129 27.286L261.345 39.35C261.172 39.7833 260.842 40 260.357 40H259.941ZM274.141 40C273.655 40 273.326 39.7833 273.153 39.35L268.369 27.286L268.317 27C268.317 26.8613 268.369 26.74 268.473 26.636C268.577 26.532 268.698 26.48 268.837 26.48H269.383C269.539 26.48 269.66 26.5233 269.747 26.61C269.851 26.6967 269.92 26.7833 269.955 26.87L274.349 38.102L278.743 26.87C278.777 26.7833 278.838 26.6967 278.925 26.61C279.029 26.5233 279.159 26.48 279.315 26.48H279.861C279.999 26.48 280.121 26.532 280.225 26.636C280.329 26.74 280.381 26.8613 280.381 27L280.329 27.286L275.545 39.35C275.371 39.7833 275.042 40 274.557 40H274.141ZM290.848 40C290.675 40 290.536 39.948 290.432 39.844C290.328 39.74 290.276 39.6013 290.276 39.428V22.372C290.276 22.1987 290.328 22.06 290.432 21.956C290.536 21.852 290.675 21.8 290.848 21.8H291.342C291.516 21.8 291.654 21.852 291.758 21.956C291.862 22.06 291.914 22.1987 291.914 22.372V39.428C291.914 39.6013 291.862 39.74 291.758 39.844C291.654 39.948 291.516 40 291.342 40H290.848ZM296.859 40C296.686 40 296.547 39.948 296.443 39.844C296.339 39.74 296.287 39.6013 296.287 39.428V38.18C296.287 38.0067 296.339 37.868 296.443 37.764C296.547 37.6427 296.686 37.582 296.859 37.582H298.107C298.28 37.582 298.419 37.6427 298.523 37.764C298.644 37.868 298.705 38.0067 298.705 38.18V39.428C298.705 39.6013 298.644 39.74 298.523 39.844C298.419 39.948 298.28 40 298.107 40H296.859ZM310.823 40C310.65 40 310.511 39.948 310.407 39.844C310.303 39.74 310.251 39.6013 310.251 39.428V22.372C310.251 22.1987 310.303 22.06 310.407 21.956C310.511 21.852 310.65 21.8 310.823 21.8H311.317C311.491 21.8 311.629 21.852 311.733 21.956C311.837 22.06 311.889 22.1987 311.889 22.372V39.428C311.889 39.6013 311.837 39.74 311.733 39.844C311.629 39.948 311.491 40 311.317 40H310.823ZM317.271 40C317.098 40 316.959 39.948 316.855 39.844C316.751 39.74 316.699 39.6013 316.699 39.428V27.052C316.699 26.8787 316.751 26.74 316.855 26.636C316.959 26.532 317.098 26.48 317.271 26.48H317.713C317.886 26.48 318.025 26.532 318.129 26.636C318.233 26.74 318.285 26.8787 318.285 27.052V28.274C318.805 27.598 319.394 27.0867 320.053 26.74C320.729 26.3933 321.596 26.22 322.653 26.22C324.352 26.22 325.66 26.766 326.579 27.858C327.498 28.9327 327.957 30.328 327.957 32.044V39.428C327.957 39.6013 327.905 39.74 327.801 39.844C327.697 39.948 327.558 40 327.385 40H326.943C326.77 40 326.631 39.948 326.527 39.844C326.423 39.74 326.371 39.6013 326.371 39.428V32.174C326.371 30.77 326.024 29.678 325.331 28.898C324.655 28.118 323.676 27.728 322.393 27.728C321.145 27.728 320.148 28.1267 319.403 28.924C318.658 29.704 318.285 30.7873 318.285 32.174V39.428C318.285 39.6013 318.233 39.74 318.129 39.844C318.025 39.948 317.886 40 317.713 40H317.271ZM336.642 40C335.359 40 334.449 39.6187 333.912 38.856C333.374 38.076 333.106 37.01 333.106 35.658V27.988H331.078C330.904 27.988 330.766 27.936 330.662 27.832C330.558 27.728 330.506 27.5893 330.506 27.416V27.052C330.506 26.8787 330.558 26.74 330.662 26.636C330.766 26.532 330.904 26.48 331.078 26.48H333.106V22.112C333.106 21.9387 333.158 21.8 333.262 21.696C333.366 21.592 333.504 21.54 333.678 21.54H334.12C334.293 21.54 334.432 21.592 334.536 21.696C334.64 21.8 334.692 21.9387 334.692 22.112V26.48H337.916C338.089 26.48 338.228 26.532 338.332 26.636C338.436 26.74 338.488 26.8787 338.488 27.052V27.416C338.488 27.5893 338.436 27.728 338.332 27.832C338.228 27.936 338.089 27.988 337.916 27.988H334.692V35.554C334.692 36.5247 334.848 37.2613 335.16 37.764C335.489 38.2493 336.026 38.492 336.772 38.492H338.176C338.349 38.492 338.488 38.544 338.592 38.648C338.696 38.752 338.748 38.8907 338.748 39.064V39.428C338.748 39.6013 338.696 39.74 338.592 39.844C338.488 39.948 338.349 40 338.176 40H336.642ZM346.713 40.26C345.067 40.26 343.741 39.7227 342.735 38.648C341.73 37.556 341.158 36.1 341.019 34.28L340.993 33.24L341.019 32.2C341.158 30.3973 341.721 28.95 342.709 27.858C343.715 26.766 345.049 26.22 346.713 26.22C348.516 26.22 349.92 26.818 350.925 28.014C351.948 29.21 352.459 30.848 352.459 32.928V33.318C352.459 33.4913 352.399 33.63 352.277 33.734C352.173 33.838 352.035 33.89 351.861 33.89H342.605V34.15C342.64 34.9647 342.822 35.7273 343.151 36.438C343.498 37.1313 343.975 37.6947 344.581 38.128C345.188 38.544 345.899 38.752 346.713 38.752C347.667 38.752 348.438 38.57 349.027 38.206C349.634 37.8247 350.067 37.4433 350.327 37.062C350.483 36.854 350.596 36.724 350.665 36.672C350.752 36.62 350.899 36.594 351.107 36.594H351.523C351.679 36.594 351.809 36.6373 351.913 36.724C352.017 36.8107 352.069 36.9233 352.069 37.062C352.069 37.426 351.835 37.868 351.367 38.388C350.917 38.8907 350.284 39.3327 349.469 39.714C348.655 40.078 347.736 40.26 346.713 40.26ZM350.873 32.434V32.33C350.873 30.9953 350.492 29.8947 349.729 29.028C348.984 28.1613 347.979 27.728 346.713 27.728C345.448 27.728 344.443 28.1613 343.697 29.028C342.969 29.8947 342.605 30.9953 342.605 32.33V32.434H350.873ZM356.721 40C356.547 40 356.409 39.948 356.305 39.844C356.201 39.74 356.149 39.6013 356.149 39.428V27.078C356.149 26.9047 356.201 26.766 356.305 26.662C356.409 26.5407 356.547 26.48 356.721 26.48H357.137C357.31 26.48 357.449 26.5407 357.553 26.662C357.674 26.766 357.735 26.9047 357.735 27.078V28.274C358.359 27.078 359.537 26.48 361.271 26.48H362.233C362.406 26.48 362.545 26.532 362.649 26.636C362.753 26.74 362.805 26.8787 362.805 27.052V27.416C362.805 27.5893 362.753 27.728 362.649 27.832C362.545 27.936 362.406 27.988 362.233 27.988H361.115C360.075 27.988 359.251 28.2913 358.645 28.898C358.038 29.5047 357.735 30.328 357.735 31.368V39.428C357.735 39.6013 357.674 39.74 357.553 39.844C357.449 39.948 357.31 40 357.137 40H356.721ZM366.02 40C365.847 40 365.708 39.948 365.604 39.844C365.5 39.74 365.448 39.6013 365.448 39.428V27.052C365.448 26.8787 365.5 26.74 365.604 26.636C365.708 26.532 365.847 26.48 366.02 26.48H366.462C366.635 26.48 366.774 26.532 366.878 26.636C366.982 26.74 367.034 26.8787 367.034 27.052V28.274C367.554 27.598 368.143 27.0867 368.802 26.74C369.478 26.3933 370.345 26.22 371.402 26.22C373.101 26.22 374.409 26.766 375.328 27.858C376.247 28.9327 376.706 30.328 376.706 32.044V39.428C376.706 39.6013 376.654 39.74 376.55 39.844C376.446 39.948 376.307 40 376.134 40H375.692C375.519 40 375.38 39.948 375.276 39.844C375.172 39.74 375.12 39.6013 375.12 39.428V32.174C375.12 30.77 374.773 29.678 374.08 28.898C373.404 28.118 372.425 27.728 371.142 27.728C369.894 27.728 368.897 28.1267 368.152 28.924C367.407 29.704 367.034 30.7873 367.034 32.174V39.428C367.034 39.6013 366.982 39.74 366.878 39.844C366.774 39.948 366.635 40 366.462 40H366.02ZM384.684 40.26C383.852 40.26 383.08 40.0867 382.37 39.74C381.659 39.3933 381.087 38.9253 380.654 38.336C380.238 37.7467 380.03 37.0967 380.03 36.386C380.03 35.242 380.489 34.306 381.408 33.578C382.344 32.85 383.6 32.382 385.178 32.174L389.286 31.602V30.692C389.286 29.7387 388.991 29.0107 388.402 28.508C387.83 27.988 386.946 27.728 385.75 27.728C384.866 27.728 384.138 27.9013 383.566 28.248C383.011 28.5947 382.656 29.0107 382.5 29.496C382.43 29.704 382.344 29.8513 382.24 29.938C382.153 30.0073 382.032 30.042 381.876 30.042H381.512C381.356 30.042 381.217 29.99 381.096 29.886C380.992 29.7647 380.94 29.626 380.94 29.47C380.94 29.0887 381.113 28.6467 381.46 28.144C381.806 27.624 382.344 27.1733 383.072 26.792C383.8 26.4107 384.692 26.22 385.75 26.22C387.604 26.22 388.922 26.662 389.702 27.546C390.482 28.43 390.872 29.5047 390.872 30.77V39.428C390.872 39.6013 390.82 39.74 390.716 39.844C390.612 39.948 390.473 40 390.3 40H389.858C389.684 40 389.546 39.948 389.442 39.844C389.338 39.74 389.286 39.6013 389.286 39.428V38.206C388.904 38.778 388.341 39.2633 387.596 39.662C386.868 40.0607 385.897 40.26 384.684 40.26ZM384.944 38.752C386.209 38.752 387.249 38.336 388.064 37.504C388.878 36.672 389.286 35.476 389.286 33.916V33.032L385.932 33.5C384.51 33.6907 383.436 34.02 382.708 34.488C381.98 34.956 381.616 35.5453 381.616 36.256C381.616 37.0533 381.945 37.6687 382.604 38.102C383.28 38.5353 384.06 38.752 384.944 38.752ZM399.666 40C398.384 40 397.474 39.6187 396.936 38.856C396.399 38.076 396.13 37.01 396.13 35.658V27.988H394.102C393.929 27.988 393.79 27.936 393.686 27.832C393.582 27.728 393.53 27.5893 393.53 27.416V27.052C393.53 26.8787 393.582 26.74 393.686 26.636C393.79 26.532 393.929 26.48 394.102 26.48H396.13V22.112C396.13 21.9387 396.182 21.8 396.286 21.696C396.39 21.592 396.529 21.54 396.702 21.54H397.144C397.318 21.54 397.456 21.592 397.56 21.696C397.664 21.8 397.716 21.9387 397.716 22.112V26.48H400.94C401.114 26.48 401.252 26.532 401.356 26.636C401.46 26.74 401.512 26.8787 401.512 27.052V27.416C401.512 27.5893 401.46 27.728 401.356 27.832C401.252 27.936 401.114 27.988 400.94 27.988H397.716V35.554C397.716 36.5247 397.872 37.2613 398.184 37.764C398.514 38.2493 399.051 38.492 399.796 38.492H401.2C401.374 38.492 401.512 38.544 401.616 38.648C401.72 38.752 401.772 38.8907 401.772 39.064V39.428C401.772 39.6013 401.72 39.74 401.616 39.844C401.512 39.948 401.374 40 401.2 40H399.666ZM405.006 23.698C404.833 23.698 404.694 23.646 404.59 23.542C404.486 23.438 404.434 23.2993 404.434 23.126V22.138C404.434 21.9647 404.486 21.826 404.59 21.722C404.694 21.6007 404.833 21.54 405.006 21.54H405.994C406.167 21.54 406.306 21.6007 406.41 21.722C406.531 21.826 406.592 21.9647 406.592 22.138V23.126C406.592 23.2993 406.531 23.438 406.41 23.542C406.306 23.646 406.167 23.698 405.994 23.698H405.006ZM405.292 40C405.119 40 404.98 39.948 404.876 39.844C404.772 39.74 404.72 39.6013 404.72 39.428V27.052C404.72 26.8787 404.772 26.74 404.876 26.636C404.98 26.532 405.119 26.48 405.292 26.48H405.734C405.907 26.48 406.046 26.532 406.15 26.636C406.254 26.74 406.306 26.8787 406.306 27.052V39.428C406.306 39.6013 406.254 39.74 406.15 39.844C406.046 39.948 405.907 40 405.734 40H405.292ZM415.917 40.26C414.114 40.26 412.71 39.714 411.705 38.622C410.717 37.5127 410.197 36.0827 410.145 34.332L410.119 33.24L410.145 32.148C410.197 30.3973 410.717 28.976 411.705 27.884C412.71 26.7747 414.114 26.22 415.917 26.22C417.72 26.22 419.115 26.7747 420.103 27.884C421.108 28.976 421.637 30.3973 421.689 32.148C421.706 32.3213 421.715 32.6853 421.715 33.24C421.715 33.7947 421.706 34.1587 421.689 34.332C421.637 36.0827 421.108 37.5127 420.103 38.622C419.115 39.714 417.72 40.26 415.917 40.26ZM415.917 38.752C417.148 38.752 418.136 38.362 418.881 37.582C419.644 36.7847 420.051 35.658 420.103 34.202C420.12 34.0287 420.129 33.708 420.129 33.24C420.129 32.772 420.12 32.4513 420.103 32.278C420.051 30.822 419.644 29.704 418.881 28.924C418.136 28.1267 417.148 27.728 415.917 27.728C414.686 27.728 413.69 28.1267 412.927 28.924C412.182 29.704 411.783 30.822 411.731 32.278L411.705 33.24L411.731 34.202C411.783 35.658 412.182 36.7847 412.927 37.582C413.69 38.362 414.686 38.752 415.917 38.752ZM426.099 40C425.926 40 425.787 39.948 425.683 39.844C425.579 39.74 425.527 39.6013 425.527 39.428V27.052C425.527 26.8787 425.579 26.74 425.683 26.636C425.787 26.532 425.926 26.48 426.099 26.48H426.541C426.715 26.48 426.853 26.532 426.957 26.636C427.061 26.74 427.113 26.8787 427.113 27.052V28.274C427.633 27.598 428.223 27.0867 428.881 26.74C429.557 26.3933 430.424 26.22 431.481 26.22C433.18 26.22 434.489 26.766 435.407 27.858C436.326 28.9327 436.785 30.328 436.785 32.044V39.428C436.785 39.6013 436.733 39.74 436.629 39.844C436.525 39.948 436.387 40 436.213 40H435.771C435.598 40 435.459 39.948 435.355 39.844C435.251 39.74 435.199 39.6013 435.199 39.428V32.174C435.199 30.77 434.853 29.678 434.159 28.898C433.483 28.118 432.504 27.728 431.221 27.728C429.973 27.728 428.977 28.1267 428.231 28.924C427.486 29.704 427.113 30.7873 427.113 32.174V39.428C427.113 39.6013 427.061 39.74 426.957 39.844C426.853 39.948 426.715 40 426.541 40H426.099ZM444.763 40.26C443.931 40.26 443.16 40.0867 442.449 39.74C441.738 39.3933 441.166 38.9253 440.733 38.336C440.317 37.7467 440.109 37.0967 440.109 36.386C440.109 35.242 440.568 34.306 441.487 33.578C442.423 32.85 443.68 32.382 445.257 32.174L449.365 31.602V30.692C449.365 29.7387 449.07 29.0107 448.481 28.508C447.909 27.988 447.025 27.728 445.829 27.728C444.945 27.728 444.217 27.9013 443.645 28.248C443.09 28.5947 442.735 29.0107 442.579 29.496C442.51 29.704 442.423 29.8513 442.319 29.938C442.232 30.0073 442.111 30.042 441.955 30.042H441.591C441.435 30.042 441.296 29.99 441.175 29.886C441.071 29.7647 441.019 29.626 441.019 29.47C441.019 29.0887 441.192 28.6467 441.539 28.144C441.886 27.624 442.423 27.1733 443.151 26.792C443.879 26.4107 444.772 26.22 445.829 26.22C447.684 26.22 449.001 26.662 449.781 27.546C450.561 28.43 450.951 29.5047 450.951 30.77V39.428C450.951 39.6013 450.899 39.74 450.795 39.844C450.691 39.948 450.552 40 450.379 40H449.937C449.764 40 449.625 39.948 449.521 39.844C449.417 39.74 449.365 39.6013 449.365 39.428V38.206C448.984 38.778 448.42 39.2633 447.675 39.662C446.947 40.0607 445.976 40.26 444.763 40.26ZM445.023 38.752C446.288 38.752 447.328 38.336 448.143 37.504C448.958 36.672 449.365 35.476 449.365 33.916V33.032L446.011 33.5C444.59 33.6907 443.515 34.02 442.787 34.488C442.059 34.956 441.695 35.5453 441.695 36.256C441.695 37.0533 442.024 37.6687 442.683 38.102C443.359 38.5353 444.139 38.752 445.023 38.752ZM455.921 40C455.747 40 455.609 39.948 455.505 39.844C455.401 39.74 455.349 39.6013 455.349 39.428V22.112C455.349 21.9387 455.401 21.8 455.505 21.696C455.609 21.592 455.747 21.54 455.921 21.54H456.363C456.536 21.54 456.675 21.592 456.779 21.696C456.883 21.8 456.935 21.9387 456.935 22.112V39.428C456.935 39.6013 456.883 39.74 456.779 39.844C456.675 39.948 456.536 40 456.363 40H455.921ZM469.296 40C469.122 40 468.984 39.948 468.88 39.844C468.776 39.74 468.724 39.6013 468.724 39.428V22.398C468.724 22.2247 468.776 22.086 468.88 21.982C468.984 21.8607 469.122 21.8 469.296 21.8H475.614C477.468 21.8 478.924 22.268 479.982 23.204C481.056 24.1227 481.594 25.4487 481.594 27.182C481.594 28.9153 481.056 30.25 479.982 31.186C478.924 32.1047 477.468 32.564 475.614 32.564H470.362V39.428C470.362 39.6013 470.301 39.74 470.18 39.844C470.076 39.948 469.937 40 469.764 40H469.296ZM475.484 31.004C476.974 31.004 478.092 30.6833 478.838 30.042C479.583 29.3833 479.956 28.43 479.956 27.182C479.956 25.934 479.583 24.9893 478.838 24.348C478.092 23.6893 476.974 23.36 475.484 23.36H470.362V31.004H475.484ZM485.57 40C485.396 40 485.258 39.948 485.154 39.844C485.05 39.74 484.998 39.6013 484.998 39.428V22.112C484.998 21.9387 485.05 21.8 485.154 21.696C485.258 21.592 485.396 21.54 485.57 21.54H486.012C486.185 21.54 486.324 21.592 486.428 21.696C486.532 21.8 486.584 21.9387 486.584 22.112V28.274C487.104 27.598 487.693 27.0867 488.352 26.74C489.028 26.3933 489.894 26.22 490.952 26.22C492.65 26.22 493.959 26.766 494.878 27.858C495.796 28.9327 496.256 30.328 496.256 32.044V39.428C496.256 39.6013 496.204 39.74 496.1 39.844C495.996 39.948 495.857 40 495.684 40H495.242C495.068 40 494.93 39.948 494.826 39.844C494.722 39.74 494.67 39.6013 494.67 39.428V32.174C494.67 30.77 494.323 29.678 493.63 28.898C492.954 28.118 491.974 27.728 490.692 27.728C489.444 27.728 488.447 28.1267 487.702 28.924C486.956 29.704 486.584 30.7873 486.584 32.174V39.428C486.584 39.6013 486.532 39.74 486.428 39.844C486.324 39.948 486.185 40 486.012 40H485.57ZM505.741 40.26C503.938 40.26 502.534 39.714 501.529 38.622C500.541 37.5127 500.021 36.0827 499.969 34.332L499.943 33.24L499.969 32.148C500.021 30.3973 500.541 28.976 501.529 27.884C502.534 26.7747 503.938 26.22 505.741 26.22C507.544 26.22 508.939 26.7747 509.927 27.884C510.932 28.976 511.461 30.3973 511.513 32.148C511.53 32.3213 511.539 32.6853 511.539 33.24C511.539 33.7947 511.53 34.1587 511.513 34.332C511.461 36.0827 510.932 37.5127 509.927 38.622C508.939 39.714 507.544 40.26 505.741 40.26ZM505.741 38.752C506.972 38.752 507.96 38.362 508.705 37.582C509.468 36.7847 509.875 35.658 509.927 34.202C509.944 34.0287 509.953 33.708 509.953 33.24C509.953 32.772 509.944 32.4513 509.927 32.278C509.875 30.822 509.468 29.704 508.705 28.924C507.96 28.1267 506.972 27.728 505.741 27.728C504.51 27.728 503.514 28.1267 502.751 28.924C502.006 29.704 501.607 30.822 501.555 32.278L501.529 33.24L501.555 34.202C501.607 35.658 502.006 36.7847 502.751 37.582C503.514 38.362 504.51 38.752 505.741 38.752ZM519.749 40C518.466 40 517.556 39.6187 517.019 38.856C516.481 38.076 516.213 37.01 516.213 35.658V27.988H514.185C514.011 27.988 513.873 27.936 513.769 27.832C513.665 27.728 513.613 27.5893 513.613 27.416V27.052C513.613 26.8787 513.665 26.74 513.769 26.636C513.873 26.532 514.011 26.48 514.185 26.48H516.213V22.112C516.213 21.9387 516.265 21.8 516.369 21.696C516.473 21.592 516.611 21.54 516.785 21.54H517.227C517.4 21.54 517.539 21.592 517.643 21.696C517.747 21.8 517.799 21.9387 517.799 22.112V26.48H521.023C521.196 26.48 521.335 26.532 521.439 26.636C521.543 26.74 521.595 26.8787 521.595 27.052V27.416C521.595 27.5893 521.543 27.728 521.439 27.832C521.335 27.936 521.196 27.988 521.023 27.988H517.799V35.554C517.799 36.5247 517.955 37.2613 518.267 37.764C518.596 38.2493 519.133 38.492 519.879 38.492H521.283C521.456 38.492 521.595 38.544 521.699 38.648C521.803 38.752 521.855 38.8907 521.855 39.064V39.428C521.855 39.6013 521.803 39.74 521.699 39.844C521.595 39.948 521.456 40 521.283 40H519.749ZM529.95 40.26C528.148 40.26 526.744 39.714 525.738 38.622C524.75 37.5127 524.23 36.0827 524.178 34.332L524.152 33.24L524.178 32.148C524.23 30.3973 524.75 28.976 525.738 27.884C526.744 26.7747 528.148 26.22 529.95 26.22C531.753 26.22 533.148 26.7747 534.136 27.884C535.142 28.976 535.67 30.3973 535.722 32.148C535.74 32.3213 535.748 32.6853 535.748 33.24C535.748 33.7947 535.74 34.1587 535.722 34.332C535.67 36.0827 535.142 37.5127 534.136 38.622C533.148 39.714 531.753 40.26 529.95 40.26ZM529.95 38.752C531.181 38.752 532.169 38.362 532.914 37.582C533.677 36.7847 534.084 35.658 534.136 34.202C534.154 34.0287 534.162 33.708 534.162 33.24C534.162 32.772 534.154 32.4513 534.136 32.278C534.084 30.822 533.677 29.704 532.914 28.924C532.169 28.1267 531.181 27.728 529.95 27.728C528.72 27.728 527.723 28.1267 526.96 28.924C526.215 29.704 525.816 30.822 525.764 32.278L525.738 33.24L525.764 34.202C525.816 35.658 526.215 36.7847 526.96 37.582C527.723 38.362 528.72 38.752 529.95 38.752ZM544.605 45.72C543.253 45.72 542.169 45.486 541.355 45.018C540.54 44.55 539.968 44.0127 539.639 43.406C539.327 42.8167 539.171 42.2967 539.171 41.846C539.171 41.69 539.223 41.56 539.327 41.456C539.448 41.352 539.587 41.3 539.743 41.3H540.107C540.263 41.3 540.384 41.3347 540.471 41.404C540.575 41.4907 540.661 41.638 540.731 41.846C541.268 43.4233 542.516 44.212 544.475 44.212C545.965 44.212 547.066 43.9 547.777 43.276C548.487 42.6693 548.843 41.5773 548.843 40V38.206C547.837 39.5753 546.381 40.26 544.475 40.26C542.603 40.26 541.216 39.6533 540.315 38.44C539.431 37.2093 538.963 35.7187 538.911 33.968L538.885 33.24L538.911 32.512C538.963 30.7613 539.431 29.2793 540.315 28.066C541.216 26.8353 542.603 26.22 544.475 26.22C546.364 26.22 547.82 26.9047 548.843 28.274V27.078C548.843 26.9047 548.895 26.766 548.999 26.662C549.103 26.5407 549.241 26.48 549.415 26.48H549.831C550.004 26.48 550.143 26.5407 550.247 26.662C550.368 26.766 550.429 26.9047 550.429 27.078V39.74C550.429 41.5947 549.995 43.0507 549.129 44.108C548.262 45.1827 546.754 45.72 544.605 45.72ZM544.631 38.752C546 38.752 547.031 38.3013 547.725 37.4C548.418 36.4813 548.791 35.4067 548.843 34.176C548.86 34.0027 548.869 33.6907 548.869 33.24C548.869 32.7893 548.86 32.4773 548.843 32.304C548.791 31.0733 548.418 30.0073 547.725 29.106C547.031 28.1873 546 27.728 544.631 27.728C543.227 27.728 542.195 28.1787 541.537 29.08C540.895 29.964 540.549 31.108 540.497 32.512L540.471 33.24L540.497 33.968C540.549 35.372 540.895 36.5247 541.537 37.426C542.195 38.31 543.227 38.752 544.631 38.752ZM555.5 40C555.327 40 555.188 39.948 555.084 39.844C554.98 39.74 554.928 39.6013 554.928 39.428V27.078C554.928 26.9047 554.98 26.766 555.084 26.662C555.188 26.5407 555.327 26.48 555.5 26.48H555.916C556.089 26.48 556.228 26.5407 556.332 26.662C556.453 26.766 556.514 26.9047 556.514 27.078V28.274C557.138 27.078 558.317 26.48 560.05 26.48H561.012C561.185 26.48 561.324 26.532 561.428 26.636C561.532 26.74 561.584 26.8787 561.584 27.052V27.416C561.584 27.5893 561.532 27.728 561.428 27.832C561.324 27.936 561.185 27.988 561.012 27.988H559.894C558.854 27.988 558.031 28.2913 557.424 28.898C556.817 29.5047 556.514 30.328 556.514 31.368V39.428C556.514 39.6013 556.453 39.74 556.332 39.844C556.228 39.948 556.089 40 555.916 40H555.5ZM567.664 40.26C566.832 40.26 566.061 40.0867 565.35 39.74C564.639 39.3933 564.067 38.9253 563.634 38.336C563.218 37.7467 563.01 37.0967 563.01 36.386C563.01 35.242 563.469 34.306 564.388 33.578C565.324 32.85 566.581 32.382 568.158 32.174L572.266 31.602V30.692C572.266 29.7387 571.971 29.0107 571.382 28.508C570.81 27.988 569.926 27.728 568.73 27.728C567.846 27.728 567.118 27.9013 566.546 28.248C565.991 28.5947 565.636 29.0107 565.48 29.496C565.411 29.704 565.324 29.8513 565.22 29.938C565.133 30.0073 565.012 30.042 564.856 30.042H564.492C564.336 30.042 564.197 29.99 564.076 29.886C563.972 29.7647 563.92 29.626 563.92 29.47C563.92 29.0887 564.093 28.6467 564.44 28.144C564.787 27.624 565.324 27.1733 566.052 26.792C566.78 26.4107 567.673 26.22 568.73 26.22C570.585 26.22 571.902 26.662 572.682 27.546C573.462 28.43 573.852 29.5047 573.852 30.77V39.428C573.852 39.6013 573.8 39.74 573.696 39.844C573.592 39.948 573.453 40 573.28 40H572.838C572.665 40 572.526 39.948 572.422 39.844C572.318 39.74 572.266 39.6013 572.266 39.428V38.206C571.885 38.778 571.321 39.2633 570.576 39.662C569.848 40.0607 568.877 40.26 567.664 40.26ZM567.924 38.752C569.189 38.752 570.229 38.336 571.044 37.504C571.859 36.672 572.266 35.476 572.266 33.916V33.032L568.912 33.5C567.491 33.6907 566.416 34.02 565.688 34.488C564.96 34.956 564.596 35.5453 564.596 36.256C564.596 37.0533 564.925 37.6687 565.584 38.102C566.26 38.5353 567.04 38.752 567.924 38.752ZM578.821 44.94C578.648 44.94 578.509 44.888 578.405 44.784C578.301 44.68 578.249 44.5413 578.249 44.368V27.052C578.249 26.8787 578.301 26.74 578.405 26.636C578.509 26.532 578.648 26.48 578.821 26.48H579.263C579.437 26.48 579.575 26.532 579.679 26.636C579.783 26.74 579.835 26.8787 579.835 27.052V28.274C580.841 26.9047 582.297 26.22 584.203 26.22C586.075 26.22 587.453 26.818 588.337 28.014C589.239 29.1927 589.715 30.6487 589.767 32.382C589.785 32.5553 589.793 32.8413 589.793 33.24C589.793 33.6387 589.785 33.9247 589.767 34.098C589.715 35.8313 589.239 37.296 588.337 38.492C587.453 39.6707 586.075 40.26 584.203 40.26C582.314 40.26 580.858 39.5753 579.835 38.206V44.368C579.835 44.5413 579.783 44.68 579.679 44.784C579.575 44.888 579.437 44.94 579.263 44.94H578.821ZM584.047 38.752C585.451 38.752 586.474 38.31 587.115 37.426C587.774 36.5247 588.129 35.372 588.181 33.968C588.199 33.7947 588.207 33.552 588.207 33.24C588.207 31.628 587.895 30.3107 587.271 29.288C586.647 28.248 585.573 27.728 584.047 27.728C582.678 27.728 581.647 28.1873 580.953 29.106C580.26 30.0073 579.887 31.0733 579.835 32.304L579.809 33.318L579.835 34.332C579.853 35.0773 580.017 35.788 580.329 36.464C580.641 37.1227 581.109 37.6687 581.733 38.102C582.357 38.5353 583.129 38.752 584.047 38.752ZM594.189 40C594.015 40 593.877 39.948 593.773 39.844C593.669 39.74 593.617 39.6013 593.617 39.428V22.112C593.617 21.9387 593.669 21.8 593.773 21.696C593.877 21.592 594.015 21.54 594.189 21.54H594.631C594.804 21.54 594.943 21.592 595.047 21.696C595.151 21.8 595.203 21.9387 595.203 22.112V28.274C595.723 27.598 596.312 27.0867 596.971 26.74C597.647 26.3933 598.513 26.22 599.571 26.22C601.269 26.22 602.578 26.766 603.497 27.858C604.415 28.9327 604.875 30.328 604.875 32.044V39.428C604.875 39.6013 604.823 39.74 604.719 39.844C604.615 39.948 604.476 40 604.303 40H603.861C603.687 40 603.549 39.948 603.445 39.844C603.341 39.74 603.289 39.6013 603.289 39.428V32.174C603.289 30.77 602.942 29.678 602.249 28.898C601.573 28.118 600.593 27.728 599.311 27.728C598.063 27.728 597.066 28.1267 596.321 28.924C595.575 29.704 595.203 30.7873 595.203 32.174V39.428C595.203 39.6013 595.151 39.74 595.047 39.844C594.943 39.948 594.804 40 594.631 40H594.189ZM611.119 44.94C610.981 44.94 610.859 44.888 610.755 44.784C610.651 44.68 610.599 44.5587 610.599 44.42C610.599 44.3333 610.651 44.16 610.755 43.9L612.757 39.22L607.791 27.52C607.687 27.26 607.635 27.0867 607.635 27C607.635 26.8613 607.687 26.74 607.791 26.636C607.895 26.532 608.017 26.48 608.155 26.48H608.701C608.979 26.48 609.178 26.61 609.299 26.87L613.667 37.166L618.139 26.87C618.278 26.61 618.477 26.48 618.737 26.48H619.257C619.396 26.48 619.517 26.532 619.621 26.636C619.725 26.74 619.777 26.8613 619.777 27C619.777 27.0867 619.725 27.26 619.621 27.52L612.237 44.55C612.116 44.81 611.917 44.94 611.639 44.94H611.119ZM635.681 40.26C633.428 40.26 631.738 39.6273 630.611 38.362C629.485 37.0793 628.878 35.3633 628.791 33.214C628.774 32.746 628.765 31.9833 628.765 30.926C628.765 29.8513 628.774 29.0713 628.791 28.586C628.878 26.4367 629.485 24.7293 630.611 23.464C631.738 22.1813 633.428 21.54 635.681 21.54C637.224 21.54 638.507 21.826 639.529 22.398C640.552 22.9527 641.306 23.6633 641.791 24.53C642.294 25.3793 642.571 26.2547 642.623 27.156V27.208C642.623 27.3467 642.571 27.4593 642.467 27.546C642.363 27.6327 642.233 27.676 642.077 27.676H641.557C641.245 27.676 641.055 27.494 640.985 27.13C640.656 25.6567 640.058 24.6167 639.191 24.01C638.325 23.4033 637.155 23.1 635.681 23.1C634.052 23.1 632.787 23.5593 631.885 24.478C630.984 25.3967 630.499 26.8093 630.429 28.716C630.412 29.184 630.403 29.9033 630.403 30.874C630.403 31.8447 630.412 32.5813 630.429 33.084C630.499 34.9907 630.984 36.4033 631.885 37.322C632.787 38.2407 634.052 38.7 635.681 38.7C637.155 38.7 638.325 38.3967 639.191 37.79C640.058 37.1833 640.656 36.1433 640.985 34.67C641.055 34.306 641.245 34.124 641.557 34.124H642.077C642.233 34.124 642.363 34.176 642.467 34.28C642.589 34.3667 642.641 34.488 642.623 34.644C642.571 35.5453 642.294 36.4293 641.791 37.296C641.306 38.1453 640.552 38.856 639.529 39.428C638.507 39.9827 637.224 40.26 635.681 40.26ZM651.525 40.26C649.722 40.26 648.318 39.714 647.313 38.622C646.325 37.5127 645.805 36.0827 645.753 34.332L645.727 33.24L645.753 32.148C645.805 30.3973 646.325 28.976 647.313 27.884C648.318 26.7747 649.722 26.22 651.525 26.22C653.328 26.22 654.723 26.7747 655.711 27.884C656.716 28.976 657.245 30.3973 657.297 32.148C657.314 32.3213 657.323 32.6853 657.323 33.24C657.323 33.7947 657.314 34.1587 657.297 34.332C657.245 36.0827 656.716 37.5127 655.711 38.622C654.723 39.714 653.328 40.26 651.525 40.26ZM651.525 38.752C652.756 38.752 653.744 38.362 654.489 37.582C655.252 36.7847 655.659 35.658 655.711 34.202C655.728 34.0287 655.737 33.708 655.737 33.24C655.737 32.772 655.728 32.4513 655.711 32.278C655.659 30.822 655.252 29.704 654.489 28.924C653.744 28.1267 652.756 27.728 651.525 27.728C650.294 27.728 649.298 28.1267 648.535 28.924C647.79 29.704 647.391 30.822 647.339 32.278L647.313 33.24L647.339 34.202C647.391 35.658 647.79 36.7847 648.535 37.582C649.298 38.362 650.294 38.752 651.525 38.752ZM661.707 40C661.534 40 661.395 39.948 661.291 39.844C661.187 39.74 661.135 39.6013 661.135 39.428V27.052C661.135 26.8787 661.187 26.74 661.291 26.636C661.395 26.532 661.534 26.48 661.707 26.48H662.149C662.322 26.48 662.461 26.532 662.565 26.636C662.669 26.74 662.721 26.8787 662.721 27.052V27.962C663.172 27.39 663.692 26.9567 664.281 26.662C664.888 26.3673 665.607 26.22 666.439 26.22C668.38 26.22 669.767 27.0347 670.599 28.664C671.015 27.9187 671.604 27.3293 672.367 26.896C673.147 26.4453 674.031 26.22 675.019 26.22C676.458 26.22 677.628 26.714 678.529 27.702C679.43 28.6727 679.881 30.0593 679.881 31.862V39.428C679.881 39.6013 679.829 39.74 679.725 39.844C679.621 39.948 679.482 40 679.309 40H678.867C678.694 40 678.555 39.948 678.451 39.844C678.347 39.74 678.295 39.6013 678.295 39.428V32.122C678.295 30.5447 677.966 29.418 677.307 28.742C676.666 28.066 675.816 27.728 674.759 27.728C673.823 27.728 673.008 28.0747 672.315 28.768C671.639 29.444 671.301 30.562 671.301 32.122V39.428C671.301 39.6013 671.249 39.74 671.145 39.844C671.041 39.948 670.902 40 670.729 40H670.287C670.114 40 669.975 39.948 669.871 39.844C669.767 39.74 669.715 39.6013 669.715 39.428V32.122C669.715 30.562 669.377 29.444 668.701 28.768C668.025 28.0747 667.184 27.728 666.179 27.728C665.243 27.728 664.428 28.0747 663.735 28.768C663.059 29.444 662.721 30.5533 662.721 32.096V39.428C662.721 39.6013 662.669 39.74 662.565 39.844C662.461 39.948 662.322 40 662.149 40H661.707ZM684.819 44.94C684.646 44.94 684.507 44.888 684.403 44.784C684.299 44.68 684.247 44.5413 684.247 44.368V27.052C684.247 26.8787 684.299 26.74 684.403 26.636C684.507 26.532 684.646 26.48 684.819 26.48H685.261C685.434 26.48 685.573 26.532 685.677 26.636C685.781 26.74 685.833 26.8787 685.833 27.052V28.274C686.838 26.9047 688.294 26.22 690.201 26.22C692.073 26.22 693.451 26.818 694.335 28.014C695.236 29.1927 695.713 30.6487 695.765 32.382C695.782 32.5553 695.791 32.8413 695.791 33.24C695.791 33.6387 695.782 33.9247 695.765 34.098C695.713 35.8313 695.236 37.296 694.335 38.492C693.451 39.6707 692.073 40.26 690.201 40.26C688.312 40.26 686.856 39.5753 685.833 38.206V44.368C685.833 44.5413 685.781 44.68 685.677 44.784C685.573 44.888 685.434 44.94 685.261 44.94H684.819ZM690.045 38.752C691.449 38.752 692.472 38.31 693.113 37.426C693.772 36.5247 694.127 35.372 694.179 33.968C694.196 33.7947 694.205 33.552 694.205 33.24C694.205 31.628 693.893 30.3107 693.269 29.288C692.645 28.248 691.57 27.728 690.045 27.728C688.676 27.728 687.644 28.1873 686.951 29.106C686.258 30.0073 685.885 31.0733 685.833 32.304L685.807 33.318L685.833 34.332C685.85 35.0773 686.015 35.788 686.327 36.464C686.639 37.1227 687.107 37.6687 687.731 38.102C688.355 38.5353 689.126 38.752 690.045 38.752ZM704.606 40.26C702.96 40.26 701.634 39.7227 700.628 38.648C699.623 37.556 699.051 36.1 698.912 34.28L698.886 33.24L698.912 32.2C699.051 30.3973 699.614 28.95 700.602 27.858C701.608 26.766 702.942 26.22 704.606 26.22C706.409 26.22 707.813 26.818 708.818 28.014C709.841 29.21 710.352 30.848 710.352 32.928V33.318C710.352 33.4913 710.292 33.63 710.17 33.734C710.066 33.838 709.928 33.89 709.754 33.89H700.498V34.15C700.533 34.9647 700.715 35.7273 701.044 36.438C701.391 37.1313 701.868 37.6947 702.474 38.128C703.081 38.544 703.792 38.752 704.606 38.752C705.56 38.752 706.331 38.57 706.92 38.206C707.527 37.8247 707.96 37.4433 708.22 37.062C708.376 36.854 708.489 36.724 708.558 36.672C708.645 36.62 708.792 36.594 709 36.594H709.416C709.572 36.594 709.702 36.6373 709.806 36.724C709.91 36.8107 709.962 36.9233 709.962 37.062C709.962 37.426 709.728 37.868 709.26 38.388C708.81 38.8907 708.177 39.3327 707.362 39.714C706.548 40.078 705.629 40.26 704.606 40.26ZM708.766 32.434V32.33C708.766 30.9953 708.385 29.8947 707.622 29.028C706.877 28.1613 705.872 27.728 704.606 27.728C703.341 27.728 702.336 28.1613 701.59 29.028C700.862 29.8947 700.498 30.9953 700.498 32.33V32.434H708.766ZM718.49 40C717.208 40 716.298 39.6187 715.76 38.856C715.223 38.076 714.954 37.01 714.954 35.658V27.988H712.926C712.753 27.988 712.614 27.936 712.51 27.832C712.406 27.728 712.354 27.5893 712.354 27.416V27.052C712.354 26.8787 712.406 26.74 712.51 26.636C712.614 26.532 712.753 26.48 712.926 26.48H714.954V22.112C714.954 21.9387 715.006 21.8 715.11 21.696C715.214 21.592 715.353 21.54 715.526 21.54H715.968C716.142 21.54 716.28 21.592 716.384 21.696C716.488 21.8 716.54 21.9387 716.54 22.112V26.48H719.764C719.938 26.48 720.076 26.532 720.18 26.636C720.284 26.74 720.336 26.8787 720.336 27.052V27.416C720.336 27.5893 720.284 27.728 720.18 27.832C720.076 27.936 719.938 27.988 719.764 27.988H716.54V35.554C716.54 36.5247 716.696 37.2613 717.008 37.764C717.338 38.2493 717.875 38.492 718.62 38.492H720.024C720.198 38.492 720.336 38.544 720.44 38.648C720.544 38.752 720.596 38.8907 720.596 39.064V39.428C720.596 39.6013 720.544 39.74 720.44 39.844C720.336 39.948 720.198 40 720.024 40H718.49ZM723.83 23.698C723.657 23.698 723.518 23.646 723.414 23.542C723.31 23.438 723.258 23.2993 723.258 23.126V22.138C723.258 21.9647 723.31 21.826 723.414 21.722C723.518 21.6007 723.657 21.54 723.83 21.54H724.818C724.991 21.54 725.13 21.6007 725.234 21.722C725.355 21.826 725.416 21.9647 725.416 22.138V23.126C725.416 23.2993 725.355 23.438 725.234 23.542C725.13 23.646 724.991 23.698 724.818 23.698H723.83ZM724.116 40C723.943 40 723.804 39.948 723.7 39.844C723.596 39.74 723.544 39.6013 723.544 39.428V27.052C723.544 26.8787 723.596 26.74 723.7 26.636C723.804 26.532 723.943 26.48 724.116 26.48H724.558C724.731 26.48 724.87 26.532 724.974 26.636C725.078 26.74 725.13 26.8787 725.13 27.052V39.428C725.13 39.6013 725.078 39.74 724.974 39.844C724.87 39.948 724.731 40 724.558 40H724.116ZM734.143 40C732.86 40 731.95 39.6187 731.413 38.856C730.876 38.076 730.607 37.01 730.607 35.658V27.988H728.579C728.406 27.988 728.267 27.936 728.163 27.832C728.059 27.728 728.007 27.5893 728.007 27.416V27.052C728.007 26.8787 728.059 26.74 728.163 26.636C728.267 26.532 728.406 26.48 728.579 26.48H730.607V22.112C730.607 21.9387 730.659 21.8 730.763 21.696C730.867 21.592 731.006 21.54 731.179 21.54H731.621C731.794 21.54 731.933 21.592 732.037 21.696C732.141 21.8 732.193 21.9387 732.193 22.112V26.48H735.417C735.59 26.48 735.729 26.532 735.833 26.636C735.937 26.74 735.989 26.8787 735.989 27.052V27.416C735.989 27.5893 735.937 27.728 735.833 27.832C735.729 27.936 735.59 27.988 735.417 27.988H732.193V35.554C732.193 36.5247 732.349 37.2613 732.661 37.764C732.99 38.2493 733.528 38.492 734.273 38.492H735.677C735.85 38.492 735.989 38.544 736.093 38.648C736.197 38.752 736.249 38.8907 736.249 39.064V39.428C736.249 39.6013 736.197 39.74 736.093 39.844C735.989 39.948 735.85 40 735.677 40H734.143ZM739.483 23.698C739.31 23.698 739.171 23.646 739.067 23.542C738.963 23.438 738.911 23.2993 738.911 23.126V22.138C738.911 21.9647 738.963 21.826 739.067 21.722C739.171 21.6007 739.31 21.54 739.483 21.54H740.471C740.644 21.54 740.783 21.6007 740.887 21.722C741.008 21.826 741.069 21.9647 741.069 22.138V23.126C741.069 23.2993 741.008 23.438 740.887 23.542C740.783 23.646 740.644 23.698 740.471 23.698H739.483ZM739.769 40C739.596 40 739.457 39.948 739.353 39.844C739.249 39.74 739.197 39.6013 739.197 39.428V27.052C739.197 26.8787 739.249 26.74 739.353 26.636C739.457 26.532 739.596 26.48 739.769 26.48H740.211C740.384 26.48 740.523 26.532 740.627 26.636C740.731 26.74 740.783 26.8787 740.783 27.052V39.428C740.783 39.6013 740.731 39.74 740.627 39.844C740.523 39.948 740.384 40 740.211 40H739.769ZM750.394 40.26C748.591 40.26 747.187 39.714 746.182 38.622C745.194 37.5127 744.674 36.0827 744.622 34.332L744.596 33.24L744.622 32.148C744.674 30.3973 745.194 28.976 746.182 27.884C747.187 26.7747 748.591 26.22 750.394 26.22C752.197 26.22 753.592 26.7747 754.58 27.884C755.585 28.976 756.114 30.3973 756.166 32.148C756.183 32.3213 756.192 32.6853 756.192 33.24C756.192 33.7947 756.183 34.1587 756.166 34.332C756.114 36.0827 755.585 37.5127 754.58 38.622C753.592 39.714 752.197 40.26 750.394 40.26ZM750.394 38.752C751.625 38.752 752.613 38.362 753.358 37.582C754.121 36.7847 754.528 35.658 754.58 34.202C754.597 34.0287 754.606 33.708 754.606 33.24C754.606 32.772 754.597 32.4513 754.58 32.278C754.528 30.822 754.121 29.704 753.358 28.924C752.613 28.1267 751.625 27.728 750.394 27.728C749.163 27.728 748.167 28.1267 747.404 28.924C746.659 29.704 746.26 30.822 746.208 32.278L746.182 33.24L746.208 34.202C746.26 35.658 746.659 36.7847 747.404 37.582C748.167 38.362 749.163 38.752 750.394 38.752ZM760.576 40C760.403 40 760.264 39.948 760.16 39.844C760.056 39.74 760.004 39.6013 760.004 39.428V27.052C760.004 26.8787 760.056 26.74 760.16 26.636C760.264 26.532 760.403 26.48 760.576 26.48H761.018C761.191 26.48 761.33 26.532 761.434 26.636C761.538 26.74 761.59 26.8787 761.59 27.052V28.274C762.11 27.598 762.699 27.0867 763.358 26.74C764.034 26.3933 764.901 26.22 765.958 26.22C767.657 26.22 768.965 26.766 769.884 27.858C770.803 28.9327 771.262 30.328 771.262 32.044V39.428C771.262 39.6013 771.21 39.74 771.106 39.844C771.002 39.948 770.863 40 770.69 40H770.248C770.075 40 769.936 39.948 769.832 39.844C769.728 39.74 769.676 39.6013 769.676 39.428V32.174C769.676 30.77 769.329 29.678 768.636 28.898C767.96 28.118 766.981 27.728 765.698 27.728C764.45 27.728 763.453 28.1267 762.708 28.924C761.963 29.704 761.59 30.7873 761.59 32.174V39.428C761.59 39.6013 761.538 39.74 761.434 39.844C761.33 39.948 761.191 40 761.018 40H760.576Z" fill="black"/>
</svg>
