<svg width="845" height="300" viewBox="0 0 845 300" fill="none" xmlns="http://www.w3.org/2000/svg">
<path d="M92.6179 164.104C92.6179 109.443 136.886 65.0218 191.358 65.0218V50.2146V25.0109H162.788C162.788 25.0109 142.851 24.2233 136.101 36.0375C129.351 47.6942 110.514 50.3721 110.514 50.3721H88.8504V43.9137C88.8504 39.503 85.3969 36.0375 81.0014 36.0375H59.8092C55.4138 36.0375 51.9602 39.503 51.9602 43.9137V50.3721H15.698C7.06408 50.3721 0 57.4607 0 66.1244V259.248C0 267.911 7.06408 275 15.698 275H191.358V263.343C136.886 263.186 92.6179 218.922 92.6179 164.104Z" fill="#FF4F00"/>
<path d="M191.358 231.535C154.411 231.535 124.508 201.276 124.508 163.889C124.508 126.502 154.411 96.2431 191.358 96.2431V76.4404C143.608 76.4404 104.938 115.57 104.938 163.889C104.938 212.207 143.608 251.338 191.358 251.338V231.535Z" fill="#FF4F00"/>
<path d="M216 0H226V300H216V0Z" fill="#FF4F00"/>
<path d="M141.493 137.554C137.346 145.458 135 154.455 135 164C135 192.36 155.712 215.883 182.834 220.267C157.172 210.21 139 185.227 139 156C139 149.611 139.868 143.426 141.493 137.554Z" fill="#FF4F00"/>
<path d="M258.228 97.0888C257.669 97.0888 257.212 96.911 256.857 96.5555C256.501 96.1492 256.323 95.6921 256.323 95.1842V45.6663C256.323 45.1077 256.501 44.6506 256.857 44.2951C257.212 43.9396 257.669 43.7618 258.228 43.7618H279.559C283.774 43.7618 287.431 44.4221 290.529 45.7425C293.678 47.0122 296.115 48.9421 297.842 51.5323C299.62 54.1225 300.508 57.3983 300.508 61.3597C300.508 65.2704 299.62 68.4954 297.842 71.0347C296.115 73.5741 293.678 75.4533 290.529 76.6722C287.431 77.8911 283.774 78.5005 279.559 78.5005H270.493V95.1842C270.493 95.6921 270.29 96.1492 269.884 96.5555C269.528 96.911 269.071 97.0888 268.512 97.0888H258.228ZM270.264 67.9875H279.178C281.362 67.9875 283.088 67.4288 284.358 66.3115C285.678 65.1942 286.339 63.4928 286.339 61.2073C286.339 59.2774 285.78 57.6522 284.663 56.3317C283.545 55.0113 281.717 54.351 279.178 54.351H270.264V67.9875Z" fill="#FF4F00"/>
<path d="M309.71 97.0888C309.151 97.0888 308.694 96.911 308.338 96.5555C307.983 96.2 307.805 95.7429 307.805 95.1842V45.6663C307.805 45.1077 307.983 44.6506 308.338 44.2951C308.694 43.9396 309.151 43.7618 309.71 43.7618H319.537C320.096 43.7618 320.553 43.9396 320.908 44.2951C321.315 44.6506 321.518 45.1077 321.518 45.6663V64.0261H340.258V45.6663C340.258 45.1077 340.436 44.6506 340.792 44.2951C341.147 43.9396 341.604 43.7618 342.163 43.7618H351.99C352.549 43.7618 353.006 43.9396 353.362 44.2951C353.717 44.6506 353.895 45.1077 353.895 45.6663V95.1842C353.895 95.6921 353.717 96.1492 353.362 96.5555C353.006 96.911 352.549 97.0888 351.99 97.0888H342.163C341.604 97.0888 341.147 96.911 340.792 96.5555C340.436 96.1492 340.258 95.6921 340.258 95.1842V76.2151H321.518V95.1842C321.518 95.6921 321.315 96.1492 320.908 96.5555C320.553 96.911 320.096 97.0888 319.537 97.0888H309.71Z" fill="#FF4F00"/>
<path d="M386.357 97.8506C381.685 97.8506 377.622 97.0888 374.168 95.5652C370.715 94.0415 368.023 91.7561 366.093 88.7088C364.163 85.6108 363.096 81.7509 362.893 77.1293C362.842 74.9454 362.817 72.7615 362.817 70.5777C362.817 68.343 362.842 66.1337 362.893 63.9499C363.096 59.379 364.163 55.5445 366.093 52.4465C368.074 49.2977 370.791 46.936 374.244 45.3616C377.749 43.7872 381.786 43 386.357 43C390.979 43 395.016 43.7872 398.47 45.3616C401.924 46.936 404.641 49.2977 406.621 52.4465C408.602 55.5445 409.669 59.379 409.821 63.9499C409.923 66.1337 409.973 68.343 409.973 70.5777C409.973 72.7615 409.923 74.9454 409.821 77.1293C409.669 81.7509 408.602 85.6108 406.621 88.7088C404.691 91.7561 402 94.0415 398.546 95.5652C395.093 97.0888 391.03 97.8506 386.357 97.8506ZM386.357 86.8805C389.049 86.8805 391.233 86.0679 392.909 84.4427C394.635 82.8175 395.55 80.2273 395.651 76.6722C395.753 74.4375 395.804 72.3298 395.804 70.3491C395.804 68.3684 395.753 66.3115 395.651 64.1784C395.55 61.7914 395.093 59.8615 394.28 58.3886C393.518 56.865 392.452 55.7477 391.08 55.0367C389.709 54.3256 388.135 53.9701 386.357 53.9701C384.63 53.9701 383.081 54.3256 381.71 55.0367C380.339 55.7477 379.247 56.865 378.434 58.3886C377.622 59.8615 377.165 61.7914 377.063 64.1784C377.012 66.3115 376.987 68.3684 376.987 70.3491C376.987 72.3298 377.012 74.4375 377.063 76.6722C377.215 80.2273 378.13 82.8175 379.806 84.4427C381.532 86.0679 383.716 86.8805 386.357 86.8805Z" fill="#FF4F00"/>
<path d="M431.622 97.0888C431.063 97.0888 430.606 96.911 430.251 96.5555C429.895 96.1492 429.717 95.6921 429.717 95.1842V55.7223H416.157C415.598 55.7223 415.141 55.5445 414.786 55.189C414.43 54.7827 414.253 54.3256 414.253 53.8178V45.6663C414.253 45.1077 414.43 44.6506 414.786 44.2951C415.141 43.9396 415.598 43.7618 416.157 43.7618H457.143C457.701 43.7618 458.158 43.9396 458.514 44.2951C458.869 44.6506 459.047 45.1077 459.047 45.6663V53.8178C459.047 54.3256 458.869 54.7827 458.514 55.189C458.158 55.5445 457.701 55.7223 457.143 55.7223H443.582V95.1842C443.582 95.6921 443.405 96.1492 443.049 96.5555C442.694 96.911 442.237 97.0888 441.678 97.0888H431.622Z" fill="#FF4F00"/>
<path d="M486.94 97.8506C482.268 97.8506 478.205 97.0888 474.751 95.5652C471.298 94.0415 468.606 91.7561 466.676 88.7088C464.746 85.6108 463.68 81.7509 463.476 77.1293C463.426 74.9454 463.4 72.7615 463.4 70.5777C463.4 68.343 463.426 66.1337 463.476 63.9499C463.68 59.379 464.746 55.5445 466.676 52.4465C468.657 49.2977 471.374 46.936 474.827 45.3616C478.332 43.7872 482.369 43 486.94 43C491.562 43 495.6 43.7872 499.053 45.3616C502.507 46.936 505.224 49.2977 507.205 52.4465C509.185 55.5445 510.252 59.379 510.404 63.9499C510.506 66.1337 510.557 68.343 510.557 70.5777C510.557 72.7615 510.506 74.9454 510.404 77.1293C510.252 81.7509 509.185 85.6108 507.205 88.7088C505.275 91.7561 502.583 94.0415 499.129 95.5652C495.676 97.0888 491.613 97.8506 486.94 97.8506ZM486.94 86.8805C489.632 86.8805 491.816 86.0679 493.492 84.4427C495.219 82.8175 496.133 80.2273 496.234 76.6722C496.336 74.4375 496.387 72.3298 496.387 70.3491C496.387 68.3684 496.336 66.3115 496.234 64.1784C496.133 61.7914 495.676 59.8615 494.863 58.3886C494.101 56.865 493.035 55.7477 491.664 55.0367C490.292 54.3256 488.718 53.9701 486.94 53.9701C485.214 53.9701 483.665 54.3256 482.293 55.0367C480.922 55.7477 479.83 56.865 479.017 58.3886C478.205 59.8615 477.748 61.7914 477.646 64.1784C477.595 66.3115 477.57 68.3684 477.57 70.3491C477.57 72.3298 477.595 74.4375 477.646 76.6722C477.799 80.2273 478.713 82.8175 480.389 84.4427C482.116 86.0679 484.299 86.8805 486.94 86.8805Z" fill="#FF4F00"/>
<path d="M541.403 97.8506C536.579 97.8506 532.414 97.0634 528.91 95.489C525.456 93.8638 522.764 91.5275 520.835 88.4803C518.955 85.3822 517.914 81.624 517.711 77.2054C517.66 75.0216 517.635 72.7107 517.635 70.2729C517.635 67.7843 517.66 65.4227 517.711 63.1881C517.914 58.8711 518.981 55.2144 520.911 52.2179C522.841 49.2215 525.558 46.936 529.062 45.3616C532.566 43.7872 536.68 43 541.403 43C545.213 43 548.59 43.4825 551.536 44.4474C554.481 45.3616 556.944 46.6059 558.925 48.1803C560.957 49.7548 562.506 51.4815 563.572 53.3607C564.639 55.2398 565.197 57.0936 565.248 58.9219C565.248 59.379 565.07 59.7599 564.715 60.0646C564.41 60.3694 564.029 60.5217 563.572 60.5217H552.45C551.891 60.5217 551.459 60.4455 551.155 60.2932C550.901 60.09 550.672 59.8107 550.469 59.4552C550.114 58.6934 549.58 57.9062 548.869 57.0936C548.209 56.2302 547.269 55.4937 546.051 54.8843C544.882 54.2748 543.333 53.9701 541.403 53.9701C538.559 53.9701 536.299 54.7319 534.623 56.2556C532.947 57.7792 532.033 60.217 531.881 63.569C531.728 67.9367 531.728 72.3552 531.881 76.8245C532.033 80.3797 532.973 82.9444 534.7 84.5188C536.426 86.0933 538.737 86.8805 541.632 86.8805C543.511 86.8805 545.187 86.5504 546.66 85.8901C548.184 85.2299 549.377 84.2141 550.241 82.8429C551.104 81.4208 551.536 79.6178 551.536 77.434V75.9865H544.375C543.816 75.9865 543.359 75.8088 543.003 75.4533C542.648 75.047 542.47 74.5645 542.47 74.0058V68.3684C542.47 67.8097 542.648 67.3526 543.003 66.9971C543.359 66.5908 543.816 66.3877 544.375 66.3877H563.572C564.131 66.3877 564.588 66.5908 564.944 66.9971C565.299 67.3526 565.477 67.8097 565.477 68.3684V77.0531C565.477 81.4208 564.486 85.1537 562.506 88.2517C560.525 91.3498 557.706 93.7368 554.05 95.4128C550.444 97.038 546.228 97.8506 541.403 97.8506Z" fill="#FF4F00"/>
<path d="M576.121 97.0888C575.563 97.0888 575.106 96.911 574.75 96.5555C574.395 96.1492 574.217 95.6921 574.217 95.1842V45.6663C574.217 45.1077 574.395 44.6506 574.75 44.2951C575.106 43.9396 575.563 43.7618 576.121 43.7618H596.843C603.445 43.7618 608.625 45.2854 612.384 48.3327C616.142 51.3292 618.021 55.5953 618.021 61.1312C618.021 64.7371 617.158 67.7843 615.431 70.2729C613.704 72.7615 611.419 74.6407 608.575 75.9104L619.011 94.651C619.164 94.9557 619.24 95.235 619.24 95.489C619.24 95.8953 619.062 96.2762 618.707 96.6317C618.402 96.9364 618.046 97.0888 617.64 97.0888H607.508C606.543 97.0888 605.832 96.8602 605.375 96.4031C604.918 95.8953 604.588 95.4382 604.385 95.0319L595.7 78.272H587.929V95.1842C587.929 95.6921 587.726 96.1492 587.32 96.5555C586.964 96.911 586.507 97.0888 585.949 97.0888H576.121ZM587.929 67.4542H596.69C599.077 67.4542 600.855 66.8702 602.023 65.702C603.242 64.5339 603.851 62.9595 603.851 60.9788C603.851 58.9981 603.267 57.3983 602.099 56.1794C600.982 54.9605 599.179 54.351 596.69 54.351H587.929V67.4542Z" fill="#FF4F00"/>
<path d="M623.842 97.0888C623.436 97.0888 623.055 96.9364 622.699 96.6317C622.394 96.2762 622.242 95.8953 622.242 95.489C622.242 95.235 622.267 95.0065 622.318 94.8033L640.221 45.8949C640.373 45.3362 640.678 44.8537 641.135 44.4474C641.643 43.9904 642.329 43.7618 643.192 43.7618H654.467C655.33 43.7618 655.99 43.9904 656.447 44.4474C656.955 44.8537 657.285 45.3362 657.438 45.8949L675.264 94.8033C675.366 95.0065 675.417 95.235 675.417 95.489C675.417 95.8953 675.239 96.2762 674.883 96.6317C674.579 96.9364 674.198 97.0888 673.741 97.0888H664.37C663.608 97.0888 663.024 96.911 662.618 96.5555C662.263 96.1492 662.034 95.7937 661.932 95.489L658.961 87.7185H638.621L635.726 95.489C635.625 95.7937 635.396 96.1492 635.04 96.5555C634.685 96.911 634.075 97.0888 633.212 97.0888H623.842ZM641.744 76.7484H655.914L648.829 56.6365L641.744 76.7484Z" fill="#FF4F00"/>
<path d="M683.326 97.0888C682.767 97.0888 682.31 96.911 681.954 96.5555C681.599 96.1492 681.421 95.6921 681.421 95.1842V45.6663C681.421 45.1077 681.599 44.6506 681.954 44.2951C682.31 43.9396 682.767 43.7618 683.326 43.7618H704.657C708.872 43.7618 712.529 44.4221 715.627 45.7425C718.775 47.0122 721.213 48.9421 722.94 51.5323C724.718 54.1225 725.606 57.3983 725.606 61.3597C725.606 65.2704 724.718 68.4954 722.94 71.0347C721.213 73.5741 718.775 75.4533 715.627 76.6722C712.529 77.8911 708.872 78.5005 704.657 78.5005H695.591V95.1842C695.591 95.6921 695.388 96.1492 694.982 96.5555C694.626 96.911 694.169 97.0888 693.61 97.0888H683.326ZM695.362 67.9875H704.276C706.46 67.9875 708.186 67.4288 709.456 66.3115C710.776 65.1942 711.437 63.4928 711.437 61.2073C711.437 59.2774 710.878 57.6522 709.761 56.3317C708.643 55.0113 706.815 54.351 704.276 54.351H695.362V67.9875Z" fill="#FF4F00"/>
<path d="M734.808 97.0888C734.249 97.0888 733.792 96.911 733.436 96.5555C733.081 96.2 732.903 95.7429 732.903 95.1842V45.6663C732.903 45.1077 733.081 44.6506 733.436 44.2951C733.792 43.9396 734.249 43.7618 734.808 43.7618H744.635C745.194 43.7618 745.651 43.9396 746.006 44.2951C746.413 44.6506 746.616 45.1077 746.616 45.6663V64.0261H765.356V45.6663C765.356 45.1077 765.534 44.6506 765.89 44.2951C766.245 43.9396 766.702 43.7618 767.261 43.7618H777.088C777.647 43.7618 778.104 43.9396 778.46 44.2951C778.815 44.6506 778.993 45.1077 778.993 45.6663V95.1842C778.993 95.6921 778.815 96.1492 778.46 96.5555C778.104 96.911 777.647 97.0888 777.088 97.0888H767.261C766.702 97.0888 766.245 96.911 765.89 96.5555C765.534 96.1492 765.356 95.6921 765.356 95.1842V76.2151H746.616V95.1842C746.616 95.6921 746.413 96.1492 746.006 96.5555C745.651 96.911 745.194 97.0888 744.635 97.0888H734.808Z" fill="#FF4F00"/>
<path d="M805.284 97.0888C804.777 97.0888 804.319 96.911 803.913 96.5555C803.558 96.1492 803.38 95.6921 803.38 95.1842V78.8052L785.706 46.1996C785.655 46.0473 785.604 45.9203 785.553 45.8187C785.503 45.6663 785.477 45.514 785.477 45.3616C785.477 44.9553 785.63 44.5998 785.934 44.2951C786.29 43.9396 786.696 43.7618 787.153 43.7618H796.676C797.438 43.7618 798.022 43.965 798.428 44.3713C798.885 44.7268 799.19 45.0569 799.342 45.3616L810.236 65.0164L821.206 45.3616C821.359 45.0569 821.638 44.7268 822.044 44.3713C822.501 43.965 823.111 43.7618 823.873 43.7618H833.395C833.852 43.7618 834.233 43.9396 834.538 44.2951C834.843 44.5998 834.995 44.9553 834.995 45.3616C834.995 45.514 834.97 45.6663 834.919 45.8187C834.919 45.9203 834.894 46.0473 834.843 46.1996L817.169 78.8052V95.1842C817.169 95.6921 816.966 96.1492 816.559 96.5555C816.204 96.911 815.747 97.0888 815.188 97.0888H805.284Z" fill="#FF4F00"/>
<path d="M281.408 199.182C276.069 199.182 271.468 198.301 267.605 196.541C263.743 194.78 260.732 192.195 258.574 188.787C256.472 185.379 255.308 181.147 255.08 176.092C255.024 173.763 254.995 171.264 254.995 168.594C254.995 165.924 255.024 163.368 255.08 160.926C255.308 155.984 256.5 151.781 258.659 148.316C260.817 144.851 263.828 142.238 267.69 140.477C271.553 138.716 276.125 137.836 281.408 137.836C285.157 137.836 288.622 138.319 291.803 139.284C294.984 140.193 297.767 141.556 300.153 143.374C302.538 145.135 304.384 147.293 305.691 149.849C307.054 152.349 307.764 155.189 307.821 158.37C307.878 158.881 307.707 159.307 307.31 159.648C306.969 159.989 306.543 160.159 306.032 160.159H294.529C293.791 160.159 293.223 160.017 292.825 159.733C292.428 159.392 292.087 158.796 291.803 157.944C291.008 154.933 289.701 152.888 287.883 151.809C286.123 150.673 283.936 150.105 281.323 150.105C278.199 150.105 275.728 150.985 273.91 152.746C272.092 154.45 271.098 157.319 270.928 161.352C270.758 166.01 270.758 170.781 270.928 175.666C271.098 179.699 272.092 182.596 273.91 184.357C275.728 186.061 278.199 186.913 281.323 186.913C283.936 186.913 286.151 186.345 287.969 185.209C289.786 184.073 291.064 182.028 291.803 179.074C292.03 178.222 292.342 177.654 292.74 177.37C293.194 177.029 293.791 176.859 294.529 176.859H306.032C306.543 176.859 306.969 177.029 307.31 177.37C307.707 177.711 307.878 178.137 307.821 178.648C307.764 181.829 307.054 184.697 305.691 187.253C304.384 189.753 302.538 191.911 300.153 193.729C297.767 195.49 294.984 196.853 291.803 197.819C288.622 198.727 285.157 199.182 281.408 199.182Z" fill="#FF4F00"/>
<path d="M341.148 199.182C335.922 199.182 331.378 198.33 327.515 196.626C323.653 194.922 320.642 192.366 318.484 188.957C316.325 185.493 315.133 181.176 314.905 176.007C314.849 173.564 314.82 171.122 314.82 168.679C314.82 166.18 314.849 163.709 314.905 161.267C315.133 156.154 316.325 151.866 318.484 148.401C320.699 144.879 323.738 142.238 327.601 140.477C331.52 138.716 336.036 137.836 341.148 137.836C346.317 137.836 350.833 138.716 354.695 140.477C358.558 142.238 361.597 144.879 363.812 148.401C366.027 151.866 367.22 156.154 367.39 161.267C367.504 163.709 367.561 166.18 367.561 168.679C367.561 171.122 367.504 173.564 367.39 176.007C367.22 181.176 366.027 185.493 363.812 188.957C361.653 192.366 358.643 194.922 354.78 196.626C350.918 198.33 346.374 199.182 341.148 199.182ZM341.148 186.913C344.158 186.913 346.601 186.004 348.475 184.186C350.407 182.368 351.429 179.472 351.543 175.495C351.656 172.996 351.713 170.639 351.713 168.424C351.713 166.208 351.656 163.908 351.543 161.522C351.429 158.852 350.918 156.694 350.009 155.047C349.157 153.343 347.964 152.093 346.43 151.298C344.897 150.503 343.136 150.105 341.148 150.105C339.217 150.105 337.484 150.503 335.95 151.298C334.417 152.093 333.196 153.343 332.287 155.047C331.378 156.694 330.867 158.852 330.753 161.522C330.696 163.908 330.668 166.208 330.668 168.424C330.668 170.639 330.696 172.996 330.753 175.495C330.923 179.472 331.946 182.368 333.82 184.186C335.752 186.004 338.194 186.913 341.148 186.913Z" fill="#FF4F00"/>
<path d="M379.567 198.33C378.999 198.33 378.488 198.131 378.033 197.733C377.636 197.279 377.437 196.768 377.437 196.2V140.818C377.437 140.193 377.636 139.682 378.033 139.284C378.488 138.887 378.999 138.688 379.567 138.688H388.769C389.735 138.688 390.445 138.943 390.899 139.455C391.353 139.909 391.637 140.278 391.751 140.562L406.747 167.401L421.742 140.562C421.913 140.278 422.197 139.909 422.594 139.455C423.049 138.943 423.759 138.688 424.725 138.688H433.841C434.466 138.688 434.977 138.887 435.375 139.284C435.829 139.682 436.056 140.193 436.056 140.818V196.2C436.056 196.768 435.829 197.279 435.375 197.733C434.977 198.131 434.466 198.33 433.841 198.33H423.702C423.077 198.33 422.538 198.131 422.083 197.733C421.686 197.279 421.487 196.768 421.487 196.2V164.249L411.944 182.056C411.66 182.567 411.291 183.022 410.836 183.419C410.382 183.817 409.757 184.016 408.962 184.016H404.531C403.736 184.016 403.111 183.817 402.657 183.419C402.203 183.022 401.833 182.567 401.549 182.056L391.921 164.249V196.2C391.921 196.768 391.723 197.279 391.325 197.733C390.927 198.131 390.416 198.33 389.791 198.33H379.567Z" fill="#FF4F00"/>
<path d="M450.126 198.33C449.501 198.33 448.99 198.131 448.592 197.733C448.194 197.279 447.996 196.768 447.996 196.2V140.818C447.996 140.193 448.194 139.682 448.592 139.284C448.99 138.887 449.501 138.688 450.126 138.688H473.982C478.697 138.688 482.787 139.426 486.252 140.903C489.773 142.323 492.5 144.482 494.431 147.379C496.419 150.275 497.413 153.939 497.413 158.37C497.413 162.743 496.419 166.35 494.431 169.19C492.5 172.031 489.773 174.132 486.252 175.495C482.787 176.859 478.697 177.54 473.982 177.54H463.843V196.2C463.843 196.768 463.616 197.279 463.162 197.733C462.764 198.131 462.253 198.33 461.628 198.33H450.126ZM463.588 165.782H473.556C475.999 165.782 477.93 165.158 479.35 163.908C480.827 162.658 481.565 160.755 481.565 158.199C481.565 156.041 480.941 154.223 479.691 152.746C478.441 151.269 476.396 150.531 473.556 150.531H463.588V165.782Z" fill="#FF4F00"/>
<path d="M507.704 198.33C507.079 198.33 506.568 198.131 506.17 197.733C505.773 197.279 505.574 196.768 505.574 196.2V140.818C505.574 140.193 505.773 139.682 506.17 139.284C506.568 138.887 507.079 138.688 507.704 138.688H547.494C548.119 138.688 548.63 138.887 549.027 139.284C549.425 139.682 549.624 140.193 549.624 140.818V148.827C549.624 149.452 549.425 149.963 549.027 150.361C548.63 150.758 548.119 150.957 547.494 150.957H520.314V162.459H545.619C546.244 162.459 546.755 162.687 547.153 163.141C547.551 163.539 547.749 164.05 547.749 164.675V172.087C547.749 172.655 547.551 173.167 547.153 173.621C546.755 174.019 546.244 174.217 545.619 174.217H520.314V186.061H548.175C548.8 186.061 549.311 186.259 549.709 186.657C550.107 187.055 550.306 187.566 550.306 188.191V196.2C550.306 196.768 550.107 197.279 549.709 197.733C549.311 198.131 548.8 198.33 548.175 198.33H507.704Z" fill="#FF4F00"/>
<path d="M575.242 198.33C574.617 198.33 574.106 198.131 573.708 197.733C573.311 197.279 573.112 196.768 573.112 196.2V152.065H557.946C557.321 152.065 556.81 151.866 556.412 151.468C556.015 151.014 555.816 150.503 555.816 149.935V140.818C555.816 140.193 556.015 139.682 556.412 139.284C556.81 138.887 557.321 138.688 557.946 138.688H603.785C604.41 138.688 604.921 138.887 605.319 139.284C605.716 139.682 605.915 140.193 605.915 140.818V149.935C605.915 150.503 605.716 151.014 605.319 151.468C604.921 151.866 604.41 152.065 603.785 152.065H588.619V196.2C588.619 196.768 588.42 197.279 588.022 197.733C587.625 198.131 587.114 198.33 586.489 198.33H575.242Z" fill="#FF4F00"/>
<path d="M615.789 198.33C615.164 198.33 614.653 198.131 614.255 197.733C613.857 197.279 613.658 196.768 613.658 196.2V140.818C613.658 140.193 613.857 139.682 614.255 139.284C614.653 138.887 615.164 138.688 615.789 138.688H627.206C627.831 138.688 628.342 138.887 628.739 139.284C629.194 139.682 629.421 140.193 629.421 140.818V196.2C629.421 196.768 629.194 197.279 628.739 197.733C628.342 198.131 627.831 198.33 627.206 198.33H615.789Z" fill="#FF4F00"/>
<path d="M656.534 198.33C655.909 198.33 655.398 198.131 655 197.733C654.603 197.279 654.404 196.768 654.404 196.2V152.065H639.238C638.613 152.065 638.102 151.866 637.704 151.468C637.307 151.014 637.108 150.503 637.108 149.935V140.818C637.108 140.193 637.307 139.682 637.704 139.284C638.102 138.887 638.613 138.688 639.238 138.688H685.077C685.702 138.688 686.213 138.887 686.611 139.284C687.008 139.682 687.207 140.193 687.207 140.818V149.935C687.207 150.503 687.008 151.014 686.611 151.468C686.213 151.866 685.702 152.065 685.077 152.065H669.911V196.2C669.911 196.768 669.712 197.279 669.315 197.733C668.917 198.131 668.406 198.33 667.781 198.33H656.534Z" fill="#FF4F00"/>
<path d="M697.081 198.33C696.456 198.33 695.945 198.131 695.547 197.733C695.149 197.279 694.951 196.768 694.951 196.2V140.818C694.951 140.193 695.149 139.682 695.547 139.284C695.945 138.887 696.456 138.688 697.081 138.688H708.498C709.123 138.688 709.634 138.887 710.032 139.284C710.486 139.682 710.713 140.193 710.713 140.818V196.2C710.713 196.768 710.486 197.279 710.032 197.733C709.634 198.131 709.123 198.33 708.498 198.33H697.081Z" fill="#FF4F00"/>
<path d="M746.943 199.182C741.717 199.182 737.173 198.33 733.311 196.626C729.448 194.922 726.438 192.366 724.279 188.957C722.121 185.493 720.928 181.176 720.701 176.007C720.644 173.564 720.615 171.122 720.615 168.679C720.615 166.18 720.644 163.709 720.701 161.267C720.928 156.154 722.121 151.866 724.279 148.401C726.494 144.879 729.533 142.238 733.396 140.477C737.315 138.716 741.831 137.836 746.943 137.836C752.112 137.836 756.628 138.716 760.49 140.477C764.353 142.238 767.392 144.879 769.607 148.401C771.822 151.866 773.015 156.154 773.185 161.267C773.299 163.709 773.356 166.18 773.356 168.679C773.356 171.122 773.299 173.564 773.185 176.007C773.015 181.176 771.822 185.493 769.607 188.957C767.448 192.366 764.438 194.922 760.575 196.626C756.713 198.33 752.169 199.182 746.943 199.182ZM746.943 186.913C749.954 186.913 752.396 186.004 754.27 184.186C756.202 182.368 757.224 179.472 757.338 175.495C757.451 172.996 757.508 170.639 757.508 168.424C757.508 166.208 757.451 163.908 757.338 161.522C757.224 158.852 756.713 156.694 755.804 155.047C754.952 153.343 753.759 152.093 752.226 151.298C750.692 150.503 748.931 150.105 746.943 150.105C745.012 150.105 743.279 150.503 741.746 151.298C740.212 152.093 738.991 153.343 738.082 155.047C737.173 156.694 736.662 158.852 736.548 161.522C736.491 163.908 736.463 166.208 736.463 168.424C736.463 170.639 736.491 172.996 736.548 175.495C736.719 179.472 737.741 182.368 739.616 184.186C741.547 186.004 743.989 186.913 746.943 186.913Z" fill="#FF4F00"/>
<path d="M785.362 198.33C784.737 198.33 784.226 198.131 783.828 197.733C783.431 197.279 783.232 196.768 783.232 196.2V140.818C783.232 140.193 783.431 139.682 783.828 139.284C784.226 138.887 784.737 138.688 785.362 138.688H794.394C795.359 138.688 796.041 138.915 796.439 139.369C796.893 139.767 797.177 140.079 797.291 140.307L818.08 173.025V140.818C818.08 140.193 818.279 139.682 818.676 139.284C819.074 138.887 819.585 138.688 820.21 138.688H830.434C831.059 138.688 831.571 138.887 831.968 139.284C832.366 139.682 832.565 140.193 832.565 140.818V196.115C832.565 196.739 832.366 197.279 831.968 197.733C831.571 198.131 831.059 198.33 830.434 198.33H821.318C820.409 198.33 819.727 198.103 819.273 197.648C818.875 197.194 818.62 196.881 818.506 196.711L797.717 165.186V196.2C797.717 196.768 797.518 197.279 797.12 197.733C796.723 198.131 796.211 198.33 795.587 198.33H785.362Z" fill="#FF4F00"/>
<path d="M254.969 257.219C254.711 257.219 254.493 257.129 254.312 256.948C254.132 256.768 254.042 256.549 254.042 256.292V231.113C254.042 230.855 254.132 230.637 254.312 230.456C254.493 230.276 254.711 230.186 254.969 230.186H258.56C258.818 230.186 259.037 230.276 259.217 230.456C259.397 230.637 259.487 230.855 259.487 231.113V252.623H271.729C272.012 252.623 272.244 252.713 272.424 252.894C272.605 253.074 272.695 253.305 272.695 253.589V256.292C272.695 256.549 272.605 256.768 272.424 256.948C272.244 257.129 272.012 257.219 271.729 257.219H254.969Z" fill="#303030"/>
<path d="M284.561 257.605C282.501 257.605 280.763 257.245 279.347 256.524C277.957 255.803 276.889 254.786 276.142 253.473C275.421 252.16 275.009 250.628 274.906 248.877C274.88 248.414 274.868 247.847 274.868 247.178C274.868 246.509 274.88 245.942 274.906 245.479C275.009 243.702 275.434 242.171 276.181 240.883C276.953 239.57 278.034 238.553 279.424 237.832C280.84 237.112 282.553 236.751 284.561 236.751C286.569 236.751 288.268 237.112 289.658 237.832C291.074 238.553 292.156 239.57 292.902 240.883C293.675 242.171 294.112 243.702 294.215 245.479C294.241 245.942 294.254 246.509 294.254 247.178C294.254 247.847 294.241 248.414 294.215 248.877C294.112 250.628 293.688 252.16 292.941 253.473C292.22 254.786 291.152 255.803 289.736 256.524C288.345 257.245 286.62 257.605 284.561 257.605ZM284.561 253.782C285.925 253.782 286.981 253.357 287.727 252.507C288.474 251.632 288.886 250.358 288.963 248.684C288.989 248.298 289.002 247.796 289.002 247.178C289.002 246.56 288.989 246.058 288.963 245.672C288.886 243.998 288.474 242.737 287.727 241.887C286.981 241.012 285.925 240.574 284.561 240.574C283.196 240.574 282.141 241.012 281.394 241.887C280.647 242.737 280.235 243.998 280.158 245.672C280.132 246.058 280.12 246.56 280.12 247.178C280.12 247.796 280.132 248.298 280.158 248.684C280.235 250.358 280.647 251.632 281.394 252.507C282.141 253.357 283.196 253.782 284.561 253.782Z" fill="#303030"/>
<path d="M299.46 257.219C299.202 257.219 298.983 257.129 298.803 256.948C298.623 256.768 298.533 256.549 298.533 256.292V238.064C298.533 237.807 298.623 237.588 298.803 237.408C298.983 237.227 299.202 237.137 299.46 237.137H302.626C302.884 237.137 303.103 237.227 303.283 237.408C303.463 237.588 303.553 237.807 303.553 238.064V239.647C304.222 238.824 305.072 238.141 306.102 237.601C307.157 237.034 308.458 236.751 310.002 236.751C311.573 236.751 312.937 237.112 314.096 237.832C315.254 238.528 316.143 239.519 316.761 240.806C317.404 242.093 317.726 243.638 317.726 245.44V256.292C317.726 256.549 317.636 256.768 317.456 256.948C317.275 257.129 317.057 257.219 316.799 257.219H313.401C313.143 257.219 312.924 257.129 312.744 256.948C312.564 256.768 312.474 256.549 312.474 256.292V245.672C312.474 244.179 312.101 243.007 311.354 242.158C310.633 241.308 309.578 240.883 308.187 240.883C306.849 240.883 305.78 241.308 304.982 242.158C304.184 243.007 303.785 244.179 303.785 245.672V256.292C303.785 256.549 303.695 256.768 303.514 256.948C303.334 257.129 303.115 257.219 302.858 257.219H299.46Z" fill="#303030"/>
<path d="M331.282 257.605C328.424 257.605 326.159 256.781 324.485 255.133C322.812 253.486 321.911 251.143 321.782 248.105C321.756 247.847 321.743 247.526 321.743 247.139C321.743 246.727 321.756 246.406 321.782 246.174C321.885 244.217 322.322 242.544 323.095 241.154C323.893 239.738 324.987 238.656 326.377 237.91C327.768 237.137 329.403 236.751 331.282 236.751C333.367 236.751 335.118 237.189 336.534 238.064C337.95 238.914 339.018 240.111 339.739 241.656C340.46 243.175 340.821 244.938 340.821 246.946V247.757C340.821 248.015 340.731 248.234 340.55 248.414C340.37 248.594 340.138 248.684 339.855 248.684H327.034C327.034 248.684 327.034 248.723 327.034 248.8C327.034 248.877 327.034 248.942 327.034 248.993C327.06 249.894 327.227 250.731 327.536 251.503C327.871 252.25 328.347 252.855 328.965 253.318C329.608 253.782 330.368 254.013 331.243 254.013C331.964 254.013 332.569 253.91 333.058 253.705C333.548 253.473 333.947 253.215 334.256 252.932C334.564 252.649 334.783 252.417 334.912 252.237C335.144 251.928 335.324 251.748 335.453 251.696C335.607 251.619 335.826 251.581 336.109 251.581H339.43C339.688 251.581 339.894 251.658 340.048 251.812C340.229 251.967 340.306 252.16 340.28 252.391C340.254 252.803 340.035 253.305 339.623 253.898C339.237 254.49 338.671 255.069 337.924 255.635C337.178 256.202 336.238 256.678 335.105 257.064C333.998 257.425 332.724 257.605 331.282 257.605ZM327.034 245.44H335.569V245.324C335.569 244.32 335.401 243.445 335.067 242.698C334.732 241.926 334.243 241.334 333.599 240.922C332.955 240.484 332.183 240.265 331.282 240.265C330.381 240.265 329.608 240.484 328.965 240.922C328.321 241.334 327.832 241.926 327.497 242.698C327.188 243.445 327.034 244.32 327.034 245.324V245.44Z" fill="#303030"/>
<path d="M345.885 257.219C345.628 257.219 345.409 257.129 345.229 256.948C345.049 256.768 344.959 256.549 344.959 256.292V230.727C344.959 230.469 345.049 230.25 345.229 230.07C345.409 229.89 345.628 229.8 345.885 229.8H349.091C349.348 229.8 349.567 229.89 349.747 230.07C349.927 230.25 350.018 230.469 350.018 230.727V256.292C350.018 256.549 349.927 256.768 349.747 256.948C349.567 257.129 349.348 257.219 349.091 257.219H345.885Z" fill="#303030"/>
<path d="M356.067 257.219C355.81 257.219 355.591 257.129 355.411 256.948C355.23 256.768 355.14 256.549 355.14 256.292V238.064C355.14 237.807 355.23 237.588 355.411 237.408C355.591 237.227 355.81 237.137 356.067 237.137H359.272C359.556 237.137 359.774 237.227 359.929 237.408C360.109 237.588 360.199 237.807 360.199 238.064V256.292C360.199 256.549 360.109 256.768 359.929 256.948C359.774 257.129 359.556 257.219 359.272 257.219H356.067ZM355.913 233.816C355.655 233.816 355.436 233.726 355.256 233.546C355.076 233.366 354.986 233.147 354.986 232.889V230.109C354.986 229.851 355.076 229.632 355.256 229.452C355.436 229.272 355.655 229.182 355.913 229.182H359.427C359.71 229.182 359.942 229.272 360.122 229.452C360.302 229.632 360.392 229.851 360.392 230.109V232.889C360.392 233.147 360.302 233.366 360.122 233.546C359.942 233.726 359.71 233.816 359.427 233.816H355.913Z" fill="#303030"/>
<path d="M366.25 257.219C365.992 257.219 365.773 257.129 365.593 256.948C365.413 256.768 365.323 256.549 365.323 256.292V238.064C365.323 237.807 365.413 237.588 365.593 237.408C365.773 237.227 365.992 237.137 366.25 237.137H369.416C369.674 237.137 369.893 237.227 370.073 237.408C370.253 237.588 370.343 237.807 370.343 238.064V239.647C371.013 238.824 371.862 238.141 372.892 237.601C373.948 237.034 375.248 236.751 376.792 236.751C378.363 236.751 379.727 237.112 380.886 237.832C382.044 238.528 382.933 239.519 383.551 240.806C384.194 242.093 384.516 243.638 384.516 245.44V256.292C384.516 256.549 384.426 256.768 384.246 256.948C384.066 257.129 383.847 257.219 383.589 257.219H380.191C379.933 257.219 379.715 257.129 379.534 256.948C379.354 256.768 379.264 256.549 379.264 256.292V245.672C379.264 244.179 378.891 243.007 378.144 242.158C377.423 241.308 376.368 240.883 374.977 240.883C373.639 240.883 372.57 241.308 371.772 242.158C370.974 243.007 370.575 244.179 370.575 245.672V256.292C370.575 256.549 370.485 256.768 370.305 256.948C370.124 257.129 369.905 257.219 369.648 257.219H366.25Z" fill="#303030"/>
<path d="M398.072 257.605C395.214 257.605 392.949 256.781 391.275 255.133C389.602 253.486 388.701 251.143 388.572 248.105C388.546 247.847 388.533 247.526 388.533 247.139C388.533 246.727 388.546 246.406 388.572 246.174C388.675 244.217 389.113 242.544 389.885 241.154C390.683 239.738 391.777 238.656 393.167 237.91C394.558 237.137 396.193 236.751 398.072 236.751C400.157 236.751 401.908 237.189 403.324 238.064C404.74 238.914 405.809 240.111 406.529 241.656C407.25 243.175 407.611 244.938 407.611 246.946V247.757C407.611 248.015 407.521 248.234 407.34 248.414C407.16 248.594 406.928 248.684 406.645 248.684H393.824C393.824 248.684 393.824 248.723 393.824 248.8C393.824 248.877 393.824 248.942 393.824 248.993C393.85 249.894 394.017 250.731 394.326 251.503C394.661 252.25 395.137 252.855 395.755 253.318C396.399 253.782 397.158 254.013 398.033 254.013C398.754 254.013 399.359 253.91 399.848 253.705C400.338 253.473 400.737 253.215 401.046 252.932C401.355 252.649 401.573 252.417 401.702 252.237C401.934 251.928 402.114 251.748 402.243 251.696C402.397 251.619 402.616 251.581 402.899 251.581H406.22C406.478 251.581 406.684 251.658 406.838 251.812C407.019 251.967 407.096 252.16 407.07 252.391C407.044 252.803 406.825 253.305 406.414 253.898C406.027 254.49 405.461 255.069 404.714 255.635C403.968 256.202 403.028 256.678 401.895 257.064C400.788 257.425 399.514 257.605 398.072 257.605ZM393.824 245.44H402.359V245.324C402.359 244.32 402.191 243.445 401.857 242.698C401.522 241.926 401.033 241.334 400.389 240.922C399.745 240.484 398.973 240.265 398.072 240.265C397.171 240.265 396.399 240.484 395.755 240.922C395.111 241.334 394.622 241.926 394.287 242.698C393.978 243.445 393.824 244.32 393.824 245.324V245.44Z" fill="#303030"/>
<path d="M419.318 257.605C417.773 257.605 416.447 257.425 415.34 257.064C414.259 256.704 413.371 256.253 412.675 255.713C411.98 255.172 411.465 254.631 411.131 254.091C410.796 253.55 410.616 253.099 410.59 252.739C410.564 252.456 410.642 252.237 410.822 252.083C411.028 251.902 411.247 251.812 411.478 251.812H414.529C414.632 251.812 414.722 251.825 414.799 251.851C414.877 251.877 414.98 251.954 415.108 252.083C415.443 252.366 415.791 252.662 416.151 252.971C416.537 253.28 416.988 253.55 417.503 253.782C418.018 253.988 418.661 254.091 419.434 254.091C420.438 254.091 421.274 253.898 421.944 253.511C422.639 253.099 422.987 252.52 422.987 251.774C422.987 251.233 422.832 250.795 422.523 250.461C422.24 250.126 421.699 249.83 420.901 249.572C420.103 249.289 418.97 248.993 417.503 248.684C416.061 248.349 414.864 247.925 413.911 247.41C412.959 246.895 412.251 246.251 411.787 245.479C411.324 244.706 411.092 243.805 411.092 242.776C411.092 241.771 411.388 240.819 411.98 239.918C412.598 238.991 413.499 238.231 414.684 237.639C415.894 237.047 417.387 236.751 419.163 236.751C420.554 236.751 421.764 236.931 422.793 237.292C423.823 237.626 424.673 238.051 425.342 238.566C426.037 239.081 426.565 239.609 426.926 240.149C427.286 240.664 427.479 241.115 427.505 241.501C427.531 241.784 427.453 242.016 427.273 242.196C427.093 242.351 426.887 242.428 426.655 242.428H423.798C423.669 242.428 423.553 242.402 423.45 242.351C423.347 242.299 423.244 242.235 423.141 242.158C422.858 241.9 422.549 241.63 422.214 241.347C421.879 241.038 421.468 240.78 420.978 240.574C420.515 240.368 419.897 240.265 419.125 240.265C418.146 240.265 417.4 240.484 416.885 240.922C416.37 241.334 416.112 241.862 416.112 242.505C416.112 242.943 416.228 243.329 416.46 243.664C416.718 243.973 417.22 244.269 417.966 244.552C418.713 244.835 419.846 245.131 421.365 245.44C423.09 245.749 424.454 246.213 425.458 246.83C426.488 247.423 427.209 248.118 427.621 248.916C428.058 249.688 428.277 250.551 428.277 251.503C428.277 252.662 427.93 253.705 427.235 254.631C426.565 255.558 425.561 256.292 424.222 256.833C422.909 257.348 421.274 257.605 419.318 257.605Z" fill="#303030"/>
<path d="M439.872 257.605C438.327 257.605 437.001 257.425 435.894 257.064C434.813 256.704 433.924 256.253 433.229 255.713C432.534 255.172 432.019 254.631 431.684 254.091C431.35 253.55 431.169 253.099 431.144 252.739C431.118 252.456 431.195 252.237 431.375 252.083C431.581 251.902 431.8 251.812 432.032 251.812H435.083C435.186 251.812 435.276 251.825 435.353 251.851C435.43 251.877 435.533 251.954 435.662 252.083C435.997 252.366 436.344 252.662 436.705 252.971C437.091 253.28 437.542 253.55 438.056 253.782C438.571 253.988 439.215 254.091 439.987 254.091C440.991 254.091 441.828 253.898 442.498 253.511C443.193 253.099 443.54 252.52 443.54 251.774C443.54 251.233 443.386 250.795 443.077 250.461C442.794 250.126 442.253 249.83 441.455 249.572C440.657 249.289 439.524 248.993 438.056 248.684C436.615 248.349 435.418 247.925 434.465 247.41C433.512 246.895 432.804 246.251 432.341 245.479C431.877 244.706 431.646 243.805 431.646 242.776C431.646 241.771 431.942 240.819 432.534 239.918C433.152 238.991 434.053 238.231 435.237 237.639C436.447 237.047 437.941 236.751 439.717 236.751C441.107 236.751 442.317 236.931 443.347 237.292C444.377 237.626 445.227 238.051 445.896 238.566C446.591 239.081 447.119 239.609 447.479 240.149C447.84 240.664 448.033 241.115 448.059 241.501C448.084 241.784 448.007 242.016 447.827 242.196C447.647 242.351 447.441 242.428 447.209 242.428H444.351C444.222 242.428 444.107 242.402 444.004 242.351C443.901 242.299 443.798 242.235 443.695 242.158C443.412 241.9 443.103 241.63 442.768 241.347C442.433 241.038 442.021 240.78 441.532 240.574C441.069 240.368 440.451 240.265 439.678 240.265C438.7 240.265 437.953 240.484 437.439 240.922C436.924 241.334 436.666 241.862 436.666 242.505C436.666 242.943 436.782 243.329 437.014 243.664C437.271 243.973 437.773 244.269 438.52 244.552C439.266 244.835 440.399 245.131 441.918 245.44C443.643 245.749 445.008 246.213 446.012 246.83C447.042 247.423 447.763 248.118 448.174 248.916C448.612 249.688 448.831 250.551 448.831 251.503C448.831 252.662 448.483 253.705 447.788 254.631C447.119 255.558 446.115 256.292 444.776 256.833C443.463 257.348 441.828 257.605 439.872 257.605Z" fill="#303030"/>
<path d="M462.569 257.219C462.312 257.219 462.093 257.129 461.913 256.948C461.732 256.768 461.642 256.549 461.642 256.292V238.064C461.642 237.807 461.732 237.588 461.913 237.408C462.093 237.227 462.312 237.137 462.569 237.137H465.774C466.058 237.137 466.276 237.227 466.431 237.408C466.611 237.588 466.701 237.807 466.701 238.064V256.292C466.701 256.549 466.611 256.768 466.431 256.948C466.276 257.129 466.058 257.219 465.774 257.219H462.569ZM462.415 233.816C462.157 233.816 461.938 233.726 461.758 233.546C461.578 233.366 461.488 233.147 461.488 232.889V230.109C461.488 229.851 461.578 229.632 461.758 229.452C461.938 229.272 462.157 229.182 462.415 229.182H465.929C466.212 229.182 466.444 229.272 466.624 229.452C466.804 229.632 466.894 229.851 466.894 230.109V232.889C466.894 233.147 466.804 233.366 466.624 233.546C466.444 233.726 466.212 233.816 465.929 233.816H462.415Z" fill="#303030"/>
<path d="M472.752 257.219C472.494 257.219 472.275 257.129 472.095 256.948C471.915 256.768 471.825 256.549 471.825 256.292V238.064C471.825 237.807 471.915 237.588 472.095 237.408C472.275 237.227 472.494 237.137 472.752 237.137H475.918C476.176 237.137 476.395 237.227 476.575 237.408C476.755 237.588 476.845 237.807 476.845 238.064V239.647C477.515 238.824 478.364 238.141 479.394 237.601C480.45 237.034 481.75 236.751 483.294 236.751C484.865 236.751 486.229 237.112 487.388 237.832C488.547 238.528 489.435 239.519 490.053 240.806C490.696 242.093 491.018 243.638 491.018 245.44V256.292C491.018 256.549 490.928 256.768 490.748 256.948C490.568 257.129 490.349 257.219 490.091 257.219H486.693C486.435 257.219 486.217 257.129 486.036 256.948C485.856 256.768 485.766 256.549 485.766 256.292V245.672C485.766 244.179 485.393 243.007 484.646 242.158C483.925 241.308 482.87 240.883 481.479 240.883C480.141 240.883 479.072 241.308 478.274 242.158C477.476 243.007 477.077 244.179 477.077 245.672V256.292C477.077 256.549 476.987 256.768 476.807 256.948C476.626 257.129 476.408 257.219 476.15 257.219H472.752Z" fill="#303030"/>
<path d="M513.07 257.219C511.525 257.219 510.225 256.948 509.169 256.408C508.113 255.867 507.328 255.069 506.813 254.013C506.298 252.932 506.041 251.593 506.041 249.997V241.231H502.99C502.733 241.231 502.514 241.141 502.334 240.96C502.153 240.78 502.063 240.549 502.063 240.265V238.064C502.063 237.807 502.153 237.588 502.334 237.408C502.514 237.227 502.733 237.137 502.99 237.137H506.041V230.727C506.041 230.469 506.118 230.25 506.273 230.07C506.453 229.89 506.685 229.8 506.968 229.8H510.096C510.353 229.8 510.572 229.89 510.752 230.07C510.933 230.25 511.023 230.469 511.023 230.727V237.137H515.85C516.107 237.137 516.326 237.227 516.507 237.408C516.687 237.588 516.777 237.807 516.777 238.064V240.265C516.777 240.549 516.687 240.78 516.507 240.96C516.326 241.141 516.107 241.231 515.85 241.231H511.023V249.611C511.023 250.667 511.203 251.49 511.563 252.083C511.95 252.675 512.606 252.971 513.533 252.971H516.198C516.455 252.971 516.674 253.061 516.854 253.241C517.034 253.421 517.124 253.64 517.124 253.898V256.292C517.124 256.549 517.034 256.768 516.854 256.948C516.674 257.129 516.455 257.219 516.198 257.219H513.07Z" fill="#303030"/>
<path d="M521.516 257.219C521.258 257.219 521.039 257.129 520.859 256.948C520.679 256.768 520.589 256.549 520.589 256.292V230.727C520.589 230.469 520.679 230.25 520.859 230.07C521.039 229.89 521.258 229.8 521.516 229.8H524.953C525.236 229.8 525.455 229.89 525.609 230.07C525.79 230.25 525.88 230.469 525.88 230.727V239.532C526.575 238.708 527.424 238.038 528.428 237.523C529.433 237.009 530.668 236.751 532.136 236.751C533.706 236.751 535.071 237.112 536.229 237.832C537.414 238.528 538.328 239.519 538.971 240.806C539.615 242.093 539.937 243.638 539.937 245.44V256.292C539.937 256.549 539.847 256.768 539.666 256.948C539.486 257.129 539.267 257.219 539.01 257.219H535.534C535.277 257.219 535.058 257.129 534.878 256.948C534.697 256.768 534.607 256.549 534.607 256.292V245.672C534.607 244.179 534.234 243.007 533.487 242.158C532.767 241.308 531.711 240.883 530.321 240.883C528.982 240.883 527.901 241.308 527.077 242.158C526.279 243.007 525.88 244.179 525.88 245.672V256.292C525.88 256.549 525.79 256.768 525.609 256.948C525.455 257.129 525.236 257.219 524.953 257.219H521.516Z" fill="#303030"/>
<path d="M553.488 257.605C550.63 257.605 548.365 256.781 546.691 255.133C545.018 253.486 544.117 251.143 543.988 248.105C543.962 247.847 543.949 247.526 543.949 247.139C543.949 246.727 543.962 246.406 543.988 246.174C544.091 244.217 544.529 242.544 545.301 241.154C546.099 239.738 547.193 238.656 548.584 237.91C549.974 237.137 551.609 236.751 553.488 236.751C555.573 236.751 557.324 237.189 558.74 238.064C560.156 238.914 561.225 240.111 561.946 241.656C562.666 243.175 563.027 244.938 563.027 246.946V247.757C563.027 248.015 562.937 248.234 562.757 248.414C562.576 248.594 562.345 248.684 562.061 248.684H549.24C549.24 248.684 549.24 248.723 549.24 248.8C549.24 248.877 549.24 248.942 549.24 248.993C549.266 249.894 549.433 250.731 549.742 251.503C550.077 252.25 550.553 252.855 551.171 253.318C551.815 253.782 552.574 254.013 553.449 254.013C554.17 254.013 554.775 253.91 555.265 253.705C555.754 253.473 556.153 253.215 556.462 252.932C556.771 252.649 556.99 252.417 557.118 252.237C557.35 251.928 557.53 251.748 557.659 251.696C557.813 251.619 558.032 251.581 558.315 251.581H561.637C561.894 251.581 562.1 251.658 562.254 251.812C562.435 251.967 562.512 252.16 562.486 252.391C562.46 252.803 562.242 253.305 561.83 253.898C561.443 254.49 560.877 255.069 560.13 255.635C559.384 256.202 558.444 256.678 557.311 257.064C556.204 257.425 554.93 257.605 553.488 257.605ZM549.24 245.44H557.775V245.324C557.775 244.32 557.607 243.445 557.273 242.698C556.938 241.926 556.449 241.334 555.805 240.922C555.162 240.484 554.389 240.265 553.488 240.265C552.587 240.265 551.815 240.484 551.171 240.922C550.527 241.334 550.038 241.926 549.704 242.698C549.395 243.445 549.24 244.32 549.24 245.324V245.44Z" fill="#303030"/>
<path d="M586.841 257.605C584.447 257.605 582.413 257.193 580.74 256.369C579.092 255.52 577.83 254.322 576.955 252.778C576.08 251.207 575.591 249.328 575.488 247.139C575.462 246.084 575.449 244.951 575.449 243.741C575.449 242.531 575.462 241.372 575.488 240.265C575.591 238.103 576.08 236.236 576.955 234.666C577.856 233.095 579.131 231.898 580.778 231.074C582.452 230.225 584.473 229.8 586.841 229.8C588.592 229.8 590.163 230.031 591.553 230.495C592.943 230.958 594.127 231.602 595.106 232.426C596.084 233.224 596.843 234.164 597.384 235.245C597.925 236.326 598.208 237.498 598.234 238.759C598.259 238.991 598.182 239.184 598.002 239.339C597.848 239.493 597.654 239.57 597.423 239.57H593.754C593.471 239.57 593.239 239.506 593.059 239.377C592.879 239.223 592.75 238.978 592.673 238.643C592.261 236.944 591.553 235.786 590.549 235.168C589.545 234.55 588.296 234.241 586.803 234.241C585.078 234.241 583.7 234.73 582.671 235.708C581.641 236.661 581.087 238.244 581.01 240.458C580.933 242.57 580.933 244.732 581.01 246.946C581.087 249.16 581.641 250.757 582.671 251.735C583.7 252.688 585.078 253.164 586.803 253.164C588.296 253.164 589.545 252.855 590.549 252.237C591.579 251.593 592.287 250.435 592.673 248.761C592.75 248.401 592.879 248.156 593.059 248.028C593.239 247.899 593.471 247.835 593.754 247.835H597.423C597.654 247.835 597.848 247.912 598.002 248.066C598.182 248.221 598.259 248.414 598.234 248.646C598.208 249.907 597.925 251.078 597.384 252.16C596.843 253.241 596.084 254.194 595.106 255.018C594.127 255.816 592.943 256.446 591.553 256.91C590.163 257.373 588.592 257.605 586.841 257.605Z" fill="#303030"/>
<path d="M611.232 257.605C609.173 257.605 607.435 257.245 606.019 256.524C604.629 255.803 603.56 254.786 602.814 253.473C602.093 252.16 601.681 250.628 601.578 248.877C601.552 248.414 601.539 247.847 601.539 247.178C601.539 246.509 601.552 245.942 601.578 245.479C601.681 243.702 602.106 242.171 602.852 240.883C603.625 239.57 604.706 238.553 606.096 237.832C607.512 237.112 609.224 236.751 611.232 236.751C613.241 236.751 614.94 237.112 616.33 237.832C617.746 238.553 618.827 239.57 619.574 240.883C620.346 242.171 620.784 243.702 620.887 245.479C620.913 245.942 620.926 246.509 620.926 247.178C620.926 247.847 620.913 248.414 620.887 248.877C620.784 250.628 620.359 252.16 619.613 253.473C618.892 254.786 617.823 255.803 616.407 256.524C615.017 257.245 613.292 257.605 611.232 257.605ZM611.232 253.782C612.597 253.782 613.653 253.357 614.399 252.507C615.146 251.632 615.558 250.358 615.635 248.684C615.661 248.298 615.674 247.796 615.674 247.178C615.674 246.56 615.661 246.058 615.635 245.672C615.558 243.998 615.146 242.737 614.399 241.887C613.653 241.012 612.597 240.574 611.232 240.574C609.868 240.574 608.812 241.012 608.066 241.887C607.319 242.737 606.907 243.998 606.83 245.672C606.804 246.058 606.791 246.56 606.791 247.178C606.791 247.796 606.804 248.298 606.83 248.684C606.907 250.358 607.319 251.632 608.066 252.507C608.812 253.357 609.868 253.782 611.232 253.782Z" fill="#303030"/>
<path d="M626.131 257.219C625.874 257.219 625.655 257.129 625.475 256.948C625.295 256.768 625.204 256.549 625.204 256.292V238.103C625.204 237.82 625.295 237.588 625.475 237.408C625.655 237.227 625.874 237.137 626.131 237.137H629.259C629.517 237.137 629.736 237.227 629.916 237.408C630.122 237.588 630.225 237.82 630.225 238.103V239.686C630.817 238.862 631.576 238.231 632.503 237.794C633.456 237.356 634.55 237.137 635.786 237.137H637.369C637.652 237.137 637.871 237.227 638.026 237.408C638.206 237.588 638.296 237.807 638.296 238.064V240.845C638.296 241.102 638.206 241.321 638.026 241.501C637.871 241.681 637.652 241.771 637.369 241.771H634.357C633.121 241.771 632.156 242.119 631.461 242.814C630.791 243.484 630.456 244.436 630.456 245.672V256.292C630.456 256.549 630.366 256.768 630.186 256.948C630.006 257.129 629.774 257.219 629.491 257.219H626.131Z" fill="#303030"/>
<path d="M649.926 257.605C647.867 257.605 646.129 257.245 644.713 256.524C643.322 255.803 642.254 254.786 641.507 253.473C640.786 252.16 640.375 250.628 640.272 248.877C640.246 248.414 640.233 247.847 640.233 247.178C640.233 246.509 640.246 245.942 640.272 245.479C640.375 243.702 640.799 242.171 641.546 240.883C642.318 239.57 643.4 238.553 644.79 237.832C646.206 237.112 647.918 236.751 649.926 236.751C651.934 236.751 653.634 237.112 655.024 237.832C656.44 238.553 657.521 239.57 658.268 240.883C659.04 242.171 659.478 243.702 659.581 245.479C659.607 245.942 659.619 246.509 659.619 247.178C659.619 247.847 659.607 248.414 659.581 248.877C659.478 250.628 659.053 252.16 658.306 253.473C657.585 254.786 656.517 255.803 655.101 256.524C653.711 257.245 651.986 257.605 649.926 257.605ZM649.926 253.782C651.291 253.782 652.346 253.357 653.093 252.507C653.839 251.632 654.251 250.358 654.329 248.684C654.354 248.298 654.367 247.796 654.367 247.178C654.367 246.56 654.354 246.058 654.329 245.672C654.251 243.998 653.839 242.737 653.093 241.887C652.346 241.012 651.291 240.574 649.926 240.574C648.562 240.574 647.506 241.012 646.759 241.887C646.013 242.737 645.601 243.998 645.524 245.672C645.498 246.058 645.485 246.56 645.485 247.178C645.485 247.796 645.498 248.298 645.524 248.684C645.601 250.358 646.013 251.632 646.759 252.507C647.506 253.357 648.562 253.782 649.926 253.782Z" fill="#303030"/>
<path d="M664.825 257.219C664.568 257.219 664.349 257.129 664.169 256.948C663.988 256.768 663.898 256.549 663.898 256.292V238.064C663.898 237.807 663.988 237.588 664.169 237.408C664.349 237.227 664.568 237.137 664.825 237.137H667.992C668.249 237.137 668.468 237.227 668.648 237.408C668.828 237.588 668.919 237.807 668.919 238.064V239.647C669.588 238.824 670.438 238.141 671.467 237.601C672.523 237.034 673.823 236.751 675.368 236.751C676.938 236.751 678.303 237.112 679.461 237.832C680.62 238.528 681.508 239.519 682.126 240.806C682.77 242.093 683.091 243.638 683.091 245.44V256.292C683.091 256.549 683.001 256.768 682.821 256.948C682.641 257.129 682.422 257.219 682.165 257.219H678.766C678.509 257.219 678.29 257.129 678.11 256.948C677.929 256.768 677.839 256.549 677.839 256.292V245.672C677.839 244.179 677.466 243.007 676.719 242.158C675.999 241.308 674.943 240.883 673.553 240.883C672.214 240.883 671.146 241.308 670.347 242.158C669.549 243.007 669.15 244.179 669.15 245.672V256.292C669.15 256.549 669.06 256.768 668.88 256.948C668.7 257.129 668.481 257.219 668.223 257.219H664.825Z" fill="#303030"/>
<path d="M693.828 257.605C692.489 257.605 691.279 257.348 690.198 256.833C689.117 256.292 688.254 255.584 687.611 254.709C686.993 253.807 686.684 252.803 686.684 251.696C686.684 249.894 687.418 248.465 688.885 247.41C690.353 246.328 692.271 245.608 694.639 245.247L699.93 244.475V243.664C699.93 242.582 699.66 241.746 699.119 241.154C698.578 240.561 697.651 240.265 696.338 240.265C695.412 240.265 694.652 240.458 694.06 240.845C693.494 241.205 693.069 241.694 692.786 242.312C692.58 242.647 692.284 242.814 691.897 242.814H688.846C688.563 242.814 688.344 242.737 688.19 242.582C688.061 242.428 687.997 242.222 687.997 241.965C688.023 241.553 688.19 241.051 688.499 240.458C688.834 239.866 689.323 239.3 689.966 238.759C690.636 238.193 691.498 237.717 692.554 237.33C693.609 236.944 694.884 236.751 696.377 236.751C697.999 236.751 699.364 236.957 700.471 237.369C701.603 237.755 702.505 238.283 703.174 238.952C703.843 239.622 704.332 240.407 704.641 241.308C704.95 242.209 705.105 243.162 705.105 244.166V256.292C705.105 256.549 705.015 256.768 704.834 256.948C704.654 257.129 704.435 257.219 704.178 257.219H701.05C700.767 257.219 700.535 257.129 700.355 256.948C700.2 256.768 700.123 256.549 700.123 256.292V254.786C699.788 255.249 699.338 255.7 698.771 256.137C698.205 256.575 697.51 256.936 696.686 257.219C695.888 257.476 694.935 257.605 693.828 257.605ZM695.141 253.936C696.042 253.936 696.853 253.743 697.574 253.357C698.321 252.971 698.9 252.379 699.312 251.581C699.75 250.757 699.969 249.727 699.969 248.491V247.68L696.107 248.298C694.588 248.53 693.455 248.903 692.708 249.418C691.962 249.933 691.588 250.564 691.588 251.31C691.588 251.877 691.756 252.366 692.09 252.778C692.451 253.164 692.901 253.46 693.442 253.666C693.983 253.846 694.549 253.936 695.141 253.936Z" fill="#303030"/>
<path d="M720.274 257.219C720.017 257.219 719.798 257.129 719.618 256.948C719.438 256.768 719.347 256.549 719.347 256.292V231.151C719.347 230.868 719.438 230.637 719.618 230.456C719.798 230.276 720.017 230.186 720.274 230.186H730.624C732.632 230.186 734.383 230.508 735.876 231.151C737.369 231.769 738.528 232.722 739.352 234.009C740.176 235.271 740.587 236.854 740.587 238.759C740.587 240.69 740.176 242.286 739.352 243.548C738.528 244.784 737.369 245.711 735.876 246.328C734.383 246.946 732.632 247.255 730.624 247.255H724.87V256.292C724.87 256.549 724.78 256.768 724.6 256.948C724.445 257.129 724.226 257.219 723.943 257.219H720.274ZM724.793 242.969H730.431C731.924 242.969 733.07 242.621 733.868 241.926C734.666 241.205 735.065 240.149 735.065 238.759C735.065 237.472 734.692 236.442 733.945 235.67C733.199 234.872 732.027 234.473 730.431 234.473H724.793V242.969Z" fill="#303030"/>
<path d="M752.727 257.605C749.869 257.605 747.604 256.781 745.93 255.133C744.257 253.486 743.356 251.143 743.227 248.105C743.201 247.847 743.188 247.526 743.188 247.139C743.188 246.727 743.201 246.406 743.227 246.174C743.33 244.217 743.767 242.544 744.54 241.154C745.338 239.738 746.432 238.656 747.822 237.91C749.213 237.137 750.847 236.751 752.727 236.751C754.812 236.751 756.563 237.189 757.979 238.064C759.395 238.914 760.463 240.111 761.184 241.656C761.905 243.175 762.266 244.938 762.266 246.946V247.757C762.266 248.015 762.176 248.234 761.995 248.414C761.815 248.594 761.583 248.684 761.3 248.684H748.479C748.479 248.684 748.479 248.723 748.479 248.8C748.479 248.877 748.479 248.942 748.479 248.993C748.505 249.894 748.672 250.731 748.981 251.503C749.316 252.25 749.792 252.855 750.41 253.318C751.053 253.782 751.813 254.013 752.688 254.013C753.409 254.013 754.014 253.91 754.503 253.705C754.993 253.473 755.392 253.215 755.701 252.932C756.009 252.649 756.228 252.417 756.357 252.237C756.589 251.928 756.769 251.748 756.898 251.696C757.052 251.619 757.271 251.581 757.554 251.581H760.875C761.133 251.581 761.339 251.658 761.493 251.812C761.674 251.967 761.751 252.16 761.725 252.391C761.699 252.803 761.48 253.305 761.068 253.898C760.682 254.49 760.116 255.069 759.369 255.635C758.623 256.202 757.683 256.678 756.55 257.064C755.443 257.425 754.169 257.605 752.727 257.605ZM748.479 245.44H757.014V245.324C757.014 244.32 756.846 243.445 756.511 242.698C756.177 241.926 755.688 241.334 755.044 240.922C754.4 240.484 753.628 240.265 752.727 240.265C751.826 240.265 751.053 240.484 750.41 240.922C749.766 241.334 749.277 241.926 748.942 242.698C748.633 243.445 748.479 244.32 748.479 245.324V245.44Z" fill="#303030"/>
<path d="M767.292 257.219C767.034 257.219 766.815 257.129 766.635 256.948C766.455 256.768 766.365 256.549 766.365 256.292V238.103C766.365 237.82 766.455 237.588 766.635 237.408C766.815 237.227 767.034 237.137 767.292 237.137H770.42C770.677 237.137 770.896 237.227 771.076 237.408C771.282 237.588 771.385 237.82 771.385 238.103V239.686C771.977 238.862 772.737 238.231 773.664 237.794C774.616 237.356 775.711 237.137 776.946 237.137H778.53C778.813 237.137 779.032 237.227 779.186 237.408C779.366 237.588 779.457 237.807 779.457 238.064V240.845C779.457 241.102 779.366 241.321 779.186 241.501C779.032 241.681 778.813 241.771 778.53 241.771H775.517C774.282 241.771 773.316 242.119 772.621 242.814C771.952 243.484 771.617 244.436 771.617 245.672V256.292C771.617 256.549 771.527 256.768 771.347 256.948C771.166 257.129 770.935 257.219 770.652 257.219H767.292Z" fill="#303030"/>
<path d="M783.395 257.219C783.138 257.219 782.919 257.129 782.739 256.948C782.559 256.768 782.468 256.549 782.468 256.292V238.064C782.468 237.807 782.559 237.588 782.739 237.408C782.919 237.227 783.138 237.137 783.395 237.137H786.601C786.884 237.137 787.103 237.227 787.257 237.408C787.437 237.588 787.527 237.807 787.527 238.064V256.292C787.527 256.549 787.437 256.768 787.257 256.948C787.103 257.129 786.884 257.219 786.601 257.219H783.395ZM783.241 233.816C782.983 233.816 782.764 233.726 782.584 233.546C782.404 233.366 782.314 233.147 782.314 232.889V230.109C782.314 229.851 782.404 229.632 782.584 229.452C782.764 229.272 782.983 229.182 783.241 229.182H786.755C787.038 229.182 787.27 229.272 787.45 229.452C787.63 229.632 787.721 229.851 787.721 230.109V232.889C787.721 233.147 787.63 233.366 787.45 233.546C787.27 233.726 787.038 233.816 786.755 233.816H783.241Z" fill="#303030"/>
<path d="M801.533 257.605C799.474 257.605 797.736 257.245 796.32 256.524C794.929 255.803 793.861 254.786 793.114 253.473C792.394 252.16 791.982 250.628 791.879 248.877C791.853 248.414 791.84 247.847 791.84 247.178C791.84 246.509 791.853 245.942 791.879 245.479C791.982 243.702 792.406 242.171 793.153 240.883C793.925 239.57 795.007 238.553 796.397 237.832C797.813 237.112 799.525 236.751 801.533 236.751C803.541 236.751 805.241 237.112 806.631 237.832C808.047 238.553 809.128 239.57 809.875 240.883C810.647 242.171 811.085 243.702 811.188 245.479C811.214 245.942 811.226 246.509 811.226 247.178C811.226 247.847 811.214 248.414 811.188 248.877C811.085 250.628 810.66 252.16 809.913 253.473C809.193 254.786 808.124 255.803 806.708 256.524C805.318 257.245 803.593 257.605 801.533 257.605ZM801.533 253.782C802.898 253.782 803.953 253.357 804.7 252.507C805.447 251.632 805.858 250.358 805.936 248.684C805.961 248.298 805.974 247.796 805.974 247.178C805.974 246.56 805.961 246.058 805.936 245.672C805.858 243.998 805.447 242.737 804.7 241.887C803.953 241.012 802.898 240.574 801.533 240.574C800.169 240.574 799.113 241.012 798.367 241.887C797.62 242.737 797.208 243.998 797.131 245.672C797.105 246.058 797.092 246.56 797.092 247.178C797.092 247.796 797.105 248.298 797.131 248.684C797.208 250.358 797.62 251.632 798.367 252.507C799.113 253.357 800.169 253.782 801.533 253.782Z" fill="#303030"/>
<path d="M822.959 257.605C821.62 257.605 820.435 257.386 819.406 256.948C818.402 256.485 817.565 255.841 816.895 255.018C816.226 254.194 815.711 253.228 815.351 252.121C814.99 250.988 814.784 249.753 814.733 248.414C814.707 247.95 814.694 247.538 814.694 247.178C814.694 246.792 814.707 246.367 814.733 245.904C814.784 244.616 814.977 243.419 815.312 242.312C815.673 241.205 816.187 240.24 816.857 239.416C817.552 238.566 818.402 237.91 819.406 237.446C820.435 236.983 821.62 236.751 822.959 236.751C824.349 236.751 825.52 236.996 826.473 237.485C827.451 237.948 828.262 238.553 828.906 239.3V230.727C828.906 230.469 828.983 230.25 829.137 230.07C829.318 229.89 829.549 229.8 829.833 229.8H833.115C833.373 229.8 833.591 229.89 833.772 230.07C833.952 230.25 834.042 230.469 834.042 230.727V256.292C834.042 256.549 833.952 256.768 833.772 256.948C833.591 257.129 833.373 257.219 833.115 257.219H830.064C829.781 257.219 829.549 257.129 829.369 256.948C829.215 256.768 829.137 256.549 829.137 256.292V254.863C828.494 255.661 827.67 256.318 826.666 256.833C825.688 257.348 824.452 257.605 822.959 257.605ZM824.387 253.473C825.469 253.473 826.331 253.228 826.975 252.739C827.618 252.25 828.095 251.632 828.404 250.885C828.713 250.113 828.88 249.328 828.906 248.53C828.932 248.066 828.944 247.577 828.944 247.062C828.944 246.522 828.932 246.019 828.906 245.556C828.88 244.784 828.7 244.05 828.365 243.355C828.03 242.634 827.541 242.042 826.898 241.578C826.254 241.115 825.417 240.883 824.387 240.883C823.306 240.883 822.444 241.128 821.8 241.617C821.182 242.08 820.732 242.698 820.448 243.471C820.165 244.243 819.998 245.093 819.946 246.019C819.921 246.792 819.921 247.564 819.946 248.337C819.998 249.263 820.165 250.113 820.448 250.885C820.732 251.658 821.182 252.289 821.8 252.778C822.444 253.241 823.306 253.473 824.387 253.473Z" fill="#303030"/>
</svg>
