<svg width="291" height="290" viewBox="0 0 291 290" fill="none" xmlns="http://www.w3.org/2000/svg">
<path d="M230.277 131.019C219.064 122.926 207.38 116.717 207.38 116.717C206.87 117.111 206.316 117.442 205.729 117.705L209.786 123.228C209.786 123.228 218.158 132.254 222.684 136.019C227.209 139.783 224.136 146.746 222.698 149.071C221.261 151.397 220.398 155.966 220.053 164.463C219.829 170.117 219.191 175.027 224.078 182.295C229.066 171.05 231.637 158.863 231.622 146.539C231.628 141.336 231.178 136.142 230.277 131.019V131.019Z" fill="#FF4F00"/>
<path d="M112.362 194.881C111.603 193.343 104.815 178.995 103.849 177.777C103.463 177.288 102.388 176.192 101.238 175.05C101.06 176.637 100.663 178.155 99.8783 179.294C97.6673 182.492 95.603 182.062 94.3984 183.806C93.8061 184.678 87.4982 195.108 81.2563 205.512C92.6435 218.128 107.436 227.096 123.808 231.308C124.383 229.192 126.43 220.445 123.655 213.497C120.487 205.535 113.124 196.419 112.362 194.881Z" fill="#FF4F00"/>
<path d="M97.3454 91.6034C100.534 91.7895 114.883 87.8244 119.415 89.1819C123.946 90.5395 140.937 104.007 142.297 106.507C143.657 109.007 145.316 120.062 145.172 122.327C145.163 122.501 145.137 122.673 145.095 122.841C145.095 122.882 145.069 122.914 145.057 122.952C145.124 123.278 145.181 123.594 145.227 123.897C145.273 123.606 145.331 123.278 145.397 122.952C145.397 122.914 145.371 122.882 145.359 122.841C145.317 122.673 145.291 122.501 145.282 122.327C145.144 120.062 146.803 108.996 148.157 106.507C149.511 104.019 166.514 90.5453 171.04 89.1819C175.565 87.8186 189.917 91.7982 193.109 91.6034C196.3 91.4087 209.396 95.24 209.396 95.24C209.396 95.24 212.357 95.8592 216.224 96.6935C200.621 73.9437 174.59 59.0427 145.121 59.0427C115.651 59.0427 89.5827 73.9699 73.9595 96.7603C77.9587 95.8883 81.0638 95.24 81.0638 95.24C81.0638 95.24 94.1598 91.4145 97.3454 91.6034Z" fill="#FF4F00"/>
<path d="M83.0961 116.717C83.0961 116.717 71.2335 123.025 59.9286 131.214C59.0493 136.265 58.6077 141.384 58.609 146.513C58.5912 158.922 61.1947 171.192 66.2452 182.501C71.2881 175.114 70.6354 170.167 70.4112 164.458C70.0777 155.961 69.2008 151.391 67.7661 149.065C66.3314 146.74 63.2637 139.786 67.792 136.025C72.3202 132.263 80.6896 123.234 80.6896 123.234L84.7435 117.711C84.1578 117.446 83.6049 117.112 83.0961 116.717Z" fill="#FF4F00"/>
<path d="M190.598 179.303C189.811 178.164 189.417 176.646 189.238 175.059C188.088 176.202 187.013 177.297 186.628 177.786C185.662 179.004 178.865 193.352 178.112 194.89C177.359 196.428 169.987 205.544 166.807 213.495C164.056 220.384 166.051 229.041 166.64 231.25C183 227 197.771 217.998 209.128 205.355C202.904 195.004 196.668 184.658 196.078 183.806C194.874 182.062 192.798 182.501 190.598 179.303Z" fill="#FF4F00"/>
<path d="M174.337 174.361C175.024 173.943 182.709 165.957 183.117 165.571C183.526 165.184 188.916 158.373 190.834 156.338C192.752 154.303 193.459 156.178 193.422 156.286C194.695 153.359 196.029 150.507 197.036 148.58C199.687 143.495 197.961 137.027 197.961 137.027C195.374 134.926 194.9 129.152 194.9 129.152C193.246 127.955 189.558 123.615 189.558 123.615C176.62 115.158 178.972 111.874 178.972 111.874C176.45 112.501 174.984 111.981 174.984 111.981C175.102 112.536 171.755 113.882 165.283 114.952C158.811 116.022 158.734 113.807 158.734 113.807C158.837 114.763 157.268 115.339 157.268 115.339C157.981 118.222 155.333 122.336 154.548 123.391C153.763 124.446 155.476 128.243 154.042 132.112C152.607 135.981 148.372 134.859 147.308 134.408C146.403 134.024 145.56 129.757 145.25 126.824C144.939 129.763 144.1 134.024 143.191 134.408C142.127 134.859 137.892 135.978 136.458 132.112C135.023 128.245 136.745 124.455 135.952 123.391C135.158 122.327 132.519 118.222 133.232 115.339C133.232 115.339 131.659 114.757 131.766 113.807C131.766 113.807 131.691 116.022 125.216 114.952C118.741 113.882 115.398 112.536 115.516 111.981C115.516 111.981 114.049 112.501 111.528 111.874C111.528 111.874 113.871 115.158 100.942 123.615C100.942 123.615 97.2531 127.955 95.6 129.152C95.6 129.152 95.1342 134.926 92.538 137.027C92.538 137.027 90.8129 143.495 93.4638 148.58C94.47 150.524 95.7926 153.361 97.0576 156.289C97.0087 156.181 97.716 154.303 99.6452 156.341C101.574 158.379 106.954 165.196 107.362 165.582C107.77 165.969 115.458 173.954 116.14 174.361C116.821 174.768 123.787 181.658 124.388 181.838C124.989 182.018 141.251 192.393 144.157 204.169C144.902 207.198 145.204 210.643 145.238 214.085C145.273 210.643 145.572 207.198 146.319 204.169C149.226 192.393 165.49 182.021 166.088 181.838C166.686 181.655 173.65 174.792 174.337 174.361ZM165.401 165.495C165.401 165.495 165.861 164.858 164.895 163.751C164.162 162.911 164.381 161.457 164.527 160.812C164.438 160.94 164.352 161.068 164.263 161.202C163.627 162.156 163.056 163.154 162.555 164.187C163.109 164.304 163.628 164.555 164.066 164.918C164.504 165.281 164.85 165.745 165.073 166.271C165.89 168.161 163.415 169.539 163.415 169.539C163.415 169.539 163.748 167.437 162.762 166.46C162.551 166.253 162.394 165.997 162.305 165.714C162.216 165.431 162.197 165.13 162.25 164.838C161.779 165.881 161.413 166.968 161.158 168.085V168.085C161.158 168.085 162.566 169.187 162.147 170.315C161.727 171.443 158.786 173.242 158.682 173.943C158.682 173.943 157.82 170.05 159.479 168.85C160.292 168.268 160.712 168.065 160.916 168.018C161.143 167.027 161.457 166.059 161.856 165.126C161.701 165.354 161.495 165.543 161.255 165.677C161.015 165.811 160.747 165.887 160.473 165.899C159.093 165.969 157.969 167.768 157.969 167.768C157.969 167.768 157.017 165.076 158.869 164.21C159.393 163.959 159.97 163.843 160.549 163.872C161.127 163.9 161.69 164.074 162.187 164.376C162.724 163.24 163.346 162.147 164.047 161.106C163.633 161.504 162.402 162.559 161.235 162.321C159.798 162.015 159.49 162.734 159.49 162.734C159.49 162.734 159.72 160.042 161.503 159.827C162.003 159.759 162.511 159.825 162.978 160.018C163.445 160.211 163.854 160.524 164.165 160.925C164.83 159.946 165.545 159.002 166.307 158.097C165.984 158.017 165.647 158.017 165.324 158.097C164.806 158.289 164.234 160.03 161.037 159.149C161.037 159.149 157.486 162.498 155.666 167.201C153.846 171.905 149.916 176.504 144.223 171.475C144.223 171.475 141.006 172.417 142.15 177.164C143.295 181.911 141.501 184.184 140.624 182.155C140.624 182.155 138.709 186.187 137.306 181.643C137.306 181.643 134.687 184.716 134.376 180.164C134.376 180.164 131.142 181.672 132.162 178.105C132.162 178.105 128.425 178.547 130.94 175.105C130.94 175.105 127.542 173.332 130.434 171.507C133.327 169.681 134.747 171.858 139.445 167.623C144.143 163.388 143.657 163.402 143.657 163.402C143.657 163.402 141.512 163.603 142.57 162.26C142.57 162.26 135.67 165.385 137.553 158.501C137.553 158.501 130.173 156.527 133.991 153.016C133.991 153.016 126.45 149.056 131.168 147.269C131.168 147.269 126.49 143.178 129.558 143.091C129.558 143.091 126.608 139.059 129.27 138.731C129.27 138.731 127.807 133.571 128.983 134.283C130.158 134.995 131.32 140.824 138.393 143.62C145.465 146.417 146.46 147.946 147.593 151.524C148.041 152.923 148.409 154.431 149.163 155.478C150.071 154.606 149.812 154.045 149.812 154.045C147.029 147.277 150.172 149.001 150.172 149.001C149.815 148.498 149.493 147.178 149.493 147.178C148.372 142.007 151.845 145.222 151.845 145.222C150.848 138.263 153.941 140.571 153.941 140.571C153.366 134.304 156.664 138.048 156.664 138.048C157.322 131.789 162.722 130.801 162.722 130.801C159.013 133.234 158.386 139.812 158.409 146.301C158.432 152.789 155.416 155.603 155.416 155.603C155.318 155.716 155.221 155.824 155.129 155.923C155.86 155.594 156.574 155.226 157.268 154.821C165.18 150.254 166.06 153.367 166.364 155.731C166.438 156.379 166.547 157.022 166.689 157.658C167.627 156.564 168.633 155.533 169.702 154.571L169.855 154.751C168.755 155.742 167.722 156.805 166.761 157.934C166.847 158.207 166.896 158.242 166.896 158.242C166.896 158.242 166.767 158.199 166.577 158.152C165.985 158.85 165.361 159.638 164.757 160.495C165.238 160.585 165.688 160.796 166.067 161.109C166.446 161.421 166.741 161.825 166.925 162.283C167.606 163.966 165.401 165.495 165.401 165.495Z" fill="#FF4F00"/>
<path d="M116.847 245.637C117.844 246.487 118.598 247.591 119.032 248.834C119.394 249.901 119.422 251.054 119.112 252.137C119.085 252.221 119.041 252.299 118.983 252.365C118.924 252.431 118.853 252.484 118.773 252.52C118.69 252.563 118.599 252.588 118.506 252.593C118.413 252.599 118.32 252.585 118.233 252.552L116.674 252.017C116.491 251.953 116.334 251.828 116.23 251.662C116.126 251.497 116.08 251.3 116.099 251.105C116.188 250.066 115.879 249.033 115.237 248.218C114.554 247.249 113.377 246.483 111.703 245.919C109.907 245.302 108.455 245.164 107.348 245.503C106.822 245.651 106.342 245.931 105.953 246.318C105.564 246.704 105.278 247.184 105.122 247.712C104.878 248.367 104.895 249.091 105.171 249.733C105.54 250.468 106.061 251.116 106.698 251.631C107.436 252.278 108.577 253.15 110.122 254.247C111.349 255.065 112.484 256.017 113.506 257.084C114.233 257.845 114.755 258.782 115.021 259.805C115.238 260.882 115.148 261.999 114.76 263.026C114.404 264.135 113.721 265.107 112.802 265.811C111.812 266.538 110.641 266.97 109.421 267.058C107.929 267.164 106.432 266.951 105.027 266.433C103.552 265.977 102.202 265.181 101.083 264.107C100.182 263.247 99.5135 262.168 99.1392 260.974C98.8263 259.997 98.7954 258.95 99.0501 257.956C99.0782 257.867 99.124 257.783 99.1848 257.712C99.2456 257.641 99.32 257.582 99.4037 257.541C99.4847 257.498 99.5732 257.473 99.6641 257.466C99.755 257.459 99.8464 257.471 99.9327 257.5L101.52 258.044C101.693 258.103 101.843 258.219 101.945 258.372C102.061 258.542 102.117 258.747 102.103 258.953C102.019 259.448 102.043 259.955 102.175 260.439C102.306 260.923 102.542 261.372 102.865 261.753C103.652 262.723 104.709 263.431 105.899 263.788C107.338 264.28 108.576 264.388 109.613 264.11C110.116 263.981 110.576 263.72 110.947 263.353C111.319 262.987 111.588 262.528 111.729 262.023C111.979 261.37 111.987 260.647 111.752 259.988C111.434 259.266 110.958 258.626 110.361 258.116C109.356 257.229 108.3 256.403 107.198 255.642C105.867 254.759 104.616 253.758 103.46 252.651C102.684 251.914 102.111 250.984 101.799 249.954C101.543 249.018 101.618 247.954 102.017 246.756C102.694 244.744 103.976 243.435 105.864 242.829C107.752 242.222 109.997 242.364 112.6 243.256C114.161 243.75 115.606 244.56 116.847 245.637V245.637Z" fill="#FF4F00"/>
<path d="M103.061 240.616C103.086 240.701 103.094 240.79 103.083 240.878C103.073 240.966 103.045 241.051 103.001 241.128L102.756 241.419L84.6952 256.177C84.5219 256.34 84.299 256.439 84.063 256.458C83.8269 256.476 83.5917 256.413 83.3956 256.279L81.5326 255.189C81.3173 255.086 81.143 254.913 81.0385 254.697C80.934 254.48 80.9054 254.235 80.9575 254L84.6434 230.808L84.7728 230.451C84.8185 230.374 84.8799 230.309 84.9528 230.259C85.0257 230.209 85.1085 230.175 85.1954 230.16C85.3713 230.114 85.5579 230.139 85.7158 230.23L87.0815 231.029C87.2586 231.124 87.3955 231.281 87.4667 231.471C87.5272 231.624 87.5451 231.791 87.5185 231.954L86.7221 237.128L96.3249 242.756L100.35 239.468C100.491 239.352 100.663 239.282 100.845 239.269C101.026 239.256 101.207 239.3 101.362 239.395L102.754 240.212C102.829 240.255 102.896 240.313 102.949 240.382C103.002 240.452 103.04 240.531 103.061 240.616ZM94.0996 244.686L86.1499 240.035L84.0885 252.895L94.0996 244.686Z" fill="#FF4F00"/>
<path d="M82.8979 228.401C82.9001 228.505 82.8816 228.607 82.8436 228.703C82.8055 228.799 82.7487 228.886 82.6766 228.96L67.6658 245.076C67.5265 245.24 67.3298 245.344 67.1166 245.366C67.0096 245.372 66.9026 245.354 66.8033 245.313C66.7039 245.273 66.6146 245.21 66.5416 245.131L65.3916 244.038C65.2553 243.927 65.1566 243.776 65.1092 243.605C65.0618 243.435 65.068 243.254 65.1271 243.087L69.3276 228.044L54.679 233.14C54.5228 233.204 54.3512 233.221 54.1857 233.188C54.0201 233.155 53.8677 233.073 53.7475 232.954L52.5975 231.861C52.5169 231.792 52.4514 231.707 52.4054 231.612C52.3593 231.516 52.3337 231.412 52.3301 231.305C52.3399 231.086 52.4313 230.878 52.586 230.724L67.5968 214.608C67.6642 214.53 67.7468 214.467 67.8394 214.423C67.9319 214.379 68.0325 214.355 68.1347 214.352C68.2369 214.349 68.3387 214.367 68.4336 214.406C68.5285 214.444 68.6146 214.502 68.6864 214.576L69.8106 215.643C69.8852 215.71 69.9453 215.791 69.9869 215.883C70.0285 215.975 70.0507 216.074 70.0521 216.175C70.0472 216.381 69.9637 216.576 69.8192 216.721L58.4109 229.012L70.1987 224.817C70.4069 224.718 70.6403 224.687 70.8669 224.727C71.0934 224.768 71.3019 224.878 71.4637 225.044L72.1969 225.739C72.3617 225.898 72.4768 226.103 72.5279 226.327C72.579 226.552 72.5639 226.787 72.4844 227.003L69.0343 239.122L80.457 226.855C80.525 226.778 80.6077 226.716 80.7 226.672C80.7924 226.628 80.8926 226.603 80.9946 226.599C81.0969 226.596 81.1986 226.615 81.2935 226.653C81.3884 226.692 81.4746 226.75 81.5467 226.823L82.6449 227.869C82.72 227.937 82.781 228.018 82.8245 228.11C82.8679 228.201 82.8929 228.3 82.8979 228.401V228.401Z" fill="#FF4F00"/>
<path d="M65.0494 210.149C65.0263 210.249 64.9839 210.342 64.9247 210.425C64.8655 210.508 64.7906 210.578 64.7044 210.632L46.5914 223.082C46.4205 223.213 46.2064 223.272 45.9934 223.248C45.8944 223.232 45.7999 223.195 45.7165 223.139C45.6331 223.082 45.5628 223.009 45.5103 222.922L37.7706 211.402C37.7032 211.316 37.6549 211.217 37.6289 211.111C37.6029 211.005 37.5999 210.895 37.6202 210.787C37.6404 210.68 37.6833 210.578 37.746 210.489C37.8087 210.4 37.8896 210.326 37.9834 210.271L38.981 209.585C39.062 209.523 39.1555 209.48 39.255 209.459C39.3544 209.438 39.4572 209.439 39.556 209.463C39.7586 209.517 39.9332 209.647 40.0448 209.826L46.4735 219.387L52.6549 215.134L46.6403 206.204C46.5729 206.119 46.5245 206.02 46.4985 205.914C46.4726 205.807 46.4696 205.697 46.4898 205.59C46.51 205.482 46.5529 205.38 46.6156 205.291C46.6783 205.202 46.7593 205.128 46.853 205.074L47.796 204.425C47.8781 204.365 47.9713 204.322 48.0701 204.299C48.1689 204.276 48.2712 204.274 48.3711 204.292C48.476 204.316 48.5753 204.36 48.6631 204.423C48.7509 204.486 48.8256 204.566 48.8828 204.658L54.9032 213.605L61.3061 209.201L54.725 199.417C54.6603 199.33 54.6137 199.231 54.588 199.125C54.5623 199.02 54.5581 198.91 54.5755 198.803C54.5989 198.697 54.643 198.597 54.7051 198.508C54.7673 198.419 54.8464 198.343 54.9378 198.286L55.9383 197.6C56.0205 197.54 56.1143 197.499 56.2134 197.479C56.3126 197.459 56.4148 197.461 56.5133 197.483C56.7191 197.53 56.8986 197.656 57.0136 197.835L64.9143 209.579C64.9763 209.659 65.0205 209.751 65.0439 209.849C65.0672 209.948 65.0691 210.05 65.0494 210.149V210.149Z" fill="#FF4F00"/>
<path d="M54.5577 193.87C54.4694 194.055 54.3139 194.199 54.1235 194.271L33.9146 202.791C33.7213 202.884 33.5 202.899 33.2964 202.832C33.2028 202.796 33.1179 202.741 33.0475 202.669C32.977 202.597 32.9227 202.511 32.8882 202.416L32.3131 201.038C32.2332 200.878 32.2079 200.695 32.2413 200.518C32.2873 200.364 32.348 200.215 32.4224 200.073L44.0694 182.858L28.4174 189.46C28.3206 189.507 28.2154 189.533 28.1081 189.538C28.0009 189.542 27.8938 189.525 27.7935 189.486C27.6989 189.446 27.6134 189.387 27.5422 189.313C27.471 189.238 27.4156 189.15 27.3795 189.053L26.8045 187.646C26.758 187.548 26.7317 187.441 26.7272 187.332C26.7228 187.223 26.7403 187.114 26.7786 187.012C26.8207 186.912 26.8824 186.821 26.9599 186.745C27.0375 186.669 27.1293 186.61 27.23 186.57L47.4102 178.065C47.6032 177.978 47.8222 177.972 48.0197 178.047C48.1176 178.082 48.2068 178.138 48.2808 178.211C48.3549 178.284 48.412 178.373 48.4481 178.472L49.0231 179.879C49.0982 180.029 49.1266 180.198 49.1045 180.365C49.0825 180.531 49.011 180.687 48.8995 180.812L37.3992 197.963L52.9246 191.413C53.0176 191.371 53.1183 191.347 53.2206 191.345C53.3228 191.343 53.4243 191.362 53.5189 191.402C53.6135 191.441 53.6991 191.499 53.7705 191.573C53.8418 191.647 53.8974 191.735 53.9338 191.832L54.526 193.286C54.5725 193.375 54.5993 193.473 54.6048 193.574C54.6103 193.675 54.5942 193.776 54.5577 193.87V193.87Z" fill="#FF4F00"/>
<path d="M43.7621 160.605L23.211 170.681L22.8516 170.791C22.7629 170.802 22.673 170.793 22.5881 170.765C22.5032 170.736 22.4254 170.69 22.3599 170.629C22.2186 170.513 22.127 170.346 22.1041 170.164L21.9201 168.547C21.8856 168.336 21.9264 168.12 22.0351 167.937C22.1274 167.789 22.2616 167.672 22.4203 167.603L40.7059 158.707L20.8937 154.231C20.7239 154.198 20.5677 154.115 20.4451 153.992C20.2984 153.841 20.2097 153.642 20.195 153.431L20.0053 151.809C19.994 151.721 20.0009 151.631 20.0257 151.545C20.0504 151.46 20.0924 151.38 20.149 151.312C20.2024 151.241 20.2694 151.182 20.346 151.138C20.4225 151.094 20.5071 151.066 20.5946 151.056C20.7169 151.042 20.8404 151.042 20.9627 151.056L43.2474 156.135C43.5133 156.18 43.7565 156.314 43.9383 156.515C44.1202 156.716 44.2302 156.973 44.2508 157.245L44.4866 159.3C44.5252 159.568 44.4751 159.841 44.344 160.078C44.213 160.314 44.0084 160.499 43.7621 160.605V160.605Z" fill="#FF4F00"/>
<path d="M41.5684 144.231C39.9047 145.696 37.5318 146.336 34.4497 146.15C33.7788 146.113 32.832 146.04 31.6091 145.931C30.3843 145.821 29.4499 145.728 28.8059 145.641C25.7756 145.284 23.5541 144.21 22.1415 142.417C20.7288 140.624 20.1442 138.32 20.3877 135.504C20.6349 132.69 21.6086 130.527 23.3087 129.013C25.0089 127.5 27.3779 126.838 30.4159 127.028C31.7117 127.097 32.6489 127.158 33.2278 127.211C33.7855 127.26 34.7286 127.368 36.0626 127.531C39.1294 127.895 41.3547 128.938 42.7386 130.661C44.1224 132.384 44.6888 134.71 44.4377 137.638C44.1828 140.57 43.2264 142.768 41.5684 144.231ZM40.4184 132.935C39.4313 131.756 37.8289 131.023 35.6112 130.734C34.281 130.571 33.3926 130.469 32.946 130.429C32.4544 130.385 31.5631 130.33 30.2664 130.26C28.0258 130.15 26.317 130.587 25.1402 131.571C23.9633 132.556 23.2924 133.948 23.1276 135.748C22.9704 137.551 23.3892 139.046 24.384 140.234C25.3788 141.422 26.986 142.15 29.2055 142.417C29.8496 142.498 30.7389 142.588 31.8736 142.687C32.9863 142.789 33.8862 142.856 34.5474 142.894C36.7804 143.024 38.4844 142.596 39.6593 141.612C40.8343 140.627 41.5051 139.223 41.6719 137.4C41.8252 135.601 41.4074 134.113 40.4184 132.935Z" fill="#FF4F00"/>
<path d="M44.3601 122.327C42.4319 123.408 39.9795 123.535 37.0028 122.708C36.3568 122.529 35.4454 122.259 34.2686 121.897C33.0917 121.534 32.1966 121.244 31.5832 121.025C28.7082 120.04 26.7608 118.521 25.7411 116.467C24.7214 114.412 24.6255 112.035 25.4536 109.336C26.272 106.636 27.6683 104.729 29.6426 103.615C31.6168 102.501 34.0673 102.343 36.9942 103.141C38.2477 103.484 39.1524 103.741 39.7082 103.911C40.2641 104.082 41.1659 104.385 42.4137 104.821C45.3348 105.833 47.2975 107.325 48.3019 109.298C49.3062 111.271 49.3819 113.663 48.529 116.475C47.678 119.287 46.2883 121.238 44.3601 122.327ZM45.5705 111.036C44.8479 109.68 43.4315 108.626 41.3212 107.876C40.0504 107.438 39.2013 107.148 38.7738 107.004C38.3052 106.859 37.4427 106.618 36.1863 106.275C34.0242 105.693 32.2618 105.762 30.899 106.481C29.5362 107.2 28.5941 108.421 28.0728 110.144C27.5466 111.874 27.653 113.426 28.3804 114.795C29.1078 116.164 30.5338 117.217 32.6528 117.943C33.2661 118.154 34.1181 118.43 35.2087 118.769C36.2754 119.1 37.135 119.35 37.7963 119.53C39.9526 120.129 41.7064 120.07 43.0577 119.353C44.409 118.636 45.3501 117.399 45.881 115.641C46.3966 113.918 46.2931 112.378 45.5705 111.022V111.036Z" fill="#FF4F00"/>
<path d="M52.4536 103.592C52.2572 103.637 52.0512 103.603 51.8786 103.499L32.7247 92.772C32.5312 92.6778 32.3816 92.5109 32.3079 92.3069C32.2768 92.2108 32.2669 92.1089 32.2788 92.0085C32.2907 91.9081 32.3242 91.8115 32.3769 91.7255L36.3359 84.4901C37.5702 82.2382 39.0595 80.7663 40.8037 80.0745C42.5479 79.3826 44.4177 79.5968 46.413 80.7169C47.8985 81.5483 48.9153 82.6084 49.4635 83.8971C50.014 85.2481 50.109 86.7448 49.7337 88.1558L60.0668 87.9756C60.1965 87.9768 60.3243 88.0076 60.4406 88.0657C60.5171 88.1095 60.5843 88.1683 60.6381 88.2387C60.6919 88.3091 60.7313 88.3896 60.7539 88.4755C60.7803 88.5599 60.7893 88.6488 60.7804 88.7368C60.7715 88.8248 60.7449 88.91 60.7022 88.9872L59.9863 90.2924C59.8669 90.5476 59.6637 90.753 59.4113 90.8738C59.1421 90.9704 58.8572 91.0148 58.5718 91.0046L48.6757 91.1587L45.7719 96.4551L53.3995 100.725C53.4915 100.774 53.5721 100.842 53.6361 100.925C53.7 101.008 53.7458 101.103 53.7704 101.205C53.821 101.412 53.7901 101.631 53.6841 101.816L52.905 103.24C52.8587 103.328 52.7945 103.404 52.7167 103.465C52.6389 103.526 52.5492 103.569 52.4536 103.592V103.592ZM46.0968 90.1122C47.7317 87.1258 47.3072 84.9378 44.8231 83.5483C42.339 82.1588 40.2795 82.9562 38.6445 85.9407L35.9161 90.9319L43.3683 95.1034L46.0968 90.1122Z" fill="#FF4F00"/>
<path d="M70.7992 75.4349L50.1704 65.5192L49.8599 65.307C49.7969 65.243 49.7483 65.166 49.7175 65.0812C49.6867 64.9964 49.6745 64.9058 49.6817 64.8158C49.6814 64.6312 49.7526 64.4538 49.8801 64.3216L51.0128 63.1588C51.1525 62.9977 51.3459 62.8942 51.5562 62.8681C51.7275 62.8482 51.9007 62.8806 52.0536 62.9611L70.3564 71.8331L61.4063 53.4031C61.3256 53.2488 61.2925 53.0736 61.3114 52.9002C61.3366 52.6865 61.439 52.4898 61.5989 52.3479L62.7288 51.1851C62.7908 51.1221 62.8648 51.0725 62.9464 51.0396C63.028 51.0066 63.1154 50.9908 63.2032 50.9932C63.2909 50.9895 63.3785 51.0044 63.4602 51.037C63.5419 51.0695 63.6159 51.119 63.6776 51.1822C63.7689 51.2686 63.849 51.3662 63.9162 51.4729L73.9301 72.2314C74.0611 72.4693 74.1098 72.7445 74.0687 73.0135C74.0276 73.2826 73.8989 73.5301 73.703 73.7168L72.2655 75.1878C72.083 75.388 71.8398 75.521 71.5743 75.5657C71.3087 75.6105 71.0359 75.5644 70.7992 75.4349V75.4349Z" fill="#FF4F00"/>
<path d="M82.3633 65.3304C82.1656 65.2806 81.9952 65.1543 81.8889 64.9787L69.7704 46.5399C69.6449 46.3643 69.5885 46.1477 69.6123 45.9323C69.6296 45.8329 69.6678 45.7384 69.7244 45.6551C69.7809 45.5719 69.8544 45.5019 69.94 45.4498L76.754 40.8713C78.8758 39.4431 80.8682 38.8307 82.7313 39.0342C84.5943 39.2376 86.1565 40.2977 87.4177 42.2144C88.3588 43.6446 88.7785 45.0583 88.677 46.4556C88.5513 47.9123 87.954 49.2866 86.9778 50.3654L96.2356 55.0166C96.3496 55.0783 96.448 55.1658 96.5231 55.2724C96.6174 55.4234 96.6504 55.6054 96.615 55.7804C96.5796 55.9554 96.4787 56.1098 96.3333 56.2113L95.1056 57.0369C94.8809 57.2098 94.6027 57.2964 94.3207 57.2811C94.0376 57.2429 93.7643 57.1501 93.5157 57.0078L84.6605 52.5369L79.6894 55.8741L84.5138 63.2141C84.5736 63.3001 84.6145 63.398 84.6339 63.5013C84.6532 63.6046 84.6505 63.7108 84.626 63.813C84.5761 64.021 84.4483 64.2013 84.2694 64.3159L82.9297 65.2141C82.8494 65.2741 82.757 65.3156 82.6592 65.3357C82.5613 65.3558 82.4603 65.354 82.3633 65.3304V65.3304ZM82.8578 50.4061C85.6696 48.5166 86.2897 46.3771 84.718 43.9876C83.1462 41.5981 80.9554 41.3471 78.1455 43.2347L73.4534 46.3858L78.1685 53.5573L82.8578 50.4061Z" fill="#FF4F00"/>
<path d="M100.413 54.2461C100.225 54.1667 100.074 54.0167 99.9934 53.8275L90.6034 33.7899C90.5119 33.6104 90.4923 33.4022 90.5487 33.2085C90.5789 33.1119 90.6295 33.0232 90.697 32.9484C90.7646 32.8736 90.8474 32.8145 90.9397 32.7753L92.4549 32.0486C92.546 31.9985 92.6461 31.9673 92.7493 31.9568C92.8525 31.9463 92.9567 31.9568 93.0558 31.9876C93.1521 32.0268 93.2395 32.0854 93.3126 32.1599C93.3858 32.2343 93.4432 32.3231 93.4813 32.4207L102.871 52.4554C102.918 52.5473 102.946 52.648 102.953 52.7513C102.96 52.8546 102.946 52.9583 102.912 53.0559C102.878 53.1534 102.824 53.2429 102.754 53.3186C102.685 53.3943 102.6 53.4547 102.506 53.4961L100.991 54.2199C100.902 54.2667 100.805 54.2932 100.705 54.2978C100.605 54.3023 100.506 54.2846 100.413 54.2461V54.2461Z" fill="#FF4F00"/>
<path d="M108.224 49.1968C106.338 48.5224 105.012 47.0757 104.245 44.8567C104.186 44.6715 104.2 44.4704 104.285 44.2957C104.324 44.2084 104.381 44.1307 104.453 44.0679C104.524 44.0052 104.608 43.9589 104.699 43.9323L106.332 43.4207C106.432 43.38 106.538 43.3605 106.645 43.3635C106.752 43.3665 106.857 43.3919 106.954 43.4381C107.05 43.4842 107.137 43.5502 107.207 43.6318C107.277 43.7133 107.33 43.8088 107.362 43.912C107.923 45.2686 108.775 46.1406 109.918 46.5282C111.06 46.9158 112.332 46.878 113.733 46.4149C115.354 45.9071 116.442 44.973 116.996 43.6126C117.55 42.2521 117.545 40.6562 116.982 38.8248L113.445 27.2348L102 30.8278C101.903 30.8617 101.801 30.8753 101.699 30.8678C101.597 30.8603 101.498 30.8318 101.407 30.7842C101.317 30.7365 101.236 30.6703 101.172 30.5898C101.108 30.5092 101.061 30.4161 101.034 30.3162L100.654 29.0836C100.62 28.986 100.607 28.8824 100.615 28.7794C100.623 28.6763 100.652 28.576 100.7 28.4848C100.748 28.3937 100.814 28.3134 100.893 28.2489C100.973 28.1844 101.065 28.1371 101.163 28.1098L114.9 23.7814C115.001 23.7414 115.109 23.7238 115.217 23.7299C115.325 23.736 115.43 23.7656 115.525 23.8167C115.621 23.8678 115.705 23.9391 115.77 24.0258C115.836 24.1125 115.882 24.2126 115.906 24.3192L120.087 37.9237C120.604 39.4806 120.747 41.1398 120.504 42.7637C120.268 44.2281 119.603 45.5872 118.595 46.6649C117.478 47.8259 116.079 48.6699 114.538 49.1125C112.209 49.8431 110.105 49.8712 108.224 49.1968Z" fill="#FF4F00"/>
<path d="M127.229 44.9672C127.079 44.8268 126.989 44.6328 126.979 44.4265L125.012 22.3802C124.983 22.1649 125.037 21.9465 125.162 21.7698C125.223 21.6905 125.301 21.6255 125.39 21.5794C125.479 21.5332 125.577 21.507 125.676 21.5023L127.278 21.357C127.383 21.3408 127.491 21.3477 127.594 21.377C127.697 21.4063 127.792 21.4575 127.874 21.5272C127.955 21.5968 128.021 21.6832 128.067 21.7807C128.113 21.8782 128.138 21.9845 128.14 22.0924L128.977 31.479L140.598 30.4208L139.773 21.0343C139.758 20.9266 139.765 20.8171 139.793 20.7122C139.821 20.6073 139.87 20.5092 139.937 20.4239C140.003 20.3443 140.084 20.2792 140.176 20.2327C140.268 20.1862 140.369 20.1593 140.471 20.1535L142.076 20.0082C142.182 19.9926 142.291 19.9993 142.395 20.0278C142.498 20.0563 142.595 20.106 142.679 20.1739C142.762 20.2467 142.828 20.336 142.875 20.436C142.921 20.5361 142.947 20.6447 142.95 20.7552L144.913 42.8044C144.926 42.9091 144.917 43.0153 144.885 43.1157C144.853 43.2161 144.8 43.3083 144.729 43.3858C144.589 43.545 144.393 43.6421 144.183 43.6562L142.579 43.8044C142.478 43.8165 142.375 43.8075 142.277 43.7781C142.179 43.7487 142.088 43.6994 142.01 43.6333C141.932 43.5672 141.868 43.4856 141.822 43.3936C141.776 43.3016 141.749 43.201 141.742 43.098L140.88 33.3714L129.259 34.4179L130.121 44.13C130.133 44.2346 130.123 44.3406 130.091 44.4408C130.06 44.5411 130.007 44.6334 129.937 44.7114C129.796 44.87 129.599 44.9669 129.388 44.9817L127.787 45.13C127.687 45.1443 127.587 45.1372 127.49 45.1091C127.394 45.0811 127.305 45.0327 127.229 44.9672V44.9672Z" fill="#FF4F00"/>
<path d="M149.942 43.6356C149.825 43.4666 149.776 43.2583 149.807 43.0542L152.371 21.0689C152.385 20.853 152.481 20.6508 152.639 20.505C152.715 20.4397 152.804 20.3919 152.901 20.3648C152.997 20.3377 153.098 20.332 153.197 20.348L166.882 21.9788C166.99 21.9835 167.096 22.0117 167.192 22.0615C167.289 22.1113 167.373 22.1814 167.44 22.2672C167.507 22.353 167.555 22.4524 167.581 22.5586C167.607 22.6649 167.61 22.7754 167.589 22.8829L167.448 24.0951C167.44 24.1962 167.409 24.2943 167.36 24.3826C167.31 24.4709 167.242 24.5473 167.161 24.6067C166.985 24.7292 166.768 24.7772 166.557 24.7404L155.201 23.3858L154.338 30.8944L164.959 32.1618C165.066 32.1666 165.172 32.1948 165.268 32.2444C165.364 32.294 165.448 32.3639 165.516 32.4493C165.583 32.5347 165.631 32.6338 165.657 32.7396C165.683 32.8455 165.686 32.9558 165.666 33.063L165.531 34.2083C165.521 34.3118 165.491 34.4121 165.441 34.5031C165.392 34.5942 165.324 34.6739 165.243 34.7374C165.158 34.8034 165.06 34.8509 164.955 34.8769C164.851 34.9029 164.743 34.9069 164.637 34.8886L154.013 33.6211L153.122 41.4001L164.743 42.7838C164.851 42.7885 164.957 42.8167 165.053 42.8665C165.149 42.9163 165.234 42.9865 165.3 43.0723C165.367 43.1582 165.415 43.2576 165.44 43.3639C165.466 43.4701 165.468 43.5806 165.447 43.6879L165.306 44.9001C165.298 45.0034 165.268 45.1038 165.219 45.1945C165.169 45.2852 165.101 45.3642 165.019 45.4262C164.935 45.4896 164.839 45.5356 164.738 45.5615C164.636 45.5875 164.53 45.5929 164.427 45.5774L150.474 43.9175C150.37 43.9129 150.269 43.8852 150.177 43.8365C150.085 43.7877 150.005 43.7191 149.942 43.6356V43.6356Z" fill="#FF4F00"/>
<path d="M169.222 46.7026C169.132 46.5229 169.112 46.315 169.168 46.1212L174.645 24.6534C174.686 24.4492 174.803 24.269 174.973 24.1505C175.057 24.0971 175.153 24.0624 175.252 24.0489C175.351 24.0354 175.452 24.0433 175.548 24.072L177.172 24.4964C177.274 24.5174 177.37 24.5584 177.456 24.6173C177.542 24.6762 177.615 24.7517 177.672 24.8395C177.722 24.9317 177.752 25.0332 177.761 25.1378C177.77 25.2423 177.757 25.3476 177.724 25.447L172.247 46.9148C172.225 47.0155 172.182 47.1105 172.122 47.194C172.062 47.2775 171.986 47.3477 171.898 47.4002C171.81 47.4528 171.713 47.4866 171.612 47.4996C171.51 47.5126 171.408 47.5046 171.31 47.4759L169.685 47.0515C169.588 47.0292 169.497 46.9866 169.417 46.9265C169.338 46.8665 169.271 46.7902 169.222 46.7026V46.7026Z" fill="#FF4F00"/>
<path d="M177.304 48.6941C177.239 48.5035 177.25 48.2948 177.336 48.1127L185.898 27.7292C185.971 27.5262 186.12 27.3596 186.312 27.264C186.402 27.2226 186.5 27.2012 186.599 27.2012C186.698 27.2012 186.796 27.2226 186.887 27.264L193.859 30.264C196.964 31.5993 198.91 33.2659 199.698 35.264C200.486 37.262 200.306 39.6845 199.157 42.5313C198.922 43.1457 198.59 43.9615 198.163 44.979C197.735 45.9964 197.384 46.8142 197.11 47.4324C196.236 49.3917 195.246 50.8636 194.14 51.8481C193.057 52.8294 191.664 53.3907 190.21 53.4324C188.704 53.4963 186.912 53.0816 184.834 52.1882L177.706 49.1214C177.613 49.084 177.528 49.0265 177.459 48.9527C177.389 48.8789 177.336 48.7906 177.304 48.6941V48.6941ZM185.774 49.5196C187.213 50.1378 188.445 50.4285 189.468 50.3917C190.458 50.3687 191.404 49.9739 192.122 49.2842C192.864 48.5865 193.567 47.508 194.232 46.0487C194.807 44.8162 195.155 44.041 195.276 43.7232C195.397 43.4054 195.701 42.6302 196.187 41.3976C197.021 39.2988 197.174 37.5653 196.645 36.1971C196.116 34.8289 194.782 33.6845 192.643 32.764L188.042 30.7873L181.01 47.4761L185.774 49.5196Z" fill="#FF4F00"/>
<path d="M203.829 62.3334C203.818 62.1271 203.887 61.9246 204.022 61.7694L217.851 44.6184C217.978 44.4376 218.17 44.3145 218.386 44.2754C218.485 44.2621 218.586 44.2706 218.682 44.3001C218.778 44.3297 218.866 44.3798 218.941 44.4469L229.625 53.2462C229.713 53.309 229.787 53.3903 229.841 53.4845C229.896 53.5787 229.93 53.6837 229.941 53.7924C229.952 53.901 229.939 54.0107 229.905 54.1141C229.87 54.2175 229.814 54.3121 229.74 54.3916L228.978 55.3392C228.918 55.4217 228.842 55.4903 228.754 55.5405C228.667 55.5906 228.569 55.6211 228.469 55.6299C228.257 55.6342 228.051 55.5562 227.894 55.4119L219.013 48.1009L214.292 53.9643L222.583 60.7927C222.672 60.8549 222.747 60.9359 222.802 61.03C222.857 61.1241 222.892 61.2292 222.903 61.338C222.914 61.4467 222.902 61.5567 222.867 61.6603C222.832 61.7638 222.776 61.8586 222.701 61.938L221.98 62.8304C221.917 62.9119 221.839 62.9796 221.751 63.0296C221.662 63.0795 221.563 63.1107 221.462 63.1211C221.355 63.1297 221.247 63.1161 221.145 63.0811C221.044 63.0461 220.95 62.9905 220.87 62.9177L212.575 56.0863L207.688 62.1589L216.759 69.6298C216.848 69.6921 216.922 69.773 216.977 69.8671C217.032 69.9612 217.067 70.0663 217.078 70.1751C217.089 70.2839 217.077 70.3938 217.042 70.4974C217.007 70.601 216.951 70.6957 216.876 70.7751L216.112 71.7228C216.05 71.8071 215.97 71.8767 215.879 71.9269C215.787 71.977 215.686 72.0066 215.583 72.0135C215.374 72.028 215.167 71.9591 215.008 71.8216L204.114 62.8479C204.032 62.7885 203.964 62.7116 203.915 62.6227C203.866 62.5337 203.837 62.435 203.829 62.3334V62.3334Z" fill="#FF4F00"/>
<path d="M218.478 74.9C218.505 74.6991 218.608 74.5167 218.766 74.3912L235.729 60.4001C235.887 60.2574 236.092 60.1806 236.304 60.185C236.404 60.1934 236.501 60.2238 236.588 60.274C236.676 60.3242 236.751 60.393 236.81 60.4757L237.744 61.6385C237.866 61.7699 237.941 61.9387 237.957 62.1181C237.956 62.2783 237.94 62.438 237.908 62.5949L231.583 82.4522L244.733 71.6122C244.813 71.5393 244.907 71.4837 245.009 71.4487C245.111 71.4137 245.218 71.4001 245.326 71.4087C245.427 71.419 245.525 71.4501 245.614 71.5001C245.703 71.55 245.781 71.6179 245.843 71.6994L246.798 72.8825C246.87 72.9634 246.925 73.0581 246.959 73.1611C246.994 73.264 247.007 73.373 246.999 73.4814C246.985 73.5892 246.95 73.6931 246.896 73.787C246.841 73.8809 246.769 73.9628 246.683 74.0279L229.737 87.9812C229.659 88.0503 229.567 88.1031 229.469 88.1366C229.37 88.17 229.266 88.1834 229.162 88.176C229.058 88.1699 228.956 88.1407 228.864 88.0905C228.772 88.0402 228.692 87.9702 228.63 87.8853L227.676 86.7051C227.562 86.5823 227.488 86.428 227.463 86.2622C227.437 86.0964 227.461 85.9267 227.532 85.7748L233.713 66.0251L220.669 76.7808C220.59 76.8491 220.499 76.9005 220.4 76.932C220.301 76.9635 220.197 76.9744 220.094 76.9639C219.993 76.9536 219.894 76.9225 219.806 76.8726C219.717 76.8226 219.639 76.7547 219.576 76.6732L218.602 75.4639C218.543 75.3842 218.501 75.2927 218.48 75.1954C218.458 75.0982 218.458 74.9974 218.478 74.9V74.9Z" fill="#FF4F00"/>
<path d="M238.224 103.673L255.052 88.0571L255.363 87.8478C255.445 87.8121 255.534 87.7948 255.623 87.7974C255.713 87.7999 255.8 87.822 255.88 87.8623C256.049 87.9305 256.184 88.0631 256.257 88.2315L256.895 89.7286C256.987 89.9203 257.008 90.1387 256.956 90.3449C256.911 90.5142 256.815 90.6654 256.682 90.778L241.675 104.595L261.93 103.141C262.101 103.122 262.274 103.156 262.427 103.237C262.612 103.341 262.754 103.508 262.829 103.708L263.465 105.205C263.5 105.286 263.519 105.374 263.519 105.462C263.519 105.551 263.5 105.639 263.465 105.72C263.435 105.803 263.388 105.879 263.328 105.944C263.267 106.008 263.195 106.06 263.114 106.095C263.001 106.147 262.882 106.186 262.76 106.211L239.975 107.813C239.707 107.847 239.436 107.789 239.204 107.649C238.972 107.509 238.793 107.294 238.696 107.039L237.888 105.141C237.775 104.893 237.747 104.615 237.808 104.349C237.869 104.083 238.015 103.846 238.224 103.673V103.673Z" fill="#FF4F00"/>
<path d="M243.112 118.342C243.232 118.176 243.412 118.063 243.612 118.028L265.032 113.432C265.239 113.377 265.459 113.404 265.647 113.507C265.732 113.56 265.805 113.631 265.861 113.715C265.917 113.798 265.955 113.893 265.972 113.993L268.83 127.624C268.857 127.728 268.864 127.838 268.848 127.945C268.833 128.053 268.796 128.156 268.741 128.248C268.679 128.338 268.601 128.414 268.51 128.473C268.419 128.531 268.318 128.57 268.212 128.589L267.03 128.842C266.933 128.867 266.831 128.872 266.732 128.854C266.632 128.836 266.538 128.797 266.455 128.74C266.284 128.609 266.17 128.416 266.136 128.202L263.764 116.891L256.45 118.461L258.666 129.039C258.697 129.144 258.705 129.254 258.69 129.362C258.675 129.471 258.636 129.574 258.577 129.666C258.519 129.758 258.441 129.835 258.35 129.894C258.258 129.952 258.155 129.99 258.048 130.004L256.933 130.243C256.835 130.267 256.734 130.27 256.635 130.253C256.536 130.236 256.442 130.199 256.358 130.144C256.269 130.082 256.193 130.003 256.135 129.911C256.077 129.819 256.039 129.717 256.021 129.609L253.802 119.031L246.226 120.656L248.655 132.231C248.682 132.336 248.688 132.446 248.672 132.553C248.656 132.66 248.619 132.763 248.563 132.856C248.503 132.946 248.425 133.022 248.334 133.08C248.243 133.138 248.141 133.177 248.034 133.193L246.853 133.449C246.752 133.473 246.647 133.475 246.546 133.455C246.444 133.435 246.348 133.393 246.263 133.333C246.09 133.21 245.971 133.023 245.933 132.812L243.017 118.917C242.991 118.82 242.986 118.718 243.003 118.619C243.019 118.52 243.056 118.425 243.112 118.342V118.342Z" fill="#FF4F00"/>
<path d="M246.66 137.443C246.81 137.304 247.008 137.229 247.212 137.234L269.106 137.001C269.32 136.988 269.531 137.059 269.695 137.199C269.768 137.268 269.826 137.351 269.865 137.445C269.904 137.538 269.922 137.639 269.919 137.74L270.003 146.01C270.031 148.585 269.456 150.609 268.277 152.08C267.099 153.551 265.374 154.299 263.102 154.324C261.402 154.341 260.001 153.927 258.899 153.08C257.759 152.18 256.944 150.925 256.582 149.51L247.683 154.824C247.57 154.887 247.444 154.924 247.315 154.931C247.227 154.933 247.14 154.916 247.059 154.882C246.978 154.848 246.905 154.798 246.844 154.734C246.78 154.673 246.728 154.599 246.693 154.518C246.657 154.437 246.638 154.349 246.637 154.26L246.622 152.769C246.604 152.484 246.683 152.201 246.847 151.969C247.032 151.749 247.259 151.569 247.514 151.437L256.044 146.362L255.961 140.35L247.243 140.443C247.14 140.447 247.037 140.428 246.941 140.389C246.846 140.349 246.76 140.289 246.689 140.213C246.541 140.057 246.461 139.848 246.464 139.632L246.447 138.004C246.44 137.901 246.455 137.797 246.492 137.7C246.529 137.603 246.586 137.515 246.66 137.443V137.443ZM258.77 145.992C258.806 149.405 260.244 151.097 263.082 151.068C265.921 151.039 267.322 149.317 267.286 145.902L267.228 140.208L258.712 140.298L258.77 145.992Z" fill="#FF4F00"/>
<path d="M246.355 158.504C246.528 158.399 246.734 158.367 246.93 158.414L268.413 162.733C268.625 162.765 268.818 162.879 268.95 163.05C269.009 163.133 269.049 163.228 269.068 163.329C269.087 163.429 269.084 163.532 269.06 163.632L267.263 172.695C266.803 175.044 265.896 176.705 264.543 177.678C263.19 178.651 261.613 178.956 259.813 178.594C258.803 178.434 257.86 177.985 257.096 177.299C256.331 176.613 255.777 175.719 255.501 174.724C254.793 175.636 253.848 176.33 252.772 176.728C251.695 177.126 250.531 177.212 249.408 176.977C248.234 176.755 247.135 176.231 246.22 175.454C245.31 174.666 244.647 173.627 244.314 172.463C243.934 171.115 243.896 169.693 244.202 168.326L246.039 158.983C246.055 158.885 246.091 158.792 246.146 158.709C246.2 158.626 246.272 158.556 246.355 158.504V158.504ZM246.884 168.425C246.604 169.844 246.764 171.034 247.364 171.995C247.989 172.928 248.952 173.574 250.046 173.791C251.139 174.009 252.273 173.781 253.201 173.158C254.103 172.499 254.695 171.46 254.974 170.041L256.257 163.524L248.166 161.899L246.884 168.425ZM257.605 170.233C257.323 171.675 257.432 172.838 257.93 173.722C258.428 174.605 259.258 175.164 260.42 175.399C261.558 175.629 262.498 175.436 263.237 174.817C263.976 174.192 264.488 173.152 264.776 171.687L265.992 165.504L258.821 164.05L257.605 170.233Z" fill="#FF4F00"/>
<path d="M241.298 179.693C241.482 179.62 241.688 179.62 241.873 179.693L262.536 187.114C262.73 187.176 262.893 187.311 262.99 187.492C263.035 187.582 263.061 187.68 263.065 187.78C263.07 187.88 263.053 187.98 263.016 188.074L262.455 189.672C262.428 189.772 262.381 189.865 262.318 189.947C262.255 190.028 262.177 190.096 262.087 190.146C261.992 190.187 261.889 190.208 261.785 190.208C261.682 190.208 261.579 190.187 261.483 190.146L240.812 182.725C240.714 182.693 240.624 182.642 240.547 182.574C240.47 182.506 240.407 182.423 240.363 182.329C240.319 182.236 240.295 182.134 240.291 182.031C240.288 181.927 240.306 181.824 240.343 181.728L240.918 180.132C240.946 180.035 240.995 179.946 241.06 179.871C241.126 179.795 241.207 179.734 241.298 179.693V179.693Z" fill="#FF4F00"/>
<path d="M238.635 187.635C238.831 187.586 239.037 187.616 239.21 187.719L258.499 198.184C258.694 198.275 258.846 198.44 258.922 198.643C258.954 198.739 258.966 198.84 258.955 198.941C258.945 199.041 258.913 199.138 258.862 199.225L258.163 200.539C258.089 200.703 257.964 200.838 257.806 200.922C257.66 200.985 257.508 201.032 257.352 201.062L236.795 202.806L251.746 210.922C251.844 210.968 251.931 211.033 252.002 211.115C252.073 211.197 252.127 211.292 252.16 211.396C252.188 211.493 252.196 211.594 252.184 211.694C252.172 211.794 252.14 211.89 252.091 211.978L251.378 213.323C251.334 213.422 251.271 213.511 251.191 213.583C251.111 213.655 251.017 213.709 250.915 213.741C250.813 213.773 250.705 213.783 250.599 213.769C250.493 213.756 250.391 213.72 250.3 213.664L231.037 203.199C230.849 203.101 230.706 202.933 230.64 202.73C230.605 202.632 230.592 202.526 230.602 202.422C230.611 202.318 230.643 202.217 230.694 202.126L231.407 200.783C231.475 200.629 231.587 200.5 231.729 200.413C231.87 200.325 232.035 200.283 232.201 200.292L252.6 198.489L237.77 190.437C237.678 190.391 237.596 190.327 237.53 190.248C237.464 190.169 237.414 190.077 237.385 189.978C237.356 189.879 237.348 189.775 237.36 189.673C237.372 189.57 237.403 189.471 237.454 189.382L238.184 188.007C238.228 187.916 238.292 187.835 238.37 187.771C238.448 187.707 238.538 187.66 238.635 187.635Z" fill="#FF4F00"/>
<path d="M227.687 207.026C227.89 207.023 228.087 207.099 228.236 207.239L244.837 221.675C245.005 221.808 245.117 222.001 245.15 222.215C245.16 222.316 245.149 222.418 245.116 222.513C245.084 222.609 245.032 222.697 244.964 222.771L240.024 228.584C237.822 231.172 235.661 232.542 233.541 232.695C231.421 232.848 229.194 231.94 226.859 229.971C226.353 229.558 225.683 228.994 224.847 228.271C224.01 227.547 223.354 226.959 222.86 226.5C221.279 225.064 220.192 223.664 219.6 222.3C219.011 220.959 218.909 219.452 219.312 218.044C219.709 216.569 220.644 214.967 222.118 213.239L227.167 207.303C227.228 207.221 227.307 207.154 227.397 207.107C227.487 207.059 227.586 207.032 227.687 207.026V207.026ZM224.338 214.939C223.32 216.137 222.673 217.236 222.397 218.236C222.12 219.195 222.205 220.225 222.636 221.125C223.069 222.055 223.873 223.06 225.048 224.14C226.035 225.058 226.656 225.628 226.911 225.849C227.166 226.07 227.807 226.598 228.834 227.433C230.559 228.871 232.147 229.545 233.598 229.454C235.049 229.363 236.533 228.424 238.049 226.637L241.306 222.808L227.707 210.989L224.338 214.939Z" fill="#FF4F00"/>
<path d="M212.495 223.433C212.696 223.46 212.88 223.564 213.007 223.724L227.299 240.535C227.437 240.686 227.512 240.885 227.509 241.09C227.504 241.192 227.478 241.291 227.432 241.381C227.387 241.471 227.323 241.55 227.244 241.614L225.973 242.718C225.902 242.795 225.814 242.855 225.716 242.894C225.618 242.932 225.513 242.948 225.409 242.94C225.304 242.932 225.203 242.9 225.112 242.847C225.021 242.794 224.943 242.721 224.884 242.634L210.592 225.814C210.523 225.738 210.47 225.648 210.436 225.55C210.402 225.453 210.389 225.349 210.397 225.246C210.404 225.143 210.432 225.042 210.48 224.95C210.527 224.859 210.593 224.778 210.672 224.713L211.946 223.608C212.02 223.541 212.107 223.49 212.202 223.46C212.296 223.43 212.396 223.421 212.495 223.433V223.433Z" fill="#FF4F00"/>
<path d="M206.274 229.012C206.469 229.068 206.635 229.2 206.736 229.378L218.369 248.134C218.492 248.311 218.542 248.53 218.51 248.744C218.49 248.843 218.45 248.937 218.391 249.02C218.333 249.102 218.258 249.171 218.171 249.221L216.92 250.012C216.776 250.119 216.601 250.173 216.423 250.166C216.266 250.146 216.112 250.111 215.963 250.061L197.254 241.259L206.268 255.793C206.329 255.883 206.372 255.985 206.394 256.091C206.416 256.198 206.416 256.309 206.394 256.416C206.371 256.516 206.328 256.611 206.267 256.694C206.206 256.777 206.129 256.846 206.041 256.898L204.764 257.709C204.675 257.771 204.575 257.815 204.469 257.837C204.364 257.859 204.255 257.859 204.149 257.837C204.045 257.81 203.947 257.762 203.862 257.695C203.777 257.629 203.706 257.546 203.654 257.45L192.039 238.724C191.923 238.546 191.881 238.329 191.921 238.119C191.94 238.016 191.98 237.918 192.04 237.832C192.099 237.747 192.177 237.675 192.266 237.622L193.543 236.811C193.677 236.712 193.838 236.656 194.004 236.651C194.17 236.645 194.334 236.69 194.474 236.779L213.093 245.424L204.152 231.006C204.095 230.92 204.055 230.823 204.037 230.722C204.018 230.62 204.02 230.515 204.043 230.415C204.066 230.314 204.109 230.219 204.17 230.135C204.231 230.052 204.308 229.982 204.396 229.93L205.701 229.102C205.785 229.046 205.879 229.01 205.978 228.994C206.077 228.979 206.177 228.985 206.274 229.012V229.012Z" fill="#FF4F00"/>
<path d="M186.473 242.654C188.531 243.623 190.08 245.4 191.119 247.986C191.368 248.617 191.735 249.614 192.22 250.974C192.705 252.334 193.051 253.337 193.258 253.983C194.099 256.607 194.029 258.956 193.048 261.032C192.067 263.108 190.208 264.643 187.47 265.64C185.621 266.314 183.933 266.546 182.407 266.334C181.059 266.187 179.765 265.713 178.635 264.954C177.646 264.244 176.987 263.493 176.657 262.701L176.634 262.637C176.604 262.554 176.593 262.466 176.601 262.378C176.61 262.29 176.638 262.206 176.683 262.131C176.77 261.973 176.911 261.852 177.08 261.791L178.845 261.145C178.994 261.077 179.162 261.068 179.317 261.119C179.49 261.209 179.641 261.339 179.757 261.497C180.466 262.385 181.43 263.029 182.517 263.34C183.667 263.689 185.008 263.584 186.542 263.026C188.307 262.381 189.52 261.386 190.182 260.041C190.843 258.696 190.843 256.99 190.182 254.925C189.99 254.299 189.663 253.349 189.201 252.076C188.739 250.802 188.391 249.86 188.158 249.247C187.358 247.21 186.279 245.886 184.92 245.273C183.561 244.661 181.999 244.678 180.234 245.326C178.447 245.977 177.194 246.992 176.473 248.372C175.753 249.752 175.746 251.431 176.453 253.41L176.942 254.779L181.769 253.035C181.865 252.996 181.968 252.979 182.072 252.984C182.175 252.99 182.276 253.018 182.367 253.067C182.556 253.164 182.699 253.332 182.767 253.535L183.109 254.491C183.188 254.689 183.188 254.91 183.109 255.108C183.069 255.205 183.008 255.292 182.932 255.363C182.856 255.434 182.765 255.488 182.666 255.52L175.579 258.081C175.481 258.126 175.374 258.149 175.266 258.148C175.158 258.147 175.051 258.122 174.954 258.076C174.856 258.029 174.769 257.962 174.7 257.879C174.63 257.796 174.579 257.698 174.55 257.593L173.469 254.564C172.867 252.992 172.669 251.292 172.894 249.622C173.127 248.066 173.823 246.618 174.889 245.471C176.107 244.19 177.616 243.23 179.285 242.675C182.016 241.684 184.412 241.678 186.473 242.654Z" fill="#FF4F00"/>
<path d="M157.337 247.308C157.265 247.283 157.192 247.263 157.118 247.247C156.235 247.064 155.32 247.105 154.456 247.366C153.229 247.728 152.099 248.365 151.149 249.23C150.572 249.738 150.066 250.325 149.649 250.974C149.548 251.125 149.436 251.265 149.229 251.236C149.128 251.227 149.033 251.188 148.954 251.123C148.876 251.059 148.818 250.973 148.789 250.875C148.769 250.82 148.752 250.762 148.729 250.709C147.921 248.93 146.742 247.404 145.511 245.913C145.281 245.622 145.026 245.648 144.755 245.913C144.402 246.247 144.045 246.579 143.706 246.925C142.636 248.023 141.601 249.154 140.851 250.518C140.823 250.592 140.776 250.657 140.715 250.707C140.653 250.756 140.579 250.788 140.502 250.798C140.424 250.809 140.344 250.798 140.272 250.766C140.2 250.735 140.138 250.684 140.092 250.619C139.371 249.859 138.603 249.146 137.792 248.486C136.96 247.794 135.995 247.286 134.957 246.994C134.255 246.797 133.512 246.808 132.815 247.023C132.711 247.043 132.617 247.096 132.545 247.174C132.473 247.252 132.428 247.351 132.415 247.457C132.392 247.683 132.545 247.817 132.717 247.942C133.416 248.451 133.99 249.115 134.396 249.884C135.035 251.067 135.213 252.366 135.259 253.683C135.316 255.137 135.259 256.57 135.293 258.012C135.315 259.129 135.401 260.244 135.552 261.352C135.658 262.058 135.817 262.756 136.026 263.439C136.376 264.698 136.973 265.873 137.78 266.895C138.794 268.142 140.159 269.046 141.693 269.488C142.509 269.728 143.347 269.883 144.195 269.95L145.566 269.98C145.64 269.963 145.715 269.952 145.79 269.948C146.657 269.933 147.517 269.801 148.349 269.555C149.364 269.283 150.327 268.841 151.198 268.247C152.089 267.647 152.826 266.841 153.346 265.895C153.819 264.946 154.171 263.94 154.395 262.901C154.849 260.847 155.043 258.743 154.97 256.64C154.931 255.34 154.958 254.038 155.051 252.741C155.139 251.335 155.639 249.987 156.488 248.869C156.776 248.521 157.09 248.194 157.426 247.893C157.477 247.858 157.517 247.81 157.542 247.753C157.567 247.696 157.575 247.633 157.566 247.572C157.557 247.51 157.53 247.453 157.489 247.406C157.449 247.359 157.396 247.325 157.337 247.308Z" fill="#FF4F00"/>
</svg>
