<svg width="291" height="290" viewBox="0 0 291 290" fill="none" xmlns="http://www.w3.org/2000/svg">
<path d="M268.055 125.004C251.853 113.31 234.97 104.337 234.97 104.337C234.233 104.907 233.433 105.386 232.585 105.766L238.447 113.746C238.447 113.746 250.544 126.789 257.083 132.228C263.623 137.668 259.181 147.728 257.104 151.088C255.027 154.449 253.781 161.052 253.282 173.33C252.958 181.5 252.036 188.594 259.098 199.095C266.305 182.847 270.021 165.237 270 147.43C270.008 139.911 269.357 132.406 268.055 125.004V125.004Z" fill="#FF4F00"/>
<path d="M97.6717 217.283C96.5749 215.061 86.7663 194.327 85.3705 192.567C84.8138 191.862 83.26 190.278 81.5983 188.627C81.3407 190.921 80.7674 193.113 79.6332 194.76C76.4385 199.38 73.4556 198.759 71.7149 201.279C70.8591 202.539 61.7443 217.61 52.7251 232.644C69.1792 250.874 90.5543 263.833 114.21 269.919C115.041 266.861 117.999 254.222 113.99 244.182C109.412 232.677 98.7726 219.505 97.6717 217.283Z" fill="#FF4F00"/>
<path d="M75.9732 68.0493C80.5804 68.3181 101.315 62.5887 107.862 64.5503C114.41 66.5119 138.962 85.9726 140.927 89.585C142.892 93.1974 145.29 109.172 145.082 112.444C145.068 112.695 145.03 112.944 144.97 113.187C144.97 113.246 144.932 113.292 144.916 113.347C145.011 113.817 145.094 114.275 145.161 114.712C145.227 114.292 145.31 113.817 145.406 113.347C145.406 113.292 145.369 113.246 145.352 113.187C145.291 112.944 145.254 112.695 145.24 112.444C145.04 109.172 147.437 93.1806 149.394 89.585C151.351 85.9894 175.92 66.5203 182.459 64.5503C188.998 62.5803 209.737 68.3307 214.348 68.0493C218.96 67.7678 237.883 73.3041 237.883 73.3041C237.883 73.3041 242.162 74.1987 247.75 75.4043C225.204 42.5315 187.59 21 145.007 21C102.424 21 64.7562 42.5693 42.1812 75.5009C47.9599 74.2407 52.4467 73.3041 52.4467 73.3041C52.4467 73.3041 71.3701 67.7763 75.9732 68.0493Z" fill="#FF4F00"/>
<path d="M55.3833 104.337C55.3833 104.337 38.2422 113.452 21.907 125.285C20.6364 132.584 19.9983 139.981 20.0001 147.392C19.9744 165.323 23.7364 183.052 31.0342 199.394C38.3211 188.72 37.378 181.571 37.054 173.322C36.5721 161.044 35.305 154.44 33.2319 151.08C31.1589 147.72 26.7261 137.672 33.2693 132.237C39.8125 126.801 51.906 113.755 51.906 113.755L57.7637 105.774C56.9175 105.391 56.1186 104.909 55.3833 104.337Z" fill="#FF4F00"/>
<path d="M210.722 194.773C209.583 193.126 209.014 190.934 208.757 188.64C207.095 190.291 205.541 191.875 204.984 192.58C203.588 194.34 193.767 215.074 192.679 217.296C191.591 219.518 180.939 232.691 176.344 244.179C172.368 254.134 175.251 266.643 176.103 269.835C199.743 263.694 221.086 250.685 237.497 232.418C228.503 217.46 219.492 202.51 218.64 201.28C216.899 198.759 213.9 199.394 210.722 194.773Z" fill="#FF4F00"/>
<path d="M187.224 187.632C188.217 187.027 199.321 175.489 199.911 174.93C200.501 174.371 208.291 164.53 211.062 161.589C213.833 158.649 214.855 161.358 214.801 161.514C216.641 157.284 218.569 153.163 220.023 150.378C223.853 143.032 221.361 133.686 221.361 133.686C217.622 130.649 216.936 122.307 216.936 122.307C214.547 120.576 209.217 114.305 209.217 114.305C190.522 102.086 193.921 97.3391 193.921 97.3391C190.277 98.2464 188.158 97.4945 188.158 97.4945C188.329 98.2968 183.493 100.242 174.142 101.787C164.79 103.333 164.678 100.132 164.678 100.132C164.827 101.514 162.559 102.346 162.559 102.346C163.589 106.513 159.763 112.457 158.629 113.981C157.495 115.506 159.971 120.992 157.898 126.583C155.825 132.173 149.705 130.552 148.168 129.901C146.86 129.347 145.642 123.18 145.194 118.942C144.745 123.189 143.532 129.347 142.219 129.901C140.682 130.552 134.562 132.169 132.489 126.583C130.416 120.996 132.905 115.519 131.758 113.981C130.612 112.444 126.798 106.513 127.828 102.346C127.828 102.346 125.556 101.506 125.709 100.132C125.709 100.132 125.601 103.333 116.246 101.787C106.89 100.242 102.058 98.2968 102.229 97.4945C102.229 97.4945 100.11 98.2464 96.4665 97.3391C96.4665 97.3391 99.8524 102.086 81.17 114.305C81.17 114.305 75.8399 120.576 73.4511 122.307C73.4511 122.307 72.7781 130.649 69.0266 133.686C69.0266 133.686 66.534 143.032 70.3643 150.378C71.8184 153.188 73.7294 157.288 75.5574 161.518C75.4867 161.362 76.5087 158.649 79.2963 161.594C82.0839 164.538 89.8568 174.388 90.4468 174.947C91.0367 175.505 102.146 187.044 103.13 187.632C104.115 188.22 114.181 198.175 115.049 198.436C115.917 198.696 139.415 213.688 143.615 230.704C144.691 235.08 145.127 240.058 145.177 245.031C145.227 240.058 145.659 235.08 146.739 230.704C150.939 213.688 174.441 198.7 175.305 198.436C176.169 198.171 186.231 188.254 187.224 187.632ZM174.312 174.821C174.312 174.821 174.977 173.901 173.581 172.3C172.521 171.087 172.837 168.986 173.049 168.054C172.92 168.239 172.795 168.423 172.667 168.617C171.748 169.996 170.924 171.438 170.199 172.931C171 173.1 171.749 173.462 172.383 173.987C173.016 174.511 173.515 175.182 173.838 175.942C175.018 178.673 171.441 180.664 171.441 180.664C171.441 180.664 171.923 177.627 170.498 176.215C170.194 175.916 169.967 175.546 169.838 175.137C169.709 174.728 169.682 174.293 169.759 173.871C169.077 175.378 168.549 176.95 168.18 178.563V178.563C168.18 178.563 170.216 180.155 169.609 181.785C169.003 183.415 164.753 186.015 164.603 187.027C164.603 187.027 163.357 181.403 165.754 179.668C166.929 178.828 167.536 178.534 167.831 178.467C168.158 177.035 168.613 175.636 169.189 174.287C168.965 174.617 168.667 174.89 168.32 175.084C167.974 175.278 167.587 175.388 167.191 175.405C165.197 175.505 163.573 178.105 163.573 178.105C163.573 178.105 162.198 174.216 164.873 172.964C165.63 172.601 166.463 172.433 167.3 172.475C168.136 172.517 168.95 172.767 169.667 173.204C170.444 171.562 171.342 169.982 172.355 168.478C171.757 169.054 169.979 170.578 168.292 170.234C166.215 169.793 165.77 170.83 165.77 170.83C165.77 170.83 166.103 166.941 168.678 166.63C169.401 166.533 170.136 166.628 170.811 166.907C171.485 167.185 172.077 167.637 172.525 168.218C173.486 166.802 174.52 165.438 175.62 164.131C175.154 164.015 174.666 164.015 174.2 164.131C173.452 164.408 172.625 166.924 168.005 165.651C168.005 165.651 162.875 170.49 160.245 177.286C157.615 184.083 151.936 190.728 143.71 183.461C143.71 183.461 139.062 184.822 140.715 191.681C142.369 198.541 139.776 201.825 138.509 198.894C138.509 198.894 135.742 204.72 133.715 198.154C133.715 198.154 129.93 202.594 129.482 196.016C129.482 196.016 124.808 198.196 126.283 193.042C126.283 193.042 120.882 193.681 124.517 188.707C124.517 188.707 119.607 186.145 123.786 183.507C127.965 180.869 130.018 184.016 136.806 177.895C143.594 171.775 142.892 171.796 142.892 171.796C142.892 171.796 139.793 172.086 141.322 170.146C141.322 170.146 131.351 174.661 134.072 164.714C134.072 164.714 123.408 161.862 128.925 156.788C128.925 156.788 118.028 151.067 124.845 148.484C124.845 148.484 118.086 142.574 122.519 142.448C122.519 142.448 118.256 136.622 122.103 136.147C122.103 136.147 119.989 128.691 121.688 129.72C123.387 130.75 125.065 139.171 135.285 143.212C145.505 147.253 146.943 149.463 148.579 154.633C149.228 156.654 149.759 158.834 150.848 160.346C152.161 159.086 151.787 158.275 151.787 158.275C147.765 148.496 152.306 150.987 152.306 150.987C151.791 150.261 151.326 148.354 151.326 148.354C149.705 140.881 154.724 145.527 154.724 145.527C153.282 135.471 157.752 138.806 157.752 138.806C156.921 129.75 161.687 135.16 161.687 135.16C162.638 126.116 170.44 124.688 170.44 124.688C165.081 128.204 164.175 137.71 164.208 147.085C164.242 156.461 159.884 160.527 159.884 160.527C159.742 160.69 159.601 160.846 159.468 160.989C160.526 160.514 161.557 159.982 162.559 159.397C173.992 152.798 175.263 157.296 175.704 160.711C175.81 161.648 175.967 162.577 176.173 163.496C177.528 161.916 178.982 160.426 180.527 159.035L180.747 159.296C179.158 160.728 177.665 162.264 176.277 163.895C176.402 164.29 176.472 164.341 176.472 164.341C176.472 164.341 176.285 164.278 176.011 164.21C175.155 165.218 174.254 166.357 173.381 167.596C174.076 167.726 174.727 168.031 175.274 168.482C175.822 168.934 176.248 169.517 176.514 170.179C177.498 172.611 174.312 174.821 174.312 174.821Z" fill="#FF4F00"/>
</svg>
