<svg width="780" height="191" viewBox="0 0 780 191" fill="none" xmlns="http://www.w3.org/2000/svg">
<path d="M58.7635 104.248C58.7635 69.5678 86.8504 41.3836 121.411 41.3836V31.9888V15.9978H103.284C103.284 15.9978 90.6352 15.4981 86.3524 22.9939C82.0697 30.3897 70.1178 32.0888 70.1178 32.0888H56.3731V27.9911C56.3731 25.1926 54.1819 22.9939 51.3931 22.9939H37.9473C35.1585 22.9939 32.9673 25.1926 32.9673 27.9911V32.0888H9.95991C4.48196 32.0888 0 36.5862 0 42.0832V164.614C0 170.111 4.48196 174.609 9.95991 174.609H121.411V167.213C86.8504 167.113 58.7635 139.029 58.7635 104.248Z" fill="#FF4F00"/>
<path d="M121.411 147.031C97.969 147.031 78.9967 127.833 78.9967 104.112C78.9967 80.3907 97.969 61.1926 121.411 61.1926V48.6283C91.1152 48.6283 66.5803 73.4553 66.5803 104.112C66.5803 134.769 91.1152 159.596 121.411 159.596V147.031Z" fill="#FF4F00"/>
<path d="M137.54 0H143.791V190.68H137.54V0Z" fill="#FF4F00"/>
<path d="M197.816 92.4954H173.146V108.003H202.285V120.07H157.46V55H202.374V67.1112H173.146V80.8312H197.816V92.4954Z" fill="#FF4F00"/>
<path d="M249.031 92.4954H224.362V108.003H253.5V120.07H208.675V55H253.589V67.1112H224.362V80.8312H249.031V92.4954Z" fill="#FF4F00"/>
<path d="M314.235 120.07H298.638L275.577 79.5798V120.07H259.891V55H275.577L298.593 95.4897V55H314.235V120.07Z" fill="#FF4F00"/>
<path d="M341.764 108.003H372.869V120.07H322.19V111.802L353.205 67.1112H322.011V55H372.556V63.0443L341.764 108.003Z" fill="#FF4F00"/>
<path d="M417.604 107.914H396.108L392.354 120.07H375.595L399.46 55H414.207L438.251 120.07H421.403L417.604 107.914ZM399.862 95.8025H413.85L406.834 73.2338L399.862 95.8025Z" fill="#FF4F00"/>
<path d="M479.992 107.914H458.496L454.742 120.07H437.983L461.848 55H476.596L500.639 120.07H483.791L479.992 107.914ZM462.25 95.8025H476.238L469.222 73.2338L462.25 95.8025Z" fill="#FF4F00"/>
<path d="M526.023 55L540.548 100.272L555.028 55H575.675V120.07H559.944V104.875L561.463 73.7701L545.732 120.07H535.364L519.588 73.7254L521.107 104.875V120.07H505.421V55H526.023Z" fill="#FF4F00"/>
<path d="M640.074 120.07H624.477V92.8976H601.372V120.07H585.685V55H601.372V80.8312H624.477V55H640.074V120.07Z" fill="#FF4F00"/>
<path d="M690.395 92.4954H665.726V108.003H694.864V120.07H650.04V55H694.954V67.1112H665.726V80.8312H690.395V92.4954Z" fill="#FF4F00"/>
<path d="M717.969 120.07H702.328V55H717.969V120.07Z" fill="#FF4F00"/>
<path d="M728.874 120.07V55H749.834C755.584 55 760.753 56.3109 765.342 58.9328C769.93 61.5248 773.505 65.2044 776.067 69.9714C778.659 74.7086 779.97 80.0267 780 85.9259V88.9202C780 94.8789 778.734 100.227 776.201 104.964C773.699 109.672 770.153 113.366 765.565 116.047C761.007 118.699 755.912 120.04 750.281 120.07H728.874ZM744.56 67.1112V108.003H750.013C754.512 108.003 757.968 106.409 760.381 103.221C762.794 100.003 764.001 95.2364 764.001 88.9202V86.1047C764.001 79.8182 762.794 75.081 760.381 71.893C757.968 68.7051 754.452 67.1112 749.834 67.1112H744.56Z" fill="#FF4F00"/>
<path d="M165.612 173.46H156.162V134.147H165.612V173.46Z" fill="#453730"/>
<path d="M205.033 173.46H195.61L181.678 148.997V173.46H172.2V134.147H181.678L195.583 158.61V134.147H205.033V173.46Z" fill="#453730"/>
<path d="M224.798 173.46V134.147H237.461C240.935 134.147 244.058 134.939 246.83 136.523C249.602 138.089 251.762 140.312 253.31 143.192C254.876 146.054 255.668 149.267 255.686 152.831V154.641C255.686 158.241 254.921 161.472 253.391 164.334C251.879 167.178 249.737 169.41 246.965 171.03C244.211 172.632 241.133 173.442 237.731 173.46H224.798ZM234.275 141.464V166.17H237.569C240.287 166.17 242.375 165.207 243.833 163.281C245.291 161.337 246.02 158.457 246.02 154.641V152.939C246.02 149.141 245.291 146.279 243.833 144.353C242.375 142.427 240.251 141.464 237.461 141.464H234.275Z" fill="#453730"/>
<path d="M284.928 156.801H270.024V166.17H287.628V173.46H260.546V134.147H287.682V141.464H270.024V149.753H284.928V156.801Z" fill="#453730"/>
<path d="M337.066 160.149C336.94 162.885 336.202 165.306 334.852 167.412C333.502 169.5 331.603 171.12 329.155 172.272C326.725 173.424 323.944 174 320.812 174C315.645 174 311.577 172.317 308.607 168.951C305.637 165.585 304.152 160.833 304.152 154.695V152.75C304.152 148.898 304.818 145.532 306.15 142.652C307.5 139.754 309.435 137.522 311.955 135.956C314.475 134.372 317.392 133.58 320.704 133.58C325.474 133.58 329.308 134.84 332.206 137.36C335.104 139.862 336.751 143.318 337.147 147.728H327.697C327.625 145.334 327.022 143.615 325.888 142.571C324.754 141.527 323.026 141.005 320.704 141.005C318.346 141.005 316.618 141.887 315.519 143.651C314.421 145.415 313.845 148.232 313.791 152.102V154.884C313.791 159.078 314.313 162.075 315.357 163.875C316.42 165.675 318.238 166.575 320.812 166.575C322.99 166.575 324.655 166.062 325.807 165.036C326.959 164.01 327.571 162.381 327.643 160.149H337.066Z" fill="#453730"/>
<path d="M374.84 154.614C374.84 158.448 374.129 161.841 372.707 164.793C371.285 167.745 369.26 170.022 366.632 171.624C364.022 173.208 361.042 174 357.694 174C354.346 174 351.376 173.235 348.784 171.705C346.192 170.157 344.167 167.952 342.709 165.09C341.269 162.228 340.513 158.943 340.441 155.235V153.02C340.441 149.168 341.143 145.775 342.547 142.841C343.969 139.889 345.994 137.612 348.622 136.01C351.268 134.408 354.274 133.607 357.64 133.607C360.97 133.607 363.941 134.399 366.551 135.983C369.161 137.567 371.186 139.826 372.626 142.76C374.084 145.676 374.822 149.024 374.84 152.804V154.614ZM365.201 152.966C365.201 149.06 364.544 146.099 363.23 144.083C361.933 142.049 360.07 141.032 357.64 141.032C352.888 141.032 350.377 144.596 350.107 151.724L350.08 154.614C350.08 158.466 350.719 161.427 351.997 163.497C353.275 165.567 355.174 166.602 357.694 166.602C360.088 166.602 361.933 165.585 363.23 163.551C364.526 161.517 365.183 158.592 365.201 154.776V152.966Z" fill="#453730"/>
<path d="M394.334 159.582H389.204V173.46H379.727V134.147H395.198C399.86 134.147 403.505 135.182 406.133 137.252C408.761 139.322 410.076 142.247 410.076 146.027C410.076 148.763 409.517 151.031 408.401 152.831C407.303 154.632 405.575 156.09 403.217 157.206L411.426 173.055V173.46H401.273L394.334 159.582ZM389.204 152.264H395.198C396.998 152.264 398.348 151.796 399.248 150.86C400.166 149.906 400.625 148.583 400.625 146.891C400.625 145.199 400.166 143.876 399.248 142.922C398.33 141.95 396.98 141.464 395.198 141.464H389.204V152.264Z" fill="#453730"/>
<path d="M449.091 154.614C449.091 158.448 448.38 161.841 446.958 164.793C445.536 167.745 443.511 170.022 440.883 171.624C438.273 173.208 435.294 174 431.946 174C428.598 174 425.628 173.235 423.036 171.705C420.444 170.157 418.419 167.952 416.961 165.09C415.521 162.228 414.765 158.943 414.693 155.235V153.02C414.693 149.168 415.395 145.775 416.799 142.841C418.221 139.889 420.246 137.612 422.874 136.01C425.52 134.408 428.526 133.607 431.892 133.607C435.222 133.607 438.192 134.399 440.802 135.983C443.412 137.567 445.437 139.826 446.877 142.76C448.335 145.676 449.073 149.024 449.091 152.804V154.614ZM439.452 152.966C439.452 149.06 438.795 146.099 437.481 144.083C436.185 142.049 434.322 141.032 431.892 141.032C427.14 141.032 424.629 144.596 424.359 151.724L424.332 154.614C424.332 158.466 424.971 161.427 426.249 163.497C427.527 165.567 429.426 166.602 431.946 166.602C434.34 166.602 436.185 165.585 437.481 163.551C438.777 161.517 439.434 158.592 439.452 154.776V152.966Z" fill="#453730"/>
<path d="M486.811 173.46H477.388L463.456 148.997V173.46H453.978V134.147H463.456L477.361 158.61V134.147H486.811V173.46Z" fill="#453730"/>
<path d="M515.621 166.116H502.633L500.365 173.46H490.24L504.659 134.147H513.569L528.095 173.46H517.916L515.621 166.116ZM504.902 158.799H513.353L509.114 145.163L504.902 158.799Z" fill="#453730"/>
<path d="M548.345 160.041H532.118V152.993H548.345V160.041Z" fill="#453730"/>
<path d="M565.356 160.122V173.46H555.879V134.147H571.566C574.572 134.147 577.227 134.705 579.531 135.821C581.853 136.919 583.644 138.494 584.904 140.546C586.182 142.58 586.821 144.893 586.821 147.485C586.821 151.319 585.444 154.389 582.69 156.693C579.954 158.979 576.192 160.122 571.404 160.122H565.356ZM565.356 152.804H571.566C573.402 152.804 574.797 152.345 575.751 151.427C576.723 150.509 577.209 149.213 577.209 147.539C577.209 145.703 576.714 144.236 575.724 143.138C574.734 142.04 573.384 141.482 571.674 141.464H565.356V152.804Z" fill="#453730"/>
<path d="M616.279 156.801H601.375V166.17H618.979V173.46H591.897V134.147H619.033V141.464H601.375V149.753H616.279V156.801Z" fill="#453730"/>
<path d="M637.447 159.582H632.317V173.46H622.84V134.147H638.311C642.973 134.147 646.619 135.182 649.247 137.252C651.875 139.322 653.189 142.247 653.189 146.027C653.189 148.763 652.631 151.031 651.515 152.831C650.417 154.632 648.689 156.09 646.331 157.206L654.539 173.055V173.46H644.386L637.447 159.582ZM632.317 152.264H638.311C640.111 152.264 641.461 151.796 642.361 150.86C643.279 149.906 643.738 148.583 643.738 146.891C643.738 145.199 643.279 143.876 642.361 142.922C641.443 141.95 640.093 141.464 638.311 141.464H632.317V152.264Z" fill="#453730"/>
<path d="M669.011 173.46H659.561V134.147H669.011V173.46Z" fill="#453730"/>
<path d="M708.891 154.614C708.891 158.448 708.18 161.841 706.758 164.793C705.336 167.745 703.311 170.022 700.683 171.624C698.073 173.208 695.094 174 691.745 174C688.397 174 685.427 173.235 682.835 171.705C680.243 170.157 678.218 167.952 676.76 165.09C675.32 162.228 674.564 158.943 674.492 155.235V153.02C674.492 149.168 675.194 145.775 676.598 142.841C678.02 139.889 680.045 137.612 682.673 136.01C685.319 134.408 688.325 133.607 691.691 133.607C695.022 133.607 697.992 134.399 700.602 135.983C703.212 137.567 705.237 139.826 706.677 142.76C708.135 145.676 708.873 149.024 708.891 152.804V154.614ZM699.252 152.966C699.252 149.06 698.595 146.099 697.281 144.083C695.985 142.049 694.122 141.032 691.691 141.032C686.939 141.032 684.428 144.596 684.158 151.724L684.131 154.614C684.131 158.466 684.77 161.427 686.048 163.497C687.326 165.567 689.225 166.602 691.745 166.602C694.14 166.602 695.985 165.585 697.281 163.551C698.577 161.517 699.234 158.592 699.252 154.776V152.966Z" fill="#453730"/>
<path d="M713.778 173.46V134.147H726.441C729.915 134.147 733.038 134.939 735.81 136.523C738.582 138.089 740.742 140.312 742.291 143.192C743.857 146.054 744.649 149.267 744.667 152.831V154.641C744.667 158.241 743.902 161.472 742.372 164.334C740.859 167.178 738.717 169.41 735.945 171.03C733.191 172.632 730.113 173.442 726.711 173.46H713.778ZM723.255 141.464V166.17H726.549C729.267 166.17 731.355 165.207 732.813 163.281C734.271 161.337 735 158.457 735 154.641V152.939C735 149.141 734.271 146.279 732.813 144.353C731.355 142.427 729.231 141.464 726.441 141.464H723.255Z" fill="#453730"/>
<path d="M773.908 156.801H759.004V166.17H776.608V173.46H749.527V134.147H776.662V141.464H759.004V149.753H773.908V156.801Z" fill="#453730"/>
<path d="M163.512 38.28C162.056 38.28 160.787 38.0467 159.704 37.58C158.64 37.0947 157.819 36.4693 157.24 35.704C156.68 34.9387 156.381 34.1173 156.344 33.24C156.344 33.0907 156.4 32.96 156.512 32.848C156.624 32.736 156.764 32.68 156.932 32.68H157.492C157.828 32.68 158.033 32.8667 158.108 33.24C158.239 34.136 158.752 34.92 159.648 35.592C160.544 36.264 161.832 36.6 163.512 36.6C165.285 36.6 166.601 36.2827 167.46 35.648C168.337 34.9947 168.776 34.0893 168.776 32.932C168.776 32.2227 168.561 31.644 168.132 31.196C167.721 30.7293 167.115 30.328 166.312 29.992C165.509 29.6373 164.296 29.1987 162.672 28.676C161.235 28.2093 160.105 27.752 159.284 27.304C158.481 26.856 157.884 26.3053 157.492 25.652C157.1 24.9987 156.904 24.168 156.904 23.16C156.904 22.208 157.156 21.3493 157.66 20.584C158.183 19.8187 158.929 19.2213 159.9 18.792C160.871 18.344 162.028 18.12 163.372 18.12C164.753 18.12 165.939 18.372 166.928 18.876C167.917 19.3613 168.664 19.9867 169.168 20.752C169.672 21.4987 169.943 22.2547 169.98 23.02C169.98 23.1693 169.924 23.3 169.812 23.412C169.719 23.524 169.579 23.58 169.392 23.58H168.832C168.701 23.58 168.571 23.5427 168.44 23.468C168.309 23.3747 168.235 23.2253 168.216 23.02C168.104 22.0867 167.6 21.3213 166.704 20.724C165.827 20.108 164.716 19.8 163.372 19.8C161.935 19.8 160.787 20.08 159.928 20.64C159.088 21.2 158.668 22.04 158.668 23.16C158.668 23.888 158.855 24.4947 159.228 24.98C159.62 25.4467 160.199 25.8573 160.964 26.212C161.729 26.548 162.859 26.9587 164.352 27.444C165.883 27.9293 167.077 28.396 167.936 28.844C168.795 29.292 169.439 29.8333 169.868 30.468C170.316 31.1027 170.54 31.924 170.54 32.932C170.54 34.612 169.915 35.928 168.664 36.88C167.413 37.8133 165.696 38.28 163.512 38.28ZM178.701 38.28C177.805 38.28 176.974 38.0933 176.209 37.72C175.444 37.3467 174.828 36.8427 174.361 36.208C173.913 35.5733 173.689 34.8733 173.689 34.108C173.689 32.876 174.184 31.868 175.173 31.084C176.181 30.3 177.534 29.796 179.233 29.572L183.657 28.956V27.976C183.657 26.9493 183.34 26.1653 182.705 25.624C182.089 25.064 181.137 24.784 179.849 24.784C178.897 24.784 178.113 24.9707 177.497 25.344C176.9 25.7173 176.517 26.1653 176.349 26.688C176.274 26.912 176.181 27.0707 176.069 27.164C175.976 27.2387 175.845 27.276 175.677 27.276H175.285C175.117 27.276 174.968 27.22 174.837 27.108C174.725 26.9773 174.669 26.828 174.669 26.66C174.669 26.2493 174.856 25.7733 175.229 25.232C175.602 24.672 176.181 24.1867 176.965 23.776C177.749 23.3653 178.71 23.16 179.849 23.16C181.846 23.16 183.265 23.636 184.105 24.588C184.945 25.54 185.365 26.6973 185.365 28.06V37.384C185.365 37.5707 185.309 37.72 185.197 37.832C185.085 37.944 184.936 38 184.749 38H184.273C184.086 38 183.937 37.944 183.825 37.832C183.713 37.72 183.657 37.5707 183.657 37.384V36.068C183.246 36.684 182.64 37.2067 181.837 37.636C181.053 38.0653 180.008 38.28 178.701 38.28ZM178.981 36.656C180.344 36.656 181.464 36.208 182.341 35.312C183.218 34.416 183.657 33.128 183.657 31.448V30.496L180.045 31C178.514 31.2053 177.357 31.56 176.573 32.064C175.789 32.568 175.397 33.2027 175.397 33.968C175.397 34.8267 175.752 35.4893 176.461 35.956C177.189 36.4227 178.029 36.656 178.981 36.656ZM190.969 38C190.782 38 190.633 37.944 190.521 37.832C190.409 37.72 190.353 37.5707 190.353 37.384V24.056C190.353 23.8693 190.409 23.72 190.521 23.608C190.633 23.496 190.782 23.44 190.969 23.44H191.445C191.632 23.44 191.781 23.496 191.893 23.608C192.005 23.72 192.061 23.8693 192.061 24.056V25.036C192.546 24.42 193.106 23.9533 193.741 23.636C194.394 23.3187 195.169 23.16 196.065 23.16C198.156 23.16 199.649 24.0373 200.545 25.792C200.993 24.9893 201.628 24.3547 202.449 23.888C203.289 23.4027 204.241 23.16 205.305 23.16C206.854 23.16 208.114 23.692 209.085 24.756C210.056 25.8013 210.541 27.2947 210.541 29.236V37.384C210.541 37.5707 210.485 37.72 210.373 37.832C210.261 37.944 210.112 38 209.925 38H209.449C209.262 38 209.113 37.944 209.001 37.832C208.889 37.72 208.833 37.5707 208.833 37.384V29.516C208.833 27.8173 208.478 26.604 207.769 25.876C207.078 25.148 206.164 24.784 205.025 24.784C204.017 24.784 203.14 25.1573 202.393 25.904C201.665 26.632 201.301 27.836 201.301 29.516V37.384C201.301 37.5707 201.245 37.72 201.133 37.832C201.021 37.944 200.872 38 200.685 38H200.209C200.022 38 199.873 37.944 199.761 37.832C199.649 37.72 199.593 37.5707 199.593 37.384V29.516C199.593 27.836 199.229 26.632 198.501 25.904C197.773 25.1573 196.868 24.784 195.785 24.784C194.777 24.784 193.9 25.1573 193.153 25.904C192.425 26.632 192.061 27.8267 192.061 29.488V37.384C192.061 37.5707 192.005 37.72 191.893 37.832C191.781 37.944 191.632 38 191.445 38H190.969ZM220.899 38.28C219.126 38.28 217.698 37.7013 216.615 36.544C215.532 35.368 214.916 33.8 214.767 31.84L214.739 30.72L214.767 29.6C214.916 27.6587 215.523 26.1 216.587 24.924C217.67 23.748 219.107 23.16 220.899 23.16C222.84 23.16 224.352 23.804 225.435 25.092C226.536 26.38 227.087 28.144 227.087 30.384V30.804C227.087 30.9907 227.022 31.14 226.891 31.252C226.779 31.364 226.63 31.42 226.443 31.42H216.475V31.7C216.512 32.5773 216.708 33.3987 217.063 34.164C217.436 34.9107 217.95 35.5173 218.603 35.984C219.256 36.432 220.022 36.656 220.899 36.656C221.926 36.656 222.756 36.46 223.391 36.068C224.044 35.6573 224.511 35.2467 224.791 34.836C224.959 34.612 225.08 34.472 225.155 34.416C225.248 34.36 225.407 34.332 225.631 34.332H226.079C226.247 34.332 226.387 34.3787 226.499 34.472C226.611 34.5653 226.667 34.6867 226.667 34.836C226.667 35.228 226.415 35.704 225.911 36.264C225.426 36.8053 224.744 37.2813 223.867 37.692C222.99 38.084 222 38.28 220.899 38.28ZM225.379 29.852V29.74C225.379 28.3027 224.968 27.1173 224.147 26.184C223.344 25.2507 222.262 24.784 220.899 24.784C219.536 24.784 218.454 25.2507 217.651 26.184C216.867 27.1173 216.475 28.3027 216.475 29.74V29.852H225.379ZM231.956 38C231.769 38 231.62 37.944 231.508 37.832C231.396 37.72 231.34 37.5707 231.34 37.384V24.056C231.34 23.8693 231.396 23.72 231.508 23.608C231.62 23.496 231.769 23.44 231.956 23.44H232.432C232.619 23.44 232.768 23.496 232.88 23.608C232.992 23.72 233.048 23.8693 233.048 24.056V25.372C233.608 24.644 234.243 24.0933 234.952 23.72C235.68 23.3467 236.613 23.16 237.752 23.16C239.581 23.16 240.991 23.748 241.98 24.924C242.969 26.0813 243.464 27.584 243.464 29.432V37.384C243.464 37.5707 243.408 37.72 243.296 37.832C243.184 37.944 243.035 38 242.848 38H242.372C242.185 38 242.036 37.944 241.924 37.832C241.812 37.72 241.756 37.5707 241.756 37.384V29.572C241.756 28.06 241.383 26.884 240.636 26.044C239.908 25.204 238.853 24.784 237.472 24.784C236.128 24.784 235.055 25.2133 234.252 26.072C233.449 26.912 233.048 28.0787 233.048 29.572V37.384C233.048 37.5707 232.992 37.72 232.88 37.832C232.768 37.944 232.619 38 232.432 38H231.956ZM253.045 38C252.522 38 252.168 37.7667 251.981 37.3L246.829 24.308L246.773 24C246.773 23.8507 246.829 23.72 246.941 23.608C247.053 23.496 247.184 23.44 247.333 23.44H247.921C248.089 23.44 248.22 23.4867 248.313 23.58C248.425 23.6733 248.5 23.7667 248.537 23.86L253.269 35.956L258.001 23.86C258.038 23.7667 258.104 23.6733 258.197 23.58C258.309 23.4867 258.449 23.44 258.617 23.44H259.205C259.354 23.44 259.485 23.496 259.597 23.608C259.709 23.72 259.765 23.8507 259.765 24L259.709 24.308L254.557 37.3C254.37 37.7667 254.016 38 253.493 38H253.045ZM268.617 38C268.094 38 267.739 37.7667 267.553 37.3L262.401 24.308L262.345 24C262.345 23.8507 262.401 23.72 262.513 23.608C262.625 23.496 262.755 23.44 262.905 23.44H263.493C263.661 23.44 263.791 23.4867 263.885 23.58C263.997 23.6733 264.071 23.7667 264.109 23.86L268.841 35.956L273.573 23.86C273.61 23.7667 273.675 23.6733 273.769 23.58C273.881 23.4867 274.021 23.44 274.189 23.44H274.777C274.926 23.44 275.057 23.496 275.169 23.608C275.281 23.72 275.337 23.8507 275.337 24L275.281 24.308L270.129 37.3C269.942 37.7667 269.587 38 269.065 38H268.617ZM284.188 38C283.666 38 283.311 37.7667 283.124 37.3L277.972 24.308L277.916 24C277.916 23.8507 277.972 23.72 278.084 23.608C278.196 23.496 278.327 23.44 278.476 23.44H279.064C279.232 23.44 279.363 23.4867 279.456 23.58C279.568 23.6733 279.643 23.7667 279.68 23.86L284.412 35.956L289.144 23.86C289.182 23.7667 289.247 23.6733 289.34 23.58C289.452 23.4867 289.592 23.44 289.76 23.44H290.348C290.498 23.44 290.628 23.496 290.74 23.608C290.852 23.72 290.908 23.8507 290.908 24L290.852 24.308L285.7 37.3C285.514 37.7667 285.159 38 284.636 38H284.188ZM302.741 38C302.554 38 302.405 37.944 302.293 37.832C302.181 37.72 302.125 37.5707 302.125 37.384V19.016C302.125 18.8293 302.181 18.68 302.293 18.568C302.405 18.456 302.554 18.4 302.741 18.4H303.273C303.46 18.4 303.609 18.456 303.721 18.568C303.833 18.68 303.889 18.8293 303.889 19.016V37.384C303.889 37.5707 303.833 37.72 303.721 37.832C303.609 37.944 303.46 38 303.273 38H302.741ZM309.494 38C309.308 38 309.158 37.944 309.046 37.832C308.934 37.72 308.878 37.5707 308.878 37.384V36.04C308.878 35.8533 308.934 35.704 309.046 35.592C309.158 35.4613 309.308 35.396 309.494 35.396H310.838C311.025 35.396 311.174 35.4613 311.286 35.592C311.417 35.704 311.482 35.8533 311.482 36.04V37.384C311.482 37.5707 311.417 37.72 311.286 37.832C311.174 37.944 311.025 38 310.838 38H309.494ZM325.093 38C324.906 38 324.757 37.944 324.645 37.832C324.533 37.72 324.477 37.5707 324.477 37.384V19.016C324.477 18.8293 324.533 18.68 324.645 18.568C324.757 18.456 324.906 18.4 325.093 18.4H325.625C325.812 18.4 325.961 18.456 326.073 18.568C326.185 18.68 326.241 18.8293 326.241 19.016V37.384C326.241 37.5707 326.185 37.72 326.073 37.832C325.961 37.944 325.812 38 325.625 38H325.093ZM332.316 38C332.13 38 331.98 37.944 331.868 37.832C331.756 37.72 331.7 37.5707 331.7 37.384V24.056C331.7 23.8693 331.756 23.72 331.868 23.608C331.98 23.496 332.13 23.44 332.316 23.44H332.792C332.979 23.44 333.128 23.496 333.24 23.608C333.352 23.72 333.408 23.8693 333.408 24.056V25.372C333.968 24.644 334.603 24.0933 335.312 23.72C336.04 23.3467 336.974 23.16 338.112 23.16C339.942 23.16 341.351 23.748 342.34 24.924C343.33 26.0813 343.824 27.584 343.824 29.432V37.384C343.824 37.5707 343.768 37.72 343.656 37.832C343.544 37.944 343.395 38 343.208 38H342.732C342.546 38 342.396 37.944 342.284 37.832C342.172 37.72 342.116 37.5707 342.116 37.384V29.572C342.116 28.06 341.743 26.884 340.996 26.044C340.268 25.204 339.214 24.784 337.832 24.784C336.488 24.784 335.415 25.2133 334.612 26.072C333.81 26.912 333.408 28.0787 333.408 29.572V37.384C333.408 37.5707 333.352 37.72 333.24 37.832C333.128 37.944 332.979 38 332.792 38H332.316ZM353.457 38C352.076 38 351.096 37.5893 350.517 36.768C349.939 35.928 349.649 34.78 349.649 33.324V25.064H347.465C347.279 25.064 347.129 25.008 347.017 24.896C346.905 24.784 346.849 24.6347 346.849 24.448V24.056C346.849 23.8693 346.905 23.72 347.017 23.608C347.129 23.496 347.279 23.44 347.465 23.44H349.649V18.736C349.649 18.5493 349.705 18.4 349.817 18.288C349.929 18.176 350.079 18.12 350.265 18.12H350.741C350.928 18.12 351.077 18.176 351.189 18.288C351.301 18.4 351.357 18.5493 351.357 18.736V23.44H354.829C355.016 23.44 355.165 23.496 355.277 23.608C355.389 23.72 355.445 23.8693 355.445 24.056V24.448C355.445 24.6347 355.389 24.784 355.277 24.896C355.165 25.008 355.016 25.064 354.829 25.064H351.357V33.212C351.357 34.2573 351.525 35.0507 351.861 35.592C352.216 36.1147 352.795 36.376 353.597 36.376H355.109C355.296 36.376 355.445 36.432 355.557 36.544C355.669 36.656 355.725 36.8053 355.725 36.992V37.384C355.725 37.5707 355.669 37.72 355.557 37.832C355.445 37.944 355.296 38 355.109 38H353.457ZM364.584 38.28C362.81 38.28 361.382 37.7013 360.3 36.544C359.217 35.368 358.601 33.8 358.452 31.84L358.424 30.72L358.452 29.6C358.601 27.6587 359.208 26.1 360.272 24.924C361.354 23.748 362.792 23.16 364.584 23.16C366.525 23.16 368.037 23.804 369.12 25.092C370.221 26.38 370.772 28.144 370.772 30.384V30.804C370.772 30.9907 370.706 31.14 370.576 31.252C370.464 31.364 370.314 31.42 370.128 31.42H360.16V31.7C360.197 32.5773 360.393 33.3987 360.748 34.164C361.121 34.9107 361.634 35.5173 362.288 35.984C362.941 36.432 363.706 36.656 364.584 36.656C365.61 36.656 366.441 36.46 367.076 36.068C367.729 35.6573 368.196 35.2467 368.476 34.836C368.644 34.612 368.765 34.472 368.84 34.416C368.933 34.36 369.092 34.332 369.316 34.332H369.764C369.932 34.332 370.072 34.3787 370.184 34.472C370.296 34.5653 370.352 34.6867 370.352 34.836C370.352 35.228 370.1 35.704 369.596 36.264C369.11 36.8053 368.429 37.2813 367.552 37.692C366.674 38.084 365.685 38.28 364.584 38.28ZM369.064 29.852V29.74C369.064 28.3027 368.653 27.1173 367.832 26.184C367.029 25.2507 365.946 24.784 364.584 24.784C363.221 24.784 362.138 25.2507 361.336 26.184C360.552 27.1173 360.16 28.3027 360.16 29.74V29.852H369.064ZM375.641 38C375.454 38 375.305 37.944 375.193 37.832C375.081 37.72 375.025 37.5707 375.025 37.384V24.084C375.025 23.8973 375.081 23.748 375.193 23.636C375.305 23.5053 375.454 23.44 375.641 23.44H376.089C376.276 23.44 376.425 23.5053 376.537 23.636C376.668 23.748 376.733 23.8973 376.733 24.084V25.372C377.405 24.084 378.674 23.44 380.541 23.44H381.577C381.764 23.44 381.913 23.496 382.025 23.608C382.137 23.72 382.193 23.8693 382.193 24.056V24.448C382.193 24.6347 382.137 24.784 382.025 24.896C381.913 25.008 381.764 25.064 381.577 25.064H380.373C379.253 25.064 378.366 25.3907 377.713 26.044C377.06 26.6973 376.733 27.584 376.733 28.704V37.384C376.733 37.5707 376.668 37.72 376.537 37.832C376.425 37.944 376.276 38 376.089 38H375.641ZM385.935 38C385.749 38 385.599 37.944 385.487 37.832C385.375 37.72 385.319 37.5707 385.319 37.384V24.056C385.319 23.8693 385.375 23.72 385.487 23.608C385.599 23.496 385.749 23.44 385.935 23.44H386.411C386.598 23.44 386.747 23.496 386.859 23.608C386.971 23.72 387.027 23.8693 387.027 24.056V25.372C387.587 24.644 388.222 24.0933 388.931 23.72C389.659 23.3467 390.593 23.16 391.731 23.16C393.561 23.16 394.97 23.748 395.959 24.924C396.949 26.0813 397.443 27.584 397.443 29.432V37.384C397.443 37.5707 397.387 37.72 397.275 37.832C397.163 37.944 397.014 38 396.827 38H396.351C396.165 38 396.015 37.944 395.903 37.832C395.791 37.72 395.735 37.5707 395.735 37.384V29.572C395.735 28.06 395.362 26.884 394.615 26.044C393.887 25.204 392.833 24.784 391.451 24.784C390.107 24.784 389.034 25.2133 388.231 26.072C387.429 26.912 387.027 28.0787 387.027 29.572V37.384C387.027 37.5707 386.971 37.72 386.859 37.832C386.747 37.944 386.598 38 386.411 38H385.935ZM406.315 38.28C405.419 38.28 404.588 38.0933 403.823 37.72C403.058 37.3467 402.442 36.8427 401.975 36.208C401.527 35.5733 401.303 34.8733 401.303 34.108C401.303 32.876 401.798 31.868 402.787 31.084C403.795 30.3 405.148 29.796 406.847 29.572L411.271 28.956V27.976C411.271 26.9493 410.954 26.1653 410.319 25.624C409.703 25.064 408.751 24.784 407.463 24.784C406.511 24.784 405.727 24.9707 405.111 25.344C404.514 25.7173 404.131 26.1653 403.963 26.688C403.888 26.912 403.795 27.0707 403.683 27.164C403.59 27.2387 403.459 27.276 403.291 27.276H402.899C402.731 27.276 402.582 27.22 402.451 27.108C402.339 26.9773 402.283 26.828 402.283 26.66C402.283 26.2493 402.47 25.7733 402.843 25.232C403.216 24.672 403.795 24.1867 404.579 23.776C405.363 23.3653 406.324 23.16 407.463 23.16C409.46 23.16 410.879 23.636 411.719 24.588C412.559 25.54 412.979 26.6973 412.979 28.06V37.384C412.979 37.5707 412.923 37.72 412.811 37.832C412.699 37.944 412.55 38 412.363 38H411.887C411.7 38 411.551 37.944 411.439 37.832C411.327 37.72 411.271 37.5707 411.271 37.384V36.068C410.86 36.684 410.254 37.2067 409.451 37.636C408.667 38.0653 407.622 38.28 406.315 38.28ZM406.595 36.656C407.958 36.656 409.078 36.208 409.955 35.312C410.832 34.416 411.271 33.128 411.271 31.448V30.496L407.659 31C406.128 31.2053 404.971 31.56 404.187 32.064C403.403 32.568 403.011 33.2027 403.011 33.968C403.011 34.8267 403.366 35.4893 404.075 35.956C404.803 36.4227 405.643 36.656 406.595 36.656ZM422.73 38C421.349 38 420.369 37.5893 419.79 36.768C419.211 35.928 418.922 34.78 418.922 33.324V25.064H416.738C416.551 25.064 416.402 25.008 416.29 24.896C416.178 24.784 416.122 24.6347 416.122 24.448V24.056C416.122 23.8693 416.178 23.72 416.29 23.608C416.402 23.496 416.551 23.44 416.738 23.44H418.922V18.736C418.922 18.5493 418.978 18.4 419.09 18.288C419.202 18.176 419.351 18.12 419.538 18.12H420.014C420.201 18.12 420.35 18.176 420.462 18.288C420.574 18.4 420.63 18.5493 420.63 18.736V23.44H424.102C424.289 23.44 424.438 23.496 424.55 23.608C424.662 23.72 424.718 23.8693 424.718 24.056V24.448C424.718 24.6347 424.662 24.784 424.55 24.896C424.438 25.008 424.289 25.064 424.102 25.064H420.63V33.212C420.63 34.2573 420.798 35.0507 421.134 35.592C421.489 36.1147 422.067 36.376 422.87 36.376H424.382C424.569 36.376 424.718 36.432 424.83 36.544C424.942 36.656 424.998 36.8053 424.998 36.992V37.384C424.998 37.5707 424.942 37.72 424.83 37.832C424.718 37.944 424.569 38 424.382 38H422.73ZM428.76 20.444C428.574 20.444 428.424 20.388 428.312 20.276C428.2 20.164 428.144 20.0147 428.144 19.828V18.764C428.144 18.5773 428.2 18.428 428.312 18.316C428.424 18.1853 428.574 18.12 428.76 18.12H429.824C430.011 18.12 430.16 18.1853 430.272 18.316C430.403 18.428 430.468 18.5773 430.468 18.764V19.828C430.468 20.0147 430.403 20.164 430.272 20.276C430.16 20.388 430.011 20.444 429.824 20.444H428.76ZM429.068 38C428.882 38 428.732 37.944 428.62 37.832C428.508 37.72 428.452 37.5707 428.452 37.384V24.056C428.452 23.8693 428.508 23.72 428.62 23.608C428.732 23.496 428.882 23.44 429.068 23.44H429.544C429.731 23.44 429.88 23.496 429.992 23.608C430.104 23.72 430.16 23.8693 430.16 24.056V37.384C430.16 37.5707 430.104 37.72 429.992 37.832C429.88 37.944 429.731 38 429.544 38H429.068ZM440.791 38.28C438.849 38.28 437.337 37.692 436.255 36.516C435.191 35.3213 434.631 33.7813 434.575 31.896L434.547 30.72L434.575 29.544C434.631 27.6587 435.191 26.128 436.255 24.952C437.337 23.7573 438.849 23.16 440.791 23.16C442.732 23.16 444.235 23.7573 445.299 24.952C446.381 26.128 446.951 27.6587 447.007 29.544C447.025 29.7307 447.035 30.1227 447.035 30.72C447.035 31.3173 447.025 31.7093 447.007 31.896C446.951 33.7813 446.381 35.3213 445.299 36.516C444.235 37.692 442.732 38.28 440.791 38.28ZM440.791 36.656C442.116 36.656 443.18 36.236 443.983 35.396C444.804 34.5373 445.243 33.324 445.299 31.756C445.317 31.5693 445.327 31.224 445.327 30.72C445.327 30.216 445.317 29.8707 445.299 29.684C445.243 28.116 444.804 26.912 443.983 26.072C443.18 25.2133 442.116 24.784 440.791 24.784C439.465 24.784 438.392 25.2133 437.571 26.072C436.768 26.912 436.339 28.116 436.283 29.684L436.255 30.72L436.283 31.756C436.339 33.324 436.768 34.5373 437.571 35.396C438.392 36.236 439.465 36.656 440.791 36.656ZM452.036 38C451.849 38 451.7 37.944 451.588 37.832C451.476 37.72 451.42 37.5707 451.42 37.384V24.056C451.42 23.8693 451.476 23.72 451.588 23.608C451.7 23.496 451.849 23.44 452.036 23.44H452.512C452.699 23.44 452.848 23.496 452.96 23.608C453.072 23.72 453.128 23.8693 453.128 24.056V25.372C453.688 24.644 454.323 24.0933 455.032 23.72C455.76 23.3467 456.693 23.16 457.832 23.16C459.661 23.16 461.071 23.748 462.06 24.924C463.049 26.0813 463.544 27.584 463.544 29.432V37.384C463.544 37.5707 463.488 37.72 463.376 37.832C463.264 37.944 463.115 38 462.928 38H462.452C462.265 38 462.116 37.944 462.004 37.832C461.892 37.72 461.836 37.5707 461.836 37.384V29.572C461.836 28.06 461.463 26.884 460.716 26.044C459.988 25.204 458.933 24.784 457.552 24.784C456.208 24.784 455.135 25.2133 454.332 26.072C453.529 26.912 453.128 28.0787 453.128 29.572V37.384C453.128 37.5707 453.072 37.72 452.96 37.832C452.848 37.944 452.699 38 452.512 38H452.036ZM472.416 38.28C471.52 38.28 470.689 38.0933 469.924 37.72C469.158 37.3467 468.542 36.8427 468.076 36.208C467.628 35.5733 467.404 34.8733 467.404 34.108C467.404 32.876 467.898 31.868 468.888 31.084C469.896 30.3 471.249 29.796 472.948 29.572L477.372 28.956V27.976C477.372 26.9493 477.054 26.1653 476.42 25.624C475.804 25.064 474.852 24.784 473.564 24.784C472.612 24.784 471.828 24.9707 471.212 25.344C470.614 25.7173 470.232 26.1653 470.064 26.688C469.989 26.912 469.896 27.0707 469.784 27.164C469.69 27.2387 469.56 27.276 469.392 27.276H469C468.832 27.276 468.682 27.22 468.552 27.108C468.44 26.9773 468.384 26.828 468.384 26.66C468.384 26.2493 468.57 25.7733 468.944 25.232C469.317 24.672 469.896 24.1867 470.68 23.776C471.464 23.3653 472.425 23.16 473.564 23.16C475.561 23.16 476.98 23.636 477.82 24.588C478.66 25.54 479.08 26.6973 479.08 28.06V37.384C479.08 37.5707 479.024 37.72 478.912 37.832C478.8 37.944 478.65 38 478.464 38H477.988C477.801 38 477.652 37.944 477.54 37.832C477.428 37.72 477.372 37.5707 477.372 37.384V36.068C476.961 36.684 476.354 37.2067 475.552 37.636C474.768 38.0653 473.722 38.28 472.416 38.28ZM472.696 36.656C474.058 36.656 475.178 36.208 476.056 35.312C476.933 34.416 477.372 33.128 477.372 31.448V30.496L473.76 31C472.229 31.2053 471.072 31.56 470.288 32.064C469.504 32.568 469.112 33.2027 469.112 33.968C469.112 34.8267 469.466 35.4893 470.176 35.956C470.904 36.4227 471.744 36.656 472.696 36.656ZM484.711 38C484.525 38 484.375 37.944 484.263 37.832C484.151 37.72 484.095 37.5707 484.095 37.384V18.736C484.095 18.5493 484.151 18.4 484.263 18.288C484.375 18.176 484.525 18.12 484.711 18.12H485.187C485.374 18.12 485.523 18.176 485.635 18.288C485.747 18.4 485.803 18.5493 485.803 18.736V37.384C485.803 37.5707 485.747 37.72 485.635 37.832C485.523 37.944 485.374 38 485.187 38H484.711ZM496.32 38.28C494.547 38.28 493.119 37.7013 492.036 36.544C490.954 35.368 490.338 33.8 490.188 31.84L490.16 30.72L490.188 29.6C490.338 27.6587 490.944 26.1 492.008 24.924C493.091 23.748 494.528 23.16 496.32 23.16C498.262 23.16 499.774 23.804 500.856 25.092C501.958 26.38 502.508 28.144 502.508 30.384V30.804C502.508 30.9907 502.443 31.14 502.312 31.252C502.2 31.364 502.051 31.42 501.864 31.42H491.896V31.7C491.934 32.5773 492.13 33.3987 492.484 34.164C492.858 34.9107 493.371 35.5173 494.024 35.984C494.678 36.432 495.443 36.656 496.32 36.656C497.347 36.656 498.178 36.46 498.812 36.068C499.466 35.6573 499.932 35.2467 500.212 34.836C500.38 34.612 500.502 34.472 500.576 34.416C500.67 34.36 500.828 34.332 501.052 34.332H501.5C501.668 34.332 501.808 34.3787 501.92 34.472C502.032 34.5653 502.088 34.6867 502.088 34.836C502.088 35.228 501.836 35.704 501.332 36.264C500.847 36.8053 500.166 37.2813 499.288 37.692C498.411 38.084 497.422 38.28 496.32 38.28ZM500.8 29.852V29.74C500.8 28.3027 500.39 27.1173 499.568 26.184C498.766 25.2507 497.683 24.784 496.32 24.784C494.958 24.784 493.875 25.2507 493.072 26.184C492.288 27.1173 491.896 28.3027 491.896 29.74V29.852H500.8ZM515.52 38C515.334 38 515.184 37.944 515.072 37.832C514.96 37.72 514.904 37.5707 514.904 37.384V19.044C514.904 18.8573 514.96 18.708 515.072 18.596C515.184 18.4653 515.334 18.4 515.52 18.4H526.328C526.534 18.4 526.692 18.456 526.804 18.568C526.916 18.68 526.972 18.8387 526.972 19.044V19.464C526.972 19.6507 526.907 19.8 526.776 19.912C526.664 20.024 526.515 20.08 526.328 20.08H516.668V27.612H525.768C525.974 27.612 526.132 27.668 526.244 27.78C526.356 27.892 526.412 28.0507 526.412 28.256V28.676C526.412 28.8627 526.347 29.012 526.216 29.124C526.104 29.236 525.955 29.292 525.768 29.292H516.668V37.384C516.668 37.5707 516.603 37.72 516.472 37.832C516.36 37.944 516.211 38 516.024 38H515.52ZM536.285 38.28C534.344 38.28 532.832 37.692 531.749 36.516C530.685 35.3213 530.125 33.7813 530.069 31.896L530.041 30.72L530.069 29.544C530.125 27.6587 530.685 26.128 531.749 24.952C532.832 23.7573 534.344 23.16 536.285 23.16C538.226 23.16 539.729 23.7573 540.793 24.952C541.876 26.128 542.445 27.6587 542.501 29.544C542.52 29.7307 542.529 30.1227 542.529 30.72C542.529 31.3173 542.52 31.7093 542.501 31.896C542.445 33.7813 541.876 35.3213 540.793 36.516C539.729 37.692 538.226 38.28 536.285 38.28ZM536.285 36.656C537.61 36.656 538.674 36.236 539.477 35.396C540.298 34.5373 540.737 33.324 540.793 31.756C540.812 31.5693 540.821 31.224 540.821 30.72C540.821 30.216 540.812 29.8707 540.793 29.684C540.737 28.116 540.298 26.912 539.477 26.072C538.674 25.2133 537.61 24.784 536.285 24.784C534.96 24.784 533.886 25.2133 533.065 26.072C532.262 26.912 531.833 28.116 531.777 29.684L531.749 30.72L531.777 31.756C531.833 33.324 532.262 34.5373 533.065 35.396C533.886 36.236 534.96 36.656 536.285 36.656ZM551.65 38C550.269 38 549.289 37.5893 548.71 36.768C548.132 35.928 547.842 34.78 547.842 33.324V25.064H545.658C545.472 25.064 545.322 25.008 545.21 24.896C545.098 24.784 545.042 24.6347 545.042 24.448V24.056C545.042 23.8693 545.098 23.72 545.21 23.608C545.322 23.496 545.472 23.44 545.658 23.44H547.842V18.736C547.842 18.5493 547.898 18.4 548.01 18.288C548.122 18.176 548.272 18.12 548.458 18.12H548.934C549.121 18.12 549.27 18.176 549.382 18.288C549.494 18.4 549.55 18.5493 549.55 18.736V23.44H553.022C553.209 23.44 553.358 23.496 553.47 23.608C553.582 23.72 553.638 23.8693 553.638 24.056V24.448C553.638 24.6347 553.582 24.784 553.47 24.896C553.358 25.008 553.209 25.064 553.022 25.064H549.55V33.212C549.55 34.2573 549.718 35.0507 550.054 35.592C550.409 36.1147 550.988 36.376 551.79 36.376H553.302C553.489 36.376 553.638 36.432 553.75 36.544C553.862 36.656 553.918 36.8053 553.918 36.992V37.384C553.918 37.5707 553.862 37.72 553.75 37.832C553.638 37.944 553.489 38 553.302 38H551.65ZM562.917 38.28C560.975 38.28 559.463 37.692 558.381 36.516C557.317 35.3213 556.757 33.7813 556.701 31.896L556.673 30.72L556.701 29.544C556.757 27.6587 557.317 26.128 558.381 24.952C559.463 23.7573 560.975 23.16 562.917 23.16C564.858 23.16 566.361 23.7573 567.425 24.952C568.507 26.128 569.077 27.6587 569.133 29.544C569.151 29.7307 569.161 30.1227 569.161 30.72C569.161 31.3173 569.151 31.7093 569.133 31.896C569.077 33.7813 568.507 35.3213 567.425 36.516C566.361 37.692 564.858 38.28 562.917 38.28ZM562.917 36.656C564.242 36.656 565.306 36.236 566.109 35.396C566.93 34.5373 567.369 33.324 567.425 31.756C567.443 31.5693 567.453 31.224 567.453 30.72C567.453 30.216 567.443 29.8707 567.425 29.684C567.369 28.116 566.93 26.912 566.109 26.072C565.306 25.2133 564.242 24.784 562.917 24.784C561.591 24.784 560.518 25.2133 559.697 26.072C558.894 26.912 558.465 28.116 558.409 29.684L558.381 30.72L558.409 31.756C558.465 33.324 558.894 34.5373 559.697 35.396C560.518 36.236 561.591 36.656 562.917 36.656ZM578.978 44.16C577.522 44.16 576.355 43.908 575.478 43.404C574.601 42.9 573.985 42.3213 573.63 41.668C573.294 41.0333 573.126 40.4733 573.126 39.988C573.126 39.82 573.182 39.68 573.294 39.568C573.425 39.456 573.574 39.4 573.742 39.4H574.134C574.302 39.4 574.433 39.4373 574.526 39.512C574.638 39.6053 574.731 39.764 574.806 39.988C575.385 41.6867 576.729 42.536 578.838 42.536C580.443 42.536 581.629 42.2 582.394 41.528C583.159 40.8747 583.542 39.6987 583.542 38V36.068C582.459 37.5427 580.891 38.28 578.838 38.28C576.822 38.28 575.329 37.6267 574.358 36.32C573.406 34.9947 572.902 33.3893 572.846 31.504L572.818 30.72L572.846 29.936C572.902 28.0507 573.406 26.4547 574.358 25.148C575.329 23.8227 576.822 23.16 578.838 23.16C580.873 23.16 582.441 23.8973 583.542 25.372V24.084C583.542 23.8973 583.598 23.748 583.71 23.636C583.822 23.5053 583.971 23.44 584.158 23.44H584.606C584.793 23.44 584.942 23.5053 585.054 23.636C585.185 23.748 585.25 23.8973 585.25 24.084V37.72C585.25 39.7173 584.783 41.2853 583.85 42.424C582.917 43.5813 581.293 44.16 578.978 44.16ZM579.006 36.656C580.481 36.656 581.591 36.1707 582.338 35.2C583.085 34.2107 583.486 33.0533 583.542 31.728C583.561 31.5413 583.57 31.2053 583.57 30.72C583.57 30.2347 583.561 29.8987 583.542 29.712C583.486 28.3867 583.085 27.2387 582.338 26.268C581.591 25.2787 580.481 24.784 579.006 24.784C577.494 24.784 576.383 25.2693 575.674 26.24C574.983 27.192 574.61 28.424 574.554 29.936L574.526 30.72L574.554 31.504C574.61 33.016 574.983 34.2573 575.674 35.228C576.383 36.18 577.494 36.656 579.006 36.656ZM590.992 38C590.805 38 590.656 37.944 590.544 37.832C590.432 37.72 590.376 37.5707 590.376 37.384V24.084C590.376 23.8973 590.432 23.748 590.544 23.636C590.656 23.5053 590.805 23.44 590.992 23.44H591.44C591.626 23.44 591.776 23.5053 591.888 23.636C592.018 23.748 592.084 23.8973 592.084 24.084V25.372C592.756 24.084 594.025 23.44 595.892 23.44H596.928C597.114 23.44 597.264 23.496 597.376 23.608C597.488 23.72 597.544 23.8693 597.544 24.056V24.448C597.544 24.6347 597.488 24.784 597.376 24.896C597.264 25.008 597.114 25.064 596.928 25.064H595.724C594.604 25.064 593.717 25.3907 593.064 26.044C592.41 26.6973 592.084 27.584 592.084 28.704V37.384C592.084 37.5707 592.018 37.72 591.888 37.832C591.776 37.944 591.626 38 591.44 38H590.992ZM604.371 38.28C603.475 38.28 602.644 38.0933 601.879 37.72C601.114 37.3467 600.498 36.8427 600.031 36.208C599.583 35.5733 599.359 34.8733 599.359 34.108C599.359 32.876 599.854 31.868 600.843 31.084C601.851 30.3 603.204 29.796 604.903 29.572L609.327 28.956V27.976C609.327 26.9493 609.01 26.1653 608.375 25.624C607.759 25.064 606.807 24.784 605.519 24.784C604.567 24.784 603.783 24.9707 603.167 25.344C602.57 25.7173 602.187 26.1653 602.019 26.688C601.944 26.912 601.851 27.0707 601.739 27.164C601.646 27.2387 601.515 27.276 601.347 27.276H600.955C600.787 27.276 600.638 27.22 600.507 27.108C600.395 26.9773 600.339 26.828 600.339 26.66C600.339 26.2493 600.526 25.7733 600.899 25.232C601.272 24.672 601.851 24.1867 602.635 23.776C603.419 23.3653 604.38 23.16 605.519 23.16C607.516 23.16 608.935 23.636 609.775 24.588C610.615 25.54 611.035 26.6973 611.035 28.06V37.384C611.035 37.5707 610.979 37.72 610.867 37.832C610.755 37.944 610.606 38 610.419 38H609.943C609.756 38 609.607 37.944 609.495 37.832C609.383 37.72 609.327 37.5707 609.327 37.384V36.068C608.916 36.684 608.31 37.2067 607.507 37.636C606.723 38.0653 605.678 38.28 604.371 38.28ZM604.651 36.656C606.014 36.656 607.134 36.208 608.011 35.312C608.888 34.416 609.327 33.128 609.327 31.448V30.496L605.715 31C604.184 31.2053 603.027 31.56 602.243 32.064C601.459 32.568 601.067 33.2027 601.067 33.968C601.067 34.8267 601.422 35.4893 602.131 35.956C602.859 36.4227 603.699 36.656 604.651 36.656ZM617.874 38C617.687 38 617.538 37.944 617.426 37.832C617.314 37.72 617.258 37.5707 617.258 37.384V25.064H614.766C614.579 25.064 614.43 25.008 614.318 24.896C614.206 24.784 614.15 24.6347 614.15 24.448V24.056C614.15 23.8693 614.206 23.72 614.318 23.608C614.43 23.496 614.579 23.44 614.766 23.44H617.258V21.844C617.258 20.4253 617.566 19.3147 618.182 18.512C618.798 17.6907 619.899 17.28 621.486 17.28H624.594C624.781 17.28 624.93 17.336 625.042 17.448C625.154 17.56 625.21 17.7093 625.21 17.896V18.288C625.21 18.4747 625.154 18.624 625.042 18.736C624.93 18.848 624.781 18.904 624.594 18.904H621.486C620.534 18.904 619.871 19.156 619.498 19.66C619.143 20.1453 618.966 20.92 618.966 21.984V23.44H624.594C624.781 23.44 624.93 23.496 625.042 23.608C625.154 23.72 625.21 23.8693 625.21 24.056V37.384C625.21 37.5707 625.154 37.72 625.042 37.832C624.93 37.944 624.781 38 624.594 38H624.118C623.931 38 623.782 37.944 623.67 37.832C623.558 37.72 623.502 37.5707 623.502 37.384V25.064H618.966V37.384C618.966 37.5707 618.91 37.72 618.798 37.832C618.686 37.944 618.537 38 618.35 38H617.874ZM635.713 38.28C633.94 38.28 632.512 37.7013 631.429 36.544C630.347 35.368 629.731 33.8 629.581 31.84L629.553 30.72L629.581 29.6C629.731 27.6587 630.337 26.1 631.401 24.924C632.484 23.748 633.921 23.16 635.713 23.16C637.655 23.16 639.167 23.804 640.249 25.092C641.351 26.38 641.901 28.144 641.901 30.384V30.804C641.901 30.9907 641.836 31.14 641.705 31.252C641.593 31.364 641.444 31.42 641.257 31.42H631.289V31.7C631.327 32.5773 631.523 33.3987 631.877 34.164C632.251 34.9107 632.764 35.5173 633.417 35.984C634.071 36.432 634.836 36.656 635.713 36.656C636.74 36.656 637.571 36.46 638.205 36.068C638.859 35.6573 639.325 35.2467 639.605 34.836C639.773 34.612 639.895 34.472 639.969 34.416C640.063 34.36 640.221 34.332 640.445 34.332H640.893C641.061 34.332 641.201 34.3787 641.313 34.472C641.425 34.5653 641.481 34.6867 641.481 34.836C641.481 35.228 641.229 35.704 640.725 36.264C640.24 36.8053 639.559 37.2813 638.681 37.692C637.804 38.084 636.815 38.28 635.713 38.28ZM640.193 29.852V29.74C640.193 28.3027 639.783 27.1173 638.961 26.184C638.159 25.2507 637.076 24.784 635.713 24.784C634.351 24.784 633.268 25.2507 632.465 26.184C631.681 27.1173 631.289 28.3027 631.289 29.74V29.852H640.193ZM657.138 38C656.914 38 656.737 37.9533 656.606 37.86C656.494 37.748 656.41 37.5707 656.354 37.328L652.518 19.296L652.462 18.96C652.462 18.8107 652.518 18.68 652.63 18.568C652.742 18.456 652.873 18.4 653.022 18.4H653.61C653.965 18.4 654.17 18.54 654.226 18.82L657.502 34.78L660.974 23.384C661.124 22.9547 661.413 22.74 661.842 22.74H662.458C662.888 22.74 663.177 22.9547 663.326 23.384L666.798 34.78L670.074 18.82C670.13 18.54 670.336 18.4 670.69 18.4H671.278C671.428 18.4 671.558 18.456 671.67 18.568C671.782 18.68 671.838 18.8107 671.838 18.96L671.782 19.296L667.946 37.328C667.89 37.5707 667.797 37.748 667.666 37.86C667.554 37.9533 667.386 38 667.162 38H666.742C666.313 38 666.024 37.776 665.874 37.328L662.15 25.512L658.426 37.328C658.296 37.776 658.006 38 657.558 38H657.138ZM680.788 38.28C679.015 38.28 677.587 37.7013 676.504 36.544C675.421 35.368 674.805 33.8 674.656 31.84L674.628 30.72L674.656 29.6C674.805 27.6587 675.412 26.1 676.476 24.924C677.559 23.748 678.996 23.16 680.788 23.16C682.729 23.16 684.241 23.804 685.324 25.092C686.425 26.38 686.976 28.144 686.976 30.384V30.804C686.976 30.9907 686.911 31.14 686.78 31.252C686.668 31.364 686.519 31.42 686.332 31.42H676.364V31.7C676.401 32.5773 676.597 33.3987 676.952 34.164C677.325 34.9107 677.839 35.5173 678.492 35.984C679.145 36.432 679.911 36.656 680.788 36.656C681.815 36.656 682.645 36.46 683.28 36.068C683.933 35.6573 684.4 35.2467 684.68 34.836C684.848 34.612 684.969 34.472 685.044 34.416C685.137 34.36 685.296 34.332 685.52 34.332H685.968C686.136 34.332 686.276 34.3787 686.388 34.472C686.5 34.5653 686.556 34.6867 686.556 34.836C686.556 35.228 686.304 35.704 685.8 36.264C685.315 36.8053 684.633 37.2813 683.756 37.692C682.879 38.084 681.889 38.28 680.788 38.28ZM685.268 29.852V29.74C685.268 28.3027 684.857 27.1173 684.036 26.184C683.233 25.2507 682.151 24.784 680.788 24.784C679.425 24.784 678.343 25.2507 677.54 26.184C676.756 27.1173 676.364 28.3027 676.364 29.74V29.852H685.268ZM696.493 38.28C694.477 38.28 692.984 37.6267 692.013 36.32C691.061 34.9947 690.557 33.3893 690.501 31.504L690.473 30.72L690.501 29.936C690.557 28.0507 691.061 26.4547 692.013 25.148C692.984 23.8227 694.477 23.16 696.493 23.16C698.528 23.16 700.096 23.8973 701.197 25.372V18.736C701.197 18.5493 701.253 18.4 701.365 18.288C701.477 18.176 701.626 18.12 701.813 18.12H702.289C702.476 18.12 702.625 18.176 702.737 18.288C702.849 18.4 702.905 18.5493 702.905 18.736V37.384C702.905 37.5707 702.849 37.72 702.737 37.832C702.625 37.944 702.476 38 702.289 38H701.813C701.626 38 701.477 37.944 701.365 37.832C701.253 37.72 701.197 37.5707 701.197 37.384V36.068C700.114 37.5427 698.546 38.28 696.493 38.28ZM696.661 36.656C698.136 36.656 699.246 36.1707 699.993 35.2C700.74 34.2107 701.141 33.0533 701.197 31.728C701.216 31.5413 701.225 31.1773 701.225 30.636C701.225 30.0947 701.216 29.7307 701.197 29.544C701.178 28.7413 701.001 27.9853 700.665 27.276C700.329 26.548 699.825 25.9507 699.153 25.484C698.481 25.0173 697.65 24.784 696.661 24.784C695.149 24.784 694.038 25.2693 693.329 26.24C692.638 27.192 692.265 28.424 692.209 29.936L692.181 30.72C692.181 32.456 692.517 33.884 693.189 35.004C693.861 36.1053 695.018 36.656 696.661 36.656ZM712.651 38.28C711.438 38.28 710.411 38.0747 709.571 37.664C708.75 37.2533 708.125 36.7867 707.695 36.264C707.285 35.7413 707.079 35.3213 707.079 35.004C707.079 34.836 707.145 34.7053 707.275 34.612C707.406 34.5 707.546 34.444 707.695 34.444H708.115C708.246 34.444 708.349 34.472 708.423 34.528C708.517 34.5653 708.619 34.6587 708.731 34.808C709.142 35.3867 709.637 35.844 710.215 36.18C710.813 36.4973 711.625 36.656 712.651 36.656C713.809 36.656 714.742 36.4413 715.451 36.012C716.161 35.564 716.515 34.9293 716.515 34.108C716.515 33.604 716.366 33.1933 716.067 32.876C715.787 32.5587 715.321 32.288 714.667 32.064C714.033 31.8213 713.081 31.5507 711.811 31.252C710.15 30.8787 709.011 30.3653 708.395 29.712C707.798 29.0587 707.499 28.228 707.499 27.22C707.499 26.5293 707.686 25.876 708.059 25.26C708.451 24.644 709.021 24.14 709.767 23.748C710.533 23.356 711.447 23.16 712.511 23.16C713.631 23.16 714.574 23.356 715.339 23.748C716.123 24.1213 716.702 24.56 717.075 25.064C717.467 25.568 717.663 25.9787 717.663 26.296C717.663 26.464 717.598 26.604 717.467 26.716C717.355 26.8093 717.215 26.856 717.047 26.856H716.627C716.366 26.856 716.161 26.7347 716.011 26.492C715.638 25.932 715.209 25.512 714.723 25.232C714.257 24.9333 713.519 24.784 712.511 24.784C711.429 24.784 710.607 25.008 710.047 25.456C709.487 25.904 709.207 26.492 709.207 27.22C709.207 27.668 709.319 28.0413 709.543 28.34C709.767 28.6387 710.187 28.9187 710.803 29.18C711.419 29.4227 712.315 29.6747 713.491 29.936C715.227 30.328 716.45 30.8507 717.159 31.504C717.869 32.1573 718.223 33.0253 718.223 34.108C718.223 34.8733 718.009 35.5733 717.579 36.208C717.15 36.8427 716.515 37.3467 715.675 37.72C714.835 38.0933 713.827 38.28 712.651 38.28ZM727.273 38C725.891 38 724.911 37.5893 724.333 36.768C723.754 35.928 723.465 34.78 723.465 33.324V25.064H721.281C721.094 25.064 720.945 25.008 720.833 24.896C720.721 24.784 720.665 24.6347 720.665 24.448V24.056C720.665 23.8693 720.721 23.72 720.833 23.608C720.945 23.496 721.094 23.44 721.281 23.44H723.465V18.736C723.465 18.5493 723.521 18.4 723.633 18.288C723.745 18.176 723.894 18.12 724.081 18.12H724.557C724.743 18.12 724.893 18.176 725.005 18.288C725.117 18.4 725.173 18.5493 725.173 18.736V23.44H728.645C728.831 23.44 728.981 23.496 729.093 23.608C729.205 23.72 729.261 23.8693 729.261 24.056V24.448C729.261 24.6347 729.205 24.784 729.093 24.896C728.981 25.008 728.831 25.064 728.645 25.064H725.173V33.212C725.173 34.2573 725.341 35.0507 725.677 35.592C726.031 36.1147 726.61 36.376 727.413 36.376H728.925C729.111 36.376 729.261 36.432 729.373 36.544C729.485 36.656 729.541 36.8053 729.541 36.992V37.384C729.541 37.5707 729.485 37.72 729.373 37.832C729.261 37.944 729.111 38 728.925 38H727.273ZM733.611 38C733.424 38 733.275 37.944 733.163 37.832C733.051 37.72 732.995 37.5707 732.995 37.384V24.084C732.995 23.8973 733.051 23.748 733.163 23.636C733.275 23.5053 733.424 23.44 733.611 23.44H734.059C734.246 23.44 734.395 23.5053 734.507 23.636C734.638 23.748 734.703 23.8973 734.703 24.084V25.372C735.375 24.084 736.644 23.44 738.511 23.44H739.547C739.734 23.44 739.883 23.496 739.995 23.608C740.107 23.72 740.163 23.8693 740.163 24.056V24.448C740.163 24.6347 740.107 24.784 739.995 24.896C739.883 25.008 739.734 25.064 739.547 25.064H738.343C737.223 25.064 736.336 25.3907 735.683 26.044C735.03 26.6973 734.703 27.584 734.703 28.704V37.384C734.703 37.5707 734.638 37.72 734.507 37.832C734.395 37.944 734.246 38 734.059 38H733.611ZM743.597 20.444C743.411 20.444 743.261 20.388 743.149 20.276C743.037 20.164 742.981 20.0147 742.981 19.828V18.764C742.981 18.5773 743.037 18.428 743.149 18.316C743.261 18.1853 743.411 18.12 743.597 18.12H744.661C744.848 18.12 744.997 18.1853 745.109 18.316C745.24 18.428 745.305 18.5773 745.305 18.764V19.828C745.305 20.0147 745.24 20.164 745.109 20.276C744.997 20.388 744.848 20.444 744.661 20.444H743.597ZM743.905 38C743.719 38 743.569 37.944 743.457 37.832C743.345 37.72 743.289 37.5707 743.289 37.384V24.056C743.289 23.8693 743.345 23.72 743.457 23.608C743.569 23.496 743.719 23.44 743.905 23.44H744.381C744.568 23.44 744.717 23.496 744.829 23.608C744.941 23.72 744.997 23.8693 744.997 24.056V37.384C744.997 37.5707 744.941 37.72 744.829 37.832C744.717 37.944 744.568 38 744.381 38H743.905ZM750.644 20.444C750.457 20.444 750.308 20.388 750.196 20.276C750.084 20.164 750.028 20.0147 750.028 19.828V18.764C750.028 18.5773 750.084 18.428 750.196 18.316C750.308 18.1853 750.457 18.12 750.644 18.12H751.708C751.894 18.12 752.044 18.1853 752.156 18.316C752.286 18.428 752.352 18.5773 752.352 18.764V19.828C752.352 20.0147 752.286 20.164 752.156 20.276C752.044 20.388 751.894 20.444 751.708 20.444H750.644ZM747.704 43.32C747.517 43.32 747.368 43.264 747.256 43.152C747.144 43.04 747.088 42.8907 747.088 42.704V42.312C747.088 42.1253 747.144 41.976 747.256 41.864C747.368 41.752 747.517 41.696 747.704 41.696H747.816C748.842 41.696 749.514 41.4347 749.832 40.912C750.168 40.3893 750.336 39.624 750.336 38.616V24.056C750.336 23.8693 750.392 23.72 750.504 23.608C750.616 23.496 750.765 23.44 750.952 23.44H751.428C751.614 23.44 751.764 23.496 751.876 23.608C751.988 23.72 752.044 23.8693 752.044 24.056V38.616C752.044 40.0907 751.736 41.2387 751.12 42.06C750.504 42.9 749.402 43.32 747.816 43.32H747.704ZM762.443 38.28C760.427 38.28 758.934 37.6267 757.963 36.32C757.011 34.9947 756.507 33.3893 756.451 31.504L756.423 30.72L756.451 29.936C756.507 28.0507 757.011 26.4547 757.963 25.148C758.934 23.8227 760.427 23.16 762.443 23.16C764.478 23.16 766.046 23.8973 767.147 25.372V18.736C767.147 18.5493 767.203 18.4 767.315 18.288C767.427 18.176 767.576 18.12 767.763 18.12H768.239C768.426 18.12 768.575 18.176 768.687 18.288C768.799 18.4 768.855 18.5493 768.855 18.736V37.384C768.855 37.5707 768.799 37.72 768.687 37.832C768.575 37.944 768.426 38 768.239 38H767.763C767.576 38 767.427 37.944 767.315 37.832C767.203 37.72 767.147 37.5707 767.147 37.384V36.068C766.064 37.5427 764.496 38.28 762.443 38.28ZM762.611 36.656C764.086 36.656 765.196 36.1707 765.943 35.2C766.69 34.2107 767.091 33.0533 767.147 31.728C767.166 31.5413 767.175 31.1773 767.175 30.636C767.175 30.0947 767.166 29.7307 767.147 29.544C767.128 28.7413 766.951 27.9853 766.615 27.276C766.279 26.548 765.775 25.9507 765.103 25.484C764.431 25.0173 763.6 24.784 762.611 24.784C761.099 24.784 759.988 25.2693 759.279 26.24C758.588 27.192 758.215 28.424 758.159 29.936L758.131 30.72C758.131 32.456 758.467 33.884 759.139 35.004C759.811 36.1053 760.968 36.656 762.611 36.656Z" fill="black"/>
</svg>
