<svg width="845" height="300" viewBox="0 0 845 300" fill="none" xmlns="http://www.w3.org/2000/svg">
<path d="M92.6179 164.104C92.6179 109.443 136.886 65.0218 191.358 65.0218V50.2146V25.0109H162.788C162.788 25.0109 142.851 24.2233 136.101 36.0375C129.351 47.6942 110.514 50.3721 110.514 50.3721H88.8504V43.9137C88.8504 39.503 85.3969 36.0375 81.0014 36.0375H59.8092C55.4138 36.0375 51.9602 39.503 51.9602 43.9137V50.3721H15.698C7.06408 50.3721 0 57.4607 0 66.1244V259.248C0 267.911 7.06408 275 15.698 275H191.358V263.343C136.886 263.186 92.6179 218.922 92.6179 164.104Z" fill="#FF4F00"/>
<path d="M191.358 231.535C154.411 231.535 124.508 201.276 124.508 163.889C124.508 126.502 154.411 96.2431 191.358 96.2431V76.4404C143.608 76.4404 104.938 115.57 104.938 163.889C104.938 212.207 143.608 251.338 191.358 251.338V231.535Z" fill="#FF4F00"/>
<path d="M216 0H226V300H216V0Z" fill="#FF4F00"/>
<path d="M141.493 137.554C137.346 145.458 135 154.455 135 164C135 192.36 155.712 215.883 182.834 220.267C157.172 210.21 139 185.227 139 156C139 149.611 139.868 143.426 141.493 137.554Z" fill="#FF4F00"/>
<path d="M259.582 91.1485C258.909 91.1485 258.358 90.9344 257.93 90.5061C257.502 90.0168 257.288 89.4662 257.288 88.8545V29.2115C257.288 28.5386 257.502 27.9881 257.93 27.5599C258.358 27.1317 258.909 26.9176 259.582 26.9176H301.791C302.463 26.9176 303.014 27.1317 303.442 27.5599C303.87 27.9881 304.085 28.5386 304.085 29.2115V38.4791C304.085 39.152 303.87 39.7026 303.442 40.1308C303.014 40.559 302.463 40.7731 301.791 40.7731H273.437V54.2616H299.955C300.628 54.2616 301.179 54.5063 301.607 54.9957C302.035 55.4239 302.249 55.9744 302.249 56.6473V65.8231C302.249 66.4349 302.035 66.9854 301.607 67.4748C301.179 67.903 300.628 68.1171 299.955 68.1171H273.437V88.8545C273.437 89.4662 273.223 90.0168 272.795 90.5061C272.367 90.9344 271.816 91.1485 271.143 91.1485H259.582Z" fill="#FF4F00"/>
<path d="M339.804 92.066C334.177 92.066 329.283 91.1485 325.123 89.3133C320.963 87.4781 317.721 84.7254 315.397 81.055C313.072 77.3235 311.787 72.6744 311.543 67.1078C311.482 64.4773 311.451 61.8469 311.451 59.2165C311.451 56.525 311.482 53.864 311.543 51.2336C311.787 45.7281 313.072 41.1095 315.397 37.378C317.782 33.5854 321.055 30.7409 325.215 28.8445C329.436 26.9482 334.299 26 339.804 26C345.371 26 350.234 26.9482 354.394 28.8445C358.554 30.7409 361.826 33.5854 364.212 37.378C366.598 41.1095 367.882 45.7281 368.066 51.2336C368.188 53.864 368.249 56.525 368.249 59.2165C368.249 61.8469 368.188 64.4773 368.066 67.1078C367.882 72.6744 366.598 77.3235 364.212 81.055C361.888 84.7254 358.645 87.4781 354.486 89.3133C350.326 91.1485 345.432 92.066 339.804 92.066ZM339.804 78.8528C343.046 78.8528 345.677 77.8741 347.696 75.9166C349.775 73.959 350.877 70.8393 350.999 66.5572C351.121 63.8656 351.182 61.327 351.182 58.9413C351.182 56.5555 351.121 54.0781 350.999 51.5088C350.877 48.6337 350.326 46.3092 349.347 44.5352C348.43 42.7 347.145 41.3542 345.493 40.4978C343.842 39.6414 341.945 39.2132 339.804 39.2132C337.724 39.2132 335.859 39.6414 334.207 40.4978C332.555 41.3542 331.24 42.7 330.261 44.5352C329.283 46.3092 328.732 48.6337 328.61 51.5088C328.549 54.0781 328.518 56.5555 328.518 58.9413C328.518 61.327 328.549 63.8656 328.61 66.5572C328.793 70.8393 329.894 73.959 331.913 75.9166C333.993 77.8741 336.623 78.8528 339.804 78.8528Z" fill="#FF4F00"/>
<path d="M394.325 91.1485C393.652 91.1485 393.101 90.9344 392.673 90.5061C392.245 90.0168 392.031 89.4662 392.031 88.8545V41.3236H375.698C375.025 41.3236 374.474 41.1095 374.046 40.6813C373.618 40.192 373.404 39.6414 373.404 39.0297V29.2115C373.404 28.5386 373.618 27.9881 374.046 27.5599C374.474 27.1317 375.025 26.9176 375.698 26.9176H425.064C425.737 26.9176 426.287 27.1317 426.715 27.5599C427.144 27.9881 427.358 28.5386 427.358 29.2115V39.0297C427.358 39.6414 427.144 40.192 426.715 40.6813C426.287 41.1095 425.737 41.3236 425.064 41.3236H408.731V88.8545C408.731 89.4662 408.517 90.0168 408.088 90.5061C407.66 90.9344 407.11 91.1485 406.437 91.1485H394.325Z" fill="#FF4F00"/>
<path d="M460.954 92.066C455.326 92.066 450.432 91.1485 446.273 89.3133C442.113 87.4781 438.871 84.7254 436.546 81.055C434.222 77.3235 432.937 72.6744 432.693 67.1078C432.631 64.4773 432.601 61.8469 432.601 59.2165C432.601 56.525 432.631 53.864 432.693 51.2336C432.937 45.7281 434.222 41.1095 436.546 37.378C438.932 33.5854 442.205 30.7409 446.364 28.8445C450.585 26.9482 455.449 26 460.954 26C466.521 26 471.384 26.9482 475.544 28.8445C479.703 30.7409 482.976 33.5854 485.362 37.378C487.748 41.1095 489.032 45.7281 489.216 51.2336C489.338 53.864 489.399 56.525 489.399 59.2165C489.399 61.8469 489.338 64.4773 489.216 67.1078C489.032 72.6744 487.748 77.3235 485.362 81.055C483.037 84.7254 479.795 87.4781 475.635 89.3133C471.476 91.1485 466.582 92.066 460.954 92.066ZM460.954 78.8528C464.196 78.8528 466.827 77.8741 468.845 75.9166C470.925 73.959 472.026 70.8393 472.149 66.5572C472.271 63.8656 472.332 61.327 472.332 58.9413C472.332 56.5555 472.271 54.0781 472.149 51.5088C472.026 48.6337 471.476 46.3092 470.497 44.5352C469.579 42.7 468.295 41.3542 466.643 40.4978C464.991 39.6414 463.095 39.2132 460.954 39.2132C458.874 39.2132 457.008 39.6414 455.357 40.4978C453.705 41.3542 452.39 42.7 451.411 44.5352C450.432 46.3092 449.882 48.6337 449.76 51.5088C449.698 54.0781 449.668 56.5555 449.668 58.9413C449.668 61.327 449.698 63.8656 449.76 66.5572C449.943 70.8393 451.044 73.959 453.063 75.9166C455.143 77.8741 457.773 78.8528 460.954 78.8528Z" fill="#FF4F00"/>
<path d="M526.553 92.066C520.742 92.066 515.726 91.1179 511.505 89.2215C507.345 87.264 504.103 84.4501 501.779 80.7798C499.515 77.0482 498.261 72.5215 498.017 67.1995C497.955 64.5691 497.925 61.7858 497.925 58.8495C497.925 55.8521 497.955 53.0075 498.017 50.316C498.261 45.1163 499.546 40.7119 501.87 37.1028C504.195 33.4936 507.468 30.7409 511.689 28.8445C515.909 26.9482 520.864 26 526.553 26C531.141 26 535.209 26.5811 538.757 27.7434C542.305 28.8445 545.272 30.3432 547.658 32.2396C550.105 34.1359 551.971 36.2158 553.255 38.4791C554.54 40.7425 555.213 42.9753 555.274 45.1775C555.274 45.7281 555.06 46.1868 554.631 46.5539C554.264 46.9209 553.806 47.1044 553.255 47.1044H539.858C539.186 47.1044 538.666 47.0127 538.298 46.8292C537.993 46.5845 537.717 46.248 537.473 45.8198C537.044 44.9022 536.402 43.9541 535.546 42.9753C534.751 41.9354 533.619 41.0484 532.151 40.3143C530.744 39.5802 528.878 39.2132 526.553 39.2132C523.128 39.2132 520.406 40.1308 518.387 41.966C516.368 43.8011 515.267 46.7374 515.084 50.7748C514.9 56.0356 514.9 61.3576 515.084 66.7407C515.267 71.0228 516.399 74.112 518.479 76.0083C520.559 77.9047 523.342 78.8528 526.829 78.8528C529.092 78.8528 531.111 78.4552 532.885 77.66C534.72 76.8647 536.157 75.6413 537.197 73.9896C538.237 72.2768 538.757 70.1052 538.757 67.4748V65.7314H530.132C529.459 65.7314 528.909 65.5173 528.48 65.0891C528.052 64.5997 527.838 64.0186 527.838 63.3457V56.5555C527.838 55.8827 528.052 55.3321 528.48 54.9039C528.909 54.4145 529.459 54.1698 530.132 54.1698H553.255C553.928 54.1698 554.479 54.4145 554.907 54.9039C555.335 55.3321 555.549 55.8827 555.549 56.5555V67.016C555.549 72.2768 554.356 76.773 551.971 80.5045C549.585 84.236 546.19 87.1111 541.785 89.1298C537.442 91.0873 532.365 92.066 526.553 92.066Z" fill="#FF4F00"/>
<path d="M568.37 91.1485C567.697 91.1485 567.147 90.9344 566.719 90.5061C566.29 90.0168 566.076 89.4662 566.076 88.8545V29.2115C566.076 28.5386 566.29 27.9881 566.719 27.5599C567.147 27.1317 567.697 26.9176 568.37 26.9176H593.328C601.281 26.9176 607.52 28.7528 612.047 32.4231C616.574 36.0323 618.837 41.1707 618.837 47.8385C618.837 52.1817 617.797 55.8521 615.718 58.8495C613.638 61.8469 610.885 64.1103 607.459 65.6396L620.03 88.2122C620.214 88.5792 620.305 88.9157 620.305 89.2215C620.305 89.7109 620.091 90.1697 619.663 90.5979C619.296 90.9649 618.868 91.1485 618.378 91.1485H606.175C605.012 91.1485 604.156 90.8732 603.605 90.3226C603.055 89.7109 602.657 89.1604 602.413 88.671L591.952 68.4841H582.593V88.8545C582.593 89.4662 582.348 90.0168 581.859 90.5061C581.43 90.9344 580.88 91.1485 580.207 91.1485H568.37ZM582.593 55.4544H593.145C596.02 55.4544 598.161 54.751 599.568 53.344C601.036 51.937 601.77 50.0407 601.77 47.655C601.77 45.2693 601.067 43.3423 599.66 41.8742C598.314 40.4061 596.142 39.672 593.145 39.672H582.593V55.4544Z" fill="#FF4F00"/>
<path d="M625.848 91.1485C625.359 91.1485 624.9 90.9649 624.472 90.5979C624.105 90.1697 623.921 89.7109 623.921 89.2215C623.921 88.9157 623.952 88.6404 624.013 88.3957L645.576 29.4868C645.76 28.8139 646.127 28.2328 646.677 27.7434C647.289 27.1929 648.115 26.9176 649.155 26.9176H662.735C663.775 26.9176 664.57 27.1929 665.121 27.7434C665.733 28.2328 666.13 28.8139 666.314 29.4868L687.785 88.3957C687.907 88.6404 687.969 88.9157 687.969 89.2215C687.969 89.7109 687.755 90.1697 687.326 90.5979C686.959 90.9649 686.5 91.1485 685.95 91.1485H674.664C673.746 91.1485 673.043 90.9344 672.553 90.5061C672.125 90.0168 671.85 89.5886 671.727 89.2215L668.149 79.8622H643.649L640.163 89.2215C640.04 89.5886 639.765 90.0168 639.337 90.5061C638.908 90.9344 638.174 91.1485 637.134 91.1485H625.848ZM647.411 66.649H664.478L655.945 42.4248L647.411 66.649Z" fill="#FF4F00"/>
<path d="M697.495 91.1485C696.822 91.1485 696.272 90.9344 695.843 90.5061C695.415 90.0168 695.201 89.4662 695.201 88.8545V29.2115C695.201 28.5386 695.415 27.9881 695.843 27.5599C696.272 27.1317 696.822 26.9176 697.495 26.9176H739.704C740.377 26.9176 740.927 27.1317 741.356 27.5599C741.784 27.9881 741.998 28.5386 741.998 29.2115V38.4791C741.998 39.152 741.784 39.7026 741.356 40.1308C740.927 40.559 740.377 40.7731 739.704 40.7731H711.351V54.2616H737.869C738.542 54.2616 739.092 54.5063 739.52 54.9957C739.949 55.4239 740.163 55.9744 740.163 56.6473V65.8231C740.163 66.4349 739.949 66.9854 739.52 67.4748C739.092 67.903 738.542 68.1171 737.869 68.1171H711.351V88.8545C711.351 89.4662 711.136 90.0168 710.708 90.5061C710.28 90.9344 709.729 91.1485 709.057 91.1485H697.495Z" fill="#FF4F00"/>
<path d="M754.217 91.1485C753.544 91.1485 752.993 90.9344 752.565 90.5061C752.137 90.0168 751.923 89.4662 751.923 88.8545V29.2115C751.923 28.5386 752.137 27.9881 752.565 27.5599C752.993 27.1317 753.544 26.9176 754.217 26.9176H766.512C767.185 26.9176 767.736 27.1317 768.164 27.5599C768.653 27.9881 768.898 28.5386 768.898 29.2115V88.8545C768.898 89.4662 768.653 90.0168 768.164 90.5061C767.736 90.9344 767.185 91.1485 766.512 91.1485H754.217Z" fill="#FF4F00"/>
<path d="M783.967 91.1485C783.294 91.1485 782.743 90.9344 782.315 90.5061C781.887 90.0168 781.673 89.4662 781.673 88.8545V29.2115C781.673 28.5386 781.887 27.9881 782.315 27.5599C782.743 27.1317 783.294 26.9176 783.967 26.9176H826.818C827.491 26.9176 828.041 27.1317 828.469 27.5599C828.897 27.9881 829.112 28.5386 829.112 29.2115V37.8368C829.112 38.5097 828.897 39.0603 828.469 39.4885C828.041 39.9167 827.491 40.1308 826.818 40.1308H797.547V52.5182H824.799C825.472 52.5182 826.022 52.7629 826.451 53.2522C826.879 53.6804 827.093 54.231 827.093 54.9039V62.8869C827.093 63.4986 826.879 64.0491 826.451 64.5385C826.022 64.9667 825.472 65.1808 824.799 65.1808H797.547V77.9353H827.552C828.225 77.9353 828.775 78.1494 829.203 78.5776C829.632 79.0058 829.846 79.5563 829.846 80.2292V88.8545C829.846 89.4662 829.632 90.0168 829.203 90.5061C828.775 90.9344 828.225 91.1485 827.552 91.1485H783.967Z" fill="#FF4F00"/>
<path d="M269.083 210.017C267.948 210.017 267.048 209.684 266.38 209.016C265.713 208.349 265.312 207.582 265.179 206.714L254.268 142.75C254.201 142.55 254.168 142.416 254.168 142.35C254.168 142.216 254.168 142.116 254.168 142.049C254.168 141.515 254.368 141.048 254.769 140.648C255.236 140.181 255.736 139.947 256.27 139.947H268.682C270.551 139.947 271.585 140.681 271.786 142.149L278.292 181.188L285.499 158.165C285.699 157.632 286.033 157.064 286.5 156.464C286.967 155.796 287.735 155.463 288.803 155.463H296.01C297.144 155.463 297.945 155.796 298.412 156.464C298.879 157.064 299.18 157.632 299.313 158.165L306.52 181.188L313.027 142.149C313.227 140.681 314.261 139.947 316.13 139.947H328.542C329.143 139.947 329.643 140.181 330.044 140.648C330.511 141.048 330.745 141.515 330.745 142.049C330.745 142.116 330.711 142.216 330.644 142.35C330.644 142.416 330.644 142.55 330.644 142.75L319.734 206.714C319.6 207.582 319.2 208.349 318.532 209.016C317.865 209.684 316.964 210.017 315.83 210.017H306.32C305.186 210.017 304.318 209.717 303.717 209.116C303.117 208.516 302.716 207.949 302.516 207.415L292.406 178.786L282.296 207.415C282.096 207.949 281.695 208.516 281.095 209.116C280.561 209.717 279.727 210.017 278.592 210.017H269.083Z" fill="#FF4F00"/>
<path d="M343.563 210.017C342.829 210.017 342.228 209.784 341.761 209.317C341.294 208.783 341.06 208.182 341.06 207.515V142.45C341.06 141.716 341.294 141.115 341.761 140.648C342.228 140.181 342.829 139.947 343.563 139.947H390.31C391.044 139.947 391.644 140.181 392.111 140.648C392.578 141.115 392.812 141.716 392.812 142.45V151.859C392.812 152.593 392.578 153.194 392.111 153.661C391.644 154.128 391.044 154.362 390.31 154.362H358.378V167.875H388.107C388.841 167.875 389.442 168.142 389.909 168.676C390.376 169.143 390.61 169.744 390.61 170.478V179.186C390.61 179.854 390.376 180.454 389.909 180.988C389.442 181.455 388.841 181.689 388.107 181.689H358.378V195.603H391.11C391.844 195.603 392.445 195.836 392.912 196.304C393.379 196.771 393.613 197.371 393.613 198.105V207.515C393.613 208.182 393.379 208.783 392.912 209.317C392.445 209.784 391.844 210.017 391.11 210.017H343.563Z" fill="#FF4F00"/>
<path d="M407.494 210.017C406.76 210.017 406.159 209.784 405.692 209.317C405.225 208.783 404.991 208.182 404.991 207.515V142.45C404.991 141.716 405.225 141.115 405.692 140.648C406.159 140.181 406.76 139.947 407.494 139.947H433.52C440.06 139.947 445.632 141.015 450.237 143.15C454.841 145.219 458.378 148.289 460.847 152.36C463.316 156.364 464.651 161.335 464.851 167.275C464.918 170.211 464.951 172.78 464.951 174.982C464.951 177.184 464.918 179.72 464.851 182.59C464.584 188.796 463.25 193.935 460.847 198.005C458.512 202.076 455.075 205.112 450.537 207.114C446.066 209.05 440.56 210.017 434.02 210.017H407.494ZM423.009 195.603H433.52C436.389 195.603 438.758 195.169 440.627 194.302C442.562 193.367 443.997 191.933 444.931 189.997C445.932 188.062 446.466 185.526 446.533 182.39C446.666 180.454 446.733 178.719 446.733 177.184C446.8 175.65 446.8 174.115 446.733 172.58C446.733 171.045 446.666 169.343 446.533 167.475C446.399 162.937 445.198 159.634 442.929 157.565C440.727 155.429 437.424 154.362 433.019 154.362H423.009V195.603Z" fill="#FF4F00"/>
<path d="M502.771 211.018C496.098 211.018 490.559 210.084 486.155 208.215C481.75 206.28 478.413 203.778 476.145 200.708C473.876 197.638 472.674 194.368 472.541 190.898C472.541 190.364 472.741 189.897 473.142 189.497C473.609 189.03 474.143 188.796 474.743 188.796H487.356C488.29 188.796 488.991 188.963 489.458 189.297C489.992 189.63 490.459 190.064 490.859 190.598C491.393 191.599 492.127 192.567 493.061 193.501C494.062 194.435 495.364 195.202 496.965 195.803C498.567 196.337 500.502 196.604 502.771 196.604C506.642 196.604 509.545 196.003 511.48 194.802C513.482 193.601 514.483 191.966 514.483 189.897C514.483 188.362 513.949 187.128 512.881 186.193C511.814 185.259 510.078 184.425 507.676 183.691C505.34 182.89 502.204 182.089 498.267 181.289C493.195 180.221 488.857 178.853 485.254 177.184C481.717 175.449 479.014 173.214 477.146 170.478C475.277 167.675 474.343 164.205 474.343 160.067C474.343 155.997 475.477 152.36 477.746 149.156C480.082 145.953 483.318 143.451 487.456 141.649C491.593 139.847 496.498 138.946 502.171 138.946C506.775 138.946 510.813 139.547 514.283 140.748C517.82 141.949 520.789 143.551 523.192 145.553C525.594 147.555 527.396 149.69 528.597 151.959C529.865 154.161 530.532 156.33 530.599 158.466C530.599 159 530.399 159.5 529.998 159.967C529.665 160.368 529.164 160.568 528.497 160.568H515.284C514.55 160.568 513.916 160.434 513.382 160.167C512.848 159.9 512.381 159.467 511.98 158.866C511.58 157.398 510.512 156.13 508.777 155.062C507.109 153.928 504.907 153.361 502.171 153.361C499.234 153.361 496.932 153.894 495.264 154.962C493.662 155.963 492.861 157.531 492.861 159.667C492.861 161.002 493.295 162.169 494.163 163.17C495.097 164.171 496.598 165.039 498.667 165.773C500.803 166.507 503.705 167.275 507.376 168.075C513.448 169.21 518.353 170.645 522.09 172.38C525.828 174.048 528.564 176.25 530.299 178.986C532.1 181.656 533.001 185.026 533.001 189.096C533.001 193.634 531.7 197.538 529.097 200.808C526.495 204.078 522.925 206.614 518.387 208.416C513.916 210.151 508.71 211.018 502.771 211.018Z" fill="#FF4F00"/>
<path d="M560.254 210.017C559.52 210.017 558.919 209.784 558.452 209.317C557.985 208.783 557.751 208.182 557.751 207.515V155.663H539.933C539.199 155.663 538.599 155.429 538.131 154.962C537.664 154.428 537.431 153.828 537.431 153.16V142.45C537.431 141.716 537.664 141.115 538.131 140.648C538.599 140.181 539.199 139.947 539.933 139.947H593.787C594.521 139.947 595.122 140.181 595.589 140.648C596.056 141.115 596.29 141.716 596.29 142.45V153.16C596.29 153.828 596.056 154.428 595.589 154.962C595.122 155.429 594.521 155.663 593.787 155.663H575.969V207.515C575.969 208.182 575.736 208.783 575.269 209.317C574.801 209.784 574.201 210.017 573.467 210.017H560.254Z" fill="#FF4F00"/>
<path d="M607.889 210.017C607.155 210.017 606.555 209.784 606.088 209.317C605.621 208.783 605.387 208.182 605.387 207.515V142.45C605.387 141.716 605.621 141.115 606.088 140.648C606.555 140.181 607.155 139.947 607.889 139.947H635.117C643.792 139.947 650.599 141.949 655.537 145.953C660.475 149.89 662.945 155.496 662.945 162.77C662.945 167.508 661.81 171.512 659.541 174.782C657.272 178.052 654.269 180.521 650.532 182.189L664.246 206.814C664.446 207.214 664.546 207.581 664.546 207.915C664.546 208.449 664.313 208.95 663.845 209.417C663.445 209.817 662.978 210.017 662.444 210.017H649.131C647.863 210.017 646.929 209.717 646.328 209.116C645.727 208.449 645.294 207.848 645.027 207.315L633.615 185.293H623.405V207.515C623.405 208.182 623.138 208.783 622.604 209.317C622.137 209.784 621.536 210.017 620.802 210.017H607.889ZM623.405 171.078H634.917C638.053 171.078 640.389 170.311 641.924 168.776C643.525 167.241 644.326 165.172 644.326 162.57C644.326 159.967 643.558 157.865 642.024 156.264C640.555 154.662 638.186 153.861 634.917 153.861H623.405V171.078Z" fill="#FF4F00"/>
<path d="M677.099 210.017C676.365 210.017 675.765 209.784 675.297 209.317C674.83 208.783 674.597 208.182 674.597 207.515V142.45C674.597 141.716 674.83 141.115 675.297 140.648C675.765 140.181 676.365 139.947 677.099 139.947H690.513C691.247 139.947 691.847 140.181 692.315 140.648C692.848 141.115 693.115 141.716 693.115 142.45V207.515C693.115 208.182 692.848 208.783 692.315 209.317C691.847 209.784 691.247 210.017 690.513 210.017H677.099Z" fill="#FF4F00"/>
<path d="M731.275 211.018C727.472 211.018 723.835 210.551 720.364 209.617C716.961 208.616 713.925 207.148 711.255 205.212C708.586 203.277 706.451 200.875 704.849 198.005C703.314 195.136 702.48 191.799 702.346 187.995C702.346 187.395 702.547 186.894 702.947 186.494C703.347 186.027 703.881 185.793 704.549 185.793H718.062C718.996 185.793 719.697 186.027 720.164 186.494C720.698 186.961 721.132 187.662 721.466 188.596C721.866 190.464 722.5 191.999 723.367 193.2C724.302 194.335 725.47 195.202 726.871 195.803C728.339 196.337 729.974 196.604 731.776 196.604C735.112 196.604 737.682 195.536 739.484 193.401C741.285 191.198 742.186 187.995 742.186 183.791V154.862H709.754C709.086 154.862 708.486 154.629 707.952 154.161C707.485 153.694 707.251 153.094 707.251 152.36V142.45C707.251 141.716 707.485 141.115 707.952 140.648C708.486 140.181 709.086 139.947 709.754 139.947H758.202C758.936 139.947 759.537 140.181 760.004 140.648C760.538 141.115 760.805 141.716 760.805 142.45V184.292C760.805 190.097 759.537 195.002 757.001 199.006C754.532 202.944 751.062 205.947 746.591 208.015C742.186 210.017 737.081 211.018 731.275 211.018Z" fill="#FF4F00"/>
<path d="M776.711 210.017C775.977 210.017 775.376 209.784 774.909 209.317C774.442 208.783 774.208 208.182 774.208 207.515V142.45C774.208 141.716 774.442 141.115 774.909 140.648C775.376 140.181 775.977 139.947 776.711 139.947H802.737C809.276 139.947 814.849 141.015 819.453 143.15C824.058 145.219 827.595 148.289 830.064 152.36C832.533 156.364 833.868 161.335 834.068 167.275C834.135 170.211 834.168 172.78 834.168 174.982C834.168 177.184 834.135 179.72 834.068 182.59C833.801 188.796 832.466 193.935 830.064 198.005C827.728 202.076 824.291 205.112 819.754 207.114C815.282 209.05 809.777 210.017 803.237 210.017H776.711ZM792.226 195.603H802.737C805.606 195.603 807.975 195.169 809.844 194.302C811.779 193.367 813.214 191.933 814.148 189.997C815.149 188.062 815.683 185.526 815.75 182.39C815.883 180.454 815.95 178.719 815.95 177.184C816.017 175.65 816.017 174.115 815.95 172.58C815.95 171.045 815.883 169.343 815.75 167.475C815.616 162.937 814.415 159.634 812.146 157.565C809.944 155.429 806.64 154.362 802.236 154.362H792.226V195.603Z" fill="#FF4F00"/>
<path d="M254.587 266.929C254.349 266.929 254.147 266.846 253.98 266.68C253.814 266.513 253.73 266.311 253.73 266.073V242.839C253.73 242.577 253.814 242.363 253.98 242.196C254.147 242.03 254.349 241.946 254.587 241.946H270.291C270.552 241.946 270.767 242.03 270.933 242.196C271.1 242.363 271.183 242.577 271.183 242.839V245.194C271.183 245.432 271.1 245.634 270.933 245.801C270.767 245.967 270.552 246.051 270.291 246.051H258.549V252.368H269.506C269.767 252.368 269.981 252.451 270.148 252.618C270.314 252.76 270.398 252.963 270.398 253.224V255.437C270.398 255.699 270.314 255.913 270.148 256.08C269.981 256.222 269.767 256.294 269.506 256.294H258.549V262.825H270.576C270.838 262.825 271.052 262.908 271.219 263.075C271.385 263.241 271.468 263.456 271.468 263.717V266.073C271.468 266.311 271.385 266.513 271.219 266.68C271.052 266.846 270.838 266.929 270.576 266.929H254.587Z" fill="#453730"/>
<path d="M283.359 267.286C280.718 267.286 278.624 266.525 277.078 265.002C275.531 263.479 274.698 261.314 274.579 258.506C274.556 258.269 274.544 257.971 274.544 257.614C274.544 257.234 274.556 256.936 274.579 256.722C274.675 254.914 275.079 253.367 275.793 252.082C276.53 250.774 277.542 249.774 278.826 249.084C280.111 248.37 281.622 248.014 283.359 248.014C285.286 248.014 286.904 248.418 288.213 249.227C289.522 250.012 290.509 251.119 291.175 252.546C291.841 253.95 292.175 255.58 292.175 257.436V258.185C292.175 258.423 292.091 258.625 291.925 258.792C291.758 258.959 291.544 259.042 291.282 259.042H279.433C279.433 259.042 279.433 259.078 279.433 259.149C279.433 259.22 279.433 259.28 279.433 259.327C279.457 260.16 279.612 260.933 279.897 261.647C280.207 262.337 280.647 262.896 281.218 263.325C281.813 263.753 282.514 263.967 283.323 263.967C283.99 263.967 284.549 263.872 285.001 263.682C285.453 263.467 285.822 263.229 286.107 262.968C286.393 262.706 286.595 262.492 286.714 262.325C286.928 262.04 287.095 261.873 287.214 261.826C287.356 261.754 287.559 261.719 287.82 261.719H290.89C291.128 261.719 291.318 261.79 291.461 261.933C291.627 262.075 291.699 262.254 291.675 262.468C291.651 262.849 291.449 263.313 291.068 263.86C290.711 264.407 290.188 264.943 289.498 265.466C288.808 265.99 287.939 266.43 286.892 266.787C285.869 267.12 284.692 267.286 283.359 267.286ZM279.433 256.044H287.321V255.937C287.321 255.009 287.166 254.2 286.857 253.51C286.547 252.796 286.095 252.249 285.501 251.868C284.906 251.464 284.192 251.261 283.359 251.261C282.526 251.261 281.813 251.464 281.218 251.868C280.623 252.249 280.171 252.796 279.861 253.51C279.576 254.2 279.433 255.009 279.433 255.937V256.044Z" fill="#453730"/>
<path d="M296.82 266.929C296.582 266.929 296.379 266.846 296.213 266.68C296.046 266.513 295.963 266.311 295.963 266.073V249.227C295.963 248.989 296.046 248.787 296.213 248.62C296.379 248.454 296.582 248.37 296.82 248.37H299.746C299.984 248.37 300.186 248.454 300.353 248.62C300.519 248.787 300.603 248.989 300.603 249.227V250.69C301.221 249.929 302.007 249.298 302.958 248.799C303.934 248.275 305.135 248.014 306.563 248.014C308.014 248.014 309.275 248.347 310.346 249.013C311.417 249.655 312.238 250.571 312.809 251.761C313.404 252.951 313.701 254.378 313.701 256.044V266.073C313.701 266.311 313.618 266.513 313.451 266.68C313.285 266.846 313.082 266.929 312.844 266.929H309.704C309.466 266.929 309.264 266.846 309.097 266.68C308.93 266.513 308.847 266.311 308.847 266.073V256.258C308.847 254.878 308.502 253.795 307.812 253.01C307.146 252.225 306.17 251.832 304.886 251.832C303.648 251.832 302.661 252.225 301.923 253.01C301.186 253.795 300.817 254.878 300.817 256.258V266.073C300.817 266.311 300.734 266.513 300.567 266.68C300.401 266.846 300.198 266.929 299.96 266.929H296.82Z" fill="#453730"/>
<path d="M318.163 266.929C317.901 266.929 317.687 266.846 317.521 266.68C317.378 266.513 317.307 266.311 317.307 266.073V264.038C317.307 263.824 317.354 263.622 317.449 263.432C317.568 263.218 317.687 263.039 317.806 262.896L326.943 252.082H318.449C318.211 252.082 318.008 252.011 317.842 251.868C317.675 251.702 317.592 251.487 317.592 251.226V249.227C317.592 248.989 317.675 248.787 317.842 248.62C318.008 248.454 318.211 248.37 318.449 248.37H331.975C332.237 248.37 332.439 248.454 332.582 248.62C332.748 248.787 332.832 248.989 332.832 249.227V251.404C332.832 251.618 332.784 251.809 332.689 251.975C332.594 252.142 332.475 252.308 332.332 252.475L323.41 263.218H332.725C332.963 263.218 333.165 263.301 333.331 263.467C333.498 263.61 333.581 263.812 333.581 264.074V266.073C333.581 266.311 333.498 266.513 333.331 266.68C333.165 266.846 332.963 266.929 332.725 266.929H318.163Z" fill="#453730"/>
<path d="M342.584 267.286C341.347 267.286 340.229 267.048 339.229 266.572C338.23 266.073 337.433 265.418 336.838 264.609C336.267 263.777 335.981 262.849 335.981 261.826C335.981 260.16 336.66 258.84 338.016 257.864C339.372 256.865 341.145 256.199 343.334 255.865L348.223 255.152V254.402C348.223 253.403 347.973 252.629 347.474 252.082C346.974 251.535 346.117 251.261 344.904 251.261C344.047 251.261 343.345 251.44 342.798 251.797C342.275 252.13 341.882 252.582 341.62 253.153C341.43 253.462 341.157 253.617 340.8 253.617H337.98C337.718 253.617 337.516 253.546 337.373 253.403C337.254 253.26 337.195 253.07 337.195 252.832C337.219 252.451 337.373 251.987 337.659 251.44C337.968 250.893 338.42 250.369 339.015 249.869C339.634 249.346 340.431 248.906 341.406 248.549C342.382 248.192 343.56 248.014 344.94 248.014C346.439 248.014 347.7 248.204 348.723 248.585C349.77 248.942 350.602 249.429 351.221 250.048C351.84 250.667 352.292 251.392 352.577 252.225C352.863 253.058 353.006 253.938 353.006 254.866V266.073C353.006 266.311 352.922 266.513 352.756 266.68C352.589 266.846 352.387 266.929 352.149 266.929H349.258C348.996 266.929 348.782 266.846 348.616 266.68C348.473 266.513 348.402 266.311 348.402 266.073V264.681C348.092 265.109 347.676 265.526 347.152 265.93C346.629 266.335 345.987 266.668 345.225 266.929C344.488 267.167 343.607 267.286 342.584 267.286ZM343.798 263.896C344.63 263.896 345.38 263.717 346.046 263.36C346.736 263.003 347.271 262.456 347.652 261.719C348.057 260.957 348.259 260.005 348.259 258.863V258.114L344.69 258.685C343.286 258.899 342.239 259.244 341.549 259.72C340.859 260.196 340.514 260.779 340.514 261.469C340.514 261.992 340.669 262.444 340.978 262.825C341.311 263.182 341.728 263.456 342.227 263.646C342.727 263.812 343.25 263.896 343.798 263.896Z" fill="#453730"/>
<path d="M362.973 267.286C361.736 267.286 360.618 267.048 359.619 266.572C358.619 266.073 357.822 265.418 357.227 264.609C356.656 263.777 356.371 262.849 356.371 261.826C356.371 260.16 357.049 258.84 358.405 257.864C359.761 256.865 361.534 256.199 363.723 255.865L368.613 255.152V254.402C368.613 253.403 368.363 252.629 367.863 252.082C367.363 251.535 366.507 251.261 365.293 251.261C364.437 251.261 363.735 251.44 363.188 251.797C362.664 252.13 362.272 252.582 362.01 253.153C361.82 253.462 361.546 253.617 361.189 253.617H358.369C358.108 253.617 357.905 253.546 357.763 253.403C357.644 253.26 357.584 253.07 357.584 252.832C357.608 252.451 357.763 251.987 358.048 251.44C358.358 250.893 358.81 250.369 359.404 249.869C360.023 249.346 360.82 248.906 361.796 248.549C362.771 248.192 363.949 248.014 365.329 248.014C366.828 248.014 368.089 248.204 369.112 248.585C370.159 248.942 370.992 249.429 371.61 250.048C372.229 250.667 372.681 251.392 372.967 252.225C373.252 253.058 373.395 253.938 373.395 254.866V266.073C373.395 266.311 373.312 266.513 373.145 266.68C372.979 266.846 372.776 266.929 372.538 266.929H369.648C369.386 266.929 369.172 266.846 369.005 266.68C368.862 266.513 368.791 266.311 368.791 266.073V264.681C368.482 265.109 368.065 265.526 367.542 265.93C367.018 266.335 366.376 266.668 365.615 266.929C364.877 267.167 363.997 267.286 362.973 267.286ZM364.187 263.896C365.02 263.896 365.769 263.717 366.435 263.36C367.125 263.003 367.661 262.456 368.041 261.719C368.446 260.957 368.648 260.005 368.648 258.863V258.114L365.079 258.685C363.675 258.899 362.628 259.244 361.938 259.72C361.248 260.196 360.903 260.779 360.903 261.469C360.903 261.992 361.058 262.444 361.367 262.825C361.701 263.182 362.117 263.456 362.617 263.646C363.116 263.812 363.64 263.896 364.187 263.896Z" fill="#453730"/>
<path d="M378.83 266.929C378.592 266.929 378.39 266.846 378.223 266.68C378.057 266.513 377.974 266.311 377.974 266.073V249.227C377.974 248.989 378.057 248.787 378.223 248.62C378.39 248.454 378.592 248.37 378.83 248.37H381.614C381.852 248.37 382.054 248.454 382.221 248.62C382.387 248.787 382.471 248.989 382.471 249.227V250.441C382.97 249.774 383.637 249.215 384.469 248.763C385.326 248.287 386.337 248.037 387.503 248.014C390.215 247.966 392.107 249.025 393.178 251.19C393.725 250.238 394.51 249.477 395.533 248.906C396.58 248.311 397.734 248.014 398.995 248.014C400.232 248.014 401.351 248.299 402.35 248.87C403.373 249.441 404.17 250.31 404.741 251.476C405.336 252.618 405.634 254.069 405.634 255.83V266.073C405.634 266.311 405.55 266.513 405.384 266.68C405.217 266.846 405.015 266.929 404.777 266.929H401.85C401.612 266.929 401.41 266.846 401.244 266.68C401.077 266.513 400.994 266.311 400.994 266.073V256.115C400.994 255.045 400.839 254.2 400.53 253.581C400.221 252.939 399.804 252.487 399.281 252.225C398.757 251.963 398.174 251.832 397.532 251.832C397.008 251.832 396.485 251.963 395.961 252.225C395.438 252.487 395.01 252.939 394.677 253.581C394.344 254.2 394.177 255.045 394.177 256.115V266.073C394.177 266.311 394.094 266.513 393.927 266.68C393.761 266.846 393.558 266.929 393.32 266.929H390.394C390.156 266.929 389.954 266.846 389.787 266.68C389.621 266.513 389.537 266.311 389.537 266.073V256.115C389.537 255.045 389.371 254.2 389.038 253.581C388.704 252.939 388.276 252.487 387.753 252.225C387.229 251.963 386.67 251.832 386.075 251.832C385.528 251.832 384.993 251.975 384.469 252.261C383.946 252.522 383.518 252.963 383.184 253.581C382.851 254.2 382.685 255.045 382.685 256.115V266.073C382.685 266.311 382.601 266.513 382.435 266.68C382.268 266.846 382.066 266.929 381.828 266.929H378.83Z" fill="#453730"/>
<path d="M411.071 266.929C410.833 266.929 410.63 266.846 410.464 266.68C410.297 266.513 410.214 266.311 410.214 266.073V242.446C410.214 242.208 410.297 242.006 410.464 241.839C410.63 241.673 410.833 241.589 411.071 241.589H414.247C414.509 241.589 414.711 241.673 414.854 241.839C415.02 242.006 415.104 242.208 415.104 242.446V250.583C415.746 249.822 416.531 249.203 417.459 248.727C418.387 248.252 419.529 248.014 420.885 248.014C422.337 248.014 423.598 248.347 424.669 249.013C425.763 249.655 426.608 250.571 427.203 251.761C427.797 252.951 428.095 254.378 428.095 256.044V266.073C428.095 266.311 428.012 266.513 427.845 266.68C427.678 266.846 427.476 266.929 427.238 266.929H424.026C423.788 266.929 423.586 266.846 423.419 266.68C423.253 266.513 423.17 266.311 423.17 266.073V256.258C423.17 254.878 422.825 253.795 422.135 253.01C421.468 252.225 420.493 251.832 419.208 251.832C417.971 251.832 416.971 252.225 416.21 253.01C415.472 253.795 415.104 254.878 415.104 256.258V266.073C415.104 266.311 415.02 266.513 414.854 266.68C414.711 266.846 414.509 266.929 414.247 266.929H411.071Z" fill="#453730"/>
<path d="M440.619 267.286C437.978 267.286 435.884 266.525 434.337 265.002C432.791 263.479 431.958 261.314 431.839 258.506C431.815 258.269 431.803 257.971 431.803 257.614C431.803 257.234 431.815 256.936 431.839 256.722C431.934 254.914 432.339 253.367 433.052 252.082C433.79 250.774 434.801 249.774 436.086 249.084C437.371 248.37 438.882 248.014 440.619 248.014C442.546 248.014 444.164 248.418 445.473 249.227C446.781 250.012 447.769 251.119 448.435 252.546C449.101 253.95 449.434 255.58 449.434 257.436V258.185C449.434 258.423 449.351 258.625 449.184 258.792C449.018 258.959 448.804 259.042 448.542 259.042H436.693C436.693 259.042 436.693 259.078 436.693 259.149C436.693 259.22 436.693 259.28 436.693 259.327C436.717 260.16 436.871 260.933 437.157 261.647C437.466 262.337 437.906 262.896 438.477 263.325C439.072 263.753 439.774 263.967 440.583 263.967C441.249 263.967 441.808 263.872 442.26 263.682C442.713 263.467 443.081 263.229 443.367 262.968C443.652 262.706 443.855 262.492 443.974 262.325C444.188 262.04 444.354 261.873 444.473 261.826C444.616 261.754 444.818 261.719 445.08 261.719H448.149C448.387 261.719 448.578 261.79 448.72 261.933C448.887 262.075 448.958 262.254 448.935 262.468C448.911 262.849 448.709 263.313 448.328 263.86C447.971 264.407 447.447 264.943 446.757 265.466C446.067 265.99 445.199 266.43 444.152 266.787C443.129 267.12 441.951 267.286 440.619 267.286ZM436.693 256.044H444.58V255.937C444.58 255.009 444.426 254.2 444.116 253.51C443.807 252.796 443.355 252.249 442.76 251.868C442.165 251.464 441.452 251.261 440.619 251.261C439.786 251.261 439.072 251.464 438.477 251.868C437.883 252.249 437.43 252.796 437.121 253.51C436.836 254.2 436.693 255.009 436.693 255.937V256.044Z" fill="#453730"/>
<path d="M454.079 266.929C453.841 266.929 453.639 266.846 453.472 266.68C453.306 266.513 453.223 266.311 453.223 266.073V249.227C453.223 248.989 453.306 248.787 453.472 248.62C453.639 248.454 453.841 248.37 454.079 248.37H457.042C457.303 248.37 457.505 248.454 457.648 248.62C457.815 248.787 457.898 248.989 457.898 249.227V266.073C457.898 266.311 457.815 266.513 457.648 266.68C457.505 266.846 457.303 266.929 457.042 266.929H454.079ZM453.936 245.301C453.699 245.301 453.496 245.218 453.33 245.051C453.163 244.885 453.08 244.682 453.08 244.445V241.875C453.08 241.637 453.163 241.435 453.33 241.268C453.496 241.102 453.699 241.018 453.936 241.018H457.184C457.446 241.018 457.66 241.102 457.827 241.268C457.993 241.435 458.077 241.637 458.077 241.875V244.445C458.077 244.682 457.993 244.885 457.827 245.051C457.66 245.218 457.446 245.301 457.184 245.301H453.936Z" fill="#453730"/>
<path d="M469.521 267.286C468.284 267.286 467.19 267.084 466.238 266.68C465.31 266.251 464.537 265.656 463.918 264.895C463.299 264.134 462.824 263.241 462.49 262.218C462.157 261.171 461.967 260.029 461.919 258.792C461.896 258.364 461.884 257.983 461.884 257.65C461.884 257.293 461.896 256.9 461.919 256.472C461.967 255.282 462.145 254.176 462.455 253.153C462.788 252.13 463.264 251.238 463.882 250.476C464.525 249.691 465.31 249.084 466.238 248.656C467.19 248.228 468.284 248.014 469.521 248.014C470.806 248.014 471.889 248.24 472.769 248.692C473.673 249.12 474.423 249.679 475.018 250.369V242.446C475.018 242.208 475.089 242.006 475.232 241.839C475.398 241.673 475.612 241.589 475.874 241.589H478.908C479.146 241.589 479.348 241.673 479.515 241.839C479.681 242.006 479.764 242.208 479.764 242.446V266.073C479.764 266.311 479.681 266.513 479.515 266.68C479.348 266.846 479.146 266.929 478.908 266.929H476.088C475.827 266.929 475.612 266.846 475.446 266.68C475.303 266.513 475.232 266.311 475.232 266.073V264.752C474.637 265.49 473.876 266.097 472.948 266.572C472.043 267.048 470.901 267.286 469.521 267.286ZM470.842 263.467C471.841 263.467 472.638 263.241 473.233 262.789C473.828 262.337 474.268 261.766 474.554 261.076C474.839 260.362 474.994 259.637 475.018 258.899C475.041 258.471 475.053 258.019 475.053 257.543C475.053 257.043 475.041 256.579 475.018 256.151C474.994 255.437 474.827 254.759 474.518 254.117C474.209 253.45 473.757 252.903 473.162 252.475C472.567 252.047 471.794 251.832 470.842 251.832C469.843 251.832 469.045 252.058 468.451 252.511C467.88 252.939 467.463 253.51 467.201 254.224C466.94 254.937 466.785 255.723 466.738 256.579C466.714 257.293 466.714 258.007 466.738 258.721C466.785 259.577 466.94 260.362 467.201 261.076C467.463 261.79 467.88 262.373 468.451 262.825C469.045 263.253 469.843 263.467 470.842 263.467Z" fill="#453730"/>
<path d="M493.534 266.929C493.296 266.929 493.093 266.846 492.927 266.68C492.76 266.513 492.677 266.311 492.677 266.073V249.227C492.677 248.989 492.76 248.787 492.927 248.62C493.093 248.454 493.296 248.37 493.534 248.37H496.496C496.758 248.37 496.96 248.454 497.103 248.62C497.269 248.787 497.352 248.989 497.352 249.227V266.073C497.352 266.311 497.269 266.513 497.103 266.68C496.96 266.846 496.758 266.929 496.496 266.929H493.534ZM493.391 245.301C493.153 245.301 492.951 245.218 492.784 245.051C492.618 244.885 492.534 244.682 492.534 244.445V241.875C492.534 241.637 492.618 241.435 492.784 241.268C492.951 241.102 493.153 241.018 493.391 241.018H496.639C496.9 241.018 497.114 241.102 497.281 241.268C497.448 241.435 497.531 241.637 497.531 241.875V244.445C497.531 244.682 497.448 244.885 497.281 245.051C497.114 245.218 496.9 245.301 496.639 245.301H493.391Z" fill="#453730"/>
<path d="M502.944 266.929C502.706 266.929 502.504 266.846 502.337 266.68C502.171 266.513 502.087 266.311 502.087 266.073V249.227C502.087 248.989 502.171 248.787 502.337 248.62C502.504 248.454 502.706 248.37 502.944 248.37H505.871C506.109 248.37 506.311 248.454 506.477 248.62C506.644 248.787 506.727 248.989 506.727 249.227V250.69C507.346 249.929 508.131 249.298 509.083 248.799C510.058 248.275 511.26 248.014 512.687 248.014C514.139 248.014 515.4 248.347 516.471 249.013C517.541 249.655 518.362 250.571 518.933 251.761C519.528 252.951 519.825 254.378 519.825 256.044V266.073C519.825 266.311 519.742 266.513 519.576 266.68C519.409 266.846 519.207 266.929 518.969 266.929H515.828C515.59 266.929 515.388 266.846 515.221 266.68C515.055 266.513 514.972 266.311 514.972 266.073V256.258C514.972 254.878 514.627 253.795 513.937 253.01C513.27 252.225 512.295 251.832 511.01 251.832C509.773 251.832 508.785 252.225 508.048 253.01C507.31 253.795 506.941 254.878 506.941 256.258V266.073C506.941 266.311 506.858 266.513 506.691 266.68C506.525 266.846 506.323 266.929 506.085 266.929H502.944Z" fill="#453730"/>
<path d="M539.403 267.286C538.166 267.286 537.071 267.084 536.119 266.68C535.191 266.251 534.418 265.656 533.8 264.895C533.181 264.134 532.705 263.241 532.372 262.218C532.039 261.171 531.848 260.029 531.801 258.792C531.777 258.364 531.765 257.983 531.765 257.65C531.765 257.293 531.777 256.9 531.801 256.472C531.848 255.282 532.027 254.176 532.336 253.153C532.669 252.13 533.145 251.238 533.764 250.476C534.406 249.691 535.191 249.084 536.119 248.656C537.071 248.228 538.166 248.014 539.403 248.014C540.688 248.014 541.77 248.24 542.651 248.692C543.555 249.12 544.304 249.679 544.899 250.369V242.446C544.899 242.208 544.971 242.006 545.113 241.839C545.28 241.673 545.494 241.589 545.756 241.589H548.789C549.027 241.589 549.23 241.673 549.396 241.839C549.563 242.006 549.646 242.208 549.646 242.446V266.073C549.646 266.311 549.563 266.513 549.396 266.68C549.23 266.846 549.027 266.929 548.789 266.929H545.97C545.708 266.929 545.494 266.846 545.327 266.68C545.185 266.513 545.113 266.311 545.113 266.073V264.752C544.518 265.49 543.757 266.097 542.829 266.572C541.925 267.048 540.783 267.286 539.403 267.286ZM540.723 263.467C541.723 263.467 542.52 263.241 543.115 262.789C543.709 262.337 544.15 261.766 544.435 261.076C544.721 260.362 544.875 259.637 544.899 258.899C544.923 258.471 544.935 258.019 544.935 257.543C544.935 257.043 544.923 256.579 544.899 256.151C544.875 255.437 544.709 254.759 544.399 254.117C544.09 253.45 543.638 252.903 543.043 252.475C542.448 252.047 541.675 251.832 540.723 251.832C539.724 251.832 538.927 252.058 538.332 252.511C537.761 252.939 537.345 253.51 537.083 254.224C536.821 254.937 536.667 255.723 536.619 256.579C536.595 257.293 536.595 258.007 536.619 258.721C536.667 259.577 536.821 260.362 537.083 261.076C537.345 261.79 537.761 262.373 538.332 262.825C538.927 263.253 539.724 263.467 540.723 263.467Z" fill="#453730"/>
<path d="M562.397 267.286C559.756 267.286 557.662 266.525 556.116 265.002C554.569 263.479 553.737 261.314 553.618 258.506C553.594 258.269 553.582 257.971 553.582 257.614C553.582 257.234 553.594 256.936 553.618 256.722C553.713 254.914 554.117 253.367 554.831 252.082C555.569 250.774 556.58 249.774 557.865 249.084C559.15 248.37 560.66 248.014 562.397 248.014C564.325 248.014 565.943 248.418 567.251 249.227C568.56 250.012 569.547 251.119 570.214 252.546C570.88 253.95 571.213 255.58 571.213 257.436V258.185C571.213 258.423 571.13 258.625 570.963 258.792C570.796 258.959 570.582 259.042 570.321 259.042H558.471C558.471 259.042 558.471 259.078 558.471 259.149C558.471 259.22 558.471 259.28 558.471 259.327C558.495 260.16 558.65 260.933 558.935 261.647C559.245 262.337 559.685 262.896 560.256 263.325C560.851 263.753 561.553 263.967 562.362 263.967C563.028 263.967 563.587 263.872 564.039 263.682C564.491 263.467 564.86 263.229 565.146 262.968C565.431 262.706 565.633 262.492 565.752 262.325C565.966 262.04 566.133 261.873 566.252 261.826C566.395 261.754 566.597 261.719 566.859 261.719H569.928C570.166 261.719 570.356 261.79 570.499 261.933C570.666 262.075 570.737 262.254 570.713 262.468C570.689 262.849 570.487 263.313 570.106 263.86C569.75 264.407 569.226 264.943 568.536 265.466C567.846 265.99 566.978 266.43 565.931 266.787C564.908 267.12 563.73 267.286 562.397 267.286ZM558.471 256.044H566.359V255.937C566.359 255.009 566.204 254.2 565.895 253.51C565.586 252.796 565.134 252.249 564.539 251.868C563.944 251.464 563.23 251.261 562.397 251.261C561.565 251.261 560.851 251.464 560.256 251.868C559.661 252.249 559.209 252.796 558.9 253.51C558.614 254.2 558.471 255.009 558.471 255.937V256.044Z" fill="#453730"/>
<path d="M593.222 267.286C591.009 267.286 589.129 266.906 587.583 266.144C586.06 265.359 584.894 264.253 584.085 262.825C583.276 261.374 582.824 259.637 582.729 257.614C582.705 256.639 582.693 255.592 582.693 254.473C582.693 253.355 582.705 252.284 582.729 251.261C582.824 249.263 583.276 247.538 584.085 246.086C584.918 244.635 586.096 243.529 587.618 242.767C589.165 241.982 591.033 241.589 593.222 241.589C594.84 241.589 596.291 241.803 597.576 242.232C598.861 242.66 599.955 243.255 600.859 244.016C601.763 244.754 602.465 245.622 602.965 246.622C603.465 247.621 603.726 248.704 603.75 249.869C603.774 250.084 603.703 250.262 603.536 250.405C603.393 250.548 603.215 250.619 603.001 250.619H599.61C599.348 250.619 599.134 250.559 598.968 250.441C598.801 250.298 598.682 250.072 598.611 249.762C598.23 248.192 597.576 247.121 596.648 246.55C595.72 245.979 594.566 245.694 593.186 245.694C591.592 245.694 590.319 246.146 589.367 247.05C588.415 247.93 587.904 249.394 587.832 251.44C587.761 253.391 587.761 255.39 587.832 257.436C587.904 259.482 588.415 260.957 589.367 261.861C590.319 262.742 591.592 263.182 593.186 263.182C594.566 263.182 595.72 262.896 596.648 262.325C597.6 261.73 598.254 260.66 598.611 259.113C598.682 258.78 598.801 258.554 598.968 258.435C599.134 258.316 599.348 258.257 599.61 258.257H603.001C603.215 258.257 603.393 258.328 603.536 258.471C603.703 258.614 603.774 258.792 603.75 259.006C603.726 260.172 603.465 261.255 602.965 262.254C602.465 263.253 601.763 264.134 600.859 264.895C599.955 265.633 598.861 266.216 597.576 266.644C596.291 267.072 594.84 267.286 593.222 267.286Z" fill="#453730"/>
<path d="M615.763 267.286C613.86 267.286 612.254 266.953 610.945 266.287C609.66 265.621 608.673 264.681 607.983 263.467C607.317 262.254 606.936 260.838 606.841 259.22C606.817 258.792 606.805 258.269 606.805 257.65C606.805 257.031 606.817 256.508 606.841 256.08C606.936 254.438 607.329 253.022 608.019 251.832C608.732 250.619 609.732 249.679 611.017 249.013C612.325 248.347 613.907 248.014 615.763 248.014C617.619 248.014 619.19 248.347 620.474 249.013C621.783 249.679 622.782 250.619 623.472 251.832C624.186 253.022 624.591 254.438 624.686 256.08C624.71 256.508 624.722 257.031 624.722 257.65C624.722 258.269 624.71 258.792 624.686 259.22C624.591 260.838 624.198 262.254 623.508 263.467C622.842 264.681 621.854 265.621 620.546 266.287C619.261 266.953 617.667 267.286 615.763 267.286ZM615.763 263.753C617.024 263.753 618 263.36 618.69 262.575C619.38 261.766 619.761 260.588 619.832 259.042C619.856 258.685 619.868 258.221 619.868 257.65C619.868 257.079 619.856 256.615 619.832 256.258C619.761 254.711 619.38 253.546 618.69 252.76C618 251.951 617.024 251.547 615.763 251.547C614.502 251.547 613.527 251.951 612.837 252.76C612.147 253.546 611.766 254.711 611.695 256.258C611.671 256.615 611.659 257.079 611.659 257.65C611.659 258.221 611.671 258.685 611.695 259.042C611.766 260.588 612.147 261.766 612.837 262.575C613.527 263.36 614.502 263.753 615.763 263.753Z" fill="#453730"/>
<path d="M629.532 266.929C629.295 266.929 629.092 266.846 628.926 266.68C628.759 266.513 628.676 266.311 628.676 266.073V249.263C628.676 249.001 628.759 248.787 628.926 248.62C629.092 248.454 629.295 248.37 629.532 248.37H632.423C632.661 248.37 632.864 248.454 633.03 248.62C633.22 248.787 633.316 249.001 633.316 249.263V250.726C633.863 249.965 634.565 249.382 635.421 248.977C636.302 248.573 637.313 248.37 638.455 248.37H639.918C640.18 248.37 640.382 248.454 640.525 248.62C640.692 248.787 640.775 248.989 640.775 249.227V251.797C640.775 252.035 640.692 252.237 640.525 252.403C640.382 252.57 640.18 252.653 639.918 252.653H637.134C635.992 252.653 635.1 252.975 634.458 253.617C633.839 254.236 633.53 255.116 633.53 256.258V266.073C633.53 266.311 633.446 266.513 633.28 266.68C633.113 266.846 632.899 266.929 632.637 266.929H629.532Z" fill="#453730"/>
<path d="M651.523 267.286C649.62 267.286 648.014 266.953 646.705 266.287C645.42 265.621 644.433 264.681 643.743 263.467C643.076 262.254 642.696 260.838 642.601 259.22C642.577 258.792 642.565 258.269 642.565 257.65C642.565 257.031 642.577 256.508 642.601 256.08C642.696 254.438 643.088 253.022 643.778 251.832C644.492 250.619 645.491 249.679 646.776 249.013C648.085 248.347 649.667 248.014 651.523 248.014C653.379 248.014 654.949 248.347 656.234 249.013C657.543 249.679 658.542 250.619 659.232 251.832C659.946 253.022 660.35 254.438 660.446 256.08C660.469 256.508 660.481 257.031 660.481 257.65C660.481 258.269 660.469 258.792 660.446 259.22C660.35 260.838 659.958 262.254 659.268 263.467C658.602 264.681 657.614 265.621 656.306 266.287C655.021 266.953 653.427 267.286 651.523 267.286ZM651.523 263.753C652.784 263.753 653.76 263.36 654.45 262.575C655.14 261.766 655.52 260.588 655.592 259.042C655.616 258.685 655.628 258.221 655.628 257.65C655.628 257.079 655.616 256.615 655.592 256.258C655.52 254.711 655.14 253.546 654.45 252.76C653.76 251.951 652.784 251.547 651.523 251.547C650.262 251.547 649.287 251.951 648.597 252.76C647.907 253.546 647.526 254.711 647.454 256.258C647.431 256.615 647.419 257.079 647.419 257.65C647.419 258.221 647.431 258.685 647.454 259.042C647.526 260.588 647.907 261.766 648.597 262.575C649.287 263.36 650.262 263.753 651.523 263.753Z" fill="#453730"/>
<path d="M665.292 266.929C665.054 266.929 664.852 266.846 664.686 266.68C664.519 266.513 664.436 266.311 664.436 266.073V249.227C664.436 248.989 664.519 248.787 664.686 248.62C664.852 248.454 665.054 248.37 665.292 248.37H668.219C668.457 248.37 668.659 248.454 668.826 248.62C668.992 248.787 669.075 248.989 669.075 249.227V250.69C669.694 249.929 670.479 249.298 671.431 248.799C672.407 248.275 673.608 248.014 675.036 248.014C676.487 248.014 677.748 248.347 678.819 249.013C679.89 249.655 680.71 250.571 681.281 251.761C681.876 252.951 682.174 254.378 682.174 256.044V266.073C682.174 266.311 682.09 266.513 681.924 266.68C681.757 266.846 681.555 266.929 681.317 266.929H678.176C677.938 266.929 677.736 266.846 677.57 266.68C677.403 266.513 677.32 266.311 677.32 266.073V256.258C677.32 254.878 676.975 253.795 676.285 253.01C675.619 252.225 674.643 251.832 673.358 251.832C672.121 251.832 671.134 252.225 670.396 253.01C669.658 253.795 669.29 254.878 669.29 256.258V266.073C669.29 266.311 669.206 266.513 669.04 266.68C668.873 266.846 668.671 266.929 668.433 266.929H665.292Z" fill="#453730"/>
<path d="M692.096 267.286C690.859 267.286 689.741 267.048 688.742 266.572C687.742 266.073 686.945 265.418 686.35 264.609C685.779 263.777 685.494 262.849 685.494 261.826C685.494 260.16 686.172 258.84 687.528 257.864C688.884 256.865 690.657 256.199 692.846 255.865L697.735 255.152V254.402C697.735 253.403 697.486 252.629 696.986 252.082C696.486 251.535 695.63 251.261 694.416 251.261C693.56 251.261 692.858 251.44 692.311 251.797C691.787 252.13 691.394 252.582 691.133 253.153C690.942 253.462 690.669 253.617 690.312 253.617H687.492C687.231 253.617 687.028 253.546 686.886 253.403C686.767 253.26 686.707 253.07 686.707 252.832C686.731 252.451 686.886 251.987 687.171 251.44C687.48 250.893 687.933 250.369 688.527 249.869C689.146 249.346 689.943 248.906 690.919 248.549C691.894 248.192 693.072 248.014 694.452 248.014C695.951 248.014 697.212 248.204 698.235 248.585C699.282 248.942 700.115 249.429 700.733 250.048C701.352 250.667 701.804 251.392 702.09 252.225C702.375 253.058 702.518 253.938 702.518 254.866V266.073C702.518 266.311 702.435 266.513 702.268 266.68C702.102 266.846 701.899 266.929 701.661 266.929H698.77C698.509 266.929 698.295 266.846 698.128 266.68C697.985 266.513 697.914 266.311 697.914 266.073V264.681C697.605 265.109 697.188 265.526 696.665 265.93C696.141 266.335 695.499 266.668 694.737 266.929C694 267.167 693.12 267.286 692.096 267.286ZM693.31 263.896C694.143 263.896 694.892 263.717 695.558 263.36C696.248 263.003 696.784 262.456 697.164 261.719C697.569 260.957 697.771 260.005 697.771 258.863V258.114L694.202 258.685C692.798 258.899 691.751 259.244 691.061 259.72C690.371 260.196 690.026 260.779 690.026 261.469C690.026 261.992 690.181 262.444 690.49 262.825C690.823 263.182 691.24 263.456 691.739 263.646C692.239 263.812 692.763 263.896 693.31 263.896Z" fill="#453730"/>
<path d="M707.989 273.71C707.751 273.71 707.549 273.627 707.382 273.461C707.216 273.294 707.132 273.092 707.132 272.854V249.227C707.132 248.989 707.216 248.787 707.382 248.62C707.549 248.454 707.751 248.37 707.989 248.37H710.808C711.07 248.37 711.272 248.454 711.415 248.62C711.582 248.787 711.665 248.989 711.665 249.227V250.655C712.236 249.893 712.985 249.263 713.913 248.763C714.841 248.263 715.995 248.014 717.375 248.014C718.636 248.014 719.731 248.216 720.659 248.62C721.587 249.025 722.36 249.608 722.979 250.369C723.597 251.107 724.073 251.987 724.406 253.01C724.739 254.033 724.93 255.163 724.977 256.401C725.001 256.805 725.013 257.222 725.013 257.65C725.013 258.078 725.001 258.506 724.977 258.935C724.954 260.124 724.775 261.231 724.442 262.254C724.109 263.253 723.621 264.134 722.979 264.895C722.36 265.633 721.587 266.216 720.659 266.644C719.731 267.072 718.636 267.286 717.375 267.286C716.09 267.286 714.996 267.06 714.092 266.608C713.188 266.132 712.45 265.514 711.879 264.752V272.854C711.879 273.092 711.796 273.294 711.629 273.461C711.486 273.627 711.284 273.71 711.022 273.71H707.989ZM716.055 263.467C717.078 263.467 717.875 263.253 718.446 262.825C719.017 262.373 719.433 261.79 719.695 261.076C719.957 260.362 720.112 259.577 720.159 258.721C720.183 258.007 720.183 257.293 720.159 256.579C720.112 255.723 719.957 254.937 719.695 254.224C719.433 253.51 719.017 252.939 718.446 252.511C717.875 252.058 717.078 251.832 716.055 251.832C715.079 251.832 714.282 252.058 713.664 252.511C713.069 252.963 712.629 253.546 712.343 254.259C712.081 254.949 711.927 255.663 711.879 256.401C711.855 256.829 711.843 257.281 711.843 257.757C711.843 258.233 711.855 258.697 711.879 259.149C711.903 259.863 712.069 260.553 712.379 261.219C712.688 261.861 713.14 262.397 713.735 262.825C714.33 263.253 715.103 263.467 716.055 263.467Z" fill="#453730"/>
<path d="M737.014 267.286C734.373 267.286 732.279 266.525 730.733 265.002C729.186 263.479 728.353 261.314 728.234 258.506C728.211 258.269 728.199 257.971 728.199 257.614C728.199 257.234 728.211 256.936 728.234 256.722C728.33 254.914 728.734 253.367 729.448 252.082C730.185 250.774 731.197 249.774 732.481 249.084C733.766 248.37 735.277 248.014 737.014 248.014C738.941 248.014 740.559 248.418 741.868 249.227C743.177 250.012 744.164 251.119 744.83 252.546C745.496 253.95 745.83 255.58 745.83 257.436V258.185C745.83 258.423 745.746 258.625 745.58 258.792C745.413 258.959 745.199 259.042 744.937 259.042H733.088C733.088 259.042 733.088 259.078 733.088 259.149C733.088 259.22 733.088 259.28 733.088 259.327C733.112 260.16 733.267 260.933 733.552 261.647C733.861 262.337 734.302 262.896 734.873 263.325C735.468 263.753 736.169 263.967 736.978 263.967C737.645 263.967 738.204 263.872 738.656 263.682C739.108 263.467 739.477 263.229 739.762 262.968C740.048 262.706 740.25 262.492 740.369 262.325C740.583 262.04 740.75 261.873 740.869 261.826C741.011 261.754 741.214 261.719 741.475 261.719H744.545C744.783 261.719 744.973 261.79 745.116 261.933C745.282 262.075 745.354 262.254 745.33 262.468C745.306 262.849 745.104 263.313 744.723 263.86C744.366 264.407 743.843 264.943 743.153 265.466C742.463 265.99 741.594 266.43 740.547 266.787C739.524 267.12 738.347 267.286 737.014 267.286ZM733.088 256.044H740.976V255.937C740.976 255.009 740.821 254.2 740.512 253.51C740.202 252.796 739.75 252.249 739.156 251.868C738.561 251.464 737.847 251.261 737.014 251.261C736.181 251.261 735.468 251.464 734.873 251.868C734.278 252.249 733.826 252.796 733.516 253.51C733.231 254.2 733.088 255.009 733.088 255.937V256.044Z" fill="#453730"/>
<path d="M750.475 266.929C750.237 266.929 750.034 266.846 749.868 266.68C749.701 266.513 749.618 266.311 749.618 266.073V249.263C749.618 249.001 749.701 248.787 749.868 248.62C750.034 248.454 750.237 248.37 750.475 248.37H753.365C753.603 248.37 753.806 248.454 753.972 248.62C754.163 248.787 754.258 249.001 754.258 249.263V250.726C754.805 249.965 755.507 249.382 756.363 248.977C757.244 248.573 758.255 248.37 759.397 248.37H760.86C761.122 248.37 761.324 248.454 761.467 248.62C761.634 248.787 761.717 248.989 761.717 249.227V251.797C761.717 252.035 761.634 252.237 761.467 252.403C761.324 252.57 761.122 252.653 760.86 252.653H758.077C756.935 252.653 756.042 252.975 755.4 253.617C754.781 254.236 754.472 255.116 754.472 256.258V266.073C754.472 266.311 754.389 266.513 754.222 266.68C754.055 266.846 753.841 266.929 753.58 266.929H750.475Z" fill="#453730"/>
<path d="M765.357 266.929C765.119 266.929 764.917 266.846 764.75 266.68C764.584 266.513 764.501 266.311 764.501 266.073V249.227C764.501 248.989 764.584 248.787 764.75 248.62C764.917 248.454 765.119 248.37 765.357 248.37H768.319C768.581 248.37 768.783 248.454 768.926 248.62C769.093 248.787 769.176 248.989 769.176 249.227V266.073C769.176 266.311 769.093 266.513 768.926 266.68C768.783 266.846 768.581 266.929 768.319 266.929H765.357ZM765.214 245.301C764.976 245.301 764.774 245.218 764.608 245.051C764.441 244.885 764.358 244.682 764.358 244.445V241.875C764.358 241.637 764.441 241.435 764.608 241.268C764.774 241.102 764.976 241.018 765.214 241.018H768.462C768.724 241.018 768.938 241.102 769.105 241.268C769.271 241.435 769.354 241.637 769.354 241.875V244.445C769.354 244.682 769.271 244.885 769.105 245.051C768.938 245.218 768.724 245.301 768.462 245.301H765.214Z" fill="#453730"/>
<path d="M782.12 267.286C780.216 267.286 778.61 266.953 777.302 266.287C776.017 265.621 775.029 264.681 774.339 263.467C773.673 262.254 773.292 260.838 773.197 259.22C773.173 258.792 773.162 258.269 773.162 257.65C773.162 257.031 773.173 256.508 773.197 256.08C773.292 254.438 773.685 253.022 774.375 251.832C775.089 250.619 776.088 249.679 777.373 249.013C778.682 248.347 780.264 248.014 782.12 248.014C783.976 248.014 785.546 248.347 786.831 249.013C788.139 249.679 789.139 250.619 789.829 251.832C790.543 253.022 790.947 254.438 791.042 256.08C791.066 256.508 791.078 257.031 791.078 257.65C791.078 258.269 791.066 258.792 791.042 259.22C790.947 260.838 790.555 262.254 789.865 263.467C789.198 264.681 788.211 265.621 786.902 266.287C785.617 266.953 784.023 267.286 782.12 267.286ZM782.12 263.753C783.381 263.753 784.356 263.36 785.046 262.575C785.736 261.766 786.117 260.588 786.188 259.042C786.212 258.685 786.224 258.221 786.224 257.65C786.224 257.079 786.212 256.615 786.188 256.258C786.117 254.711 785.736 253.546 785.046 252.76C784.356 251.951 783.381 251.547 782.12 251.547C780.859 251.547 779.883 251.951 779.193 252.76C778.503 253.546 778.122 254.711 778.051 256.258C778.027 256.615 778.015 257.079 778.015 257.65C778.015 258.221 778.027 258.685 778.051 259.042C778.122 260.588 778.503 261.766 779.193 262.575C779.883 263.36 780.859 263.753 782.12 263.753Z" fill="#453730"/>
<path d="M801.921 267.286C800.683 267.286 799.589 267.084 798.637 266.68C797.709 266.251 796.936 265.656 796.317 264.895C795.699 264.134 795.223 263.241 794.89 262.218C794.556 261.171 794.366 260.029 794.319 258.792C794.295 258.364 794.283 257.983 794.283 257.65C794.283 257.293 794.295 256.9 794.319 256.472C794.366 255.282 794.545 254.176 794.854 253.153C795.187 252.13 795.663 251.238 796.281 250.476C796.924 249.691 797.709 249.084 798.637 248.656C799.589 248.228 800.683 248.014 801.921 248.014C803.205 248.014 804.288 248.24 805.168 248.692C806.072 249.12 806.822 249.679 807.417 250.369V242.446C807.417 242.208 807.488 242.006 807.631 241.839C807.797 241.673 808.012 241.589 808.273 241.589H811.307C811.545 241.589 811.747 241.673 811.914 241.839C812.08 242.006 812.164 242.208 812.164 242.446V266.073C812.164 266.311 812.08 266.513 811.914 266.68C811.747 266.846 811.545 266.929 811.307 266.929H808.488C808.226 266.929 808.012 266.846 807.845 266.68C807.702 266.513 807.631 266.311 807.631 266.073V264.752C807.036 265.49 806.275 266.097 805.347 266.572C804.443 267.048 803.301 267.286 801.921 267.286ZM803.241 263.467C804.24 263.467 805.037 263.241 805.632 262.789C806.227 262.337 806.667 261.766 806.953 261.076C807.238 260.362 807.393 259.637 807.417 258.899C807.441 258.471 807.452 258.019 807.452 257.543C807.452 257.043 807.441 256.579 807.417 256.151C807.393 255.437 807.226 254.759 806.917 254.117C806.608 253.45 806.156 252.903 805.561 252.475C804.966 252.047 804.193 251.832 803.241 251.832C802.242 251.832 801.445 252.058 800.85 252.511C800.279 252.939 799.862 253.51 799.601 254.224C799.339 254.937 799.184 255.723 799.137 256.579C799.113 257.293 799.113 258.007 799.137 258.721C799.184 259.577 799.339 260.362 799.601 261.076C799.862 261.79 800.279 262.373 800.85 262.825C801.445 263.253 802.242 263.467 803.241 263.467Z" fill="#453730"/>
<path d="M824.915 267.286C822.274 267.286 820.18 266.525 818.634 265.002C817.087 263.479 816.254 261.314 816.135 258.506C816.111 258.269 816.1 257.971 816.1 257.614C816.1 257.234 816.111 256.936 816.135 256.722C816.23 254.914 816.635 253.367 817.349 252.082C818.086 250.774 819.098 249.774 820.382 249.084C821.667 248.37 823.178 248.014 824.915 248.014C826.842 248.014 828.46 248.418 829.769 249.227C831.077 250.012 832.065 251.119 832.731 252.546C833.397 253.95 833.73 255.58 833.73 257.436V258.185C833.73 258.423 833.647 258.625 833.481 258.792C833.314 258.959 833.1 259.042 832.838 259.042H820.989C820.989 259.042 820.989 259.078 820.989 259.149C820.989 259.22 820.989 259.28 820.989 259.327C821.013 260.16 821.168 260.933 821.453 261.647C821.762 262.337 822.203 262.896 822.774 263.325C823.368 263.753 824.07 263.967 824.879 263.967C825.546 263.967 826.105 263.872 826.557 263.682C827.009 263.467 827.378 263.229 827.663 262.968C827.949 262.706 828.151 262.492 828.27 262.325C828.484 262.04 828.651 261.873 828.77 261.826C828.912 261.754 829.115 261.719 829.376 261.719H832.446C832.684 261.719 832.874 261.79 833.017 261.933C833.183 262.075 833.255 262.254 833.231 262.468C833.207 262.849 833.005 263.313 832.624 263.86C832.267 264.407 831.744 264.943 831.054 265.466C830.364 265.99 829.495 266.43 828.448 266.787C827.425 267.12 826.247 267.286 824.915 267.286ZM820.989 256.044H828.877V255.937C828.877 255.009 828.722 254.2 828.413 253.51C828.103 252.796 827.651 252.249 827.056 251.868C826.462 251.464 825.748 251.261 824.915 251.261C824.082 251.261 823.368 251.464 822.774 251.868C822.179 252.249 821.727 252.796 821.417 253.51C821.132 254.2 820.989 255.009 820.989 255.937V256.044Z" fill="#453730"/>
</svg>
