<?xml version="1.0" encoding="utf-8"?>
<!-- Generator: Adobe Illustrator 25.0.0, SVG Export Plug-In . SVG Version: 6.00 Build 0)  -->
<svg version="1.1" id="a16eab0f-bf37-4f1b-963b-005ab00945e2"
	 xmlns="http://www.w3.org/2000/svg" xmlns:xlink="http://www.w3.org/1999/xlink" x="0px" y="0px" viewBox="0 0 500 500"
	 style="enable-background:new 0 0 500 500;" xml:space="preserve">
<style type="text/css">
	.st0{fill:#F0F0F0;}
	.st1{fill:#FF4F00;}
	.st2{fill:none;stroke:#FF4F00;stroke-miterlimit:10;}
	.st3{fill:#FFB6B6;}
	.st4{fill:#8550C2;}
</style>
<g>
	<path class="st0" d="M450,386.6c0,2.6-2.4,5.1-6.9,7.6c-22.9,12.3-100.7,21.4-193.1,21.4c-3.6,0-7.2,0-10.8,0
		C133.7,414.7,50,402.1,50,386.6c0-16,89.5-29,200-29c30.2,0,58.9,1,84.6,2.7c6.5,0.4,12.7,0.9,18.8,1.5c2.5,0.2,5,0.4,7.5,0.7
		c11.5,1.1,22.2,2.4,31.9,3.8c4.7,0.7,9.2,1.4,13.4,2.2c10.9,2,20.1,4.2,27.2,6.5C444.1,378.6,450,382.5,450,386.6z"/>
	<path class="st1" d="M208.4,146l-14.6-4.1c0,0-5.7-1.1-2.2-12.3s10.4-8,10.4-8l13,3.8l5.1,1.6l-7.2,10.1l-0.6,6.7L208.4,146z"/>
	<polygon class="st1" points="236.6,116.4 241.2,134.7 217.8,157.5 215.7,158 210.4,156.5 205.8,138.2 210.4,133.3 205.7,132.1 
		215.8,122.2 221.1,123.3 225.3,119.1 222.4,118 222.2,116.9 225.6,114.2 	"/>
	<polygon points="214.7,142.3 217.7,154.4 231.7,141.1 228.2,128.9 	"/>
	<polygon class="st2" points="236.6,116.4 237.3,119 213.9,141.7 211.9,142.2 206.7,140.8 206.4,140.8 205.8,138.2 210.4,133.3 
		205.7,132.1 215.8,122.2 221.1,123.3 225.3,119.1 222.4,118 222.2,116.9 225.6,114.2 	"/>
	<ellipse transform="matrix(0.9701 -0.2429 0.2429 0.9701 -21.4611 58.3372)" cx="225.9" cy="116.2" rx="1.9" ry="1.3"/>
	<ellipse transform="matrix(0.9701 -0.2429 0.2429 0.9701 -26.6624 55.3216)" cx="211" cy="135.8" rx="1.9" ry="1.3"/>
	<path class="st3" d="M198.7,168.8l3.2-10.8c0,0-8.3-19.7,1.3-21.7c9.6-1.9,10.2,18.5,10.2,18.5l-3.8,12.1L198.7,168.8z"/>
	<circle class="st3" cx="257.9" cy="122.4" r="25.3"/>
	<path class="st3" d="M249.7,140.3c0,0-1.5,18.6-5.2,20.1c-3.7,1.5,40.2,11.9,40.2,11.9l-11.2-12.7c0,0-2.2-19.3,3-23.8L249.7,140.3
		z"/>
	<path class="st4" d="M214,163l-10.2-1.3c0,0-12.1,6.4-12.1,14.6c0,8.3-7,21.7-7,21.7s-5.1,17.8,6.4,19.1
		c11.5,1.3,21.7-19.1,21.7-19.1L214,163z"/>
	<path class="st1" d="M208.3,264.3c0,0-22.3-21-28.7-19.7c-6.4,1.3-19.1,3.2-19.1,12.7s21,31.8,21,31.8s15.9,35,31.2,36.3
		c10.1,0.9,20.1,2.4,29.9,4.5c0,0-7,25.5-3.2,32.5c3.8,7,18.5,15.3,19.7,14.6c1.3-0.6,19.1-17.2,26.8-40.8
		c7.6-23.6,12.7-41.4,5.7-42.7C284.7,292.3,208.3,264.3,208.3,264.3z"/>
	<path class="st1" d="M162.4,255.4c0,0-4.5-0.6-3.8,10.2c0.6,10.8,2.5,49.7,5.7,57.3c3.2,7.6,3.8,16.6,2.5,19.7
		c-1.3,3.2-3.8,8.3,0.6,8.9c4.5,0.6,22.9-1.9,24.8-2.5c1.9-0.6,3.8-11.5,2.5-11.5c-1.3,0-4.5-0.6-3.2-5.1c1.3-4.5,1.9-4.5,0-5.7
		c-1.9-1.3-7-3.2-5.7-4.5c1.3-1.3,2.5-31.2,2.5-31.2L162.4,255.4z"/>
	<path class="st1" d="M168.8,349.6c0,0-10.8-3.2-12.1,3.8c0,0-1.9,10.8,6.4,14.6c5.3,2.5,10.5,5.5,15.3,8.9c0,0,13.4,5.1,14-1.3
		c0.6-6.4-2.5-29.3-2.5-29.3L168.8,349.6z"/>
	<path class="st1" d="M240.8,357.3l20.4-16.6c0,0-3.8,20.4,1.3,24.2l2.3,6.8l-6.5,5.3C258.2,377.1,238.2,373.9,240.8,357.3z"/>
	<path class="st1" d="M269.4,329.3c0,0-13.4,3.8-11.5,17.2s4.4,27.9,4.4,27.9s0.7,35.8,10.3,38.3c9.6,2.5,12.1-2.5,12.1-2.5
		s10.9-28,7.6-36.3c-3.9-10.1-9.5-21.4-7.6-24.8C286.5,345.7,283.4,327.4,269.4,329.3z"/>
	<path class="st4" d="M277.1,153.5c0,0-5.1,0.6-13.4,1.9c-8.3,1.3-14-5.1-18.5-3.8s-41.4,10.2-41.4,10.2l5.7,43.9c0,0-7,51-5.7,59.9
		c1.3,8.9-15.3,7.6-5.7,18.5s26.1,20.4,59.9,17.2c33.8-3.2,38.2-2.5,38.2-7.6c0-5.1-7.6-48.4-5.1-52.2c2.5-3.8,7.6-8.3,5.1-12.7
		c-2.5-4.5-5.1-7-1.3-10.8s5.7-7.6,5.7-9.6s8.9-33.1,8.9-33.1s-3.8-15.3-8.3-15.9c-4.5-0.6-8.3-3.8-11.5-3.8c-3.2,0-5.1,0.6-7,0
		L277.1,153.5z"/>
	<path class="st1" d="M221.5,117.9c2.9-0.4,6-2.1,7.6-3.2c1.8,1.8,13.2,12.1,32.8,15.1c0,0,0-0.4,0.2-1l6.7,1.1l12.4-1.2
		c-0.1,0.2-0.1,0.3-0.1,0.3s1.8-0.5,2.4-4.5c0.1-0.8,0.3-1.5,0.4-2.3c1-4.5,3.4-20.9-10.3-31.9c-10-8-21.5-5.5-28.8-2.4
		c-6,2.5-10.7,7.3-13.1,13.3c-0.6,1.5-1,3.1-1.2,4.6l-0.3,0.8c-2.2,0.3-6.7-1.5-9-0.7c-3.3,1.2-4.9,6.1-5.2,7.6
		S217.2,118.4,221.5,117.9z M263.7,122.5c1.8-4.5,5.1-9.5,11.2-9.3c6.3,0.3,7.4,5.3,7.2,9.6l-15.8,0.6L263.7,122.5z"/>
	<ellipse transform="matrix(0.1682 -0.9857 0.9857 0.1682 133.9508 329.8896)" cx="262.5" cy="85.6" rx="1.1" ry="2.8"/>
</g>
</svg>
