<svg width="845" height="300" viewBox="0 0 845 300" fill="none" xmlns="http://www.w3.org/2000/svg">
<path d="M258.12 112C257.416 112 256.84 111.776 256.392 111.328C255.944 110.816 255.72 110.24 255.72 109.6V47.2C255.72 46.496 255.944 45.92 256.392 45.472C256.84 45.024 257.416 44.8 258.12 44.8H302.28C302.984 44.8 303.56 45.024 304.008 45.472C304.456 45.92 304.68 46.496 304.68 47.2V56.896C304.68 57.6 304.456 58.176 304.008 58.624C303.56 59.072 302.984 59.296 302.28 59.296H272.616V73.408H300.36C301.064 73.408 301.64 73.664 302.088 74.176C302.536 74.624 302.76 75.2 302.76 75.904V85.504C302.76 86.144 302.536 86.72 302.088 87.232C301.64 87.68 301.064 87.904 300.36 87.904H272.616V109.6C272.616 110.24 272.392 110.816 271.944 111.328C271.496 111.776 270.92 112 270.216 112H258.12Z" fill="#FF4F00"/>
<path d="M342.051 112.96C336.163 112.96 331.043 112 326.691 110.08C322.339 108.16 318.947 105.28 316.515 101.44C314.083 97.536 312.739 92.672 312.483 86.848C312.419 84.096 312.387 81.344 312.387 78.592C312.387 75.776 312.419 72.992 312.483 70.24C312.739 64.48 314.083 59.648 316.515 55.744C319.011 51.776 322.435 48.8 326.787 46.816C331.203 44.832 336.291 43.84 342.051 43.84C347.875 43.84 352.963 44.832 357.315 46.816C361.667 48.8 365.091 51.776 367.587 55.744C370.083 59.648 371.427 64.48 371.619 70.24C371.747 72.992 371.811 75.776 371.811 78.592C371.811 81.344 371.747 84.096 371.619 86.848C371.427 92.672 370.083 97.536 367.587 101.44C365.155 105.28 361.763 108.16 357.411 110.08C353.059 112 347.939 112.96 342.051 112.96ZM342.051 99.136C345.443 99.136 348.195 98.112 350.307 96.064C352.483 94.016 353.635 90.752 353.763 86.272C353.891 83.456 353.955 80.8 353.955 78.304C353.955 75.808 353.891 73.216 353.763 70.528C353.635 67.52 353.059 65.088 352.035 63.232C351.075 61.312 349.731 59.904 348.003 59.008C346.275 58.112 344.291 57.664 342.051 57.664C339.875 57.664 337.923 58.112 336.195 59.008C334.467 59.904 333.091 61.312 332.067 63.232C331.043 65.088 330.467 67.52 330.339 70.528C330.275 73.216 330.243 75.808 330.243 78.304C330.243 80.8 330.275 83.456 330.339 86.272C330.531 90.752 331.683 94.016 333.795 96.064C335.971 98.112 338.723 99.136 342.051 99.136Z" fill="#FF4F00"/>
<path d="M410.395 112.96C404.507 112.96 399.387 112 395.035 110.08C390.683 108.16 387.291 105.28 384.859 101.44C382.427 97.536 381.083 92.672 380.827 86.848C380.763 84.096 380.731 81.344 380.731 78.592C380.731 75.776 380.763 72.992 380.827 70.24C381.083 64.48 382.427 59.648 384.859 55.744C387.355 51.776 390.779 48.8 395.131 46.816C399.547 44.832 404.635 43.84 410.395 43.84C416.219 43.84 421.307 44.832 425.659 46.816C430.011 48.8 433.435 51.776 435.931 55.744C438.427 59.648 439.771 64.48 439.963 70.24C440.091 72.992 440.155 75.776 440.155 78.592C440.155 81.344 440.091 84.096 439.963 86.848C439.771 92.672 438.427 97.536 435.931 101.44C433.499 105.28 430.107 108.16 425.755 110.08C421.403 112 416.283 112.96 410.395 112.96ZM410.395 99.136C413.787 99.136 416.539 98.112 418.651 96.064C420.827 94.016 421.979 90.752 422.107 86.272C422.235 83.456 422.299 80.8 422.299 78.304C422.299 75.808 422.235 73.216 422.107 70.528C421.979 67.52 421.403 65.088 420.379 63.232C419.419 61.312 418.075 59.904 416.347 59.008C414.619 58.112 412.635 57.664 410.395 57.664C408.219 57.664 406.267 58.112 404.539 59.008C402.811 59.904 401.435 61.312 400.411 63.232C399.387 65.088 398.811 67.52 398.683 70.528C398.619 73.216 398.587 75.808 398.587 78.304C398.587 80.8 398.619 83.456 398.683 86.272C398.875 90.752 400.027 94.016 402.139 96.064C404.315 98.112 407.067 99.136 410.395 99.136Z" fill="#FF4F00"/>
<path d="M467.436 112C466.732 112 466.156 111.776 465.708 111.328C465.26 110.816 465.036 110.24 465.036 109.6V59.872H447.948C447.244 59.872 446.668 59.648 446.22 59.2C445.772 58.688 445.548 58.112 445.548 57.472V47.2C445.548 46.496 445.772 45.92 446.22 45.472C446.668 45.024 447.244 44.8 447.948 44.8H499.596C500.3 44.8 500.876 45.024 501.324 45.472C501.772 45.92 501.996 46.496 501.996 47.2V57.472C501.996 58.112 501.772 58.688 501.324 59.2C500.876 59.648 500.3 59.872 499.596 59.872H482.508V109.6C482.508 110.24 482.284 110.816 481.836 111.328C481.388 111.776 480.812 112 480.108 112H467.436Z" fill="#FF4F00"/>
<path d="M537.145 112.96C531.257 112.96 526.137 112 521.785 110.08C517.433 108.16 514.041 105.28 511.609 101.44C509.177 97.536 507.833 92.672 507.577 86.848C507.513 84.096 507.481 81.344 507.481 78.592C507.481 75.776 507.513 72.992 507.577 70.24C507.833 64.48 509.177 59.648 511.609 55.744C514.105 51.776 517.529 48.8 521.881 46.816C526.297 44.832 531.385 43.84 537.145 43.84C542.969 43.84 548.057 44.832 552.409 46.816C556.761 48.8 560.185 51.776 562.681 55.744C565.177 59.648 566.521 64.48 566.713 70.24C566.841 72.992 566.905 75.776 566.905 78.592C566.905 81.344 566.841 84.096 566.713 86.848C566.521 92.672 565.177 97.536 562.681 101.44C560.249 105.28 556.857 108.16 552.505 110.08C548.153 112 543.033 112.96 537.145 112.96ZM537.145 99.136C540.537 99.136 543.289 98.112 545.401 96.064C547.577 94.016 548.729 90.752 548.857 86.272C548.985 83.456 549.049 80.8 549.049 78.304C549.049 75.808 548.985 73.216 548.857 70.528C548.729 67.52 548.153 65.088 547.129 63.232C546.169 61.312 544.825 59.904 543.097 59.008C541.369 58.112 539.385 57.664 537.145 57.664C534.969 57.664 533.017 58.112 531.289 59.008C529.561 59.904 528.185 61.312 527.161 63.232C526.137 65.088 525.561 67.52 525.433 70.528C525.369 73.216 525.337 75.808 525.337 78.304C525.337 80.8 525.369 83.456 525.433 86.272C525.625 90.752 526.777 94.016 528.889 96.064C531.065 98.112 533.817 99.136 537.145 99.136Z" fill="#FF4F00"/>
<path d="M605.777 112.96C599.697 112.96 594.449 111.968 590.033 109.984C585.681 107.936 582.289 104.992 579.857 101.152C577.489 97.248 576.177 92.512 575.921 86.944C575.857 84.192 575.825 81.28 575.825 78.208C575.825 75.072 575.857 72.096 575.921 69.28C576.177 63.84 577.521 59.232 579.953 55.456C582.385 51.68 585.809 48.8 590.225 46.816C594.641 44.832 599.825 43.84 605.777 43.84C610.577 43.84 614.833 44.448 618.545 45.664C622.257 46.816 625.361 48.384 627.857 50.368C630.417 52.352 632.369 54.528 633.713 56.896C635.057 59.264 635.761 61.6 635.825 63.904C635.825 64.48 635.601 64.96 635.153 65.344C634.769 65.728 634.289 65.92 633.713 65.92H619.697C618.993 65.92 618.449 65.824 618.065 65.632C617.745 65.376 617.457 65.024 617.201 64.576C616.753 63.616 616.081 62.624 615.185 61.6C614.353 60.512 613.169 59.584 611.633 58.816C610.161 58.048 608.209 57.664 605.777 57.664C602.193 57.664 599.345 58.624 597.233 60.544C595.121 62.464 593.969 65.536 593.777 69.76C593.585 75.264 593.585 80.832 593.777 86.464C593.969 90.944 595.153 94.176 597.329 96.16C599.505 98.144 602.417 99.136 606.065 99.136C608.433 99.136 610.545 98.72 612.401 97.888C614.321 97.056 615.825 95.776 616.913 94.048C618.001 92.256 618.545 89.984 618.545 87.232V85.408H609.521C608.817 85.408 608.241 85.184 607.793 84.736C607.345 84.224 607.121 83.616 607.121 82.912V75.808C607.121 75.104 607.345 74.528 607.793 74.08C608.241 73.568 608.817 73.312 609.521 73.312H633.713C634.417 73.312 634.993 73.568 635.441 74.08C635.889 74.528 636.113 75.104 636.113 75.808V86.752C636.113 92.256 634.865 96.96 632.369 100.864C629.873 104.768 626.321 107.776 621.713 109.888C617.169 111.936 611.857 112.96 605.777 112.96ZM606.065 40.672C602.609 40.672 599.793 40.064 597.617 38.848C595.441 37.568 593.841 35.904 592.817 33.856C591.857 31.808 591.377 29.568 591.377 27.136C591.377 26.624 591.537 26.208 591.857 25.888C592.177 25.504 592.625 25.312 593.201 25.312H599.633C600.209 25.312 600.657 25.504 600.977 25.888C601.297 26.208 601.457 26.624 601.457 27.136C601.457 28.608 601.745 29.92 602.321 31.072C602.961 32.224 604.209 32.8 606.065 32.8C607.921 32.8 609.169 32.224 609.809 31.072C610.449 29.92 610.769 28.608 610.769 27.136C610.769 26.624 610.929 26.208 611.249 25.888C611.569 25.504 612.017 25.312 612.593 25.312H619.025C619.601 25.312 620.049 25.504 620.369 25.888C620.689 26.208 620.849 26.624 620.849 27.136C620.849 29.568 620.337 31.808 619.313 33.856C618.353 35.904 616.785 37.568 614.609 38.848C612.433 40.064 609.585 40.672 606.065 40.672Z" fill="#FF4F00"/>
<path d="M649.527 112C648.823 112 648.247 111.776 647.799 111.328C647.351 110.816 647.127 110.24 647.127 109.6V47.2C647.127 46.496 647.351 45.92 647.799 45.472C648.247 45.024 648.823 44.8 649.527 44.8H675.639C683.959 44.8 690.487 46.72 695.223 50.56C699.959 54.336 702.327 59.712 702.327 66.688C702.327 71.232 701.239 75.072 699.063 78.208C696.887 81.344 694.007 83.712 690.423 85.312L703.575 108.928C703.767 109.312 703.863 109.664 703.863 109.984C703.863 110.496 703.639 110.976 703.191 111.424C702.807 111.808 702.359 112 701.847 112H689.079C687.863 112 686.967 111.712 686.391 111.136C685.815 110.496 685.399 109.92 685.143 109.408L674.199 88.288H664.407V109.6C664.407 110.24 664.151 110.816 663.639 111.328C663.191 111.776 662.615 112 661.911 112H649.527ZM664.407 74.656H675.447C678.455 74.656 680.695 73.92 682.167 72.448C683.703 70.976 684.471 68.992 684.471 66.496C684.471 64 683.735 61.984 682.263 60.448C680.855 58.912 678.583 58.144 675.447 58.144H664.407V74.656Z" fill="#FF4F00"/>
<path d="M709.662 112C709.15 112 708.67 111.808 708.222 111.424C707.838 110.976 707.646 110.496 707.646 109.984C707.646 109.664 707.678 109.376 707.742 109.12L730.302 47.488C730.494 46.784 730.878 46.176 731.454 45.664C732.094 45.088 732.958 44.8 734.046 44.8H748.254C749.342 44.8 750.174 45.088 750.75 45.664C751.39 46.176 751.806 46.784 751.998 47.488L774.462 109.12C774.59 109.376 774.654 109.664 774.654 109.984C774.654 110.496 774.43 110.976 773.982 111.424C773.598 111.808 773.118 112 772.542 112H760.734C759.774 112 759.038 111.776 758.526 111.328C758.078 110.816 757.79 110.368 757.662 109.984L753.918 100.192H728.286L724.638 109.984C724.51 110.368 724.222 110.816 723.774 111.328C723.326 111.776 722.558 112 721.47 112H709.662ZM732.222 86.368H750.078L741.15 61.024L732.222 86.368Z" fill="#FF4F00"/>
<path d="M784.62 112C783.916 112 783.34 111.776 782.892 111.328C782.444 110.816 782.22 110.24 782.22 109.6V47.2C782.22 46.496 782.444 45.92 782.892 45.472C783.34 45.024 783.916 44.8 784.62 44.8H828.78C829.484 44.8 830.06 45.024 830.508 45.472C830.956 45.92 831.18 46.496 831.18 47.2V56.896C831.18 57.6 830.956 58.176 830.508 58.624C830.06 59.072 829.484 59.296 828.78 59.296H799.116V73.408H826.86C827.564 73.408 828.14 73.664 828.588 74.176C829.036 74.624 829.26 75.2 829.26 75.904V85.504C829.26 86.144 829.036 86.72 828.588 87.232C828.14 87.68 827.564 87.904 826.86 87.904H799.116V109.6C799.116 110.24 798.892 110.816 798.444 111.328C797.996 111.776 797.42 112 796.716 112H784.62Z" fill="#FF4F00"/>
<path d="M275.4 220C274.76 220 274.184 219.776 273.672 219.328C273.224 218.816 273 218.24 273 217.6V196.96L250.728 155.872C250.664 155.68 250.6 155.52 250.536 155.392C250.472 155.2 250.44 155.008 250.44 154.816C250.44 154.304 250.632 153.856 251.016 153.472C251.464 153.024 251.976 152.8 252.552 152.8H264.552C265.512 152.8 266.248 153.056 266.76 153.568C267.336 154.016 267.72 154.432 267.912 154.816L281.64 179.584L295.464 154.816C295.656 154.432 296.008 154.016 296.52 153.568C297.096 153.056 297.864 152.8 298.824 152.8H310.824C311.4 152.8 311.88 153.024 312.264 153.472C312.648 153.856 312.84 154.304 312.84 154.816C312.84 155.008 312.808 155.2 312.744 155.392C312.744 155.52 312.712 155.68 312.648 155.872L290.376 196.96V217.6C290.376 218.24 290.12 218.816 289.608 219.328C289.16 219.776 288.584 220 287.88 220H275.4Z" fill="#FF4F00"/>
<path d="M316.257 220C315.745 220 315.265 219.808 314.817 219.424C314.433 218.976 314.241 218.496 314.241 217.984C314.241 217.664 314.273 217.376 314.337 217.12L336.897 155.488C337.089 154.784 337.473 154.176 338.049 153.664C338.689 153.088 339.553 152.8 340.641 152.8H354.849C355.937 152.8 356.769 153.088 357.345 153.664C357.985 154.176 358.401 154.784 358.593 155.488L381.057 217.12C381.185 217.376 381.249 217.664 381.249 217.984C381.249 218.496 381.025 218.976 380.577 219.424C380.193 219.808 379.713 220 379.137 220H367.329C366.369 220 365.633 219.776 365.121 219.328C364.673 218.816 364.385 218.368 364.257 217.984L360.513 208.192H334.881L331.233 217.984C331.105 218.368 330.817 218.816 330.369 219.328C329.921 219.776 329.153 220 328.065 220H316.257ZM338.817 194.368H356.673L347.745 169.024L338.817 194.368Z" fill="#FF4F00"/>
<path d="M397.935 220C397.231 220 396.655 219.776 396.207 219.328C395.759 218.816 395.535 218.24 395.535 217.6V155.2C395.535 154.496 395.759 153.92 396.207 153.472C396.655 153.024 397.231 152.8 397.935 152.8H424.047C432.367 152.8 438.895 154.72 443.631 158.56C448.367 162.336 450.735 167.712 450.735 174.688C450.735 179.232 449.647 183.072 447.471 186.208C445.295 189.344 442.415 191.712 438.831 193.312L451.983 216.928C452.175 217.312 452.271 217.664 452.271 217.984C452.271 218.496 452.047 218.976 451.599 219.424C451.215 219.808 450.767 220 450.255 220H437.487C436.271 220 435.375 219.712 434.799 219.136C434.223 218.496 433.807 217.92 433.551 217.408L422.607 196.288H412.815V217.6C412.815 218.24 412.559 218.816 412.047 219.328C411.599 219.776 411.023 220 410.319 220H397.935ZM412.815 182.656H423.855C426.863 182.656 429.103 181.92 430.575 180.448C432.111 178.976 432.879 176.992 432.879 174.496C432.879 172 432.143 169.984 430.671 168.448C429.263 166.912 426.991 166.144 423.855 166.144H412.815V182.656Z" fill="#FF4F00"/>
<path d="M471.03 220C470.326 220 469.75 219.776 469.302 219.328C468.854 218.816 468.63 218.24 468.63 217.6V155.2C468.63 154.496 468.854 153.92 469.302 153.472C469.75 153.024 470.326 152.8 471.03 152.8H483.894C484.598 152.8 485.174 153.024 485.622 153.472C486.134 153.92 486.39 154.496 486.39 155.2V217.6C486.39 218.24 486.134 218.816 485.622 219.328C485.174 219.776 484.598 220 483.894 220H471.03Z" fill="#FF4F00"/>
<path d="M531.339 241.12C529.611 241.12 528.043 240.832 526.635 240.256C525.227 239.68 524.235 239.008 523.659 238.24C523.083 237.472 523.115 236.8 523.755 236.224L525.483 234.688C526.059 234.176 526.539 233.984 526.923 234.112C527.371 234.304 527.915 234.56 528.555 234.88C529.195 235.264 530.123 235.456 531.339 235.456C532.299 235.456 533.067 235.168 533.643 234.592C534.219 234.08 534.507 233.408 534.507 232.576C534.507 231.808 534.219 231.136 533.643 230.56C533.067 230.048 532.299 229.792 531.339 229.792C530.571 229.792 529.867 229.888 529.227 230.08C528.587 230.336 527.979 230.464 527.403 230.464C526.891 230.528 526.379 230.368 525.867 229.984L524.043 228.064C523.659 227.68 523.467 227.264 523.467 226.816C523.531 226.368 523.755 225.76 524.139 224.992L526.059 220.672C520.939 220.16 516.619 218.976 513.099 217.12C509.643 215.2 507.019 212.896 505.227 210.208C503.499 207.52 502.603 204.672 502.539 201.664C502.539 201.152 502.731 200.704 503.115 200.32C503.563 199.872 504.075 199.648 504.651 199.648H516.747C517.643 199.648 518.315 199.808 518.763 200.128C519.275 200.448 519.723 200.864 520.107 201.376C520.619 202.336 521.323 203.264 522.219 204.16C523.179 205.056 524.427 205.792 525.963 206.368C527.499 206.88 529.355 207.136 531.531 207.136C535.243 207.136 538.027 206.56 539.883 205.408C541.803 204.256 542.763 202.688 542.763 200.704C542.763 199.232 542.251 198.048 541.227 197.152C540.203 196.256 538.539 195.456 536.235 194.752C533.995 193.984 530.987 193.216 527.211 192.448C522.347 191.424 518.187 190.112 514.731 188.512C511.339 186.848 508.747 184.704 506.955 182.08C505.163 179.392 504.267 176.064 504.267 172.096C504.267 168.192 505.355 164.704 507.531 161.632C509.771 158.56 512.875 156.16 516.843 154.432C520.811 152.704 525.515 151.84 530.955 151.84C535.371 151.84 539.243 152.416 542.571 153.568C545.963 154.72 548.811 156.256 551.115 158.176C553.419 160.096 555.147 162.144 556.299 164.32C557.515 166.432 558.155 168.512 558.219 170.56C558.219 171.072 558.027 171.552 557.643 172C557.323 172.384 556.843 172.576 556.203 172.576H543.531C542.827 172.576 542.219 172.448 541.707 172.192C541.195 171.936 540.747 171.52 540.363 170.944C539.979 169.536 538.955 168.32 537.291 167.296C535.691 166.208 533.579 165.664 530.955 165.664C528.139 165.664 525.931 166.176 524.331 167.2C522.795 168.16 522.027 169.664 522.027 171.712C522.027 172.992 522.443 174.112 523.275 175.072C524.171 176.032 525.611 176.864 527.595 177.568C529.643 178.272 532.427 179.008 535.947 179.776C541.771 180.864 546.475 182.24 550.059 183.904C553.643 185.504 556.267 187.616 557.931 190.24C559.659 192.8 560.523 196.032 560.523 199.936C560.523 204.288 559.275 208.032 556.779 211.168C554.347 214.304 550.955 216.704 546.603 218.368C542.315 220.032 537.355 220.896 531.723 220.96L529.899 224.8C530.283 224.608 530.795 224.448 531.435 224.32C532.139 224.256 532.683 224.224 533.067 224.224C535.371 224.224 537.195 224.992 538.539 226.528C539.947 228.064 540.651 230.08 540.651 232.576C540.651 235.008 539.819 237.024 538.155 238.624C536.491 240.288 534.219 241.12 531.339 241.12Z" fill="#FF4F00"/>
<path d="M579.252 220C578.612 220 578.036 219.776 577.524 219.328C577.076 218.816 576.852 218.24 576.852 217.6V155.2C576.852 154.496 577.076 153.92 577.524 153.472C578.036 153.024 578.612 152.8 579.252 152.8H589.62C590.708 152.8 591.508 153.088 592.02 153.664C592.532 154.176 592.852 154.592 592.98 154.912L609.876 185.152L626.772 154.912C626.964 154.592 627.284 154.176 627.732 153.664C628.244 153.088 629.044 152.8 630.132 152.8H640.404C641.108 152.8 641.684 153.024 642.132 153.472C642.644 153.92 642.9 154.496 642.9 155.2V217.6C642.9 218.24 642.644 218.816 642.132 219.328C641.684 219.776 641.108 220 640.404 220H628.98C628.276 220 627.668 219.776 627.156 219.328C626.708 218.816 626.484 218.24 626.484 217.6V181.6L615.732 201.664C615.412 202.24 614.996 202.752 614.484 203.2C613.972 203.648 613.268 203.872 612.372 203.872H607.38C606.484 203.872 605.78 203.648 605.268 203.2C604.756 202.752 604.34 202.24 604.02 201.664L593.172 181.6V217.6C593.172 218.24 592.948 218.816 592.5 219.328C592.052 219.776 591.476 220 590.772 220H579.252Z" fill="#FF4F00"/>
<path d="M659.232 220C658.72 220 658.24 219.808 657.792 219.424C657.408 218.976 657.216 218.496 657.216 217.984C657.216 217.664 657.248 217.376 657.312 217.12L679.872 155.488C680.064 154.784 680.448 154.176 681.024 153.664C681.664 153.088 682.528 152.8 683.616 152.8H697.824C698.912 152.8 699.744 153.088 700.32 153.664C700.96 154.176 701.376 154.784 701.568 155.488L724.032 217.12C724.16 217.376 724.224 217.664 724.224 217.984C724.224 218.496 724 218.976 723.552 219.424C723.168 219.808 722.688 220 722.112 220H710.304C709.344 220 708.608 219.776 708.096 219.328C707.648 218.816 707.36 218.368 707.232 217.984L703.488 208.192H677.856L674.208 217.984C674.08 218.368 673.792 218.816 673.344 219.328C672.896 219.776 672.128 220 671.04 220H659.232ZM681.792 194.368H699.648L690.72 169.024L681.792 194.368Z" fill="#FF4F00"/>
<path d="M762.535 220.96C756.135 220.96 750.823 220.064 746.599 218.272C742.375 216.416 739.175 214.016 736.999 211.072C734.823 208.128 733.671 204.992 733.543 201.664C733.543 201.152 733.735 200.704 734.119 200.32C734.567 199.872 735.079 199.648 735.655 199.648H747.751C748.647 199.648 749.319 199.808 749.767 200.128C750.279 200.448 750.727 200.864 751.111 201.376C751.623 202.336 752.327 203.264 753.223 204.16C754.183 205.056 755.431 205.792 756.967 206.368C758.503 206.88 760.359 207.136 762.535 207.136C766.247 207.136 769.031 206.56 770.887 205.408C772.807 204.256 773.767 202.688 773.767 200.704C773.767 199.232 773.255 198.048 772.231 197.152C771.207 196.256 769.543 195.456 767.239 194.752C764.999 193.984 761.991 193.216 758.215 192.448C753.351 191.424 749.191 190.112 745.735 188.512C742.343 186.848 739.751 184.704 737.959 182.08C736.167 179.392 735.271 176.064 735.271 172.096C735.271 168.192 736.359 164.704 738.535 161.632C740.775 158.56 743.879 156.16 747.847 154.432C751.815 152.704 756.519 151.84 761.959 151.84C766.375 151.84 770.247 152.416 773.575 153.568C776.967 154.72 779.815 156.256 782.119 158.176C784.423 160.096 786.151 162.144 787.303 164.32C788.519 166.432 789.159 168.512 789.223 170.56C789.223 171.072 789.031 171.552 788.647 172C788.327 172.384 787.847 172.576 787.207 172.576H774.535C773.831 172.576 773.223 172.448 772.711 172.192C772.199 171.936 771.751 171.52 771.367 170.944C770.983 169.536 769.959 168.32 768.295 167.296C766.695 166.208 764.583 165.664 761.959 165.664C759.143 165.664 756.935 166.176 755.335 167.2C753.799 168.16 753.031 169.664 753.031 171.712C753.031 172.992 753.447 174.112 754.279 175.072C755.175 176.032 756.615 176.864 758.599 177.568C760.647 178.272 763.431 179.008 766.951 179.776C772.775 180.864 777.479 182.24 781.063 183.904C784.647 185.504 787.271 187.616 788.935 190.24C790.663 192.8 791.527 196.032 791.527 199.936C791.527 204.288 790.279 208.032 787.783 211.168C785.287 214.304 781.863 216.736 777.511 218.464C773.223 220.128 768.231 220.96 762.535 220.96Z" fill="#FF4F00"/>
<path d="M810.255 220C809.551 220 808.975 219.776 808.527 219.328C808.079 218.816 807.855 218.24 807.855 217.6V155.2C807.855 154.496 808.079 153.92 808.527 153.472C808.975 153.024 809.551 152.8 810.255 152.8H823.119C823.823 152.8 824.399 153.024 824.847 153.472C825.359 153.92 825.615 154.496 825.615 155.2V217.6C825.615 218.24 825.359 218.816 824.847 219.328C824.399 219.776 823.823 220 823.119 220H810.255Z" fill="#FF4F00"/>
<path d="M92.6179 164.104C92.6179 109.443 136.886 65.0218 191.358 65.0218V50.2146V25.0109H162.788C162.788 25.0109 142.851 24.2233 136.101 36.0375C129.351 47.6942 110.514 50.3721 110.514 50.3721H88.8504V43.9137C88.8504 39.503 85.3969 36.0375 81.0014 36.0375H59.8092C55.4138 36.0375 51.9602 39.503 51.9602 43.9137V50.3721H15.698C7.06408 50.3721 0 57.4607 0 66.1244V259.248C0 267.911 7.06408 275 15.698 275H191.358V263.343C136.886 263.186 92.6179 218.922 92.6179 164.104Z" fill="#FF4F00"/>
<path d="M191.358 231.535C154.411 231.535 124.508 201.276 124.508 163.889C124.508 126.502 154.411 96.2431 191.358 96.2431V76.4404C143.608 76.4404 104.938 115.57 104.938 163.889C104.938 212.207 143.608 251.338 191.358 251.338V231.535Z" fill="#FF4F00"/>
<path d="M216 0H226V300H216V0Z" fill="#FF4F00"/>
<path d="M141.493 137.554C137.346 145.458 135 154.455 135 164C135 192.36 155.712 215.883 182.834 220.267C157.172 210.21 139 185.227 139 156C139 149.611 139.868 143.426 141.493 137.554Z" fill="#FF4F00"/>
<path d="M252.774 274C252.527 274 252.317 273.914 252.145 273.741C251.972 273.568 251.886 273.359 251.886 273.112V249.025C251.886 248.754 251.972 248.532 252.145 248.359C252.317 248.186 252.527 248.1 252.774 248.1H256.03C256.301 248.1 256.523 248.186 256.696 248.359C256.868 248.532 256.955 248.754 256.955 249.025V257.683L265.317 248.766C265.415 248.643 265.576 248.507 265.798 248.359C266.044 248.186 266.365 248.1 266.76 248.1H270.423C270.62 248.1 270.793 248.174 270.941 248.322C271.113 248.47 271.2 248.655 271.2 248.877C271.2 249.05 271.15 249.198 271.052 249.321L260.877 260.495L271.755 272.742C271.878 272.89 271.94 273.05 271.94 273.223C271.94 273.445 271.853 273.63 271.681 273.778C271.533 273.926 271.36 274 271.163 274H267.352C266.932 274 266.599 273.914 266.353 273.741C266.131 273.544 265.983 273.408 265.909 273.334L256.955 263.529V273.112C256.955 273.359 256.868 273.568 256.696 273.741C256.523 273.914 256.301 274 256.03 274H252.774Z" fill="#303030"/>
<path d="M285.946 274.37C283.972 274.37 282.307 274.025 280.951 273.334C279.619 272.643 278.595 271.669 277.88 270.411C277.189 269.153 276.794 267.685 276.696 266.008C276.671 265.564 276.659 265.021 276.659 264.38C276.659 263.739 276.671 263.196 276.696 262.752C276.794 261.05 277.201 259.582 277.917 258.349C278.657 257.091 279.693 256.117 281.025 255.426C282.381 254.735 284.022 254.39 285.946 254.39C287.87 254.39 289.498 254.735 290.83 255.426C292.186 256.117 293.222 257.091 293.938 258.349C294.678 259.582 295.097 261.05 295.196 262.752C295.22 263.196 295.233 263.739 295.233 264.38C295.233 265.021 295.22 265.564 295.196 266.008C295.097 267.685 294.69 269.153 293.975 270.411C293.284 271.669 292.26 272.643 290.904 273.334C289.572 274.025 287.919 274.37 285.946 274.37ZM285.946 270.707C287.253 270.707 288.264 270.3 288.98 269.486C289.695 268.647 290.09 267.426 290.164 265.823C290.188 265.453 290.201 264.972 290.201 264.38C290.201 263.788 290.188 263.307 290.164 262.937C290.09 261.334 289.695 260.125 288.98 259.311C288.264 258.472 287.253 258.053 285.946 258.053C284.638 258.053 283.627 258.472 282.912 259.311C282.196 260.125 281.802 261.334 281.728 262.937C281.703 263.307 281.691 263.788 281.691 264.38C281.691 264.972 281.703 265.453 281.728 265.823C281.802 267.426 282.196 268.647 282.912 269.486C283.627 270.3 284.638 270.707 285.946 270.707Z" fill="#303030"/>
<path d="M303.92 274C303.674 274 303.464 273.914 303.291 273.741C303.119 273.568 303.032 273.359 303.032 273.112V255.685C303.032 255.414 303.119 255.192 303.291 255.019C303.464 254.846 303.674 254.76 303.92 254.76H306.917C307.164 254.76 307.374 254.846 307.546 255.019C307.744 255.192 307.842 255.414 307.842 255.685V257.202C308.41 256.413 309.137 255.808 310.025 255.389C310.938 254.97 311.986 254.76 313.17 254.76H314.687C314.959 254.76 315.168 254.846 315.316 255.019C315.489 255.192 315.575 255.401 315.575 255.648V258.312C315.575 258.559 315.489 258.768 315.316 258.941C315.168 259.114 314.959 259.2 314.687 259.2H311.801C310.617 259.2 309.692 259.533 309.026 260.199C308.385 260.84 308.064 261.753 308.064 262.937V273.112C308.064 273.359 307.978 273.568 307.805 273.741C307.633 273.914 307.411 274 307.139 274H303.92Z" fill="#303030"/>
<path d="M330.418 274.37C328.445 274.37 326.78 274.025 325.423 273.334C324.091 272.643 323.067 271.669 322.352 270.411C321.661 269.153 321.267 267.685 321.168 266.008C321.143 265.564 321.131 265.021 321.131 264.38C321.131 263.739 321.143 263.196 321.168 262.752C321.267 261.05 321.674 259.582 322.389 258.349C323.129 257.091 324.165 256.117 325.497 255.426C326.854 254.735 328.494 254.39 330.418 254.39C332.342 254.39 333.97 254.735 335.302 255.426C336.659 256.117 337.695 257.091 338.41 258.349C339.15 259.582 339.569 261.05 339.668 262.752C339.693 263.196 339.705 263.739 339.705 264.38C339.705 265.021 339.693 265.564 339.668 266.008C339.569 267.685 339.162 269.153 338.447 270.411C337.756 271.669 336.733 272.643 335.376 273.334C334.044 274.025 332.391 274.37 330.418 274.37ZM330.418 270.707C331.725 270.707 332.737 270.3 333.452 269.486C334.167 268.647 334.562 267.426 334.636 265.823C334.661 265.453 334.673 264.972 334.673 264.38C334.673 263.788 334.661 263.307 334.636 262.937C334.562 261.334 334.167 260.125 333.452 259.311C332.737 258.472 331.725 258.053 330.418 258.053C329.111 258.053 328.099 258.472 327.384 259.311C326.669 260.125 326.274 261.334 326.2 262.937C326.175 263.307 326.163 263.788 326.163 264.38C326.163 264.972 326.175 265.453 326.2 265.823C326.274 267.426 326.669 268.647 327.384 269.486C328.099 270.3 329.111 270.707 330.418 270.707Z" fill="#303030"/>
<path d="M348.392 274C348.146 274 347.936 273.914 347.763 273.741C347.591 273.568 347.504 273.359 347.504 273.112V255.648C347.504 255.401 347.591 255.192 347.763 255.019C347.936 254.846 348.146 254.76 348.392 254.76H351.426C351.673 254.76 351.883 254.846 352.055 255.019C352.228 255.192 352.314 255.401 352.314 255.648V257.165C352.956 256.376 353.77 255.722 354.756 255.204C355.768 254.661 357.013 254.39 358.493 254.39C359.998 254.39 361.305 254.735 362.415 255.426C363.525 256.092 364.376 257.042 364.968 258.275C365.585 259.508 365.893 260.988 365.893 262.715V273.112C365.893 273.359 365.807 273.568 365.634 273.741C365.462 273.914 365.252 274 365.005 274H361.749C361.503 274 361.293 273.914 361.12 273.741C360.948 273.568 360.861 273.359 360.861 273.112V262.937C360.861 261.506 360.504 260.384 359.788 259.57C359.098 258.756 358.086 258.349 356.754 258.349C355.472 258.349 354.448 258.756 353.683 259.57C352.919 260.384 352.536 261.506 352.536 262.937V273.112C352.536 273.359 352.45 273.568 352.277 273.741C352.105 273.914 351.895 274 351.648 274H348.392Z" fill="#303030"/>
<path d="M379.88 274.37C378.598 274.37 377.438 274.123 376.402 273.63C375.366 273.112 374.54 272.434 373.923 271.595C373.331 270.732 373.035 269.77 373.035 268.709C373.035 266.982 373.738 265.613 375.144 264.602C376.55 263.566 378.388 262.875 380.657 262.53L385.726 261.79V261.013C385.726 259.977 385.467 259.175 384.949 258.608C384.431 258.041 383.543 257.757 382.285 257.757C381.397 257.757 380.67 257.942 380.102 258.312C379.56 258.657 379.153 259.126 378.881 259.718C378.684 260.039 378.4 260.199 378.03 260.199H375.107C374.836 260.199 374.626 260.125 374.478 259.977C374.355 259.829 374.293 259.632 374.293 259.385C374.318 258.99 374.478 258.509 374.774 257.942C375.095 257.375 375.564 256.832 376.18 256.314C376.822 255.771 377.648 255.315 378.659 254.945C379.671 254.575 380.892 254.39 382.322 254.39C383.876 254.39 385.184 254.587 386.244 254.982C387.33 255.352 388.193 255.858 388.834 256.499C389.476 257.14 389.944 257.893 390.24 258.756C390.536 259.619 390.684 260.532 390.684 261.494V273.112C390.684 273.359 390.598 273.568 390.425 273.741C390.253 273.914 390.043 274 389.796 274H386.799C386.528 274 386.306 273.914 386.133 273.741C385.985 273.568 385.911 273.359 385.911 273.112V271.669C385.591 272.113 385.159 272.545 384.616 272.964C384.074 273.383 383.408 273.729 382.618 274C381.854 274.247 380.941 274.37 379.88 274.37ZM381.138 270.855C382.002 270.855 382.779 270.67 383.469 270.3C384.185 269.93 384.74 269.363 385.134 268.598C385.554 267.809 385.763 266.822 385.763 265.638V264.861L382.063 265.453C380.608 265.675 379.523 266.033 378.807 266.526C378.092 267.019 377.734 267.624 377.734 268.339C377.734 268.882 377.895 269.35 378.215 269.745C378.561 270.115 378.992 270.399 379.51 270.596C380.028 270.769 380.571 270.855 381.138 270.855Z" fill="#303030"/>
<path d="M412.618 274C412.371 274 412.162 273.914 411.989 273.741C411.816 273.568 411.73 273.359 411.73 273.112V249.025C411.73 248.754 411.816 248.532 411.989 248.359C412.162 248.186 412.371 248.1 412.618 248.1H421.646C424.137 248.1 426.185 248.482 427.788 249.247C429.416 250.012 430.637 251.146 431.451 252.651C432.29 254.156 432.721 255.993 432.746 258.164C432.795 259.249 432.82 260.211 432.82 261.05C432.82 261.889 432.795 262.838 432.746 263.899C432.697 266.193 432.277 268.092 431.488 269.597C430.699 271.077 429.502 272.187 427.899 272.927C426.32 273.642 424.298 274 421.831 274H412.618ZM416.873 269.745H421.646C423.027 269.745 424.15 269.548 425.013 269.153C425.876 268.758 426.505 268.129 426.9 267.266C427.319 266.378 427.541 265.219 427.566 263.788C427.591 263.048 427.603 262.407 427.603 261.864C427.628 261.297 427.628 260.742 427.603 260.199C427.603 259.632 427.591 258.99 427.566 258.275C427.517 256.252 427.011 254.76 426.049 253.798C425.087 252.836 423.558 252.355 421.461 252.355H416.873V269.745Z" fill="#303030"/>
<path d="M449.512 274.37C447.538 274.37 445.873 274.025 444.517 273.334C443.185 272.643 442.161 271.669 441.446 270.411C440.755 269.153 440.36 267.685 440.262 266.008C440.237 265.564 440.225 265.021 440.225 264.38C440.225 263.739 440.237 263.196 440.262 262.752C440.36 261.05 440.767 259.582 441.483 258.349C442.223 257.091 443.259 256.117 444.591 255.426C445.947 254.735 447.588 254.39 449.512 254.39C451.436 254.39 453.064 254.735 454.396 255.426C455.752 256.117 456.788 257.091 457.504 258.349C458.244 259.582 458.663 261.05 458.762 262.752C458.786 263.196 458.799 263.739 458.799 264.38C458.799 265.021 458.786 265.564 458.762 266.008C458.663 267.685 458.256 269.153 457.541 270.411C456.85 271.669 455.826 272.643 454.47 273.334C453.138 274.025 451.485 274.37 449.512 274.37ZM449.512 270.707C450.819 270.707 451.83 270.3 452.546 269.486C453.261 268.647 453.656 267.426 453.73 265.823C453.754 265.453 453.767 264.972 453.767 264.38C453.767 263.788 453.754 263.307 453.73 262.937C453.656 261.334 453.261 260.125 452.546 259.311C451.83 258.472 450.819 258.053 449.512 258.053C448.204 258.053 447.193 258.472 446.478 259.311C445.762 260.125 445.368 261.334 445.294 262.937C445.269 263.307 445.257 263.788 445.257 264.38C445.257 264.972 445.269 265.453 445.294 265.823C445.368 267.426 445.762 268.647 446.478 269.486C447.193 270.3 448.204 270.707 449.512 270.707ZM451.621 251.282C451.374 251.282 451.177 251.208 451.029 251.06C450.881 250.912 450.807 250.715 450.807 250.468V247.767C450.807 247.52 450.881 247.323 451.029 247.175C451.177 247.002 451.374 246.916 451.621 246.916H454.322C454.568 246.916 454.766 247.002 454.914 247.175C455.086 247.323 455.173 247.52 455.173 247.767V250.468C455.173 250.715 455.086 250.912 454.914 251.06C454.766 251.208 454.568 251.282 454.322 251.282H451.621ZM444.665 251.282C444.418 251.282 444.221 251.208 444.073 251.06C443.925 250.912 443.851 250.715 443.851 250.468V247.767C443.851 247.52 443.925 247.323 444.073 247.175C444.221 247.002 444.418 246.916 444.665 246.916H447.366C447.612 246.916 447.81 247.002 447.958 247.175C448.13 247.323 448.217 247.52 448.217 247.767V250.468C448.217 250.715 448.13 250.912 447.958 251.06C447.81 251.208 447.612 251.282 447.366 251.282H444.665Z" fill="#303030"/>
<path d="M467.486 274C467.24 274 467.03 273.914 466.857 273.741C466.685 273.568 466.598 273.359 466.598 273.112V255.648C466.598 255.401 466.685 255.192 466.857 255.019C467.03 254.846 467.24 254.76 467.486 254.76H470.52C470.767 254.76 470.977 254.846 471.149 255.019C471.322 255.192 471.408 255.401 471.408 255.648V257.165C472.05 256.376 472.864 255.722 473.85 255.204C474.862 254.661 476.107 254.39 477.587 254.39C479.092 254.39 480.399 254.735 481.509 255.426C482.619 256.092 483.47 257.042 484.062 258.275C484.679 259.508 484.987 260.988 484.987 262.715V273.112C484.987 273.359 484.901 273.568 484.728 273.741C484.556 273.914 484.346 274 484.099 274H480.843C480.597 274 480.387 273.914 480.214 273.741C480.042 273.568 479.955 273.359 479.955 273.112V262.937C479.955 261.506 479.598 260.384 478.882 259.57C478.192 258.756 477.18 258.349 475.848 258.349C474.566 258.349 473.542 258.756 472.777 259.57C472.013 260.384 471.63 261.506 471.63 262.937V273.112C471.63 273.359 471.544 273.568 471.371 273.741C471.199 273.914 470.989 274 470.742 274H467.486Z" fill="#303030"/>
<path d="M501.675 274.37C498.937 274.37 496.766 273.581 495.163 272.002C493.56 270.423 492.696 268.179 492.573 265.268C492.548 265.021 492.536 264.713 492.536 264.343C492.536 263.948 492.548 263.64 492.573 263.418C492.672 261.543 493.091 259.94 493.831 258.608C494.596 257.251 495.644 256.215 496.976 255.5C498.308 254.76 499.874 254.39 501.675 254.39C503.673 254.39 505.35 254.809 506.707 255.648C508.064 256.462 509.087 257.609 509.778 259.089C510.469 260.544 510.814 262.234 510.814 264.158V264.935C510.814 265.182 510.728 265.391 510.555 265.564C510.382 265.737 510.16 265.823 509.889 265.823H497.605C497.605 265.823 497.605 265.86 497.605 265.934C497.605 266.008 497.605 266.07 497.605 266.119C497.63 266.982 497.79 267.784 498.086 268.524C498.407 269.239 498.863 269.819 499.455 270.263C500.072 270.707 500.799 270.929 501.638 270.929C502.329 270.929 502.908 270.83 503.377 270.633C503.846 270.411 504.228 270.164 504.524 269.893C504.82 269.622 505.03 269.4 505.153 269.227C505.375 268.931 505.548 268.758 505.671 268.709C505.819 268.635 506.029 268.598 506.3 268.598H509.482C509.729 268.598 509.926 268.672 510.074 268.82C510.247 268.968 510.321 269.153 510.296 269.375C510.271 269.77 510.062 270.251 509.667 270.818C509.297 271.385 508.754 271.94 508.039 272.483C507.324 273.026 506.423 273.482 505.338 273.852C504.277 274.197 503.056 274.37 501.675 274.37ZM497.605 262.715H505.782V262.604C505.782 261.642 505.622 260.803 505.301 260.088C504.98 259.348 504.512 258.781 503.895 258.386C503.278 257.967 502.538 257.757 501.675 257.757C500.812 257.757 500.072 257.967 499.455 258.386C498.838 258.781 498.37 259.348 498.049 260.088C497.753 260.803 497.605 261.642 497.605 262.604V262.715Z" fill="#303030"/>
<path d="M519.33 274C519.083 274 518.873 273.914 518.701 273.741C518.528 273.568 518.442 273.359 518.442 273.112V255.648C518.442 255.401 518.528 255.192 518.701 255.019C518.873 254.846 519.083 254.76 519.33 254.76H522.216C522.462 254.76 522.672 254.846 522.845 255.019C523.017 255.192 523.104 255.401 523.104 255.648V256.906C523.622 256.215 524.312 255.636 525.176 255.167C526.064 254.674 527.112 254.415 528.321 254.39C531.133 254.341 533.094 255.438 534.204 257.683C534.771 256.696 535.585 255.907 536.646 255.315C537.731 254.698 538.927 254.39 540.235 254.39C541.517 254.39 542.677 254.686 543.713 255.278C544.773 255.87 545.6 256.77 546.192 257.979C546.808 259.163 547.117 260.668 547.117 262.493V273.112C547.117 273.359 547.03 273.568 546.858 273.741C546.685 273.914 546.475 274 546.229 274H543.195C542.948 274 542.738 273.914 542.566 273.741C542.393 273.568 542.307 273.359 542.307 273.112V262.789C542.307 261.679 542.146 260.803 541.826 260.162C541.505 259.496 541.073 259.027 540.531 258.756C539.988 258.485 539.384 258.349 538.718 258.349C538.175 258.349 537.632 258.485 537.09 258.756C536.547 259.027 536.103 259.496 535.758 260.162C535.412 260.803 535.24 261.679 535.24 262.789V273.112C535.24 273.359 535.153 273.568 534.981 273.741C534.808 273.914 534.598 274 534.352 274H531.318C531.071 274 530.861 273.914 530.689 273.741C530.516 273.568 530.43 273.359 530.43 273.112V262.789C530.43 261.679 530.257 260.803 529.912 260.162C529.566 259.496 529.122 259.027 528.58 258.756C528.037 258.485 527.457 258.349 526.841 258.349C526.273 258.349 525.718 258.497 525.176 258.793C524.633 259.064 524.189 259.521 523.844 260.162C523.498 260.803 523.326 261.679 523.326 262.789V273.112C523.326 273.359 523.239 273.568 523.067 273.741C522.894 273.914 522.684 274 522.438 274H519.33Z" fill="#303030"/>
<path d="M556.416 274C556.17 274 555.96 273.914 555.787 273.741C555.615 273.568 555.528 273.359 555.528 273.112V255.648C555.528 255.401 555.615 255.192 555.787 255.019C555.96 254.846 556.17 254.76 556.416 254.76H559.487C559.759 254.76 559.968 254.846 560.116 255.019C560.289 255.192 560.375 255.401 560.375 255.648V273.112C560.375 273.359 560.289 273.568 560.116 273.741C559.968 273.914 559.759 274 559.487 274H556.416ZM556.268 251.578C556.022 251.578 555.812 251.492 555.639 251.319C555.467 251.146 555.38 250.937 555.38 250.69V248.026C555.38 247.779 555.467 247.57 555.639 247.397C555.812 247.224 556.022 247.138 556.268 247.138H559.635C559.907 247.138 560.129 247.224 560.301 247.397C560.474 247.57 560.56 247.779 560.56 248.026V250.69C560.56 250.937 560.474 251.146 560.301 251.319C560.129 251.492 559.907 251.578 559.635 251.578H556.268Z" fill="#303030"/>
<path d="M569.872 274C569.625 274 569.416 273.914 569.243 273.741C569.07 273.568 568.984 273.359 568.984 273.112V255.648C568.984 255.401 569.07 255.192 569.243 255.019C569.416 254.846 569.625 254.76 569.872 254.76H572.906C573.153 254.76 573.362 254.846 573.535 255.019C573.708 255.192 573.794 255.401 573.794 255.648V257.165C574.435 256.376 575.249 255.722 576.236 255.204C577.247 254.661 578.493 254.39 579.973 254.39C581.478 254.39 582.785 254.735 583.895 255.426C585.005 256.092 585.856 257.042 586.448 258.275C587.065 259.508 587.373 260.988 587.373 262.715V273.112C587.373 273.359 587.287 273.568 587.114 273.741C586.941 273.914 586.732 274 586.485 274H583.229C582.982 274 582.773 273.914 582.6 273.741C582.427 273.568 582.341 273.359 582.341 273.112V262.937C582.341 261.506 581.983 260.384 581.268 259.57C580.577 258.756 579.566 258.349 578.234 258.349C576.951 258.349 575.928 258.756 575.163 259.57C574.398 260.384 574.016 261.506 574.016 262.937V273.112C574.016 273.359 573.93 273.568 573.757 273.741C573.584 273.914 573.375 274 573.128 274H569.872Z" fill="#303030"/>
<path d="M602.914 274.37C601.631 274.37 600.497 274.16 599.51 273.741C598.548 273.297 597.746 272.68 597.105 271.891C596.464 271.102 595.97 270.177 595.625 269.116C595.28 268.031 595.082 266.847 595.033 265.564C595.008 265.12 594.996 264.725 594.996 264.38C594.996 264.01 595.008 263.603 595.033 263.159C595.082 261.926 595.267 260.779 595.588 259.718C595.933 258.657 596.427 257.732 597.068 256.943C597.734 256.129 598.548 255.5 599.51 255.056C600.497 254.612 601.631 254.39 602.914 254.39C604.246 254.39 605.368 254.624 606.281 255.093C607.218 255.537 607.995 256.117 608.612 256.832V248.618C608.612 248.371 608.686 248.162 608.834 247.989C609.007 247.816 609.229 247.73 609.5 247.73H612.645C612.892 247.73 613.101 247.816 613.274 247.989C613.447 248.162 613.533 248.371 613.533 248.618V273.112C613.533 273.359 613.447 273.568 613.274 273.741C613.101 273.914 612.892 274 612.645 274H609.722C609.451 274 609.229 273.914 609.056 273.741C608.908 273.568 608.834 273.359 608.834 273.112V271.743C608.217 272.508 607.428 273.137 606.466 273.63C605.529 274.123 604.345 274.37 602.914 274.37ZM604.283 270.411C605.319 270.411 606.145 270.177 606.762 269.708C607.379 269.239 607.835 268.647 608.131 267.932C608.427 267.192 608.587 266.44 608.612 265.675C608.637 265.231 608.649 264.762 608.649 264.269C608.649 263.751 608.637 263.27 608.612 262.826C608.587 262.086 608.415 261.383 608.094 260.717C607.773 260.026 607.305 259.459 606.688 259.015C606.071 258.571 605.27 258.349 604.283 258.349C603.247 258.349 602.421 258.583 601.804 259.052C601.212 259.496 600.78 260.088 600.509 260.828C600.238 261.568 600.077 262.382 600.028 263.27C600.003 264.01 600.003 264.75 600.028 265.49C600.077 266.378 600.238 267.192 600.509 267.932C600.78 268.672 601.212 269.276 601.804 269.745C602.421 270.189 603.247 270.411 604.283 270.411Z" fill="#303030"/>
<path d="M630.452 274.37C627.714 274.37 625.544 273.581 623.94 272.002C622.337 270.423 621.474 268.179 621.35 265.268C621.326 265.021 621.313 264.713 621.313 264.343C621.313 263.948 621.326 263.64 621.35 263.418C621.449 261.543 621.868 259.94 622.608 258.608C623.373 257.251 624.421 256.215 625.753 255.5C627.085 254.76 628.652 254.39 630.452 254.39C632.45 254.39 634.128 254.809 635.484 255.648C636.841 256.462 637.865 257.609 638.555 259.089C639.246 260.544 639.591 262.234 639.591 264.158V264.935C639.591 265.182 639.505 265.391 639.332 265.564C639.16 265.737 638.938 265.823 638.666 265.823H626.382C626.382 265.823 626.382 265.86 626.382 265.934C626.382 266.008 626.382 266.07 626.382 266.119C626.407 266.982 626.567 267.784 626.863 268.524C627.184 269.239 627.64 269.819 628.232 270.263C628.849 270.707 629.577 270.929 630.415 270.929C631.106 270.929 631.686 270.83 632.154 270.633C632.623 270.411 633.005 270.164 633.301 269.893C633.597 269.622 633.807 269.4 633.93 269.227C634.152 268.931 634.325 268.758 634.448 268.709C634.596 268.635 634.806 268.598 635.077 268.598H638.259C638.506 268.598 638.703 268.672 638.851 268.82C639.024 268.968 639.098 269.153 639.073 269.375C639.049 269.77 638.839 270.251 638.444 270.818C638.074 271.385 637.532 271.94 636.816 272.483C636.101 273.026 635.201 273.482 634.115 273.852C633.055 274.197 631.834 274.37 630.452 274.37ZM626.382 262.715H634.559V262.604C634.559 261.642 634.399 260.803 634.078 260.088C633.758 259.348 633.289 258.781 632.672 258.386C632.056 257.967 631.316 257.757 630.452 257.757C629.589 257.757 628.849 257.967 628.232 258.386C627.616 258.781 627.147 259.348 626.826 260.088C626.53 260.803 626.382 261.642 626.382 262.604V262.715Z" fill="#303030"/>
<path d="M666.43 274C666.183 274 665.974 273.914 665.801 273.741C665.628 273.568 665.542 273.359 665.542 273.112V264.75L656.81 249.284C656.785 249.235 656.761 249.173 656.736 249.099C656.711 249.025 656.699 248.951 656.699 248.877C656.699 248.655 656.773 248.47 656.921 248.322C657.069 248.174 657.242 248.1 657.439 248.1H660.732C661.028 248.1 661.262 248.174 661.435 248.322C661.632 248.47 661.768 248.63 661.842 248.803L668.132 259.57L674.385 248.803C674.484 248.63 674.619 248.47 674.792 248.322C674.989 248.174 675.236 248.1 675.532 248.1H678.788C679.01 248.1 679.195 248.174 679.343 248.322C679.491 248.47 679.565 248.655 679.565 248.877C679.565 248.951 679.553 249.025 679.528 249.099C679.528 249.173 679.503 249.235 679.454 249.284L670.722 264.75V273.112C670.722 273.359 670.636 273.568 670.463 273.741C670.29 273.914 670.068 274 669.797 274H666.43Z" fill="#303030"/>
<path d="M688.498 274.37C687.215 274.37 686.056 274.123 685.02 273.63C683.984 273.112 683.158 272.434 682.541 271.595C681.949 270.732 681.653 269.77 681.653 268.709C681.653 266.982 682.356 265.613 683.762 264.602C685.168 263.566 687.006 262.875 689.275 262.53L694.344 261.79V261.013C694.344 259.977 694.085 259.175 693.567 258.608C693.049 258.041 692.161 257.757 690.903 257.757C690.015 257.757 689.287 257.942 688.72 258.312C688.177 258.657 687.77 259.126 687.499 259.718C687.302 260.039 687.018 260.199 686.648 260.199H683.725C683.454 260.199 683.244 260.125 683.096 259.977C682.973 259.829 682.911 259.632 682.911 259.385C682.936 258.99 683.096 258.509 683.392 257.942C683.713 257.375 684.181 256.832 684.798 256.314C685.439 255.771 686.266 255.315 687.277 254.945C688.288 254.575 689.509 254.39 690.94 254.39C692.494 254.39 693.801 254.587 694.862 254.982C695.947 255.352 696.811 255.858 697.452 256.499C698.093 257.14 698.562 257.893 698.858 258.756C699.154 259.619 699.302 260.532 699.302 261.494V273.112C699.302 273.359 699.216 273.568 699.043 273.741C698.87 273.914 698.661 274 698.414 274H695.417C695.146 274 694.924 273.914 694.751 273.741C694.603 273.568 694.529 273.359 694.529 273.112V271.669C694.208 272.113 693.777 272.545 693.234 272.964C692.691 273.383 692.025 273.729 691.236 274C690.471 274.247 689.559 274.37 688.498 274.37ZM689.756 270.855C690.619 270.855 691.396 270.67 692.087 270.3C692.802 269.93 693.357 269.363 693.752 268.598C694.171 267.809 694.381 266.822 694.381 265.638V264.861L690.681 265.453C689.226 265.675 688.14 266.033 687.425 266.526C686.71 267.019 686.352 267.624 686.352 268.339C686.352 268.882 686.512 269.35 686.833 269.745C687.178 270.115 687.61 270.399 688.128 270.596C688.646 270.769 689.189 270.855 689.756 270.855Z" fill="#303030"/>
<path d="M708.674 274C708.427 274 708.217 273.914 708.045 273.741C707.872 273.568 707.786 273.359 707.786 273.112V248.618C707.786 248.371 707.872 248.162 708.045 247.989C708.217 247.816 708.427 247.73 708.674 247.73H711.745C711.991 247.73 712.201 247.816 712.374 247.989C712.546 248.162 712.633 248.371 712.633 248.618V273.112C712.633 273.359 712.546 273.568 712.374 273.741C712.201 273.914 711.991 274 711.745 274H708.674Z" fill="#303030"/>
<path d="M722.129 274C721.882 274 721.672 273.914 721.5 273.741C721.327 273.568 721.241 273.359 721.241 273.112V255.648C721.241 255.401 721.327 255.192 721.5 255.019C721.672 254.846 721.882 254.76 722.129 254.76H725.163C725.409 254.76 725.619 254.846 725.792 255.019C725.964 255.192 726.051 255.401 726.051 255.648V257.165C726.692 256.376 727.506 255.722 728.493 255.204C729.504 254.661 730.75 254.39 732.23 254.39C733.734 254.39 735.042 254.735 736.152 255.426C737.262 256.092 738.113 257.042 738.705 258.275C739.321 259.508 739.63 260.988 739.63 262.715V273.112C739.63 273.359 739.543 273.568 739.371 273.741C739.198 273.914 738.988 274 738.742 274H735.486C735.239 274 735.029 273.914 734.857 273.741C734.684 273.568 734.598 273.359 734.598 273.112V262.937C734.598 261.506 734.24 260.384 733.525 259.57C732.834 258.756 731.823 258.349 730.491 258.349C729.208 258.349 728.184 258.756 727.42 259.57C726.655 260.384 726.273 261.506 726.273 262.937V273.112C726.273 273.359 726.186 273.568 726.014 273.741C725.841 273.914 725.631 274 725.385 274H722.129Z" fill="#303030"/>
<path d="M748.917 274C748.671 274 748.461 273.914 748.288 273.741C748.116 273.568 748.029 273.359 748.029 273.112V255.648C748.029 255.401 748.116 255.192 748.288 255.019C748.461 254.846 748.671 254.76 748.917 254.76H751.988C752.26 254.76 752.469 254.846 752.617 255.019C752.79 255.192 752.876 255.401 752.876 255.648V273.112C752.876 273.359 752.79 273.568 752.617 273.741C752.469 273.914 752.26 274 751.988 274H748.917Z" fill="#303030"/>
<path d="M761.411 274C761.14 274 760.918 273.914 760.745 273.741C760.597 273.568 760.523 273.359 760.523 273.112V271.003C760.523 270.781 760.573 270.571 760.671 270.374C760.795 270.152 760.918 269.967 761.041 269.819L770.513 258.608H761.707C761.461 258.608 761.251 258.534 761.078 258.386C760.906 258.213 760.819 257.991 760.819 257.72V255.648C760.819 255.401 760.906 255.192 761.078 255.019C761.251 254.846 761.461 254.76 761.707 254.76H775.73C776.002 254.76 776.211 254.846 776.359 255.019C776.532 255.192 776.618 255.401 776.618 255.648V257.905C776.618 258.127 776.569 258.324 776.47 258.497C776.372 258.67 776.248 258.842 776.1 259.015L766.85 270.152H776.507C776.754 270.152 776.964 270.238 777.136 270.411C777.309 270.559 777.395 270.769 777.395 271.04V273.112C777.395 273.359 777.309 273.568 777.136 273.741C776.964 273.914 776.754 274 776.507 274H761.411Z" fill="#303030"/>
<path d="M785.767 274C785.52 274 785.31 273.914 785.138 273.741C784.965 273.568 784.879 273.359 784.879 273.112V248.618C784.879 248.371 784.965 248.162 785.138 247.989C785.31 247.816 785.52 247.73 785.767 247.73H788.838C789.084 247.73 789.294 247.816 789.467 247.989C789.639 248.162 789.726 248.371 789.726 248.618V273.112C789.726 273.359 789.639 273.568 789.467 273.741C789.294 273.914 789.084 274 788.838 274H785.767Z" fill="#303030"/>
<path d="M799.222 274C798.975 274 798.765 273.914 798.593 273.741C798.42 273.568 798.334 273.359 798.334 273.112V255.648C798.334 255.401 798.42 255.192 798.593 255.019C798.765 254.846 798.975 254.76 799.222 254.76H802.293C802.564 254.76 802.774 254.846 802.922 255.019C803.094 255.192 803.181 255.401 803.181 255.648V273.112C803.181 273.359 803.094 273.568 802.922 273.741C802.774 273.914 802.564 274 802.293 274H799.222Z" fill="#303030"/>
<path d="M812.714 274C812.468 274 812.258 273.914 812.085 273.741C811.913 273.568 811.826 273.359 811.826 273.112V248.618C811.826 248.371 811.913 248.162 812.085 247.989C812.258 247.816 812.468 247.73 812.714 247.73H815.711C815.983 247.73 816.192 247.816 816.34 247.989C816.513 248.162 816.599 248.371 816.599 248.618V261.272L822.815 255.389C823.062 255.192 823.259 255.044 823.407 254.945C823.58 254.822 823.839 254.76 824.184 254.76H827.625C827.872 254.76 828.069 254.834 828.217 254.982C828.365 255.13 828.439 255.327 828.439 255.574C828.439 255.673 828.415 255.784 828.365 255.907C828.316 256.03 828.217 256.141 828.069 256.24L820.447 263.381L828.994 272.557C829.241 272.804 829.364 273.013 829.364 273.186C829.364 273.433 829.278 273.63 829.105 273.778C828.957 273.926 828.772 274 828.55 274H825.035C824.665 274 824.394 273.951 824.221 273.852C824.073 273.729 823.888 273.568 823.666 273.371L816.599 265.934V273.112C816.599 273.359 816.513 273.568 816.34 273.741C816.192 273.914 815.983 274 815.711 274H812.714Z" fill="#303030"/>
</svg>
