<svg width="780" height="198" viewBox="0 0 780 198" fill="none" xmlns="http://www.w3.org/2000/svg">
<path d="M163.12 44.3C161.56 44.3 160.2 44.05 159.04 43.55C157.9 43.03 157.02 42.36 156.4 41.54C155.8 40.72 155.48 39.84 155.44 38.9C155.44 38.74 155.5 38.6 155.62 38.48C155.74 38.36 155.89 38.3 156.07 38.3H156.67C157.03 38.3 157.25 38.5 157.33 38.9C157.47 39.86 158.02 40.7 158.98 41.42C159.94 42.14 161.32 42.5 163.12 42.5C165.02 42.5 166.43 42.16 167.35 41.48C168.29 40.78 168.76 39.81 168.76 38.57C168.76 37.81 168.53 37.19 168.07 36.71C167.63 36.21 166.98 35.78 166.12 35.42C165.26 35.04 163.96 34.57 162.22 34.01C160.68 33.51 159.47 33.02 158.59 32.54C157.73 32.06 157.09 31.47 156.67 30.77C156.25 30.07 156.04 29.18 156.04 28.1C156.04 27.08 156.31 26.16 156.85 25.34C157.41 24.52 158.21 23.88 159.25 23.42C160.29 22.94 161.53 22.7 162.97 22.7C164.45 22.7 165.72 22.97 166.78 23.51C167.84 24.03 168.64 24.7 169.18 25.52C169.72 26.32 170.01 27.13 170.05 27.95C170.05 28.11 169.99 28.25 169.87 28.37C169.77 28.49 169.62 28.55 169.42 28.55H168.82C168.68 28.55 168.54 28.51 168.4 28.43C168.26 28.33 168.18 28.17 168.16 27.95C168.04 26.95 167.5 26.13 166.54 25.49C165.6 24.83 164.41 24.5 162.97 24.5C161.43 24.5 160.2 24.8 159.28 25.4C158.38 26 157.93 26.9 157.93 28.1C157.93 28.88 158.13 29.53 158.53 30.05C158.95 30.55 159.57 30.99 160.39 31.37C161.21 31.73 162.42 32.17 164.02 32.69C165.66 33.21 166.94 33.71 167.86 34.19C168.78 34.67 169.47 35.25 169.93 35.93C170.41 36.61 170.65 37.49 170.65 38.57C170.65 40.37 169.98 41.78 168.64 42.8C167.3 43.8 165.46 44.3 163.12 44.3ZM179.694 44.3C178.734 44.3 177.844 44.1 177.024 43.7C176.204 43.3 175.544 42.76 175.044 42.08C174.564 41.4 174.324 40.65 174.324 39.83C174.324 38.51 174.854 37.43 175.914 36.59C176.994 35.75 178.444 35.21 180.264 34.97L185.004 34.31V33.26C185.004 32.16 184.664 31.32 183.984 30.74C183.324 30.14 182.304 29.84 180.924 29.84C179.904 29.84 179.064 30.04 178.404 30.44C177.764 30.84 177.354 31.32 177.174 31.88C177.094 32.12 176.994 32.29 176.874 32.39C176.774 32.47 176.634 32.51 176.454 32.51H176.034C175.854 32.51 175.694 32.45 175.554 32.33C175.434 32.19 175.374 32.03 175.374 31.85C175.374 31.41 175.574 30.9 175.974 30.32C176.374 29.72 176.994 29.2 177.834 28.76C178.674 28.32 179.704 28.1 180.924 28.1C183.064 28.1 184.584 28.61 185.484 29.63C186.384 30.65 186.834 31.89 186.834 33.35V43.34C186.834 43.54 186.774 43.7 186.654 43.82C186.534 43.94 186.374 44 186.174 44H185.664C185.464 44 185.304 43.94 185.184 43.82C185.064 43.7 185.004 43.54 185.004 43.34V41.93C184.564 42.59 183.914 43.15 183.054 43.61C182.214 44.07 181.094 44.3 179.694 44.3ZM179.994 42.56C181.454 42.56 182.654 42.08 183.594 41.12C184.534 40.16 185.004 38.78 185.004 36.98V35.96L181.134 36.5C179.494 36.72 178.254 37.1 177.414 37.64C176.574 38.18 176.154 38.86 176.154 39.68C176.154 40.6 176.534 41.31 177.294 41.81C178.074 42.31 178.974 42.56 179.994 42.56ZM193.138 44C192.938 44 192.778 43.94 192.658 43.82C192.538 43.7 192.478 43.54 192.478 43.34V29.06C192.478 28.86 192.538 28.7 192.658 28.58C192.778 28.46 192.938 28.4 193.138 28.4H193.648C193.848 28.4 194.008 28.46 194.128 28.58C194.248 28.7 194.308 28.86 194.308 29.06V30.11C194.828 29.45 195.428 28.95 196.108 28.61C196.808 28.27 197.638 28.1 198.598 28.1C200.838 28.1 202.438 29.04 203.398 30.92C203.878 30.06 204.558 29.38 205.438 28.88C206.338 28.36 207.358 28.1 208.498 28.1C210.158 28.1 211.508 28.67 212.548 29.81C213.588 30.93 214.108 32.53 214.108 34.61V43.34C214.108 43.54 214.048 43.7 213.928 43.82C213.808 43.94 213.648 44 213.448 44H212.938C212.738 44 212.578 43.94 212.458 43.82C212.338 43.7 212.278 43.54 212.278 43.34V34.91C212.278 33.09 211.898 31.79 211.138 31.01C210.398 30.23 209.418 29.84 208.198 29.84C207.118 29.84 206.178 30.24 205.378 31.04C204.598 31.82 204.208 33.11 204.208 34.91V43.34C204.208 43.54 204.148 43.7 204.028 43.82C203.908 43.94 203.748 44 203.548 44H203.038C202.838 44 202.678 43.94 202.558 43.82C202.438 43.7 202.378 43.54 202.378 43.34V34.91C202.378 33.11 201.988 31.82 201.208 31.04C200.428 30.24 199.458 29.84 198.298 29.84C197.218 29.84 196.278 30.24 195.478 31.04C194.698 31.82 194.308 33.1 194.308 34.88V43.34C194.308 43.54 194.248 43.7 194.128 43.82C194.008 43.94 193.848 44 193.648 44H193.138ZM225.506 44.3C223.606 44.3 222.076 43.68 220.916 42.44C219.756 41.18 219.096 39.5 218.936 37.4L218.906 36.2L218.936 35C219.096 32.92 219.746 31.25 220.886 29.99C222.046 28.73 223.586 28.1 225.506 28.1C227.586 28.1 229.206 28.79 230.366 30.17C231.546 31.55 232.136 33.44 232.136 35.84V36.29C232.136 36.49 232.066 36.65 231.926 36.77C231.806 36.89 231.646 36.95 231.446 36.95H220.766V37.25C220.806 38.19 221.016 39.07 221.396 39.89C221.796 40.69 222.346 41.34 223.046 41.84C223.746 42.32 224.566 42.56 225.506 42.56C226.606 42.56 227.496 42.35 228.176 41.93C228.876 41.49 229.376 41.05 229.676 40.61C229.856 40.37 229.986 40.22 230.066 40.16C230.166 40.1 230.336 40.07 230.576 40.07H231.056C231.236 40.07 231.386 40.12 231.506 40.22C231.626 40.32 231.686 40.45 231.686 40.61C231.686 41.03 231.416 41.54 230.876 42.14C230.356 42.72 229.626 43.23 228.686 43.67C227.746 44.09 226.686 44.3 225.506 44.3ZM230.306 35.27V35.15C230.306 33.61 229.866 32.34 228.986 31.34C228.126 30.34 226.966 29.84 225.506 29.84C224.046 29.84 222.886 30.34 222.026 31.34C221.186 32.34 220.766 33.61 220.766 35.15V35.27H230.306ZM237.653 44C237.453 44 237.293 43.94 237.173 43.82C237.053 43.7 236.993 43.54 236.993 43.34V29.06C236.993 28.86 237.053 28.7 237.173 28.58C237.293 28.46 237.453 28.4 237.653 28.4H238.163C238.363 28.4 238.523 28.46 238.643 28.58C238.763 28.7 238.823 28.86 238.823 29.06V30.47C239.423 29.69 240.103 29.1 240.863 28.7C241.643 28.3 242.643 28.1 243.863 28.1C245.823 28.1 247.333 28.73 248.393 29.99C249.453 31.23 249.983 32.84 249.983 34.82V43.34C249.983 43.54 249.923 43.7 249.803 43.82C249.683 43.94 249.523 44 249.323 44H248.813C248.613 44 248.453 43.94 248.333 43.82C248.213 43.7 248.153 43.54 248.153 43.34V34.97C248.153 33.35 247.753 32.09 246.953 31.19C246.173 30.29 245.043 29.84 243.563 29.84C242.123 29.84 240.973 30.3 240.113 31.22C239.253 32.12 238.823 33.37 238.823 34.97V43.34C238.823 43.54 238.763 43.7 238.643 43.82C238.523 43.94 238.363 44 238.163 44H237.653ZM260.548 44C259.988 44 259.608 43.75 259.408 43.25L253.888 29.33L253.828 29C253.828 28.84 253.888 28.7 254.008 28.58C254.128 28.46 254.268 28.4 254.428 28.4H255.058C255.238 28.4 255.378 28.45 255.478 28.55C255.598 28.65 255.678 28.75 255.718 28.85L260.788 41.81L265.858 28.85C265.898 28.75 265.968 28.65 266.068 28.55C266.188 28.45 266.338 28.4 266.518 28.4H267.148C267.308 28.4 267.448 28.46 267.568 28.58C267.688 28.7 267.748 28.84 267.748 29L267.688 29.33L262.168 43.25C261.968 43.75 261.588 44 261.028 44H260.548ZM277.532 44C276.972 44 276.592 43.75 276.392 43.25L270.872 29.33L270.812 29C270.812 28.84 270.872 28.7 270.992 28.58C271.112 28.46 271.252 28.4 271.412 28.4H272.042C272.222 28.4 272.362 28.45 272.462 28.55C272.582 28.65 272.662 28.75 272.702 28.85L277.772 41.81L282.842 28.85C282.882 28.75 282.952 28.65 283.052 28.55C283.172 28.45 283.322 28.4 283.502 28.4H284.132C284.292 28.4 284.432 28.46 284.552 28.58C284.672 28.7 284.732 28.84 284.732 29L284.672 29.33L279.152 43.25C278.952 43.75 278.572 44 278.012 44H277.532ZM294.516 44C293.956 44 293.576 43.75 293.376 43.25L287.856 29.33L287.796 29C287.796 28.84 287.856 28.7 287.976 28.58C288.096 28.46 288.236 28.4 288.396 28.4H289.026C289.206 28.4 289.346 28.45 289.446 28.55C289.566 28.65 289.646 28.75 289.686 28.85L294.756 41.81L299.826 28.85C299.866 28.75 299.936 28.65 300.036 28.55C300.156 28.45 300.306 28.4 300.486 28.4H301.116C301.276 28.4 301.416 28.46 301.536 28.58C301.656 28.7 301.716 28.84 301.716 29L301.656 29.33L296.136 43.25C295.936 43.75 295.556 44 294.996 44H294.516ZM314.994 44C314.794 44 314.634 43.94 314.514 43.82C314.394 43.7 314.334 43.54 314.334 43.34V23.66C314.334 23.46 314.394 23.3 314.514 23.18C314.634 23.06 314.794 23 314.994 23H315.564C315.764 23 315.924 23.06 316.044 23.18C316.164 23.3 316.224 23.46 316.224 23.66V43.34C316.224 43.54 316.164 43.7 316.044 43.82C315.924 43.94 315.764 44 315.564 44H314.994ZM322.53 44C322.33 44 322.17 43.94 322.05 43.82C321.93 43.7 321.87 43.54 321.87 43.34V41.9C321.87 41.7 321.93 41.54 322.05 41.42C322.17 41.28 322.33 41.21 322.53 41.21H323.97C324.17 41.21 324.33 41.28 324.45 41.42C324.59 41.54 324.66 41.7 324.66 41.9V43.34C324.66 43.54 324.59 43.7 324.45 43.82C324.33 43.94 324.17 44 323.97 44H322.53ZM346.743 44.3C344.243 44.3 342.323 43.61 340.983 42.23C339.663 40.83 339.003 38.71 339.003 35.87V23.69C339.003 23.49 339.063 23.33 339.183 23.21C339.303 23.07 339.463 23 339.663 23H340.203C340.423 23 340.593 23.06 340.713 23.18C340.833 23.3 340.893 23.47 340.893 23.69V35.96C340.893 38.16 341.403 39.8 342.423 40.88C343.443 41.96 344.883 42.5 346.743 42.5C348.583 42.5 350.013 41.96 351.033 40.88C352.053 39.8 352.563 38.16 352.563 35.96V23.69C352.563 23.47 352.623 23.3 352.743 23.18C352.883 23.06 353.053 23 353.253 23H353.793C353.993 23 354.153 23.07 354.273 23.21C354.393 23.33 354.453 23.49 354.453 23.69V35.87C354.453 38.73 353.793 40.85 352.473 42.23C351.153 43.61 349.243 44.3 346.743 44.3ZM361.125 44C360.925 44 360.765 43.94 360.645 43.82C360.525 43.7 360.465 43.54 360.465 43.34V23.36C360.465 23.16 360.525 23 360.645 22.88C360.765 22.76 360.925 22.7 361.125 22.7H361.635C361.835 22.7 361.995 22.76 362.115 22.88C362.235 23 362.295 23.16 362.295 23.36V43.34C362.295 43.54 362.235 43.7 362.115 43.82C361.995 43.94 361.835 44 361.635 44H361.125ZM373.923 44.3C371.963 44.3 370.473 43.68 369.453 42.44C368.433 41.2 367.923 39.58 367.923 37.58V29.06C367.923 28.86 367.983 28.7 368.103 28.58C368.223 28.46 368.383 28.4 368.583 28.4H369.093C369.293 28.4 369.453 28.46 369.573 28.58C369.693 28.7 369.753 28.86 369.753 29.06V37.43C369.753 40.85 371.243 42.56 374.223 42.56C375.663 42.56 376.803 42.11 377.643 41.21C378.503 40.29 378.933 39.03 378.933 37.43V29.06C378.933 28.86 378.993 28.7 379.113 28.58C379.233 28.46 379.393 28.4 379.593 28.4H380.103C380.303 28.4 380.463 28.46 380.583 28.58C380.703 28.7 380.763 28.86 380.763 29.06V43.34C380.763 43.54 380.703 43.7 380.583 43.82C380.463 43.94 380.303 44 380.103 44H379.593C379.393 44 379.233 43.94 379.113 43.82C378.993 43.7 378.933 43.54 378.933 43.34V41.93C378.333 42.71 377.643 43.3 376.863 43.7C376.103 44.1 375.123 44.3 373.923 44.3ZM391.472 44.3C390.172 44.3 389.072 44.08 388.172 43.64C387.292 43.2 386.622 42.7 386.162 42.14C385.722 41.58 385.502 41.13 385.502 40.79C385.502 40.61 385.572 40.47 385.712 40.37C385.852 40.25 386.002 40.19 386.162 40.19H386.612C386.752 40.19 386.862 40.22 386.942 40.28C387.042 40.32 387.152 40.42 387.272 40.58C387.712 41.2 388.242 41.69 388.862 42.05C389.502 42.39 390.372 42.56 391.472 42.56C392.712 42.56 393.712 42.33 394.472 41.87C395.232 41.39 395.612 40.71 395.612 39.83C395.612 39.29 395.452 38.85 395.132 38.51C394.832 38.17 394.332 37.88 393.632 37.64C392.952 37.38 391.932 37.09 390.572 36.77C388.792 36.37 387.572 35.82 386.912 35.12C386.272 34.42 385.952 33.53 385.952 32.45C385.952 31.71 386.152 31.01 386.552 30.35C386.972 29.69 387.582 29.15 388.382 28.73C389.202 28.31 390.182 28.1 391.322 28.1C392.522 28.1 393.532 28.31 394.352 28.73C395.192 29.13 395.812 29.6 396.212 30.14C396.632 30.68 396.842 31.12 396.842 31.46C396.842 31.64 396.772 31.79 396.632 31.91C396.512 32.01 396.362 32.06 396.182 32.06H395.732C395.452 32.06 395.232 31.93 395.072 31.67C394.672 31.07 394.212 30.62 393.692 30.32C393.192 30 392.402 29.84 391.322 29.84C390.162 29.84 389.282 30.08 388.682 30.56C388.082 31.04 387.782 31.67 387.782 32.45C387.782 32.93 387.902 33.33 388.142 33.65C388.382 33.97 388.832 34.27 389.492 34.55C390.152 34.81 391.112 35.08 392.372 35.36C394.232 35.78 395.542 36.34 396.302 37.04C397.062 37.74 397.442 38.67 397.442 39.83C397.442 40.65 397.212 41.4 396.752 42.08C396.292 42.76 395.612 43.3 394.712 43.7C393.812 44.1 392.732 44.3 391.472 44.3ZM402.877 44C402.677 44 402.517 43.94 402.397 43.82C402.277 43.7 402.217 43.54 402.217 43.34V23.36C402.217 23.16 402.277 23 402.397 22.88C402.517 22.76 402.677 22.7 402.877 22.7H403.387C403.587 22.7 403.747 22.76 403.867 22.88C403.987 23 404.047 23.16 404.047 23.36V43.34C404.047 43.54 403.987 43.7 403.867 43.82C403.747 43.94 403.587 44 403.387 44H402.877ZM414.026 44.3C413.066 44.3 412.176 44.1 411.356 43.7C410.536 43.3 409.876 42.76 409.376 42.08C408.896 41.4 408.656 40.65 408.656 39.83C408.656 38.51 409.186 37.43 410.246 36.59C411.326 35.75 412.776 35.21 414.596 34.97L419.336 34.31V33.26C419.336 32.16 418.996 31.32 418.316 30.74C417.656 30.14 416.636 29.84 415.256 29.84C414.236 29.84 413.396 30.04 412.736 30.44C412.096 30.84 411.686 31.32 411.506 31.88C411.426 32.12 411.326 32.29 411.206 32.39C411.106 32.47 410.966 32.51 410.786 32.51H410.366C410.186 32.51 410.026 32.45 409.886 32.33C409.766 32.19 409.706 32.03 409.706 31.85C409.706 31.41 409.906 30.9 410.306 30.32C410.706 29.72 411.326 29.2 412.166 28.76C413.006 28.32 414.036 28.1 415.256 28.1C417.396 28.1 418.916 28.61 419.816 29.63C420.716 30.65 421.166 31.89 421.166 33.35V43.34C421.166 43.54 421.106 43.7 420.986 43.82C420.866 43.94 420.706 44 420.506 44H419.996C419.796 44 419.636 43.94 419.516 43.82C419.396 43.7 419.336 43.54 419.336 43.34V41.93C418.896 42.59 418.246 43.15 417.386 43.61C416.546 44.07 415.426 44.3 414.026 44.3ZM414.326 42.56C415.786 42.56 416.986 42.08 417.926 41.12C418.866 40.16 419.336 38.78 419.336 36.98V35.96L415.466 36.5C413.826 36.72 412.586 37.1 411.746 37.64C410.906 38.18 410.486 38.86 410.486 39.68C410.486 40.6 410.866 41.31 411.626 41.81C412.406 42.31 413.306 42.56 414.326 42.56ZM427.47 44C427.27 44 427.11 43.94 426.99 43.82C426.87 43.7 426.81 43.54 426.81 43.34V29.09C426.81 28.89 426.87 28.73 426.99 28.61C427.11 28.47 427.27 28.4 427.47 28.4H427.95C428.15 28.4 428.31 28.47 428.43 28.61C428.57 28.73 428.64 28.89 428.64 29.09V30.47C429.36 29.09 430.72 28.4 432.72 28.4H433.83C434.03 28.4 434.19 28.46 434.31 28.58C434.43 28.7 434.49 28.86 434.49 29.06V29.48C434.49 29.68 434.43 29.84 434.31 29.96C434.19 30.08 434.03 30.14 433.83 30.14H432.54C431.34 30.14 430.39 30.49 429.69 31.19C428.99 31.89 428.64 32.84 428.64 34.04V43.34C428.64 43.54 428.57 43.7 428.43 43.82C428.31 43.94 428.15 44 427.95 44H427.47ZM442.105 44.3C441.145 44.3 440.255 44.1 439.435 43.7C438.615 43.3 437.955 42.76 437.455 42.08C436.975 41.4 436.735 40.65 436.735 39.83C436.735 38.51 437.265 37.43 438.325 36.59C439.405 35.75 440.855 35.21 442.675 34.97L447.415 34.31V33.26C447.415 32.16 447.075 31.32 446.395 30.74C445.735 30.14 444.715 29.84 443.335 29.84C442.315 29.84 441.475 30.04 440.815 30.44C440.175 30.84 439.765 31.32 439.585 31.88C439.505 32.12 439.405 32.29 439.285 32.39C439.185 32.47 439.045 32.51 438.865 32.51H438.445C438.265 32.51 438.105 32.45 437.965 32.33C437.845 32.19 437.785 32.03 437.785 31.85C437.785 31.41 437.985 30.9 438.385 30.32C438.785 29.72 439.405 29.2 440.245 28.76C441.085 28.32 442.115 28.1 443.335 28.1C445.475 28.1 446.995 28.61 447.895 29.63C448.795 30.65 449.245 31.89 449.245 33.35V43.34C449.245 43.54 449.185 43.7 449.065 43.82C448.945 43.94 448.785 44 448.585 44H448.075C447.875 44 447.715 43.94 447.595 43.82C447.475 43.7 447.415 43.54 447.415 43.34V41.93C446.975 42.59 446.325 43.15 445.465 43.61C444.625 44.07 443.505 44.3 442.105 44.3ZM442.405 42.56C443.865 42.56 445.065 42.08 446.005 41.12C446.945 40.16 447.415 38.78 447.415 36.98V35.96L443.545 36.5C441.905 36.72 440.665 37.1 439.825 37.64C438.985 38.18 438.565 38.86 438.565 39.68C438.565 40.6 438.945 41.31 439.705 41.81C440.485 42.31 441.385 42.56 442.405 42.56ZM455.549 44C455.349 44 455.189 43.94 455.069 43.82C454.949 43.7 454.889 43.54 454.889 43.34V29.09C454.889 28.89 454.949 28.73 455.069 28.61C455.189 28.47 455.349 28.4 455.549 28.4H456.029C456.229 28.4 456.389 28.47 456.509 28.61C456.649 28.73 456.719 28.89 456.719 29.09V30.47C457.439 29.09 458.799 28.4 460.799 28.4H461.909C462.109 28.4 462.269 28.46 462.389 28.58C462.509 28.7 462.569 28.86 462.569 29.06V29.48C462.569 29.68 462.509 29.84 462.389 29.96C462.269 30.08 462.109 30.14 461.909 30.14H460.619C459.419 30.14 458.469 30.49 457.769 31.19C457.069 31.89 456.719 32.84 456.719 34.04V43.34C456.719 43.54 456.649 43.7 456.509 43.82C456.389 43.94 456.229 44 456.029 44H455.549ZM470.184 44.3C469.224 44.3 468.334 44.1 467.514 43.7C466.694 43.3 466.034 42.76 465.534 42.08C465.054 41.4 464.814 40.65 464.814 39.83C464.814 38.51 465.344 37.43 466.404 36.59C467.484 35.75 468.934 35.21 470.754 34.97L475.494 34.31V33.26C475.494 32.16 475.154 31.32 474.474 30.74C473.814 30.14 472.794 29.84 471.414 29.84C470.394 29.84 469.554 30.04 468.894 30.44C468.254 30.84 467.844 31.32 467.664 31.88C467.584 32.12 467.484 32.29 467.364 32.39C467.264 32.47 467.124 32.51 466.944 32.51H466.524C466.344 32.51 466.184 32.45 466.044 32.33C465.924 32.19 465.864 32.03 465.864 31.85C465.864 31.41 466.064 30.9 466.464 30.32C466.864 29.72 467.484 29.2 468.324 28.76C469.164 28.32 470.194 28.1 471.414 28.1C473.554 28.1 475.074 28.61 475.974 29.63C476.874 30.65 477.324 31.89 477.324 33.35V43.34C477.324 43.54 477.264 43.7 477.144 43.82C477.024 43.94 476.864 44 476.664 44H476.154C475.954 44 475.794 43.94 475.674 43.82C475.554 43.7 475.494 43.54 475.494 43.34V41.93C475.054 42.59 474.404 43.15 473.544 43.61C472.704 44.07 471.584 44.3 470.184 44.3ZM470.484 42.56C471.944 42.56 473.144 42.08 474.084 41.12C475.024 40.16 475.494 38.78 475.494 36.98V35.96L471.624 36.5C469.984 36.72 468.744 37.1 467.904 37.64C467.064 38.18 466.644 38.86 466.644 39.68C466.644 40.6 467.024 41.31 467.784 41.81C468.564 42.31 469.464 42.56 470.484 42.56ZM487.918 44.3C486.618 44.3 485.518 44.08 484.618 43.64C483.738 43.2 483.068 42.7 482.608 42.14C482.168 41.58 481.948 41.13 481.948 40.79C481.948 40.61 482.018 40.47 482.158 40.37C482.298 40.25 482.448 40.19 482.608 40.19H483.058C483.198 40.19 483.308 40.22 483.388 40.28C483.488 40.32 483.598 40.42 483.718 40.58C484.158 41.2 484.688 41.69 485.308 42.05C485.948 42.39 486.818 42.56 487.918 42.56C489.158 42.56 490.158 42.33 490.918 41.87C491.678 41.39 492.058 40.71 492.058 39.83C492.058 39.29 491.898 38.85 491.578 38.51C491.278 38.17 490.778 37.88 490.078 37.64C489.398 37.38 488.378 37.09 487.018 36.77C485.238 36.37 484.018 35.82 483.358 35.12C482.718 34.42 482.398 33.53 482.398 32.45C482.398 31.71 482.598 31.01 482.998 30.35C483.418 29.69 484.028 29.15 484.828 28.73C485.648 28.31 486.628 28.1 487.768 28.1C488.968 28.1 489.978 28.31 490.798 28.73C491.638 29.13 492.258 29.6 492.658 30.14C493.078 30.68 493.288 31.12 493.288 31.46C493.288 31.64 493.218 31.79 493.078 31.91C492.958 32.01 492.808 32.06 492.628 32.06H492.178C491.898 32.06 491.678 31.93 491.518 31.67C491.118 31.07 490.658 30.62 490.138 30.32C489.638 30 488.848 29.84 487.768 29.84C486.608 29.84 485.728 30.08 485.128 30.56C484.528 31.04 484.228 31.67 484.228 32.45C484.228 32.93 484.348 33.33 484.588 33.65C484.828 33.97 485.278 34.27 485.938 34.55C486.598 34.81 487.558 35.08 488.818 35.36C490.678 35.78 491.988 36.34 492.748 37.04C493.508 37.74 493.888 38.67 493.888 39.83C493.888 40.65 493.658 41.4 493.198 42.08C492.738 42.76 492.058 43.3 491.158 43.7C490.258 44.1 489.178 44.3 487.918 44.3ZM499.294 44C499.094 44 498.934 43.94 498.814 43.82C498.694 43.7 498.634 43.54 498.634 43.34V29.06C498.634 28.86 498.694 28.7 498.814 28.58C498.934 28.46 499.094 28.4 499.294 28.4H499.804C500.004 28.4 500.164 28.46 500.284 28.58C500.404 28.7 500.464 28.86 500.464 29.06V43.34C500.464 43.54 500.404 43.7 500.284 43.82C500.164 43.94 500.004 44 499.804 44H499.294ZM515.898 44C515.698 44 515.538 43.94 515.418 43.82C515.298 43.7 515.238 43.54 515.238 43.34V23.69C515.238 23.49 515.298 23.33 515.418 23.21C515.538 23.07 515.698 23 515.898 23H527.478C527.698 23 527.868 23.06 527.988 23.18C528.108 23.3 528.168 23.47 528.168 23.69V24.14C528.168 24.34 528.098 24.5 527.958 24.62C527.838 24.74 527.678 24.8 527.478 24.8H517.128V32.87H526.878C527.098 32.87 527.268 32.93 527.388 33.05C527.508 33.17 527.568 33.34 527.568 33.56V34.01C527.568 34.21 527.498 34.37 527.358 34.49C527.238 34.61 527.078 34.67 526.878 34.67H517.128V43.34C517.128 43.54 517.058 43.7 516.918 43.82C516.798 43.94 516.638 44 516.438 44H515.898ZM538.446 44.3C536.366 44.3 534.746 43.67 533.586 42.41C532.446 41.13 531.846 39.48 531.786 37.46L531.756 36.2L531.786 34.94C531.846 32.92 532.446 31.28 533.586 30.02C534.746 28.74 536.366 28.1 538.446 28.1C540.526 28.1 542.136 28.74 543.276 30.02C544.436 31.28 545.046 32.92 545.106 34.94C545.126 35.14 545.136 35.56 545.136 36.2C545.136 36.84 545.126 37.26 545.106 37.46C545.046 39.48 544.436 41.13 543.276 42.41C542.136 43.67 540.526 44.3 538.446 44.3ZM538.446 42.56C539.866 42.56 541.006 42.11 541.866 41.21C542.746 40.29 543.216 38.99 543.276 37.31C543.296 37.11 543.306 36.74 543.306 36.2C543.306 35.66 543.296 35.29 543.276 35.09C543.216 33.41 542.746 32.12 541.866 31.22C541.006 30.3 539.866 29.84 538.446 29.84C537.026 29.84 535.876 30.3 534.996 31.22C534.136 32.12 533.676 33.41 533.616 35.09L533.586 36.2L533.616 37.31C533.676 38.99 534.136 40.29 534.996 41.21C535.876 42.11 537.026 42.56 538.446 42.56ZM555.209 44C553.729 44 552.679 43.56 552.059 42.68C551.439 41.78 551.129 40.55 551.129 38.99V30.14H548.789C548.589 30.14 548.429 30.08 548.309 29.96C548.189 29.84 548.129 29.68 548.129 29.48V29.06C548.129 28.86 548.189 28.7 548.309 28.58C548.429 28.46 548.589 28.4 548.789 28.4H551.129V23.36C551.129 23.16 551.189 23 551.309 22.88C551.429 22.76 551.589 22.7 551.789 22.7H552.299C552.499 22.7 552.659 22.76 552.779 22.88C552.899 23 552.959 23.16 552.959 23.36V28.4H556.679C556.879 28.4 557.039 28.46 557.159 28.58C557.279 28.7 557.339 28.86 557.339 29.06V29.48C557.339 29.68 557.279 29.84 557.159 29.96C557.039 30.08 556.879 30.14 556.679 30.14H552.959V38.87C552.959 39.99 553.139 40.84 553.499 41.42C553.879 41.98 554.499 42.26 555.359 42.26H556.979C557.179 42.26 557.339 42.32 557.459 42.44C557.579 42.56 557.639 42.72 557.639 42.92V43.34C557.639 43.54 557.579 43.7 557.459 43.82C557.339 43.94 557.179 44 556.979 44H555.209ZM567.58 44.3C565.5 44.3 563.88 43.67 562.72 42.41C561.58 41.13 560.98 39.48 560.92 37.46L560.89 36.2L560.92 34.94C560.98 32.92 561.58 31.28 562.72 30.02C563.88 28.74 565.5 28.1 567.58 28.1C569.66 28.1 571.27 28.74 572.41 30.02C573.57 31.28 574.18 32.92 574.24 34.94C574.26 35.14 574.27 35.56 574.27 36.2C574.27 36.84 574.26 37.26 574.24 37.46C574.18 39.48 573.57 41.13 572.41 42.41C571.27 43.67 569.66 44.3 567.58 44.3ZM567.58 42.56C569 42.56 570.14 42.11 571 41.21C571.88 40.29 572.35 38.99 572.41 37.31C572.43 37.11 572.44 36.74 572.44 36.2C572.44 35.66 572.43 35.29 572.41 35.09C572.35 33.41 571.88 32.12 571 31.22C570.14 30.3 569 29.84 567.58 29.84C566.16 29.84 565.01 30.3 564.13 31.22C563.27 32.12 562.81 33.41 562.75 35.09L562.72 36.2L562.75 37.31C562.81 38.99 563.27 40.29 564.13 41.21C565.01 42.11 566.16 42.56 567.58 42.56ZM585.088 50.6C583.528 50.6 582.278 50.33 581.338 49.79C580.398 49.25 579.738 48.63 579.358 47.93C578.998 47.25 578.818 46.65 578.818 46.13C578.818 45.95 578.878 45.8 578.998 45.68C579.138 45.56 579.298 45.5 579.478 45.5H579.898C580.078 45.5 580.218 45.54 580.318 45.62C580.438 45.72 580.538 45.89 580.618 46.13C581.238 47.95 582.678 48.86 584.938 48.86C586.658 48.86 587.928 48.5 588.748 47.78C589.568 47.08 589.978 45.82 589.978 44V41.93C588.818 43.51 587.138 44.3 584.938 44.3C582.778 44.3 581.178 43.6 580.138 42.2C579.118 40.78 578.578 39.06 578.518 37.04L578.488 36.2L578.518 35.36C578.578 33.34 579.118 31.63 580.138 30.23C581.178 28.81 582.778 28.1 584.938 28.1C587.118 28.1 588.798 28.89 589.978 30.47V29.09C589.978 28.89 590.038 28.73 590.158 28.61C590.278 28.47 590.438 28.4 590.638 28.4H591.118C591.318 28.4 591.478 28.47 591.598 28.61C591.738 28.73 591.808 28.89 591.808 29.09V43.7C591.808 45.84 591.308 47.52 590.308 48.74C589.308 49.98 587.568 50.6 585.088 50.6ZM585.118 42.56C586.698 42.56 587.888 42.04 588.688 41C589.488 39.94 589.918 38.7 589.978 37.28C589.998 37.08 590.008 36.72 590.008 36.2C590.008 35.68 589.998 35.32 589.978 35.12C589.918 33.7 589.488 32.47 588.688 31.43C587.888 30.37 586.698 29.84 585.118 29.84C583.498 29.84 582.308 30.36 581.548 31.4C580.808 32.42 580.408 33.74 580.348 35.36L580.318 36.2L580.348 37.04C580.408 38.66 580.808 39.99 581.548 41.03C582.308 42.05 583.498 42.56 585.118 42.56ZM585.148 26.3C583.948 26.3 583.098 25.97 582.598 25.31C582.098 24.65 581.848 23.82 581.848 22.82C581.848 22.66 581.898 22.53 581.998 22.43C582.098 22.31 582.238 22.25 582.418 22.25H582.868C583.048 22.25 583.188 22.31 583.288 22.43C583.388 22.53 583.438 22.66 583.438 22.82C583.438 24.14 584.008 24.8 585.148 24.8C586.288 24.8 586.858 24.14 586.858 22.82C586.858 22.66 586.908 22.53 587.008 22.43C587.108 22.31 587.248 22.25 587.428 22.25H587.878C588.058 22.25 588.198 22.31 588.298 22.43C588.398 22.53 588.448 22.66 588.448 22.82C588.448 23.82 588.198 24.65 587.698 25.31C587.198 25.97 586.348 26.3 585.148 26.3ZM598.26 44C598.06 44 597.9 43.94 597.78 43.82C597.66 43.7 597.6 43.54 597.6 43.34V29.09C597.6 28.89 597.66 28.73 597.78 28.61C597.9 28.47 598.06 28.4 598.26 28.4H598.74C598.94 28.4 599.1 28.47 599.22 28.61C599.36 28.73 599.43 28.89 599.43 29.09V30.47C600.15 29.09 601.51 28.4 603.51 28.4H604.62C604.82 28.4 604.98 28.46 605.1 28.58C605.22 28.7 605.28 28.86 605.28 29.06V29.48C605.28 29.68 605.22 29.84 605.1 29.96C604.98 30.08 604.82 30.14 604.62 30.14H603.33C602.13 30.14 601.18 30.49 600.48 31.19C599.78 31.89 599.43 32.84 599.43 34.04V43.34C599.43 43.54 599.36 43.7 599.22 43.82C599.1 43.94 598.94 44 598.74 44H598.26ZM612.895 44.3C611.935 44.3 611.045 44.1 610.225 43.7C609.405 43.3 608.745 42.76 608.245 42.08C607.765 41.4 607.525 40.65 607.525 39.83C607.525 38.51 608.055 37.43 609.115 36.59C610.195 35.75 611.645 35.21 613.465 34.97L618.205 34.31V33.26C618.205 32.16 617.865 31.32 617.185 30.74C616.525 30.14 615.505 29.84 614.125 29.84C613.105 29.84 612.265 30.04 611.605 30.44C610.965 30.84 610.555 31.32 610.375 31.88C610.295 32.12 610.195 32.29 610.075 32.39C609.975 32.47 609.835 32.51 609.655 32.51H609.235C609.055 32.51 608.895 32.45 608.755 32.33C608.635 32.19 608.575 32.03 608.575 31.85C608.575 31.41 608.775 30.9 609.175 30.32C609.575 29.72 610.195 29.2 611.035 28.76C611.875 28.32 612.905 28.1 614.125 28.1C616.265 28.1 617.785 28.61 618.685 29.63C619.585 30.65 620.035 31.89 620.035 33.35V43.34C620.035 43.54 619.975 43.7 619.855 43.82C619.735 43.94 619.575 44 619.375 44H618.865C618.665 44 618.505 43.94 618.385 43.82C618.265 43.7 618.205 43.54 618.205 43.34V41.93C617.765 42.59 617.115 43.15 616.255 43.61C615.415 44.07 614.295 44.3 612.895 44.3ZM613.195 42.56C614.655 42.56 615.855 42.08 616.795 41.12C617.735 40.16 618.205 38.78 618.205 36.98V35.96L614.335 36.5C612.695 36.72 611.455 37.1 610.615 37.64C609.775 38.18 609.355 38.86 609.355 39.68C609.355 40.6 609.735 41.31 610.495 41.81C611.275 42.31 612.175 42.56 613.195 42.56ZM627.663 44C627.463 44 627.303 43.94 627.183 43.82C627.063 43.7 627.003 43.54 627.003 43.34V30.14H624.333C624.133 30.14 623.973 30.08 623.853 29.96C623.733 29.84 623.673 29.68 623.673 29.48V29.06C623.673 28.86 623.733 28.7 623.853 28.58C623.973 28.46 624.133 28.4 624.333 28.4H627.003V26.69C627.003 25.17 627.333 23.98 627.993 23.12C628.653 22.24 629.833 21.8 631.533 21.8H633.093C633.293 21.8 633.453 21.86 633.573 21.98C633.693 22.1 633.753 22.26 633.753 22.46V22.88C633.753 23.08 633.693 23.24 633.573 23.36C633.453 23.48 633.293 23.54 633.093 23.54H631.533C630.513 23.54 629.803 23.81 629.403 24.35C629.023 24.87 628.833 25.7 628.833 26.84V28.4H632.793C632.993 28.4 633.153 28.46 633.273 28.58C633.393 28.7 633.453 28.86 633.453 29.06V29.48C633.453 29.68 633.393 29.84 633.273 29.96C633.153 30.08 632.993 30.14 632.793 30.14H628.833V43.34C628.833 43.54 628.773 43.7 628.653 43.82C628.533 43.94 628.373 44 628.173 44H627.663ZM651.016 44C650.816 44 650.656 43.94 650.536 43.82C650.416 43.7 650.356 43.54 650.356 43.34V35.99L643.036 23.99C642.956 23.83 642.916 23.7 642.916 23.6C642.916 23.44 642.976 23.3 643.096 23.18C643.216 23.06 643.356 23 643.516 23H644.116C644.396 23 644.626 23.15 644.806 23.45L651.316 34.04L657.826 23.45C658.006 23.15 658.236 23 658.516 23H659.116C659.276 23 659.416 23.06 659.536 23.18C659.656 23.3 659.716 23.44 659.716 23.6C659.716 23.7 659.676 23.83 659.596 23.99L652.276 35.99V43.34C652.276 43.54 652.206 43.7 652.066 43.82C651.946 43.94 651.786 44 651.586 44H651.016ZM665.392 44.3C664.432 44.3 663.542 44.1 662.722 43.7C661.902 43.3 661.242 42.76 660.742 42.08C660.262 41.4 660.022 40.65 660.022 39.83C660.022 38.51 660.552 37.43 661.612 36.59C662.692 35.75 664.142 35.21 665.962 34.97L670.702 34.31V33.26C670.702 32.16 670.362 31.32 669.682 30.74C669.022 30.14 668.002 29.84 666.622 29.84C665.602 29.84 664.762 30.04 664.102 30.44C663.462 30.84 663.052 31.32 662.872 31.88C662.792 32.12 662.692 32.29 662.572 32.39C662.472 32.47 662.332 32.51 662.152 32.51H661.732C661.552 32.51 661.392 32.45 661.252 32.33C661.132 32.19 661.072 32.03 661.072 31.85C661.072 31.41 661.272 30.9 661.672 30.32C662.072 29.72 662.692 29.2 663.532 28.76C664.372 28.32 665.402 28.1 666.622 28.1C668.762 28.1 670.282 28.61 671.182 29.63C672.082 30.65 672.532 31.89 672.532 33.35V43.34C672.532 43.54 672.472 43.7 672.352 43.82C672.232 43.94 672.072 44 671.872 44H671.362C671.162 44 671.002 43.94 670.882 43.82C670.762 43.7 670.702 43.54 670.702 43.34V41.93C670.262 42.59 669.612 43.15 668.752 43.61C667.912 44.07 666.792 44.3 665.392 44.3ZM665.692 42.56C667.152 42.56 668.352 42.08 669.292 41.12C670.232 40.16 670.702 38.78 670.702 36.98V35.96L666.832 36.5C665.192 36.72 663.952 37.1 663.112 37.64C662.272 38.18 661.852 38.86 661.852 39.68C661.852 40.6 662.232 41.31 662.992 41.81C663.772 42.31 664.672 42.56 665.692 42.56ZM678.836 44C678.636 44 678.476 43.94 678.356 43.82C678.236 43.7 678.176 43.54 678.176 43.34V29.09C678.176 28.89 678.236 28.73 678.356 28.61C678.476 28.47 678.636 28.4 678.836 28.4H679.316C679.516 28.4 679.676 28.47 679.796 28.61C679.936 28.73 680.006 28.89 680.006 29.09V30.47C680.726 29.09 682.086 28.4 684.086 28.4H685.196C685.396 28.4 685.556 28.46 685.676 28.58C685.796 28.7 685.856 28.86 685.856 29.06V29.48C685.856 29.68 685.796 29.84 685.676 29.96C685.556 30.08 685.396 30.14 685.196 30.14H683.906C682.706 30.14 681.756 30.49 681.056 31.19C680.356 31.89 680.006 32.84 680.006 34.04V43.34C680.006 43.54 679.936 43.7 679.796 43.82C679.676 43.94 679.516 44 679.316 44H678.836ZM690.165 44C689.965 44 689.805 43.94 689.685 43.82C689.565 43.7 689.505 43.54 689.505 43.34V29.06C689.505 28.86 689.565 28.7 689.685 28.58C689.805 28.46 689.965 28.4 690.165 28.4H690.675C690.875 28.4 691.035 28.46 691.155 28.58C691.275 28.7 691.335 28.86 691.335 29.06V43.34C691.335 43.54 691.275 43.7 691.155 43.82C691.035 43.94 690.875 44 690.675 44H690.165ZM702.005 50.6C701.525 50.6 701.085 50.53 700.685 50.39C700.285 50.25 699.965 50.08 699.725 49.88C699.505 49.68 699.395 49.49 699.395 49.31C699.395 49.21 699.425 49.13 699.485 49.07L699.905 48.68C699.985 48.6 700.075 48.56 700.175 48.56C700.255 48.56 700.395 48.63 700.595 48.77C700.795 48.89 700.985 48.99 701.165 49.07C701.365 49.17 701.625 49.22 701.945 49.22C702.305 49.22 702.605 49.11 702.845 48.89C703.105 48.67 703.235 48.38 703.235 48.02C703.235 47.68 703.105 47.4 702.845 47.18C702.605 46.98 702.305 46.88 701.945 46.88C701.665 46.88 701.385 46.93 701.105 47.03C700.805 47.13 700.615 47.18 700.535 47.18C700.375 47.18 700.245 47.12 700.145 47L699.665 46.49C699.605 46.43 699.575 46.35 699.575 46.25C699.575 46.15 699.615 46.03 699.695 45.89C699.755 45.75 699.795 45.65 699.815 45.59L700.445 44.15C699.485 43.99 698.675 43.7 698.015 43.28C697.355 42.84 696.865 42.39 696.545 41.93C696.225 41.45 696.065 41.07 696.065 40.79C696.065 40.61 696.135 40.47 696.275 40.37C696.415 40.25 696.565 40.19 696.725 40.19H697.175C697.315 40.19 697.425 40.22 697.505 40.28C697.605 40.32 697.715 40.42 697.835 40.58C698.275 41.2 698.805 41.69 699.425 42.05C700.065 42.39 700.935 42.56 702.035 42.56C703.275 42.56 704.275 42.33 705.035 41.87C705.795 41.39 706.175 40.71 706.175 39.83C706.175 39.29 706.015 38.85 705.695 38.51C705.395 38.17 704.895 37.88 704.195 37.64C703.515 37.38 702.495 37.09 701.135 36.77C699.355 36.37 698.135 35.82 697.475 35.12C696.835 34.42 696.515 33.53 696.515 32.45C696.515 31.71 696.715 31.01 697.115 30.35C697.535 29.69 698.145 29.15 698.945 28.73C699.765 28.31 700.745 28.1 701.885 28.1C703.085 28.1 704.095 28.31 704.915 28.73C705.755 29.13 706.375 29.6 706.775 30.14C707.195 30.68 707.405 31.12 707.405 31.46C707.405 31.64 707.335 31.79 707.195 31.91C707.075 32.01 706.925 32.06 706.745 32.06H706.295C706.015 32.06 705.795 31.93 705.635 31.67C705.235 31.07 704.775 30.62 704.255 30.32C703.755 30 702.965 29.84 701.885 29.84C700.725 29.84 699.845 30.08 699.245 30.56C698.645 31.04 698.345 31.67 698.345 32.45C698.345 32.93 698.465 33.33 698.705 33.65C698.945 33.97 699.395 34.27 700.055 34.55C700.715 34.81 701.675 35.08 702.935 35.36C704.795 35.78 706.105 36.34 706.865 37.04C707.625 37.74 708.005 38.67 708.005 39.83C708.005 40.65 707.775 41.4 707.315 42.08C706.855 42.76 706.175 43.3 705.275 43.7C704.375 44.1 703.295 44.3 702.035 44.3L701.345 45.74C701.605 45.58 701.985 45.5 702.485 45.5C703.145 45.5 703.685 45.73 704.105 46.19C704.545 46.65 704.765 47.24 704.765 47.96C704.765 48.72 704.525 49.35 704.045 49.85C703.565 50.35 702.885 50.6 702.005 50.6ZM713.411 44C713.211 44 713.051 43.94 712.931 43.82C712.811 43.7 712.751 43.54 712.751 43.34V29.06C712.751 28.86 712.811 28.7 712.931 28.58C713.051 28.46 713.211 28.4 713.411 28.4H713.921C714.121 28.4 714.281 28.46 714.401 28.58C714.521 28.7 714.581 28.86 714.581 29.06V30.11C715.101 29.45 715.701 28.95 716.381 28.61C717.081 28.27 717.911 28.1 718.871 28.1C721.111 28.1 722.711 29.04 723.671 30.92C724.151 30.06 724.831 29.38 725.711 28.88C726.611 28.36 727.631 28.1 728.771 28.1C730.431 28.1 731.781 28.67 732.821 29.81C733.861 30.93 734.381 32.53 734.381 34.61V43.34C734.381 43.54 734.321 43.7 734.201 43.82C734.081 43.94 733.921 44 733.721 44H733.211C733.011 44 732.851 43.94 732.731 43.82C732.611 43.7 732.551 43.54 732.551 43.34V34.91C732.551 33.09 732.171 31.79 731.411 31.01C730.671 30.23 729.691 29.84 728.471 29.84C727.391 29.84 726.451 30.24 725.651 31.04C724.871 31.82 724.481 33.11 724.481 34.91V43.34C724.481 43.54 724.421 43.7 724.301 43.82C724.181 43.94 724.021 44 723.821 44H723.311C723.111 44 722.951 43.94 722.831 43.82C722.711 43.7 722.651 43.54 722.651 43.34V34.91C722.651 33.11 722.261 31.82 721.481 31.04C720.701 30.24 719.731 29.84 718.571 29.84C717.491 29.84 716.551 30.24 715.751 31.04C714.971 31.82 714.581 33.1 714.581 34.88V43.34C714.581 43.54 714.521 43.7 714.401 43.82C714.281 43.94 714.121 44 713.921 44H713.411ZM744.189 44.3C743.229 44.3 742.339 44.1 741.519 43.7C740.699 43.3 740.039 42.76 739.539 42.08C739.059 41.4 738.819 40.65 738.819 39.83C738.819 38.51 739.349 37.43 740.409 36.59C741.489 35.75 742.939 35.21 744.759 34.97L749.499 34.31V33.26C749.499 32.16 749.159 31.32 748.479 30.74C747.819 30.14 746.799 29.84 745.419 29.84C744.399 29.84 743.559 30.04 742.899 30.44C742.259 30.84 741.849 31.32 741.669 31.88C741.589 32.12 741.489 32.29 741.369 32.39C741.269 32.47 741.129 32.51 740.949 32.51H740.529C740.349 32.51 740.189 32.45 740.049 32.33C739.929 32.19 739.869 32.03 739.869 31.85C739.869 31.41 740.069 30.9 740.469 30.32C740.869 29.72 741.489 29.2 742.329 28.76C743.169 28.32 744.199 28.1 745.419 28.1C747.559 28.1 749.079 28.61 749.979 29.63C750.879 30.65 751.329 31.89 751.329 33.35V43.34C751.329 43.54 751.269 43.7 751.149 43.82C751.029 43.94 750.869 44 750.669 44H750.159C749.959 44 749.799 43.94 749.679 43.82C749.559 43.7 749.499 43.54 749.499 43.34V41.93C749.059 42.59 748.409 43.15 747.549 43.61C746.709 44.07 745.589 44.3 744.189 44.3ZM744.489 42.56C745.949 42.56 747.149 42.08 748.089 41.12C749.029 40.16 749.499 38.78 749.499 36.98V35.96L745.629 36.5C743.989 36.72 742.749 37.1 741.909 37.64C741.069 38.18 740.649 38.86 740.649 39.68C740.649 40.6 741.029 41.31 741.789 41.81C742.569 42.31 743.469 42.56 744.489 42.56ZM761.923 44.3C760.623 44.3 759.523 44.08 758.623 43.64C757.743 43.2 757.073 42.7 756.613 42.14C756.173 41.58 755.953 41.13 755.953 40.79C755.953 40.61 756.023 40.47 756.163 40.37C756.303 40.25 756.453 40.19 756.613 40.19H757.063C757.203 40.19 757.313 40.22 757.393 40.28C757.493 40.32 757.603 40.42 757.723 40.58C758.163 41.2 758.693 41.69 759.313 42.05C759.953 42.39 760.823 42.56 761.923 42.56C763.163 42.56 764.163 42.33 764.923 41.87C765.683 41.39 766.063 40.71 766.063 39.83C766.063 39.29 765.903 38.85 765.583 38.51C765.283 38.17 764.783 37.88 764.083 37.64C763.403 37.38 762.383 37.09 761.023 36.77C759.243 36.37 758.023 35.82 757.363 35.12C756.723 34.42 756.403 33.53 756.403 32.45C756.403 31.71 756.603 31.01 757.003 30.35C757.423 29.69 758.033 29.15 758.833 28.73C759.653 28.31 760.633 28.1 761.773 28.1C762.973 28.1 763.983 28.31 764.803 28.73C765.643 29.13 766.263 29.6 766.663 30.14C767.083 30.68 767.293 31.12 767.293 31.46C767.293 31.64 767.223 31.79 767.083 31.91C766.963 32.01 766.813 32.06 766.633 32.06H766.183C765.903 32.06 765.683 31.93 765.523 31.67C765.123 31.07 764.663 30.62 764.143 30.32C763.643 30 762.853 29.84 761.773 29.84C760.613 29.84 759.733 30.08 759.133 30.56C758.533 31.04 758.233 31.67 758.233 32.45C758.233 32.93 758.353 33.33 758.593 33.65C758.833 33.97 759.283 34.27 759.943 34.55C760.603 34.81 761.563 35.08 762.823 35.36C764.683 35.78 765.993 36.34 766.753 37.04C767.513 37.74 767.893 38.67 767.893 39.83C767.893 40.65 767.663 41.4 767.203 42.08C766.743 42.76 766.063 43.3 765.163 43.7C764.263 44.1 763.183 44.3 761.923 44.3ZM773.298 44C773.098 44 772.938 43.94 772.818 43.82C772.698 43.7 772.638 43.54 772.638 43.34V29.06C772.638 28.86 772.698 28.7 772.818 28.58C772.938 28.46 773.098 28.4 773.298 28.4H773.808C774.008 28.4 774.168 28.46 774.288 28.58C774.408 28.7 774.468 28.86 774.468 29.06V43.34C774.468 43.54 774.408 43.7 774.288 43.82C774.168 43.94 774.008 44 773.808 44H773.298Z" fill="black"/>
<path d="M58.7635 104.248C58.7635 69.5677 86.8504 41.3835 121.411 41.3835V31.9888V15.9978H103.284C103.284 15.9978 90.6352 15.498 86.3524 22.9938C82.0697 30.3897 70.1178 32.0887 70.1178 32.0887H56.3731V27.991C56.3731 25.1926 54.1819 22.9938 51.3931 22.9938H37.9473C35.1585 22.9938 32.9673 25.1926 32.9673 27.991V32.0887H9.95991C4.48196 32.0887 0 36.5862 0 42.0831V164.614C0 170.111 4.48196 174.609 9.95991 174.609H121.411V167.213C86.8504 167.113 58.7635 139.029 58.7635 104.248Z" fill="#FF4F00"/>
<path d="M121.411 147.031C97.9692 147.031 78.9969 127.833 78.9969 104.112C78.9969 80.3907 97.9692 61.1925 121.411 61.1925V48.6283C91.1153 48.6283 66.5804 73.4552 66.5804 104.112C66.5804 134.769 91.1153 159.596 121.411 159.596V147.031Z" fill="#FF4F00"/>
<path d="M137.54 0H143.791V190.68H137.54V0Z" fill="#FF4F00"/>
<path d="M186.885 137.984L198.924 109.594H215.949L194.881 151.506V175H178.889V151.506L157.865 109.594H174.801L186.885 137.984ZM272.283 162.781H250.676L246.902 175H230.056L254.045 109.594H268.869L293.037 175H276.101L272.283 162.781ZM254.449 150.607H268.51L261.457 127.922L254.449 150.607ZM334.771 162.871H362.218V175H319.004V109.594H334.771V162.871ZM444.652 175H428.974L405.794 134.301V175H390.027V109.594H405.794L428.929 150.293V109.594H444.652V175ZM492.585 175H476.863V109.594H492.585V175ZM542.405 162.871H573.671V175H522.73V166.689L553.905 121.768H522.55V109.594H573.357V117.68L542.405 162.871ZM617.786 162.871H645.233V175H602.019V109.594H617.786V162.871ZM689.843 175H674.12V109.594H689.843V175ZM744.2 150.652L737.731 157.75V175H721.964V109.594H737.731V138.434L743.212 130.123L757.317 109.594H776.813L754.712 138.523L776.813 175H758.126L744.2 150.652Z" fill="#FF4F00"/>
<path d="M170.248 85.4443L166.38 89.6875V100H156.954V60.8984H166.38V78.1396L169.657 73.1714L178.089 60.8984H189.745L176.532 78.1934L189.745 100H178.573L170.248 85.4443ZM229.338 81.2549C229.338 85.0684 228.631 88.4432 227.217 91.3794C225.802 94.3156 223.788 96.5804 221.174 98.1738C218.578 99.7493 215.615 100.537 212.285 100.537C208.955 100.537 206.001 99.7762 203.423 98.2544C200.845 96.7147 198.83 94.5215 197.38 91.6748C195.948 88.8281 195.196 85.5607 195.124 81.8726V79.6704C195.124 75.839 195.823 72.4642 197.219 69.5459C198.633 66.6097 200.648 64.3449 203.262 62.7515C205.893 61.158 208.883 60.3613 212.231 60.3613C215.543 60.3613 218.498 61.1491 221.094 62.7246C223.69 64.3001 225.704 66.547 227.136 69.4653C228.586 72.3657 229.32 75.6958 229.338 79.4556V81.2549ZM219.751 79.6167C219.751 75.7316 219.097 72.7865 217.79 70.7812C216.501 68.7581 214.648 67.7466 212.231 67.7466C207.505 67.7466 205.007 71.2915 204.739 78.3813L204.712 81.2549C204.712 85.0863 205.347 88.0314 206.618 90.0903C207.89 92.1493 209.778 93.1787 212.285 93.1787C214.666 93.1787 216.501 92.1672 217.79 90.144C219.079 88.1209 219.733 85.2116 219.751 81.416V79.6167ZM253.678 86.1963H248.575V100H239.149V60.8984H254.537C259.174 60.8984 262.8 61.9279 265.414 63.9868C268.028 66.0457 269.335 68.9551 269.335 72.7148C269.335 75.4362 268.78 77.6921 267.67 79.4824C266.577 81.2728 264.859 82.723 262.513 83.833L270.677 99.5972V100H260.58L253.678 86.1963ZM248.575 78.9185H254.537C256.328 78.9185 257.67 78.453 258.566 77.522C259.479 76.5731 259.935 75.2572 259.935 73.5742C259.935 71.8913 259.479 70.5754 258.566 69.6265C257.652 68.6597 256.31 68.1763 254.537 68.1763H248.575V78.9185ZM313.091 81.2549C313.091 85.0684 312.384 88.4432 310.969 91.3794C309.555 94.3156 307.541 96.5804 304.927 98.1738C302.331 99.7493 299.368 100.537 296.037 100.537C292.707 100.537 289.753 99.7762 287.175 98.2544C284.597 96.7147 282.583 94.5215 281.133 91.6748C279.7 88.8281 278.948 85.5607 278.877 81.8726V79.6704C278.877 75.839 279.575 72.4642 280.972 69.5459C282.386 66.6097 284.4 64.3449 287.014 62.7515C289.646 61.158 292.636 60.3613 295.984 60.3613C299.296 60.3613 302.25 61.1491 304.846 62.7246C307.442 64.3001 309.456 66.547 310.889 69.4653C312.339 72.3657 313.073 75.6958 313.091 79.4556V81.2549ZM303.503 79.6167C303.503 75.7316 302.85 72.7865 301.543 70.7812C300.254 68.7581 298.401 67.7466 295.984 67.7466C291.257 67.7466 288.76 71.2915 288.491 78.3813L288.464 81.2549C288.464 85.0863 289.1 88.0314 290.371 90.0903C291.642 92.1493 293.531 93.1787 296.037 93.1787C298.419 93.1787 300.254 92.1672 301.543 90.144C302.832 88.1209 303.485 85.2116 303.503 81.416V79.6167ZM355.558 100H346.185L332.328 75.6689V100H322.902V60.8984H332.328L346.158 85.2295V60.8984H355.558V100ZM389.163 92.6953H376.245L373.989 100H363.918L378.259 60.8984H387.122L401.57 100H391.445L389.163 92.6953ZM378.501 85.4175H386.907L382.69 71.8555L378.501 85.4175ZM428.04 100V60.8984H440.635C444.09 60.8984 447.197 61.6862 449.954 63.2617C452.711 64.8193 454.859 67.0304 456.399 69.895C457.957 72.7417 458.744 75.9375 458.762 79.4824V81.2817C458.762 84.8625 458.001 88.0762 456.48 90.9229C454.976 93.7516 452.845 95.9717 450.088 97.583C447.349 99.1764 444.287 99.9821 440.903 100H428.04ZM437.466 68.1763V92.749H440.742C443.446 92.749 445.523 91.7912 446.973 89.8755C448.423 87.9419 449.148 85.0773 449.148 81.2817V79.5898C449.148 75.8122 448.423 72.9655 446.973 71.0498C445.523 69.1341 443.41 68.1763 440.635 68.1763H437.466ZM501.659 81.2549C501.659 85.0684 500.952 88.4432 499.538 91.3794C498.123 94.3156 496.109 96.5804 493.495 98.1738C490.899 99.7493 487.936 100.537 484.606 100.537C481.276 100.537 478.322 99.7762 475.744 98.2544C473.165 96.7147 471.151 94.5215 469.701 91.6748C468.269 88.8281 467.517 85.5607 467.445 81.8726V79.6704C467.445 75.839 468.143 72.4642 469.54 69.5459C470.954 66.6097 472.968 64.3449 475.582 62.7515C478.214 61.158 481.204 60.3613 484.552 60.3613C487.864 60.3613 490.818 61.1491 493.414 62.7246C496.01 64.3001 498.025 66.547 499.457 69.4653C500.907 72.3657 501.641 75.6958 501.659 79.4556V81.2549ZM492.072 79.6167C492.072 75.7316 491.418 72.7865 490.111 70.7812C488.822 68.7581 486.969 67.7466 484.552 67.7466C479.826 67.7466 477.328 71.2915 477.059 78.3813L477.033 81.2549C477.033 85.0863 477.668 88.0314 478.939 90.0903C480.211 92.1493 482.099 93.1787 484.606 93.1787C486.987 93.1787 488.822 92.1672 490.111 90.144C491.4 88.1209 492.054 85.2116 492.072 81.416V79.6167ZM473.434 55.0171C473.434 54.0324 473.819 53.1909 474.589 52.4927C475.377 51.7944 476.343 51.4453 477.489 51.4453C478.635 51.4453 479.593 51.7944 480.363 52.4927C481.15 53.1909 481.544 54.0324 481.544 55.0171C481.544 56.0018 481.15 56.8433 480.363 57.5415C479.593 58.2397 478.635 58.5889 477.489 58.5889C476.343 58.5889 475.377 58.2397 474.589 57.5415C473.819 56.8433 473.434 56.0018 473.434 55.0171ZM487.372 55.0171C487.372 54.0324 487.757 53.1909 488.527 52.4927C489.315 51.7944 490.281 51.4453 491.427 51.4453C492.573 51.4453 493.531 51.7944 494.301 52.4927C495.088 53.1909 495.482 54.0324 495.482 55.0171C495.482 56.0018 495.088 56.8433 494.301 57.5415C493.531 58.2397 492.573 58.5889 491.427 58.5889C490.281 58.5889 489.315 58.2397 488.527 57.5415C487.757 56.8433 487.372 56.0018 487.372 55.0171ZM544.126 100H534.754L520.896 75.6689V100H511.47V60.8984H520.896L534.727 85.2295V60.8984H544.126V100ZM579.289 83.4302H564.464V92.749H581.974V100H555.038V60.8984H582.028V68.1763H564.464V76.4209H579.289V83.4302ZM603.145 60.8984L611.873 88.103L620.574 60.8984H632.981V100H623.528V90.8691L624.441 72.1777L614.988 100H608.758L599.278 72.1509L600.191 90.8691V100H590.764V60.8984H603.145ZM653.991 100H644.591V60.8984H653.991V100ZM644.779 54.0503C644.779 52.8866 645.2 51.9377 646.042 51.2036C646.883 50.4696 647.948 50.1025 649.237 50.1025C650.509 50.1025 651.565 50.4696 652.406 51.2036C653.248 51.9377 653.669 52.8866 653.669 54.0503C653.669 55.1961 653.248 56.1361 652.406 56.8701C651.565 57.6042 650.509 57.9712 649.237 57.9712C647.948 57.9712 646.883 57.6042 646.042 56.8701C645.2 56.1361 644.779 55.1961 644.779 54.0503ZM698.15 100H688.777L674.92 75.6689V100H665.494V60.8984H674.92L688.75 85.2295V60.8984H698.15V100ZM709.062 100V60.8984H721.657C725.112 60.8984 728.219 61.6862 730.976 63.2617C733.733 64.8193 735.881 67.0304 737.421 69.895C738.979 72.7417 739.766 75.9375 739.784 79.4824V81.2817C739.784 84.8625 739.023 88.0762 737.502 90.9229C735.998 93.7516 733.867 95.9717 731.11 97.583C728.371 99.1764 725.309 99.9821 721.925 100H709.062ZM718.488 68.1763V92.749H721.764C724.468 92.749 726.545 91.7912 727.995 89.8755C729.445 87.9419 730.17 85.0773 730.17 81.2817V79.5898C730.17 75.8122 729.445 72.9655 727.995 71.0498C726.545 69.1341 724.432 68.1763 721.657 68.1763H718.488ZM773.819 83.4302H758.995V92.749H776.504V100H749.568V60.8984H776.558V68.1763H758.995V76.4209H773.819V83.4302Z" fill="#453730"/>
</svg>
