<svg xmlns="http://www.w3.org/2000/svg" id="b143eb5c-1646-401d-af9e-18dec362a251" x="0" y="0" version="1.1" viewBox="0 0 500 500" xml:space="preserve">
  <style>
    .st0{fill:#ff4f00}.st1{opacity:.1;enable-background:new}.st2{fill:#a0616a}.st3{fill:#2f2e41}.st4{fill:#8550c2}
  </style>
  <path d="M450 201.3v196.2l-65.4 54.1H50V245.9l97.6-44.6z" class="st0"/>
  <path d="M450 201.3v.8l-23.5 15.7-41.9 28.1H50l97.6-44.6z" class="st1"/>
  <path d="M450 201.3v196.2l-65.4 54.1.5-206.2 41.4-27.6 23.1-16.5z" class="st1"/>
  <path d="M361.8 228.4H158.1l15.1-8.6h195.3z"/>
  <path d="M302.2 107.1S296.9 92 293 96.8s5.9 12.7 5.9 12.7l3.3-2.4z" class="st2"/>
  <path d="M327.3 92.3l-3.2 1.2s-1.5 6.8-.9 8c.6 1.2.9.3 0 2.7-.9 2.4-3.5 8.6-3.8 9.5-.3.9-17.1-5.6-17.1-8.9 0 0-3.5 4.1-5.3 5 0 0 19.5 14.2 22.2 16s4.1.9 6.5-1.2c2.4-2.1 12.4-19.2 12.4-19.2l-10.8-13.1z" class="st0"/>
  <path d="M318.8 197.3s.3 3.3.9 3.5c.6.3 5 7.7 0 9.2s-8 .9-9.2 1.5-21.9 1.8-22.2-1.5c-.3-3.3 10.1-3.8 10.1-3.8s9.5-6.2 10.9-9.5c1.5-3.3 9.5.6 9.5.6z" class="st3"/>
  <path d="M378.8 203.2s7.1 12.1 5.3 13.6-19 6.9-21.6 7.1c-3.3.3-5.6-2.4-3-3.8 2.7-1.5 8.3-7.7 8.3-9.8V205l11-1.8z" class="st4"/>
  <path d="M385.6 124s6.2 7.7-3.5 20.1l-16.3 20.7s10.1 16 10.3 24.2c.3 8.3 2.4 6.5 3 10.1.6 3.5 3.3 1.8 1.2 4.4-2.1 2.7-9.8 5-12.1 3a7.7 7.7 0 01-2.4-5.9c0-1.2-4.1-8-4.4-10.1-.3-2.1-11.2-18.9-11.2-18.9s-3.5-10.1.6-15.7 6.9-13.6 6.9-13.6-12.2 14.8-20.8 18.3c0 0-3.3.6-2.7 2.1.6 1.5 0 2.4-.9 3.8-.9 1.5-7.1 18.6-9.2 23.1-2.1 4.4-1.2 7.1-3.5 8.6-2.4 1.5-13 .3-13-1.2s1.5-5.3 2.4-7.4c.9-2.1 8-26 7.4-30.2-.6-4.1.3-9.8 4.7-12.1 4.4-2.4 26.9-21.6 28.1-21.6s35.4-1.7 35.4-1.7z" class="st4"/>
  <circle cx="326.1" cy="65.1" r="12.4" class="st2"/>
  <path d="M336.2 66.3s3.8 6.8 8.6 7.7c4.7.9-12.4 14.5-12.4 14.5s-4.1-13-7.7-13.6c-3.6-.6 11.5-8.6 11.5-8.6z" class="st2"/>
  <path d="M324.1 94.1c0 3.8 11.5 14.8 11.5 14.8l10.9 9.2s.3 3.3 1.5 3.5c1.2.3 2.7.3 1.5 2.1-1.2 1.8-4.1 5.6-1.5 6.2.8.1 1.6.2 2.4.2.7 0 1.5.1 2.5.1 2.2.1 4.9.1 7.9.1h2.6c11.2-.2 24.1-1.5 23.1-5.7-1.8-7.1-.6-9.5-4.4-13.3-3.8-3.8-10.1-17.1-10.1-17.1s-12.4-21-22.8-21l-2.1-.6c-2-.5-4.2.3-5.4 2.1-2.1 3.2-5.3 7.9-7.3 9.4-3 2.4-3.4.7-3.4.7s-6.9 5.5-6.9 9.3z" class="st0"/>
  <path d="M350.4 139s-8.6 13.3-3.3 15.7c5.3 2.4 8.3-13.9 8.3-13.9l-5-1.8z" class="st2"/>
  <path d="M334.3 63.7c-.5-.1-.6-.7-.7-1.1-.4-2.5-2.3-4.9-4.9-5.4-1-.1-2 0-2.9.2-1.3.4-2.6 1-3.7 1.8-.5.5-1.2.9-1.9 1.2-.5.1-2.4 1-2.9 1.2-1 .3-1.9 1.4-2.9 1.2-1-.2-1.4-1.4-1.5-2.4-.4-2.3.9-5.7 2.3-7.7 1-1.5 2.7-2.3 4.4-2.8 2-.6 4-1 6-1.2 2.8-.3 5.6-.5 8.3.4 2.6.9 5.1 2.9 5.6 5.7.1.6.1 1.2.2 1.7.3 1.4 1.2 2.5 1.8 3.8.8 1.9.7 4.1-.2 6-.7 1.5-2 2.9-1.7 4.5l-2.3-1.8c-.7-.4-1-1.2-.8-1.9l.3-2.9c.1-.5.1-1.1-.1-1.5-1.2-1.8-1.6 1.1-2.4 1z" class="st3"/>
  <path d="M355.7 118.6l-2.8 11.6c2.8.1 6.5.2 10.5.1 1-3 1.9-6.1 2.7-9 2.7-10.6-1.8-26.9-4.1-34.6-2.4-7.7-8.3-9.8-8.3-9.8-2.4.9-4.7 2-6.8 3.5-3.9 2.8 8.8 38.2 8.8 38.2z" class="st1"/>
  <path d="M353.3 118l-2.9 12.1c.7 0 1.5.1 2.5.1 2.2.1 4.9.1 7.9.1 1.1-3.2 2.1-6.5 2.9-9.6 2.7-10.6-1.8-26.9-4.1-34.6-2.4-7.7-7.5.7-7.5.7s2.1-5-1.8-2.4c-3.9 2.8 3 33.6 3 33.6z" class="st1"/>
  <path d="M352.5 76.4s5.9 2.1 8.3 9.8c2.4 7.7 6.8 23.9 4.1 34.6-2.7 10.6-8.3 23.9-8.3 23.9s-5.6-4.1-7.7-3.3l5.6-23.4s-12.7-35.5-8.9-38.1c2.1-1.5 4.4-2.7 6.9-3.5z" class="st0"/>
  <path fill="#f2f2f2" d="M356.9 224.7L275.1 54.2l-136.8 65.6 50.3 104.9z"/>
  <path d="M171.9 138.3h80.6v5h-80.6z" transform="rotate(-25.631 212.18 140.8)"/>
  <path d="M191.1 178.4h80.6v5h-80.6z" transform="rotate(-25.631 231.419 180.883)"/>
  <path d="M265.1 100.9h20v20h-20z" class="st0" transform="rotate(-25.631 275.182 110.87)"/>
  <path d="M284.4 141h20v20h-20z" class="st0" transform="rotate(-25.631 294.42 150.954)"/>
  <path d="M281.1 85l-7.4 21.2-10.1-3.6-1.3 3.9 13.9 4.9 8.8-25zM300.3 125.1l-7.4 21.1-10-3.5-1.4 3.9 13.9 4.9 8.8-25z"/>
</svg>